M48
; DRILL file {KiCad 7.0.5-4d25ed1034~172~ubuntu22.04.1} date Mi 12 Jul 2023 12:48:47
; FORMAT={-:-/ absolute / inch / decimal}
; #@! TF.CreationDate,2023-07-12T12:48:47+02:00
; #@! TF.GenerationSoftware,Kicad,Pcbnew,7.0.5-4d25ed1034~172~ubuntu22.04.1
; #@! TF.FileFunction,Plated,1,4,PTH
FMAT,2
INCH
; #@! TA.AperFunction,Plated,PTH,ViaDrill
T1C0.0079
; #@! TA.AperFunction,Plated,PTH,ComponentDrill
T2C0.0079
; #@! TA.AperFunction,Plated,PTH,ComponentDrill
T3C0.0331
%
G90
G05
T1
X-0.6496Y1.1772
X-0.6496Y1.0591
X-0.6496Y0.9409
X-0.6496Y0.8228
X-0.6496Y0.4685
X-0.6496Y0.3504
X-0.6496Y0.2323
X-0.6496Y0.1142
X-0.6496Y-0.0039
X-0.6496Y-0.122
X-0.6496Y-0.2402
X-0.6496Y-0.3583
X-0.6496Y-0.4764
X-0.6496Y-0.8307
X-0.6496Y-0.9488
X-0.6496Y-1.0669
X-0.6496Y-1.185
X-0.5197Y1.0709
X-0.5197Y0.8504
X-0.5197Y0.4488
X-0.5197Y0.2008
X-0.4803Y1.2008
X-0.4803Y0.5591
X-0.4646Y0.7283
X-0.3937Y1.0512
X-0.3937Y0.9882
X-0.3937Y0.9248
X-0.3937Y0.8622
X-0.3937Y0.7988
X-0.3937Y0.7402
X-0.3937Y0.6181
X-0.3937Y0.5118
X-0.3937Y0.4488
X-0.3937Y0.3854
X-0.3937Y0.3228
X-0.3937Y0.2594
X-0.3937Y-0.2087
X-0.3937Y-0.2677
X-0.3937Y-0.3303
X-0.3937Y-0.3937
X-0.3937Y-0.4563
X-0.3937Y-0.5197
X-0.3937Y-0.6339
X-0.3937Y-0.748
X-0.3937Y-0.811
X-0.3937Y-0.8697
X-0.3937Y-0.9331
X-0.3937Y-0.9957
X-0.3937Y-1.0591
X-0.3898Y0.2047
X-0.3583Y-0.3307
X-0.3583Y-0.8701
X-0.3504Y-0.5748
X-0.3346Y1.0512
X-0.3346Y0.5118
X-0.3346Y-0.311
X-0.3346Y-0.8504
X-0.3307Y0.1417
X-0.3307Y-0.748
X-0.3305Y-0.2087
X-0.3268Y0.7402
X-0.3268Y0.2008
X-0.3268Y-0.5193
X-0.3268Y-1.0586
X-0.3228Y-1.2126
X-0.3189Y1.0079
X-0.3189Y0.4724
X-0.315Y0.7126
X-0.315Y0.6654
X-0.315Y0.5866
X-0.315Y0.5394
X-0.2992Y-0.6142
X-0.2913Y-0.311
X-0.2913Y-0.4488
X-0.2913Y-0.8504
X-0.2913Y-0.9882
X-0.2861Y-0.0088
X-0.282Y0.0183
X-0.2795Y-0.0433
X-0.2717Y0.0433
X-0.2677Y-0.2087
X-0.2677Y-0.6811
X-0.2635Y-0.748
X-0.2603Y-0.0695
X-0.2598Y-0.5197
X-0.2598Y-1.0591
X-0.2559Y0.0984
X-0.252Y-0.4488
X-0.252Y-0.4882
X-0.252Y-0.9882
X-0.252Y-1.0276
X-0.2492Y0.0484
X-0.248Y-0.311
X-0.248Y-0.8504
X-0.2402Y0.0787
X-0.2323Y0.7126
X-0.2323Y0.6654
X-0.2323Y0.5866
X-0.2323Y0.5394
X-0.2323Y-0.4685
X-0.2323Y-1.0079
X-0.2283Y-0.0945
X-0.2244Y0.7913
X-0.2244Y0.252
X-0.2244Y0.0591
X-0.2124Y1.0508
X-0.2124Y0.5114
X-0.2092Y0.5622
X-0.2087Y0.7402
X-0.2087Y0.689
X-0.2087Y0.2008
X-0.2087Y-0.1614
X-0.207Y-0.1851
X-0.1979Y-0.0927
X-0.1969Y-0.2087
X-0.1969Y-0.6969
X-0.1969Y-0.748
X-0.1963Y-0.5701
X-0.1931Y-0.5193
X-0.1931Y-1.0586
X-0.1905Y-0.1369
X-0.1872Y-0.2358
X-0.185Y0.1614
X-0.1811Y-0.2598
X-0.1811Y-0.7992
X-0.1732Y1.0
X-0.1732Y0.4606
X-0.1732Y-0.5472
X-0.1732Y-0.5945
X-0.1732Y-0.6732
X-0.1732Y-0.7205
X-0.1714Y-0.0814
X-0.1693Y-0.122
X-0.1589Y0.1693
X-0.1575Y0.8425
X-0.1575Y0.3031
X-0.1562Y-0.0509
X-0.1535Y1.2244
X-0.1535Y1.1457
X-0.1535Y1.0197
X-0.1535Y0.9803
X-0.1535Y0.4803
X-0.1535Y0.4409
X-0.1496Y-0.0118
X-0.1457Y1.0508
X-0.1457Y0.7402
X-0.1457Y0.5114
X-0.1378Y0.2047
X-0.1309Y0.1715
X-0.1299Y0.6693
X-0.126Y-0.0157
X-0.1142Y0.9803
X-0.1142Y0.8425
X-0.1142Y0.4409
X-0.1142Y0.3031
X-0.1102Y0.5866
X-0.1063Y0.1654
X-0.1024Y-0.0079
X-0.0906Y-0.5472
X-0.0906Y-0.5945
X-0.0906Y-0.6732
X-0.0906Y-0.7205
X-0.0866Y0.1535
X-0.0866Y-0.4764
X-0.0866Y-1.0157
X-0.0827Y1.0512
X-0.0827Y0.5118
X-0.0827Y0.0079
X-0.0821Y-0.1853
X-0.0787Y-0.2087
X-0.0787Y-0.748
X-0.075Y0.7402
X-0.075Y0.2008
X-0.0709Y0.8425
X-0.0709Y0.3031
X-0.0709Y0.1378
X-0.0709Y-0.5197
X-0.0709Y-1.0591
X-0.0669Y1.2244
X-0.0669Y1.1457
X-0.0591Y0.1142
X-0.0581Y-0.1844
X-0.0551Y0.0906
X-0.0551Y0.0669
X-0.0512Y0.622
X-0.0472Y0.8622
X-0.0472Y0.3228
X-0.0433Y0.1654
X-0.0354Y0.126
X-0.0314Y-0.1779
X-0.0236Y-0.5787
X-0.0157Y0.2087
X-0.0118Y1.0508
X-0.0118Y0.9685
X-0.0118Y0.874
X-0.0118Y0.7988
X-0.0118Y0.7402
X-0.0118Y0.5114
X-0.0118Y0.4685
X-0.0118Y0.4252
X-0.0118Y0.3386
X-0.0118Y0.2594
X-0.0118Y-0.2087
X-0.0118Y-0.2673
X-0.0118Y-0.3307
X-0.0118Y-0.3933
X-0.0118Y-0.4567
X-0.0118Y-0.5197
X-0.0118Y-0.748
X-0.0118Y-0.8067
X-0.0118Y-0.8701
X-0.0118Y-0.9327
X-0.0118Y-0.9961
X-0.0118Y-1.0591
X-0.0105Y0.1107
X-0.0099Y-0.1621
X-0.0081Y0.1339
X-0.0081Y0.0853
X0.0Y-0.6811
X0.005Y-0.1389
X0.0057Y0.1565
X0.0076Y-0.0871
X0.0096Y-0.1131
X0.0197Y1.2244
X0.0197Y1.1457
X0.0256Y0.1721
X0.0276Y0.5984
X0.0323Y-0.171
X0.0328Y-0.0788
X0.0394Y-0.122
X0.0472Y1.0512
X0.0472Y0.9882
X0.0472Y0.9248
X0.0472Y0.8622
X0.0472Y0.7988
X0.0472Y0.7402
X0.0472Y0.6693
X0.0472Y0.5118
X0.0472Y0.4488
X0.0472Y0.3854
X0.0472Y0.3228
X0.0472Y0.2594
X0.0472Y-0.2087
X0.0472Y-0.2677
X0.0472Y-0.3303
X0.0472Y-0.3937
X0.0472Y-0.4563
X0.0472Y-0.5197
X0.0472Y-0.748
X0.0472Y-0.8071
X0.0472Y-0.8697
X0.0472Y-0.9331
X0.0472Y-0.9957
X0.0472Y-1.0591
X0.0491Y0.1857
X0.0512Y0.2126
X0.0544Y-0.0903
X0.0551Y-1.2126
X0.0573Y-0.0654
X0.0594Y-0.1163
X0.0669Y-0.6417
X0.072Y0.1894
X0.0731Y-0.1382
X0.0748Y0.2905
X0.0755Y0.2671
X0.0792Y0.2404
X0.0827Y-0.3307
X0.0827Y-0.8701
X0.09Y0.0098
X0.0902Y-0.1571
X0.0906Y-0.5748
X0.0948Y0.2194
X0.0989Y0.1851
X0.1063Y1.2244
X0.1063Y1.1457
X0.1063Y1.0512
X0.1063Y0.5118
X0.1063Y-0.311
X0.1063Y-0.8504
X0.1105Y-0.2087
X0.1142Y0.7402
X0.1142Y0.2008
X0.1142Y-0.5193
X0.1142Y-0.748
X0.1142Y-1.0586
X0.118Y0.0172
X0.1197Y-0.1671
X0.122Y1.0079
X0.122Y0.4685
X0.126Y0.7126
X0.126Y0.6654
X0.126Y0.5866
X0.126Y0.5394
X0.1422Y0.0324
X0.1492Y-0.1699
X0.1496Y-0.311
X0.1496Y-0.4488
X0.1496Y-0.8504
X0.1496Y-0.9882
X0.1574Y0.0553
X0.1654Y-0.6693
X0.1693Y0.0787
X0.1693Y-0.5197
X0.1763Y-0.1612
X0.1772Y-1.0591
X0.1774Y-0.748
X0.1811Y-0.6024
X0.185Y-0.2087
X0.189Y-0.4488
X0.189Y-0.4882
X0.189Y-0.9882
X0.189Y-1.0276
X0.1901Y0.0915
X0.1929Y-0.311
X0.1929Y-0.8504
X0.2008Y-0.1496
X0.2087Y0.7126
X0.2087Y0.6654
X0.2087Y0.5866
X0.2087Y0.5394
X0.2087Y-0.4685
X0.2087Y-1.0079
X0.2126Y0.1181
X0.2155Y0.2218
X0.2165Y0.7913
X0.2165Y0.252
X0.2168Y0.0898
X0.2194Y-0.1686
X0.2286Y1.0508
X0.2286Y0.5114
X0.2309Y-0.0459
X0.2317Y0.5622
X0.2323Y0.7402
X0.2323Y0.689
X0.2323Y0.2008
X0.237Y0.1286
X0.2378Y-0.1851
X0.2393Y0.1761
X0.2417Y0.0816
X0.2441Y0.1535
X0.2441Y-0.2087
X0.2441Y-0.6969
X0.2441Y-0.748
X0.2447Y-0.5701
X0.2478Y-0.5193
X0.2478Y-1.0586
X0.2487Y-0.0624
X0.2573Y-0.2308
X0.2598Y-0.2598
X0.2598Y-0.7992
X0.2638Y0.0669
X0.2675Y-0.0825
X0.2677Y1.0
X0.2677Y0.4606
X0.2677Y-0.5472
X0.2677Y-0.5945
X0.2677Y-0.6732
X0.2677Y-0.7205
X0.2717Y-0.0315
X0.2805Y0.041
X0.2818Y-0.0069
X0.2835Y0.8425
X0.2835Y0.3031
X0.2868Y0.0178
X0.2874Y1.0197
X0.2874Y0.9803
X0.2874Y0.4803
X0.2874Y0.4409
X0.2874Y-0.0984
X0.2953Y1.0508
X0.2953Y0.5114
X0.2953Y0.1969
X0.2992Y0.7402
X0.3156Y-0.1129
X0.3268Y0.9803
X0.3268Y0.8425
X0.3268Y0.4409
X0.3268Y0.3031
X0.3307Y0.6693
X0.3307Y0.5827
X0.3416Y-0.127
X0.3504Y-0.1496
X0.3504Y-0.5472
X0.3504Y-0.5945
X0.3504Y-0.6732
X0.3504Y-0.7205
X0.3543Y-0.4764
X0.3543Y-1.0157
X0.3566Y-0.1803
X0.3583Y0.5118
X0.3622Y1.0512
X0.3622Y-0.0433
X0.3622Y-0.2087
X0.3622Y-0.748
X0.3659Y0.7402
X0.3659Y0.2008
X0.3701Y0.8425
X0.3701Y0.3031
X0.3701Y0.0984
X0.3701Y-0.5197
X0.3701Y-1.0591
X0.3937Y0.8622
X0.3937Y0.3228
X0.4016Y1.2047
X0.4055Y-1.2165
X0.4252Y0.2047
X0.4291Y1.0508
X0.4291Y0.9843
X0.4291Y0.9248
X0.4291Y0.8583
X0.4291Y0.7988
X0.4291Y0.7402
X0.4291Y0.622
X0.4291Y0.5114
X0.4291Y0.4449
X0.4291Y0.3854
X0.4291Y0.2594
X0.4291Y-0.2087
X0.4291Y-0.2673
X0.4291Y-0.3307
X0.4291Y-0.3933
X0.4291Y-0.4567
X0.4291Y-0.5197
X0.4291Y-0.6339
X0.4291Y-0.748
X0.4291Y-0.8067
X0.4291Y-0.8701
X0.4291Y-0.9327
X0.4291Y-0.9961
X0.4291Y-1.0591
X0.4331Y0.3189
X0.4881Y-0.811
X0.4882Y-0.8976
X0.4882Y-0.9843
X0.4882Y-1.0709
X0.5Y-0.7126
X0.5118Y-0.5512
X0.5276Y1.1614
X0.5276Y-0.4488
X0.5354Y0.8504
X0.5394Y0.2165
X0.5433Y-0.1969
X0.5551Y1.0039
X0.5591Y0.4606
X0.563Y-0.811
X0.563Y-0.8976
X0.563Y-0.9843
X0.563Y-1.0709
X0.6496Y1.1772
X0.6496Y1.0591
X0.6496Y0.9409
X0.6496Y0.8228
X0.6496Y0.4685
X0.6496Y0.3504
X0.6496Y0.2323
X0.6496Y0.1142
X0.6496Y-0.0039
X0.6496Y-0.122
X0.6496Y-0.2402
X0.6496Y-0.3583
X0.6496Y-0.4764
X0.6496Y-0.8307
X0.6496Y-0.9488
X0.6496Y-1.0669
T2
X-0.3499Y0.9326
X-0.3499Y0.9113
X-0.3499Y0.3932
X-0.3499Y0.3719
X-0.3204Y0.933
X-0.3204Y0.3936
X-0.2912Y0.933
X-0.2912Y0.3936
X-0.2908Y0.9117
X-0.2908Y0.3723
X-0.2664Y0.8664
X-0.2664Y0.8389
X-0.2664Y0.3271
X-0.2664Y0.2995
X-0.233Y0.8393
X-0.233Y0.2999
X-0.2044Y-0.3074
X-0.2044Y-0.8468
X-0.204Y-0.3349
X-0.204Y-0.8743
X-0.2015Y0.8664
X-0.2015Y0.3271
X-0.2011Y0.8389
X-0.2011Y0.2995
X-0.1725Y-0.3078
X-0.1725Y-0.8471
X-0.1391Y-0.3074
X-0.1391Y-0.3349
X-0.1391Y-0.8468
X-0.1391Y-0.8743
X-0.1147Y-0.3802
X-0.1147Y-0.9196
X-0.1143Y-0.4015
X-0.1143Y-0.9408
X-0.0851Y-0.4015
X-0.0851Y-0.9408
X-0.0556Y-0.3798
X-0.0556Y-0.4011
X-0.0556Y-0.9192
X-0.0556Y-0.9405
X0.091Y0.9326
X0.091Y0.9113
X0.091Y0.3932
X0.091Y0.3719
X0.1206Y0.933
X0.1206Y0.3936
X0.1497Y0.933
X0.1497Y0.3936
X0.1501Y0.9117
X0.1501Y0.3723
X0.1745Y0.8664
X0.1745Y0.8389
X0.1745Y0.3271
X0.1745Y0.2995
X0.208Y0.8393
X0.208Y0.2999
X0.2365Y-0.3074
X0.2365Y-0.8468
X0.2369Y-0.3349
X0.2369Y-0.8743
X0.2395Y0.8664
X0.2395Y0.3271
X0.2399Y0.8389
X0.2399Y0.2995
X0.2684Y-0.3078
X0.2684Y-0.8471
X0.3019Y-0.3074
X0.3019Y-0.3349
X0.3019Y-0.8468
X0.3019Y-0.8743
X0.3263Y-0.3802
X0.3263Y-0.9196
X0.3267Y-0.4015
X0.3267Y-0.9408
X0.3558Y-0.4015
X0.3558Y-0.9408
X0.3853Y-0.3798
X0.3853Y-0.4011
X0.3853Y-0.9192
X0.3853Y-0.9405
T3
X-0.55Y-1.1705
X-0.55Y-1.2705
X-0.5Y-1.2205
X-0.45Y-1.1705
X-0.45Y-1.2705
X-0.3217Y1.2705
X-0.3217Y1.1705
X-0.2717Y1.2205
X-0.2217Y1.2705
X-0.2217Y1.1705
X-0.1839Y-1.1705
X-0.1839Y-1.2705
X-0.1339Y-1.2205
X-0.0839Y-1.1705
X-0.0839Y-1.2705
X0.1744Y1.2705
X0.1744Y1.1705
X0.2098Y-1.1705
X0.2098Y-1.2705
X0.2244Y1.2205
X0.2598Y-1.2205
X0.2744Y1.2705
X0.2744Y1.1705
X0.3098Y-1.1705
X0.3098Y-1.2705
X0.513Y-1.1705
X0.513Y-1.2705
X0.563Y-1.2205
X0.613Y-1.1705
X0.613Y-1.2705
T0
M30
