%TF.GenerationSoftware,KiCad,Pcbnew,7.0.5-4d25ed1034~172~ubuntu22.04.1*%
%TF.CreationDate,2023-07-12T12:46:34+02:00*%
%TF.ProjectId,Chubut_2,43687562-7574-45f3-922e-6b696361645f,rev?*%
%TF.SameCoordinates,Original*%
%TF.FileFunction,Soldermask,Top*%
%TF.FilePolarity,Negative*%
%FSLAX46Y46*%
G04 Gerber Fmt 4.6, Leading zero omitted, Abs format (unit mm)*
G04 Created by KiCad (PCBNEW 7.0.5-4d25ed1034~172~ubuntu22.04.1) date 2023-07-12 12:46:34*
%MOMM*%
%LPD*%
G01*
G04 APERTURE LIST*
%ADD10C,3.200000*%
%ADD11C,2.000000*%
%ADD12C,2.700000*%
%ADD13C,1.240000*%
G04 APERTURE END LIST*
D10*
%TO.C,H3*%
X16500000Y-16500000D03*
%TD*%
D11*
%TO.C,J10*%
X-14000000Y0D03*
%TD*%
%TO.C,J4*%
X2000000Y2500000D03*
%TD*%
%TO.C,J2*%
X-2000000Y-2500000D03*
%TD*%
%TO.C,J15*%
X5500000Y500000D03*
%TD*%
%TO.C,J13*%
X12000000Y0D03*
%TD*%
D10*
%TO.C,H2*%
X-16500000Y-16500000D03*
%TD*%
D11*
%TO.C,J16*%
X14000000Y0D03*
%TD*%
%TO.C,J3*%
X3500000Y-2000000D03*
%TD*%
%TO.C,J14*%
X-5500000Y-500000D03*
%TD*%
D10*
%TO.C,H4*%
X16500000Y16500000D03*
%TD*%
D11*
%TO.C,J12*%
X-10000000Y0D03*
%TD*%
D12*
%TO.C,H5*%
X0Y0D03*
%TD*%
D11*
%TO.C,J5*%
X-3500000Y2000000D03*
%TD*%
D10*
%TO.C,H1*%
X-16500000Y16500000D03*
%TD*%
D13*
%TO.C,J6*%
X-3400000Y-31000000D03*
X-2130000Y-32270000D03*
X-2130000Y-29730000D03*
X-4670000Y-32270000D03*
X-4670000Y-29730000D03*
%TD*%
%TO.C,J1*%
X14300000Y-31000000D03*
X15570000Y-32270000D03*
X15570000Y-29730000D03*
X13030000Y-32270000D03*
X13030000Y-29730000D03*
%TD*%
%TO.C,J8*%
X5700000Y31000000D03*
X4430000Y32270000D03*
X4430000Y29730000D03*
X6970000Y32270000D03*
X6970000Y29730000D03*
%TD*%
%TO.C,J11*%
X-12700000Y-31000000D03*
X-11430000Y-32270000D03*
X-11430000Y-29730000D03*
X-13970000Y-32270000D03*
X-13970000Y-29730000D03*
%TD*%
%TO.C,J9*%
X-6900000Y31000000D03*
X-8170000Y32270000D03*
X-8170000Y29730000D03*
X-5630000Y32270000D03*
X-5630000Y29730000D03*
%TD*%
%TO.C,J7*%
X6600000Y-31000000D03*
X7870000Y-32270000D03*
X7870000Y-29730000D03*
X5330000Y-32270000D03*
X5330000Y-29730000D03*
%TD*%
M02*
