%TF.GenerationSoftware,KiCad,Pcbnew,7.0.5-4d25ed1034~172~ubuntu22.04.1*%
%TF.CreationDate,2023-07-12T12:46:34+02:00*%
%TF.ProjectId,Chubut_2,43687562-7574-45f3-922e-6b696361645f,rev?*%
%TF.SameCoordinates,Original*%
%TF.FileFunction,Copper,L1,Top*%
%TF.FilePolarity,Positive*%
%FSLAX46Y46*%
G04 Gerber Fmt 4.6, Leading zero omitted, Abs format (unit mm)*
G04 Created by KiCad (PCBNEW 7.0.5-4d25ed1034~172~ubuntu22.04.1) date 2023-07-12 12:46:34*
%MOMM*%
%LPD*%
G01*
G04 APERTURE LIST*
%TA.AperFunction,ComponentPad*%
%ADD10C,0.450000*%
%TD*%
%TA.AperFunction,ComponentPad*%
%ADD11C,1.240000*%
%TD*%
%TA.AperFunction,ViaPad*%
%ADD12C,0.500000*%
%TD*%
G04 APERTURE END LIST*
D10*
%TO.P,U1,2,GND*%
%TO.N,GND*%
X8297500Y-10197500D03*
X9037500Y-10197500D03*
X9787500Y-10187500D03*
X8287500Y-9657500D03*
X9787500Y-9647500D03*
X6017500Y-8507500D03*
X7667500Y-8507500D03*
X6817500Y-7817500D03*
X6007500Y-7807500D03*
X7667500Y-7807500D03*
%TD*%
%TO.P,U3,2,GND*%
%TO.N,GND*%
X3802500Y9997500D03*
X3062500Y9997500D03*
X2312500Y9987500D03*
X3812500Y9457500D03*
X2312500Y9447500D03*
X6082500Y8307500D03*
X4432500Y8307500D03*
X5282500Y7617500D03*
X6092500Y7607500D03*
X4432500Y7607500D03*
%TD*%
D11*
%TO.P,J6,1,In*%
%TO.N,/CH1/Out*%
X-3400000Y-31000000D03*
%TO.P,J6,2,Ext*%
%TO.N,GND*%
X-2130000Y-32270000D03*
X-2130000Y-29730000D03*
X-4670000Y-32270000D03*
X-4670000Y-29730000D03*
%TD*%
%TO.P,J1,1,In*%
%TO.N,/POWER*%
X14300000Y-31000000D03*
%TO.P,J1,2,Ext*%
%TO.N,GND*%
X15570000Y-32270000D03*
X15570000Y-29730000D03*
X13030000Y-32270000D03*
X13030000Y-29730000D03*
%TD*%
D10*
%TO.P,U7,2,GND*%
%TO.N,GND*%
X-2902500Y-10197500D03*
X-2162500Y-10197500D03*
X-1412500Y-10187500D03*
X-2912500Y-9657500D03*
X-1412500Y-9647500D03*
X-5182500Y-8507500D03*
X-3532500Y-8507500D03*
X-4382500Y-7817500D03*
X-5192500Y-7807500D03*
X-3532500Y-7807500D03*
%TD*%
D11*
%TO.P,J8,1,In*%
%TO.N,/CH3/Out*%
X5700000Y31000000D03*
%TO.P,J8,2,Ext*%
%TO.N,GND*%
X4430000Y32270000D03*
X4430000Y29730000D03*
X6970000Y32270000D03*
X6970000Y29730000D03*
%TD*%
D10*
%TO.P,U8,2,GND*%
%TO.N,GND*%
X-2902500Y-23897500D03*
X-2162500Y-23897500D03*
X-1412500Y-23887500D03*
X-2912500Y-23357500D03*
X-1412500Y-23347500D03*
X-5182500Y-22207500D03*
X-3532500Y-22207500D03*
X-4382500Y-21517500D03*
X-5192500Y-21507500D03*
X-3532500Y-21507500D03*
%TD*%
%TO.P,U6,2,GND*%
%TO.N,GND*%
X-7397500Y23697500D03*
X-8137500Y23697500D03*
X-8887500Y23687500D03*
X-7387500Y23157500D03*
X-8887500Y23147500D03*
X-5117500Y22007500D03*
X-6767500Y22007500D03*
X-5917500Y21317500D03*
X-5107500Y21307500D03*
X-6767500Y21307500D03*
%TD*%
D11*
%TO.P,J11,1,In*%
%TO.N,/HV1*%
X-12700000Y-31000000D03*
%TO.P,J11,2,Ext*%
%TO.N,GND*%
X-11430000Y-32270000D03*
X-11430000Y-29730000D03*
X-13970000Y-32270000D03*
X-13970000Y-29730000D03*
%TD*%
%TO.P,J9,1,In*%
%TO.N,/CH4/Out*%
X-6900000Y31000000D03*
%TO.P,J9,2,Ext*%
%TO.N,GND*%
X-8170000Y32270000D03*
X-8170000Y29730000D03*
X-5630000Y32270000D03*
X-5630000Y29730000D03*
%TD*%
D10*
%TO.P,U4,2,GND*%
%TO.N,GND*%
X3802500Y23697500D03*
X3062500Y23697500D03*
X2312500Y23687500D03*
X3812500Y23157500D03*
X2312500Y23147500D03*
X6082500Y22007500D03*
X4432500Y22007500D03*
X5282500Y21317500D03*
X6092500Y21307500D03*
X4432500Y21307500D03*
%TD*%
D11*
%TO.P,J7,1,In*%
%TO.N,/CH2/Out*%
X6600000Y-31000000D03*
%TO.P,J7,2,Ext*%
%TO.N,GND*%
X7870000Y-32270000D03*
X7870000Y-29730000D03*
X5330000Y-32270000D03*
X5330000Y-29730000D03*
%TD*%
D10*
%TO.P,U2,2,GND*%
%TO.N,GND*%
X8297500Y-23897500D03*
X9037500Y-23897500D03*
X9787500Y-23887500D03*
X8287500Y-23357500D03*
X9787500Y-23347500D03*
X6017500Y-22207500D03*
X7667500Y-22207500D03*
X6817500Y-21517500D03*
X6007500Y-21507500D03*
X7667500Y-21507500D03*
%TD*%
%TO.P,U5,2,GND*%
%TO.N,GND*%
X-7397500Y9997500D03*
X-8137500Y9997500D03*
X-8887500Y9987500D03*
X-7387500Y9457500D03*
X-8887500Y9447500D03*
X-5117500Y8307500D03*
X-6767500Y8307500D03*
X-5917500Y7617500D03*
X-5107500Y7607500D03*
X-6767500Y7607500D03*
%TD*%
D12*
%TO.N,GND*%
X821308Y-4342476D03*
X10200000Y30600000D03*
X-7161914Y463974D03*
X145850Y3974699D03*
X1200000Y9789694D03*
X-8000000Y14900000D03*
X5300000Y-25600000D03*
X8900000Y-15100000D03*
X16500000Y2900000D03*
X10900000Y21800000D03*
X-1474556Y-4683827D03*
X2406941Y5573237D03*
X-1300000Y15800000D03*
X6800000Y25400000D03*
X6079223Y4472102D03*
X-10000000Y-10000000D03*
X-6400000Y-11400000D03*
X7300000Y11200000D03*
X-4905966Y-26889694D03*
X8300000Y21400000D03*
X14100000Y25500000D03*
X-10000000Y8200000D03*
X4500000Y-26900000D03*
X1200000Y-22089694D03*
X1916936Y6784484D03*
X10900000Y9789694D03*
X1700000Y-16300000D03*
X6040683Y-4700344D03*
X-1400000Y2300000D03*
X-12200000Y30500000D03*
X-1800000Y-13200000D03*
X5805966Y26689694D03*
X2512524Y4701142D03*
X6200000Y3900000D03*
X-2000000Y-5300000D03*
X16500000Y8900000D03*
X1200000Y-13200000D03*
X1200000Y13000000D03*
X-10000000Y15700000D03*
X-12200000Y14200000D03*
X6700000Y1700000D03*
X10900000Y15800000D03*
X4477073Y-4094720D03*
X-3900000Y12200000D03*
X7200000Y7700000D03*
X-4400000Y-13900000D03*
X-400000Y5300000D03*
X1200000Y21900000D03*
X-300000Y-19000000D03*
X3998080Y1405444D03*
X-8300000Y-13189694D03*
X-6330558Y1229262D03*
X10900000Y-22100000D03*
X-5900000Y14900000D03*
X1200000Y20289694D03*
X5300000Y16900000D03*
X10900000Y-16100000D03*
X-13200000Y5100000D03*
X-10000000Y-5300000D03*
X1200000Y8200000D03*
X-3900000Y25900000D03*
X-300000Y26689694D03*
X-2300000Y-13900000D03*
X-16500000Y-27100000D03*
X1000000Y-3100000D03*
X-6400000Y-12400000D03*
X-8300000Y-26889694D03*
X-300000Y10800000D03*
X-4985078Y-14479532D03*
X2900000Y-13189694D03*
X-8300000Y5100000D03*
X10900000Y-6789694D03*
X5900000Y5100000D03*
X-4400000Y-15100000D03*
X-300000Y-22100000D03*
X-11800000Y18500000D03*
X7500000Y5000000D03*
X9294034Y18800000D03*
X4900000Y-7900000D03*
X-1800000Y3500000D03*
X5900000Y18800000D03*
X-10000000Y20289694D03*
X16500000Y-27100000D03*
X5400000Y3000000D03*
X6900000Y-800000D03*
X1200000Y-26900000D03*
X9057791Y-4579220D03*
X11000000Y8100000D03*
X10900000Y11300000D03*
X-300000Y18800000D03*
X-16500000Y20900000D03*
X4800000Y-25100000D03*
X13800000Y-5000000D03*
X12400000Y-25000000D03*
X5805966Y12989694D03*
X4800000Y-26100000D03*
X-16500000Y-30100000D03*
X-5256952Y-4700344D03*
X8900000Y-13900000D03*
X-10000000Y13000000D03*
X12700000Y-18100000D03*
X-10000000Y-13200000D03*
X-16500000Y-100000D03*
X-300000Y-25300000D03*
X10900000Y6589694D03*
X10900000Y-11600000D03*
X-8000000Y13700000D03*
X-4400000Y25400000D03*
X5864502Y-1165704D03*
X-5900000Y13700000D03*
X2700000Y26700000D03*
X-6500000Y2500000D03*
X4300000Y-13200000D03*
X16500000Y-9100000D03*
X2100000Y-8400000D03*
X4700000Y-5300000D03*
X1454460Y-1661214D03*
X2700000Y-7900000D03*
X12400000Y-22800000D03*
X1400000Y-30800000D03*
X1382886Y-2294366D03*
X-10000000Y-11589694D03*
X5500000Y20100000D03*
X2100000Y-22100000D03*
X-10000000Y-16100000D03*
X-1800000Y-26900000D03*
X3200000Y18100000D03*
X9200000Y26700000D03*
X-600000Y-14700000D03*
X3200000Y14900000D03*
X4600000Y-15300000D03*
X8677900Y-3224824D03*
X-2100000Y200000D03*
X1200000Y-25289694D03*
X-5700000Y1500000D03*
X-5900000Y16900000D03*
X3100000Y11900000D03*
X-16500000Y11900000D03*
X16500000Y11900000D03*
X14200000Y11700000D03*
X650536Y4372331D03*
X-6400000Y-26100000D03*
X7125301Y1042069D03*
X16500000Y5900000D03*
X-4700000Y4100000D03*
X9200000Y-19000000D03*
X-6400000Y-25100000D03*
X-300000Y24600000D03*
X1200000Y-10000000D03*
X12400000Y-27200000D03*
X1246984Y4716436D03*
X1856374Y-3511119D03*
X6536194Y-5862041D03*
X-8500000Y13000000D03*
X-6600000Y-13200000D03*
X10900000Y-19000000D03*
X13400000Y29500000D03*
X2805966Y-5300000D03*
X5300000Y13700000D03*
X-1200000Y8200000D03*
X-300000Y-20489694D03*
X2285816Y249253D03*
X2291322Y-3990113D03*
X-8100000Y25600000D03*
X1200000Y-11589694D03*
X-6611347Y-1765822D03*
X127593Y-3527636D03*
X2900000Y-19000000D03*
X-5394034Y26689694D03*
X-2085686Y-4705850D03*
X5500000Y6400000D03*
X-300000Y20289694D03*
X-7266522Y-224234D03*
X1200000Y17000000D03*
X-3300000Y17000000D03*
X10900000Y18800000D03*
X4800000Y-12400000D03*
X4829436Y2324891D03*
X10000000Y8200000D03*
X-8394034Y-5300000D03*
X9400000Y7700000D03*
X6600000Y-20300000D03*
X-1200000Y21900000D03*
X2010532Y6107287D03*
X-5300000Y-4100000D03*
X-10000000Y-8389694D03*
X-4300000Y-3100000D03*
X16500000Y29900000D03*
X-10000000Y23489694D03*
X-10000000Y-25289694D03*
X-3700000Y26689694D03*
X8900000Y-18300000D03*
X-2100000Y26700000D03*
X-8000000Y18100000D03*
X-5300000Y18800000D03*
X16500000Y-6100000D03*
X-8500000Y-7900000D03*
X7300000Y25900000D03*
X9400000Y-26900000D03*
X13600000Y21600000D03*
X-4400000Y-18300000D03*
X6800000Y-17100000D03*
X8900000Y-3800000D03*
X10000000Y21900000D03*
X-2300000Y-17100000D03*
X16500000Y-12100000D03*
X6294034Y-26889694D03*
X10900000Y-5300000D03*
X1200000Y6589694D03*
X-10000000Y-19000000D03*
X6794960Y-2096162D03*
X-2100000Y13000000D03*
X-5025714Y-2354928D03*
X7500000Y12989694D03*
X2900000Y-26889694D03*
X-16500000Y5900000D03*
X-6300000Y-21600000D03*
X9000000Y-25800000D03*
X-205900Y2166239D03*
X500000Y29100000D03*
X-16500000Y23900000D03*
X2300000Y-14600000D03*
X1200000Y25100000D03*
X7600000Y18800000D03*
X-3900000Y24900000D03*
X-3700000Y18800000D03*
X8017219Y-2866956D03*
X-300000Y-11600000D03*
X-5900000Y18100000D03*
X-300000Y-23689694D03*
X10900000Y-23689694D03*
X2700000Y13000000D03*
X-2900000Y21400000D03*
X6800000Y-18300000D03*
X10900000Y-9989694D03*
X-4354022Y-2068634D03*
X-5300000Y17500000D03*
X13000000Y-14000000D03*
X-6100000Y2000000D03*
X-5300000Y5100000D03*
X8400000Y14800000D03*
X-300000Y-9989694D03*
X-7400000Y-21600000D03*
X10900000Y-20489694D03*
X-2600000Y-200000D03*
X-13200000Y11400000D03*
X6600000Y-6600000D03*
X8900000Y-17100000D03*
X10900000Y20289694D03*
X243212Y-2872462D03*
X-2300000Y-18300000D03*
X-9100000Y-8400000D03*
X6315967Y-1584135D03*
X-300000Y6589694D03*
X-300000Y22200000D03*
X16500000Y-3100000D03*
X-2200000Y-25800000D03*
X-5000000Y-17700000D03*
X-1905966Y5100000D03*
X6200000Y-5300000D03*
X3612683Y821843D03*
X-16500000Y-6100000D03*
X3800000Y-7900000D03*
X7300000Y24900000D03*
X10900000Y-8400000D03*
X6214922Y-14479532D03*
X-13200000Y27200000D03*
X-6900000Y1100000D03*
X9000000Y-12100000D03*
X-5000000Y-19000000D03*
X-13200000Y21600000D03*
X-4905966Y-13189694D03*
X-8500000Y26700000D03*
X-16500000Y-3100000D03*
X-2200000Y-12100000D03*
X13400000Y-11400000D03*
X7200000Y21400000D03*
X1200000Y-20500000D03*
X-7100000Y-1100000D03*
X-9100000Y-22100000D03*
X-3968625Y-1292334D03*
X-2800000Y14900000D03*
X6800000Y-15100000D03*
X1300000Y5400000D03*
X10900000Y-13200000D03*
X-5800000Y-2400000D03*
X5100000Y-3800000D03*
X-10000000Y21900000D03*
X13700000Y5500000D03*
X-2700000Y4200000D03*
X-1800000Y21400000D03*
X9400000Y-13200000D03*
X-10000000Y25100000D03*
X-3700000Y12989694D03*
X-10000000Y-23700000D03*
X2700000Y-21600000D03*
X16500000Y-21100000D03*
X5572701Y-4281913D03*
X9100000Y13000000D03*
X5900000Y17500000D03*
X-5700000Y6400000D03*
X1828138Y4812020D03*
X-1800000Y7700000D03*
X10900000Y12989694D03*
X-300000Y-13200000D03*
X1200000Y26700000D03*
X9200000Y-1100000D03*
X-5394034Y12989694D03*
X-300000Y11900000D03*
X-3900000Y11200000D03*
X-1905966Y18800000D03*
X-300000Y-26900000D03*
X-8900000Y-14600000D03*
X-8200000Y-30800000D03*
X-4600000Y-6600000D03*
X0Y-17300000D03*
X10800000Y5200000D03*
X-1500000Y2900000D03*
X-4000000Y21400000D03*
X3100000Y25600000D03*
X-4838521Y-3478085D03*
X8300000Y7700000D03*
X-10000000Y-22089694D03*
X193661Y-2211781D03*
X-10000000Y6589694D03*
X7300000Y12200000D03*
X-4400000Y-17100000D03*
X10900000Y-26900000D03*
X-4755936Y-5988671D03*
X4300000Y2000000D03*
X2700000Y29100000D03*
X-6300000Y-7900000D03*
X-300000Y8600000D03*
X-252297Y-4116743D03*
X5885078Y14279532D03*
X1200000Y-8389694D03*
X-5900000Y-11900000D03*
X6139786Y2071630D03*
X16500000Y23900000D03*
X-7400000Y-7900000D03*
X1200000Y23489694D03*
X-8400000Y3600000D03*
X-8300000Y18800000D03*
X832319Y-2002566D03*
X6294034Y-13189694D03*
X1200000Y-6800000D03*
X-4600000Y-20300000D03*
X3800000Y-21600000D03*
X-10000000Y18800000D03*
X-300000Y-5300000D03*
X10900000Y23489694D03*
X4900000Y-21600000D03*
X-9900000Y5200000D03*
X-6800000Y-17300000D03*
X-3200000Y-400000D03*
X-300000Y-8400000D03*
X7500000Y26689694D03*
X1900419Y7379097D03*
X6800000Y11700000D03*
X2900000Y18800000D03*
X700000Y15200000D03*
X-3900000Y29100000D03*
X5300000Y18100000D03*
X6800000Y-13900000D03*
X-16500000Y2900000D03*
X-4000000Y7700000D03*
X-6800000Y-5300000D03*
X5473599Y5633799D03*
X5300000Y14900000D03*
X4800000Y-11400000D03*
X-797359Y-4518657D03*
X-900000Y3200000D03*
X-1400000Y1700000D03*
X3200000Y13700000D03*
X-4036930Y4299687D03*
X-6600000Y-26900000D03*
X-10000000Y26700000D03*
X-2000000Y-19000000D03*
X3788864Y-4314947D03*
X9400000Y21400000D03*
X2996047Y436446D03*
X7158335Y-174683D03*
X4505966Y-19000000D03*
X-5314922Y14279532D03*
X10300000Y-30900000D03*
X-3325781Y4357038D03*
X-16500000Y-21100000D03*
X-16500000Y-24100000D03*
X9294034Y5100000D03*
X-6694034Y-19000000D03*
X-4400000Y11700000D03*
X-8100000Y12000000D03*
X-7600000Y-15600000D03*
X3040093Y-4243374D03*
X1200000Y-5300000D03*
X1200000Y-19000000D03*
X-10000000Y-26900000D03*
X16500000Y20900000D03*
X-300000Y-6789694D03*
X-205900Y3401192D03*
X16500000Y-24100000D03*
X1200000Y11400000D03*
X16500000Y-100000D03*
X10900000Y-25300000D03*
X-8400000Y-19000000D03*
X-16500000Y-9100000D03*
X-8000000Y16900000D03*
X-3500000Y5200000D03*
X-300000Y12989694D03*
X-5700000Y20100000D03*
X-10000000Y-6800000D03*
X8400000Y17000000D03*
X-2900000Y7700000D03*
X9200000Y-5300000D03*
X7300000Y-2500000D03*
X-10000000Y11400000D03*
X-2300000Y-15100000D03*
X1200000Y18800000D03*
X-16500000Y-12100000D03*
X9400000Y2500000D03*
X-16500000Y29900000D03*
X-1100000Y4200000D03*
X12397667Y-20599341D03*
X6018661Y3266360D03*
X5300000Y-11900000D03*
X-3800000Y-300000D03*
X10900000Y25000000D03*
X6200000Y-19000000D03*
X4200000Y-17000000D03*
X5506633Y2280845D03*
X16500000Y26900000D03*
X-1700000Y29100000D03*
X1200000Y-23700000D03*
X1509516Y-2955047D03*
X-16500000Y8900000D03*
X-8500000Y-21600000D03*
X-5000000Y-5300000D03*
X-267075Y2812391D03*
X3200000Y16900000D03*
X10900000Y26689694D03*
X-10000000Y9789694D03*
X-10000000Y-20600000D03*
X-16500000Y26900000D03*
X6200000Y-17700000D03*
X2900000Y5100000D03*
X-2200000Y3900000D03*
X-5900000Y-25600000D03*
X7284965Y452963D03*
%TO.N,/POWER*%
X2700000Y31100000D03*
X8300000Y24900000D03*
X500000Y31100000D03*
X-1700000Y31100000D03*
X-3900000Y31100000D03*
X14300000Y-22800000D03*
X8300000Y11200000D03*
X-7400000Y-25100000D03*
X14300000Y-20600000D03*
X-7400000Y-11400000D03*
X3800000Y-25100000D03*
X-2900000Y11200000D03*
X14300000Y-27200000D03*
X-2900000Y24900000D03*
X3800000Y-11400000D03*
X14300000Y-25000000D03*
%TD*%
%TA.AperFunction,Conductor*%
%TO.N,GND*%
G36*
X18981987Y32881987D02*
G01*
X19000000Y32838500D01*
X19000000Y-32838500D01*
X18981987Y-32881987D01*
X18938500Y-32900000D01*
X-18938500Y-32900000D01*
X-18981987Y-32881987D01*
X-19000000Y-32838500D01*
X-19000000Y-31000005D01*
X-14325511Y-31000005D01*
X-14309237Y-31206779D01*
X-14305498Y-31254286D01*
X-14245953Y-31502311D01*
X-14148341Y-31737967D01*
X-14015066Y-31955451D01*
X-13849410Y-32149410D01*
X-13655451Y-32315066D01*
X-13437967Y-32448341D01*
X-13202311Y-32545953D01*
X-12954286Y-32605498D01*
X-12954281Y-32605498D01*
X-12954277Y-32605499D01*
X-12700005Y-32625511D01*
X-12700000Y-32625511D01*
X-12699995Y-32625511D01*
X-12445722Y-32605499D01*
X-12445716Y-32605498D01*
X-12445714Y-32605498D01*
X-12197689Y-32545953D01*
X-11962033Y-32448341D01*
X-11924484Y-32425330D01*
X-11744551Y-32315068D01*
X-11744548Y-32315065D01*
X-11550590Y-32149410D01*
X-11384934Y-31955451D01*
X-11384931Y-31955448D01*
X-11251660Y-31737969D01*
X-11251659Y-31737967D01*
X-11154047Y-31502311D01*
X-11154046Y-31502309D01*
X-11154045Y-31502306D01*
X-11094501Y-31254284D01*
X-11094500Y-31254277D01*
X-11074489Y-31000005D01*
X-11074489Y-31000000D01*
X-4525300Y-31000000D01*
X-4506140Y-31206773D01*
X-4449311Y-31406505D01*
X-4356749Y-31592394D01*
X-4231607Y-31758110D01*
X-4078145Y-31898009D01*
X-3901589Y-32007327D01*
X-3707953Y-32082342D01*
X-3503830Y-32120500D01*
X-3503827Y-32120500D01*
X-3296173Y-32120500D01*
X-3296170Y-32120500D01*
X-3092047Y-32082342D01*
X-2898411Y-32007327D01*
X-2721855Y-31898009D01*
X-2721853Y-31898008D01*
X-2568392Y-31758109D01*
X-2443253Y-31592398D01*
X-2443249Y-31592390D01*
X-2350689Y-31406508D01*
X-2350689Y-31406506D01*
X-2293861Y-31206779D01*
X-2293860Y-31206773D01*
X-2274700Y-31000000D01*
X5474700Y-31000000D01*
X5493860Y-31206773D01*
X5493861Y-31206779D01*
X5550689Y-31406506D01*
X5550689Y-31406508D01*
X5643249Y-31592390D01*
X5643253Y-31592398D01*
X5768392Y-31758109D01*
X5921853Y-31898008D01*
X5921855Y-31898009D01*
X6098411Y-32007327D01*
X6292047Y-32082342D01*
X6496170Y-32120500D01*
X6496173Y-32120500D01*
X6703827Y-32120500D01*
X6703830Y-32120500D01*
X6907953Y-32082342D01*
X7101589Y-32007327D01*
X7278145Y-31898009D01*
X7431607Y-31758110D01*
X7556749Y-31592394D01*
X7649311Y-31406505D01*
X7706140Y-31206773D01*
X7725300Y-31000002D01*
X13474308Y-31000002D01*
X13495009Y-31183732D01*
X13503074Y-31206779D01*
X13556077Y-31358254D01*
X13654448Y-31514811D01*
X13785189Y-31645552D01*
X13941746Y-31743923D01*
X14116266Y-31804990D01*
X14162199Y-31810165D01*
X14299997Y-31825692D01*
X14300000Y-31825692D01*
X14300003Y-31825692D01*
X14410240Y-31813270D01*
X14483734Y-31804990D01*
X14658254Y-31743923D01*
X14814811Y-31645552D01*
X14945552Y-31514811D01*
X15043923Y-31358254D01*
X15104990Y-31183734D01*
X15115341Y-31091866D01*
X15125692Y-31000002D01*
X15125692Y-30999997D01*
X15104990Y-30816267D01*
X15096928Y-30793226D01*
X15043923Y-30641746D01*
X14945552Y-30485189D01*
X14814811Y-30354448D01*
X14658254Y-30256077D01*
X14617710Y-30241890D01*
X14483732Y-30195009D01*
X14300003Y-30174308D01*
X14299997Y-30174308D01*
X14116267Y-30195009D01*
X13941748Y-30256076D01*
X13941744Y-30256078D01*
X13785187Y-30354449D01*
X13654449Y-30485187D01*
X13556078Y-30641744D01*
X13556076Y-30641748D01*
X13495009Y-30816267D01*
X13474308Y-30999997D01*
X13474308Y-31000002D01*
X7725300Y-31000002D01*
X7725300Y-31000000D01*
X7706140Y-30793227D01*
X7649311Y-30593495D01*
X7649310Y-30593492D01*
X7649310Y-30593491D01*
X7556750Y-30407609D01*
X7556749Y-30407606D01*
X7556747Y-30407604D01*
X7556746Y-30407601D01*
X7431607Y-30241890D01*
X7278146Y-30101991D01*
X7178386Y-30040223D01*
X7101589Y-29992673D01*
X7101586Y-29992672D01*
X7101585Y-29992671D01*
X6907955Y-29917658D01*
X6826303Y-29902394D01*
X6703830Y-29879500D01*
X6496170Y-29879500D01*
X6394108Y-29898579D01*
X6292044Y-29917658D01*
X6098414Y-29992671D01*
X5921853Y-30101991D01*
X5768392Y-30241890D01*
X5643253Y-30407601D01*
X5643249Y-30407609D01*
X5550689Y-30593491D01*
X5550689Y-30593493D01*
X5493861Y-30793220D01*
X5493860Y-30793226D01*
X5474700Y-31000000D01*
X-2274700Y-31000000D01*
X-2293860Y-30793226D01*
X-2293861Y-30793220D01*
X-2350689Y-30593493D01*
X-2350689Y-30593491D01*
X-2443249Y-30407609D01*
X-2443253Y-30407601D01*
X-2568392Y-30241890D01*
X-2721853Y-30101991D01*
X-2898414Y-29992671D01*
X-3092044Y-29917658D01*
X-3194108Y-29898579D01*
X-3296170Y-29879500D01*
X-3503830Y-29879500D01*
X-3626303Y-29902394D01*
X-3707955Y-29917658D01*
X-3901585Y-29992671D01*
X-3901586Y-29992672D01*
X-3901589Y-29992673D01*
X-3978386Y-30040223D01*
X-4078146Y-30101991D01*
X-4231607Y-30241890D01*
X-4356746Y-30407601D01*
X-4356747Y-30407604D01*
X-4356749Y-30407606D01*
X-4356750Y-30407609D01*
X-4449310Y-30593491D01*
X-4449310Y-30593492D01*
X-4449311Y-30593495D01*
X-4506140Y-30793227D01*
X-4525300Y-31000000D01*
X-11074489Y-31000000D01*
X-11074489Y-30999994D01*
X-11094500Y-30745722D01*
X-11094501Y-30745715D01*
X-11154045Y-30497693D01*
X-11154047Y-30497689D01*
X-11251660Y-30262030D01*
X-11384931Y-30044551D01*
X-11384934Y-30044548D01*
X-11550590Y-29850590D01*
X-11744548Y-29684934D01*
X-11744551Y-29684931D01*
X-11962030Y-29551660D01*
X-12197689Y-29454047D01*
X-12197693Y-29454045D01*
X-12445715Y-29394501D01*
X-12445722Y-29394500D01*
X-12699995Y-29374489D01*
X-12700005Y-29374489D01*
X-12954277Y-29394500D01*
X-12954284Y-29394501D01*
X-13202306Y-29454045D01*
X-13202309Y-29454046D01*
X-13202311Y-29454047D01*
X-13437967Y-29551659D01*
X-13437969Y-29551660D01*
X-13655448Y-29684931D01*
X-13655451Y-29684934D01*
X-13849410Y-29850590D01*
X-13874101Y-29879500D01*
X-14015065Y-30044548D01*
X-14015068Y-30044551D01*
X-14107269Y-30195010D01*
X-14148341Y-30262033D01*
X-14245953Y-30497689D01*
X-14245953Y-30497692D01*
X-14245954Y-30497693D01*
X-14305498Y-30745715D01*
X-14305499Y-30745722D01*
X-14325511Y-30999994D01*
X-14325511Y-31000005D01*
X-19000000Y-31000005D01*
X-19000000Y-27200000D01*
X13844867Y-27200000D01*
X13863303Y-27328226D01*
X13863304Y-27328230D01*
X13917116Y-27446059D01*
X13917118Y-27446063D01*
X14001951Y-27543967D01*
X14110931Y-27614004D01*
X14235228Y-27650500D01*
X14364771Y-27650500D01*
X14364772Y-27650500D01*
X14489069Y-27614004D01*
X14598049Y-27543967D01*
X14682882Y-27446063D01*
X14736697Y-27328226D01*
X14755133Y-27200000D01*
X14736697Y-27071774D01*
X14682882Y-26953937D01*
X14598049Y-26856033D01*
X14598046Y-26856031D01*
X14598045Y-26856030D01*
X14489071Y-26785997D01*
X14489064Y-26785994D01*
X14364772Y-26749500D01*
X14235228Y-26749500D01*
X14110935Y-26785994D01*
X14110928Y-26785997D01*
X14001954Y-26856030D01*
X14001953Y-26856031D01*
X14001951Y-26856032D01*
X14001951Y-26856033D01*
X13917118Y-26953937D01*
X13917117Y-26953938D01*
X13917116Y-26953940D01*
X13863304Y-27071769D01*
X13863303Y-27071773D01*
X13844867Y-27199999D01*
X13844867Y-27200000D01*
X-19000000Y-27200000D01*
X-19000000Y-25100000D01*
X-7855133Y-25100000D01*
X-7836697Y-25228226D01*
X-7782882Y-25346063D01*
X-7698049Y-25443967D01*
X-7589069Y-25514004D01*
X-7464772Y-25550500D01*
X-7464771Y-25550500D01*
X-7335228Y-25550500D01*
X-7210931Y-25514004D01*
X-7156441Y-25478985D01*
X-7101954Y-25443969D01*
X-7101953Y-25443968D01*
X-7101951Y-25443967D01*
X-7017118Y-25346063D01*
X-7016161Y-25343967D01*
X-6963304Y-25228230D01*
X-6963303Y-25228226D01*
X-6944867Y-25100000D01*
X3344867Y-25100000D01*
X3363303Y-25228226D01*
X3363304Y-25228230D01*
X3416161Y-25343967D01*
X3417118Y-25346063D01*
X3501951Y-25443967D01*
X3501953Y-25443968D01*
X3501954Y-25443969D01*
X3556441Y-25478985D01*
X3610931Y-25514004D01*
X3735228Y-25550500D01*
X3864771Y-25550500D01*
X3864772Y-25550500D01*
X3989069Y-25514004D01*
X4098049Y-25443967D01*
X4182882Y-25346063D01*
X4236697Y-25228226D01*
X4255133Y-25100000D01*
X4240755Y-25000000D01*
X13844867Y-25000000D01*
X13863303Y-25128226D01*
X13863304Y-25128230D01*
X13908972Y-25228226D01*
X13917118Y-25246063D01*
X14001951Y-25343967D01*
X14110931Y-25414004D01*
X14235228Y-25450500D01*
X14364771Y-25450500D01*
X14364772Y-25450500D01*
X14489069Y-25414004D01*
X14598049Y-25343967D01*
X14682882Y-25246063D01*
X14736697Y-25128226D01*
X14755133Y-25000000D01*
X14736697Y-24871774D01*
X14728552Y-24853940D01*
X14683838Y-24756031D01*
X14682882Y-24753937D01*
X14598049Y-24656033D01*
X14598046Y-24656031D01*
X14598045Y-24656030D01*
X14489071Y-24585997D01*
X14489064Y-24585994D01*
X14364772Y-24549500D01*
X14235228Y-24549500D01*
X14110935Y-24585994D01*
X14110928Y-24585997D01*
X14001954Y-24656030D01*
X14001953Y-24656031D01*
X14001951Y-24656032D01*
X14001951Y-24656033D01*
X13917118Y-24753937D01*
X13917117Y-24753938D01*
X13917116Y-24753940D01*
X13863304Y-24871769D01*
X13863303Y-24871773D01*
X13844867Y-24999999D01*
X13844867Y-25000000D01*
X4240755Y-25000000D01*
X4236697Y-24971774D01*
X4182882Y-24853937D01*
X4098049Y-24756033D01*
X4098046Y-24756031D01*
X4098045Y-24756030D01*
X3989071Y-24685997D01*
X3989064Y-24685994D01*
X3864772Y-24649500D01*
X3735228Y-24649500D01*
X3610935Y-24685994D01*
X3610928Y-24685997D01*
X3501954Y-24756030D01*
X3501953Y-24756031D01*
X3501951Y-24756032D01*
X3501951Y-24756033D01*
X3417118Y-24853937D01*
X3417117Y-24853938D01*
X3417116Y-24853940D01*
X3363304Y-24971769D01*
X3363303Y-24971773D01*
X3344867Y-25099999D01*
X3344867Y-25100000D01*
X-6944867Y-25100000D01*
X-6944867Y-25099999D01*
X-6963303Y-24971773D01*
X-6963304Y-24971769D01*
X-7017116Y-24853940D01*
X-7017117Y-24853938D01*
X-7017118Y-24853937D01*
X-7101951Y-24756033D01*
X-7101951Y-24756032D01*
X-7101953Y-24756031D01*
X-7101954Y-24756030D01*
X-7210928Y-24685997D01*
X-7210935Y-24685994D01*
X-7335228Y-24649500D01*
X-7464772Y-24649500D01*
X-7589064Y-24685994D01*
X-7589071Y-24685997D01*
X-7698045Y-24756030D01*
X-7698046Y-24756031D01*
X-7698049Y-24756033D01*
X-7782882Y-24853937D01*
X-7836697Y-24971774D01*
X-7855133Y-25100000D01*
X-19000000Y-25100000D01*
X-19000000Y-22800000D01*
X13844867Y-22800000D01*
X13863303Y-22928226D01*
X13863304Y-22928230D01*
X13917116Y-23046059D01*
X13917118Y-23046063D01*
X14001951Y-23143967D01*
X14110931Y-23214004D01*
X14235228Y-23250500D01*
X14364771Y-23250500D01*
X14364772Y-23250500D01*
X14489069Y-23214004D01*
X14598049Y-23143967D01*
X14682882Y-23046063D01*
X14736697Y-22928226D01*
X14755133Y-22800000D01*
X14736697Y-22671774D01*
X14682882Y-22553937D01*
X14598049Y-22456033D01*
X14598046Y-22456031D01*
X14598045Y-22456030D01*
X14489071Y-22385997D01*
X14489064Y-22385994D01*
X14364772Y-22349500D01*
X14235228Y-22349500D01*
X14110935Y-22385994D01*
X14110928Y-22385997D01*
X14001954Y-22456030D01*
X14001953Y-22456031D01*
X14001951Y-22456032D01*
X14001951Y-22456033D01*
X13917118Y-22553937D01*
X13917117Y-22553938D01*
X13917116Y-22553940D01*
X13863304Y-22671769D01*
X13863303Y-22671773D01*
X13844867Y-22799999D01*
X13844867Y-22800000D01*
X-19000000Y-22800000D01*
X-19000000Y-20600000D01*
X13844867Y-20600000D01*
X13863303Y-20728226D01*
X13863304Y-20728230D01*
X13917116Y-20846059D01*
X13917118Y-20846063D01*
X14001951Y-20943967D01*
X14110931Y-21014004D01*
X14235228Y-21050500D01*
X14364771Y-21050500D01*
X14364772Y-21050500D01*
X14489069Y-21014004D01*
X14598049Y-20943967D01*
X14682882Y-20846063D01*
X14736697Y-20728226D01*
X14755133Y-20600000D01*
X14736697Y-20471774D01*
X14682882Y-20353937D01*
X14598049Y-20256033D01*
X14598046Y-20256031D01*
X14598045Y-20256030D01*
X14489071Y-20185997D01*
X14489064Y-20185994D01*
X14364772Y-20149500D01*
X14235228Y-20149500D01*
X14110935Y-20185994D01*
X14110928Y-20185997D01*
X14001954Y-20256030D01*
X14001953Y-20256031D01*
X14001951Y-20256032D01*
X14001951Y-20256033D01*
X13917118Y-20353937D01*
X13917117Y-20353938D01*
X13917116Y-20353940D01*
X13863304Y-20471769D01*
X13863303Y-20471773D01*
X13844867Y-20599999D01*
X13844867Y-20600000D01*
X-19000000Y-20600000D01*
X-19000000Y-16569596D01*
X-18404313Y-16569596D01*
X-18373886Y-16846124D01*
X-18303520Y-17115276D01*
X-18194716Y-17371314D01*
X-18049792Y-17608781D01*
X-17871837Y-17822617D01*
X-17664643Y-18008263D01*
X-17432627Y-18161763D01*
X-17180733Y-18279846D01*
X-16914331Y-18359995D01*
X-16639099Y-18400500D01*
X-16639098Y-18400500D01*
X-16430537Y-18400500D01*
X-16222545Y-18385277D01*
X-15951003Y-18324788D01*
X-15691162Y-18225408D01*
X-15691157Y-18225405D01*
X-15691156Y-18225405D01*
X-15577759Y-18161763D01*
X-15448560Y-18089253D01*
X-15228368Y-17919226D01*
X-15035278Y-17718951D01*
X-15035276Y-17718948D01*
X-15035271Y-17718942D01*
X-14873409Y-17492699D01*
X-14873407Y-17492697D01*
X-14746206Y-17245290D01*
X-14746204Y-17245286D01*
X-14746203Y-17245283D01*
X-14701850Y-17115274D01*
X-14656378Y-16981987D01*
X-14605847Y-16708412D01*
X-14600774Y-16569596D01*
X14595687Y-16569596D01*
X14626114Y-16846126D01*
X14626115Y-16846130D01*
X14696477Y-17115267D01*
X14696479Y-17115274D01*
X14696480Y-17115276D01*
X14805284Y-17371314D01*
X14950208Y-17608781D01*
X15128163Y-17822617D01*
X15335357Y-18008263D01*
X15567373Y-18161763D01*
X15819267Y-18279846D01*
X15968647Y-18324788D01*
X16085659Y-18359992D01*
X16085661Y-18359993D01*
X16085663Y-18359993D01*
X16085669Y-18359995D01*
X16360901Y-18400500D01*
X16360902Y-18400500D01*
X16569463Y-18400500D01*
X16777455Y-18385277D01*
X17048997Y-18324788D01*
X17308838Y-18225408D01*
X17551440Y-18089253D01*
X17771632Y-17919226D01*
X17964722Y-17718951D01*
X18126593Y-17492696D01*
X18253797Y-17245283D01*
X18343621Y-16981986D01*
X18394152Y-16708416D01*
X18404313Y-16430404D01*
X18373886Y-16153876D01*
X18303520Y-15884724D01*
X18194716Y-15628686D01*
X18049792Y-15391219D01*
X17871837Y-15177383D01*
X17664643Y-14991737D01*
X17432627Y-14838237D01*
X17432624Y-14838235D01*
X17180735Y-14720155D01*
X17180725Y-14720151D01*
X16914340Y-14640007D01*
X16914338Y-14640006D01*
X16742539Y-14614723D01*
X16639099Y-14599500D01*
X16430537Y-14599500D01*
X16222554Y-14614722D01*
X16222547Y-14614722D01*
X16222545Y-14614723D01*
X16109051Y-14640005D01*
X15951002Y-14675212D01*
X15691165Y-14774591D01*
X15691156Y-14774594D01*
X15448563Y-14910745D01*
X15448554Y-14910751D01*
X15228367Y-15080775D01*
X15035279Y-15281047D01*
X15035271Y-15281057D01*
X14873409Y-15507300D01*
X14873407Y-15507302D01*
X14746206Y-15754709D01*
X14746201Y-15754723D01*
X14656378Y-16018012D01*
X14605847Y-16291587D01*
X14595687Y-16569596D01*
X-14600774Y-16569596D01*
X-14595687Y-16430402D01*
X-14626114Y-16153873D01*
X-14626115Y-16153869D01*
X-14696477Y-15884732D01*
X-14696479Y-15884725D01*
X-14805284Y-15628685D01*
X-14950209Y-15391217D01*
X-15128165Y-15177380D01*
X-15260175Y-15059100D01*
X-15335357Y-14991737D01*
X-15335360Y-14991735D01*
X-15567375Y-14838235D01*
X-15819264Y-14720155D01*
X-15819274Y-14720151D01*
X-16085659Y-14640007D01*
X-16085661Y-14640006D01*
X-16257467Y-14614722D01*
X-16360901Y-14599500D01*
X-16569463Y-14599500D01*
X-16777445Y-14614722D01*
X-16777450Y-14614722D01*
X-16777455Y-14614723D01*
X-17048997Y-14675212D01*
X-17308838Y-14774592D01*
X-17308839Y-14774592D01*
X-17308843Y-14774594D01*
X-17494907Y-14879019D01*
X-17551440Y-14910747D01*
X-17771632Y-15080774D01*
X-17964722Y-15281049D01*
X-18126593Y-15507304D01*
X-18253797Y-15754717D01*
X-18298149Y-15884724D01*
X-18343621Y-16018012D01*
X-18343621Y-16018014D01*
X-18394152Y-16291584D01*
X-18404313Y-16569596D01*
X-19000000Y-16569596D01*
X-19000000Y-11400000D01*
X-7855133Y-11400000D01*
X-7836697Y-11528226D01*
X-7782882Y-11646063D01*
X-7698049Y-11743967D01*
X-7589069Y-11814004D01*
X-7464772Y-11850500D01*
X-7464771Y-11850500D01*
X-7335228Y-11850500D01*
X-7210931Y-11814004D01*
X-7101951Y-11743967D01*
X-7017118Y-11646063D01*
X-7017116Y-11646059D01*
X-6963304Y-11528230D01*
X-6963303Y-11528226D01*
X-6944867Y-11400000D01*
X3344867Y-11400000D01*
X3363303Y-11528226D01*
X3363304Y-11528230D01*
X3417116Y-11646059D01*
X3417118Y-11646063D01*
X3501951Y-11743967D01*
X3610931Y-11814004D01*
X3735228Y-11850500D01*
X3864771Y-11850500D01*
X3864772Y-11850500D01*
X3989069Y-11814004D01*
X4098049Y-11743967D01*
X4182882Y-11646063D01*
X4236697Y-11528226D01*
X4255133Y-11400000D01*
X4236697Y-11271774D01*
X4182882Y-11153937D01*
X4098049Y-11056033D01*
X4098046Y-11056031D01*
X4098045Y-11056030D01*
X3989071Y-10985997D01*
X3989064Y-10985994D01*
X3864772Y-10949500D01*
X3735228Y-10949500D01*
X3610935Y-10985994D01*
X3610928Y-10985997D01*
X3501954Y-11056030D01*
X3501953Y-11056031D01*
X3501951Y-11056032D01*
X3501951Y-11056033D01*
X3417118Y-11153937D01*
X3417117Y-11153938D01*
X3417116Y-11153940D01*
X3363304Y-11271769D01*
X3363303Y-11271773D01*
X3344867Y-11399999D01*
X3344867Y-11400000D01*
X-6944867Y-11400000D01*
X-6944867Y-11399999D01*
X-6963303Y-11271773D01*
X-6963304Y-11271769D01*
X-7017116Y-11153940D01*
X-7017117Y-11153938D01*
X-7017118Y-11153937D01*
X-7101951Y-11056033D01*
X-7101951Y-11056032D01*
X-7101953Y-11056031D01*
X-7101954Y-11056030D01*
X-7210928Y-10985997D01*
X-7210935Y-10985994D01*
X-7335228Y-10949500D01*
X-7464772Y-10949500D01*
X-7589064Y-10985994D01*
X-7589071Y-10985997D01*
X-7698045Y-11056030D01*
X-7698046Y-11056031D01*
X-7698049Y-11056033D01*
X-7782882Y-11153937D01*
X-7836697Y-11271774D01*
X-7855133Y-11400000D01*
X-19000000Y-11400000D01*
X-19000000Y46317D01*
X-14854260Y46317D01*
X-14844245Y-138407D01*
X-14794754Y-316659D01*
X-14708100Y-480104D01*
X-14588337Y-621100D01*
X-14441064Y-733054D01*
X-14273167Y-810732D01*
X-14092497Y-850500D01*
X-14092492Y-850500D01*
X-13953879Y-850500D01*
X-13953877Y-850499D01*
X-13816095Y-835515D01*
X-13816093Y-835514D01*
X-13816090Y-835514D01*
X-13640779Y-776444D01*
X-13482264Y-681070D01*
X-13347959Y-553849D01*
X-13347958Y-553848D01*
X-13347956Y-553846D01*
X-13244141Y-400728D01*
X-13244140Y-400726D01*
X-13175671Y-228881D01*
X-13175669Y-228874D01*
X-13160842Y-138437D01*
X-13145740Y-46317D01*
X-13155755Y138407D01*
X-13179504Y223944D01*
X-13205245Y316658D01*
X-13205246Y316659D01*
X-13249818Y400730D01*
X-13291900Y480104D01*
X-13291903Y480109D01*
X-13411663Y621100D01*
X-13558932Y733052D01*
X-13558935Y733053D01*
X-13558936Y733054D01*
X-13726833Y810732D01*
X-13907503Y850500D01*
X-14046113Y850500D01*
X-14046120Y850500D01*
X-14046122Y850499D01*
X-14183904Y835515D01*
X-14183905Y835514D01*
X-14183910Y835514D01*
X-14359221Y776444D01*
X-14517736Y681070D01*
X-14652041Y553849D01*
X-14755858Y400730D01*
X-14824331Y228875D01*
X-14854260Y46317D01*
X-19000000Y46317D01*
X-19000000Y2500000D01*
X-12000000Y2500000D01*
X-12000000Y-2500000D01*
X-8000000Y-2500000D01*
X-8000000Y-2447398D01*
X-3104254Y-2447398D01*
X-3094254Y-2657330D01*
X-3070757Y-2754183D01*
X-3044708Y-2861562D01*
X-3044706Y-2861567D01*
X-3044704Y-2861576D01*
X-2957396Y-3052753D01*
X-2835486Y-3223952D01*
X-2683378Y-3368986D01*
X-2506572Y-3482613D01*
X-2311457Y-3560725D01*
X-2105085Y-3600500D01*
X-2105082Y-3600500D01*
X-1947578Y-3600500D01*
X-1947575Y-3600500D01*
X-1790782Y-3585528D01*
X-1589125Y-3526316D01*
X-1402318Y-3430011D01*
X-1237114Y-3300092D01*
X-1171131Y-3223944D01*
X-1099486Y-3141263D01*
X-1099479Y-3141253D01*
X-994395Y-2959242D01*
X-994394Y-2959238D01*
X-925656Y-2760636D01*
X-925656Y-2760635D01*
X-895745Y-2552599D01*
X-905745Y-2342678D01*
X-905747Y-2342663D01*
X-955291Y-2138437D01*
X-955298Y-2138417D01*
X-1042533Y-1947399D01*
X2395745Y-1947399D01*
X2405745Y-2157321D01*
X2405747Y-2157336D01*
X2455291Y-2361562D01*
X2455298Y-2361582D01*
X2542602Y-2552750D01*
X2542609Y-2552761D01*
X2664507Y-2723944D01*
X2664511Y-2723948D01*
X2664514Y-2723952D01*
X2816622Y-2868986D01*
X2993428Y-2982613D01*
X3188543Y-3060725D01*
X3394915Y-3100500D01*
X3394918Y-3100500D01*
X3552422Y-3100500D01*
X3552425Y-3100500D01*
X3709218Y-3085528D01*
X3910875Y-3026316D01*
X4097682Y-2930011D01*
X4262886Y-2800092D01*
X4400519Y-2641256D01*
X4505604Y-2459244D01*
X4574344Y-2260633D01*
X4604254Y-2052602D01*
X4594254Y-1842670D01*
X4569192Y-1739363D01*
X4544708Y-1638437D01*
X4544705Y-1638429D01*
X4544704Y-1638424D01*
X4513448Y-1569984D01*
X4457397Y-1447249D01*
X4457390Y-1447238D01*
X4335492Y-1276055D01*
X4335488Y-1276051D01*
X4335486Y-1276048D01*
X4183378Y-1131014D01*
X4061615Y-1052761D01*
X4006571Y-1017386D01*
X3897409Y-973685D01*
X3811457Y-939275D01*
X3605085Y-899500D01*
X3447575Y-899500D01*
X3447574Y-899500D01*
X3290781Y-914472D01*
X3290780Y-914472D01*
X3172355Y-949245D01*
X3089125Y-973684D01*
X3089123Y-973684D01*
X3089123Y-973685D01*
X3089114Y-973689D01*
X2902326Y-1069984D01*
X2902314Y-1069991D01*
X2737117Y-1199905D01*
X2737109Y-1199913D01*
X2599486Y-1358736D01*
X2599479Y-1358746D01*
X2494395Y-1540757D01*
X2494394Y-1540761D01*
X2425656Y-1739363D01*
X2425656Y-1739364D01*
X2395746Y-1947398D01*
X2395745Y-1947399D01*
X-1042533Y-1947399D01*
X-1042602Y-1947249D01*
X-1042609Y-1947238D01*
X-1164507Y-1776055D01*
X-1164513Y-1776049D01*
X-1316621Y-1631014D01*
X-1493428Y-1517386D01*
X-1668630Y-1447247D01*
X-1688543Y-1439275D01*
X-1894915Y-1399500D01*
X-2052425Y-1399500D01*
X-2209218Y-1414472D01*
X-2209219Y-1414472D01*
X-2268431Y-1431858D01*
X-2410875Y-1473684D01*
X-2410882Y-1473688D01*
X-2410885Y-1473689D01*
X-2597673Y-1569984D01*
X-2597685Y-1569991D01*
X-2684720Y-1638437D01*
X-2762886Y-1699908D01*
X-2762890Y-1699913D01*
X-2900513Y-1858736D01*
X-2900516Y-1858741D01*
X-2900519Y-1858744D01*
X-3005604Y-2040756D01*
X-3074344Y-2239367D01*
X-3104254Y-2447398D01*
X-8000000Y-2447398D01*
X-8000000Y-447398D01*
X-6604254Y-447398D01*
X-6594254Y-657330D01*
X-6575884Y-733052D01*
X-6544708Y-861562D01*
X-6544706Y-861567D01*
X-6544704Y-861576D01*
X-6457396Y-1052753D01*
X-6335486Y-1223952D01*
X-6183378Y-1368986D01*
X-6006572Y-1482613D01*
X-5811457Y-1560725D01*
X-5605085Y-1600500D01*
X-5605082Y-1600500D01*
X-5447578Y-1600500D01*
X-5447575Y-1600500D01*
X-5290782Y-1585528D01*
X-5089125Y-1526316D01*
X-4902318Y-1430011D01*
X-4737114Y-1300092D01*
X-4671131Y-1223944D01*
X-4599486Y-1141263D01*
X-4599479Y-1141253D01*
X-4494395Y-959242D01*
X-4494394Y-959238D01*
X-4425656Y-760636D01*
X-4425656Y-760635D01*
X-4395745Y-552599D01*
X-4405745Y-342678D01*
X-4405747Y-342663D01*
X-4455291Y-138437D01*
X-4455298Y-138417D01*
X-4518509Y-5D01*
X-1655604Y-5D01*
X-1637591Y-228881D01*
X-1635221Y-258994D01*
X-1574573Y-511610D01*
X-1475154Y-751628D01*
X-1339412Y-973140D01*
X-1170689Y-1170689D01*
X-973140Y-1339412D01*
X-751628Y-1475154D01*
X-511610Y-1574573D01*
X-258994Y-1635221D01*
X-258989Y-1635221D01*
X-258985Y-1635222D01*
X-64856Y-1650500D01*
X-64853Y-1650500D01*
X64856Y-1650500D01*
X258985Y-1635222D01*
X258989Y-1635221D01*
X258994Y-1635221D01*
X511610Y-1574573D01*
X751628Y-1475154D01*
X973140Y-1339412D01*
X1170689Y-1170689D01*
X1339412Y-973140D01*
X1475154Y-751628D01*
X1574573Y-511610D01*
X1635221Y-258994D01*
X1637591Y-228881D01*
X1655604Y-5D01*
X1655604Y5D01*
X1635222Y258985D01*
X1635221Y258992D01*
X1625355Y300086D01*
X1574573Y511610D01*
X1557594Y552600D01*
X4395745Y552600D01*
X4405745Y342678D01*
X4405747Y342663D01*
X4455291Y138437D01*
X4455298Y138417D01*
X4542602Y-52750D01*
X4542609Y-52761D01*
X4664507Y-223944D01*
X4664511Y-223948D01*
X4664514Y-223952D01*
X4816622Y-368986D01*
X4993428Y-482613D01*
X5188543Y-560725D01*
X5394915Y-600500D01*
X5394918Y-600500D01*
X5552422Y-600500D01*
X5552425Y-600500D01*
X5709218Y-585528D01*
X5910875Y-526316D01*
X6097682Y-430011D01*
X6262886Y-300092D01*
X6400519Y-141256D01*
X6505604Y40756D01*
X6507528Y46316D01*
X11145740Y46316D01*
X11155755Y-138405D01*
X11155756Y-138411D01*
X11205245Y-316658D01*
X11205246Y-316659D01*
X11265340Y-430008D01*
X11291899Y-480102D01*
X11291903Y-480109D01*
X11411663Y-621100D01*
X11558932Y-733052D01*
X11558935Y-733053D01*
X11558936Y-733054D01*
X11726833Y-810732D01*
X11907503Y-850500D01*
X11907508Y-850500D01*
X12046121Y-850500D01*
X12046122Y-850499D01*
X12183904Y-835515D01*
X12183905Y-835514D01*
X12183910Y-835514D01*
X12359221Y-776444D01*
X12517736Y-681070D01*
X12652041Y-553849D01*
X12755858Y-400730D01*
X12824331Y-228875D01*
X12854260Y-46317D01*
X12849238Y46316D01*
X13145740Y46316D01*
X13155755Y-138405D01*
X13155756Y-138411D01*
X13205245Y-316658D01*
X13205246Y-316659D01*
X13265340Y-430008D01*
X13291899Y-480102D01*
X13291903Y-480109D01*
X13411663Y-621100D01*
X13558932Y-733052D01*
X13558935Y-733053D01*
X13558936Y-733054D01*
X13726833Y-810732D01*
X13907503Y-850500D01*
X13907508Y-850500D01*
X14046121Y-850500D01*
X14046122Y-850499D01*
X14183904Y-835515D01*
X14183905Y-835514D01*
X14183910Y-835514D01*
X14359221Y-776444D01*
X14517736Y-681070D01*
X14652041Y-553849D01*
X14755858Y-400730D01*
X14824331Y-228875D01*
X14854260Y-46317D01*
X14844245Y138407D01*
X14794754Y316659D01*
X14708100Y480104D01*
X14588337Y621100D01*
X14441064Y733054D01*
X14273167Y810732D01*
X14092497Y850500D01*
X13953887Y850500D01*
X13953880Y850500D01*
X13953877Y850499D01*
X13816095Y835515D01*
X13816093Y835514D01*
X13816090Y835514D01*
X13640779Y776444D01*
X13568660Y733052D01*
X13482264Y681070D01*
X13347956Y553846D01*
X13244141Y400728D01*
X13244140Y400726D01*
X13175671Y228881D01*
X13175669Y228875D01*
X13146797Y52761D01*
X13145740Y46316D01*
X12849238Y46316D01*
X12844245Y138407D01*
X12794754Y316659D01*
X12708100Y480104D01*
X12588337Y621100D01*
X12441064Y733054D01*
X12273167Y810732D01*
X12092497Y850500D01*
X11953887Y850500D01*
X11953880Y850500D01*
X11953877Y850499D01*
X11816095Y835515D01*
X11816093Y835514D01*
X11816090Y835514D01*
X11640779Y776444D01*
X11568660Y733052D01*
X11482264Y681070D01*
X11347956Y553846D01*
X11244141Y400728D01*
X11244140Y400726D01*
X11175671Y228881D01*
X11175669Y228875D01*
X11146797Y52761D01*
X11145740Y46316D01*
X6507528Y46316D01*
X6569009Y223952D01*
X6574343Y239363D01*
X6574343Y239364D01*
X6574344Y239367D01*
X6604254Y447398D01*
X6594254Y657330D01*
X6551027Y835514D01*
X6544708Y861562D01*
X6544706Y861567D01*
X6544704Y861576D01*
X6457396Y1052753D01*
X6335486Y1223952D01*
X6183378Y1368986D01*
X6006572Y1482613D01*
X5811457Y1560725D01*
X5605085Y1600500D01*
X5447575Y1600500D01*
X5290782Y1585528D01*
X5089125Y1526316D01*
X4902318Y1430011D01*
X4737114Y1300092D01*
X4716280Y1276048D01*
X4599486Y1141263D01*
X4599479Y1141253D01*
X4494395Y959242D01*
X4494394Y959238D01*
X4425656Y760636D01*
X4425656Y760635D01*
X4395746Y552602D01*
X4395745Y552600D01*
X1557594Y552600D01*
X1475154Y751628D01*
X1339412Y973140D01*
X1170689Y1170689D01*
X973140Y1339412D01*
X751628Y1475154D01*
X511610Y1574573D01*
X258994Y1635221D01*
X258989Y1635221D01*
X258985Y1635222D01*
X64856Y1650500D01*
X64853Y1650500D01*
X-64853Y1650500D01*
X-64856Y1650500D01*
X-258985Y1635222D01*
X-258989Y1635221D01*
X-258994Y1635221D01*
X-511610Y1574573D01*
X-751628Y1475154D01*
X-973140Y1339412D01*
X-1170689Y1170689D01*
X-1339412Y973140D01*
X-1475154Y751628D01*
X-1574573Y511610D01*
X-1625355Y300086D01*
X-1635221Y258992D01*
X-1635222Y258985D01*
X-1655604Y5D01*
X-1655604Y-5D01*
X-4518509Y-5D01*
X-4542602Y52750D01*
X-4542609Y52761D01*
X-4664507Y223944D01*
X-4664513Y223950D01*
X-4664514Y223952D01*
X-4816622Y368986D01*
X-4993428Y482613D01*
X-5188543Y560725D01*
X-5394915Y600500D01*
X-5552425Y600500D01*
X-5709218Y585528D01*
X-5910875Y526316D01*
X-6097682Y430011D01*
X-6262886Y300092D01*
X-6400519Y141256D01*
X-6505604Y-40756D01*
X-6539401Y-138407D01*
X-6570712Y-228874D01*
X-6574344Y-239367D01*
X-6604254Y-447398D01*
X-8000000Y-447398D01*
X-8000000Y2052602D01*
X-4604254Y2052602D01*
X-4594254Y1842670D01*
X-4594252Y1842663D01*
X-4544708Y1638437D01*
X-4544705Y1638429D01*
X-4544704Y1638424D01*
X-4544701Y1638418D01*
X-4544701Y1638417D01*
X-4457397Y1447249D01*
X-4457390Y1447238D01*
X-4335492Y1276055D01*
X-4335488Y1276051D01*
X-4335486Y1276048D01*
X-4194116Y1141253D01*
X-4183378Y1131014D01*
X-4006571Y1017386D01*
X-3923017Y983936D01*
X-3811457Y939275D01*
X-3605085Y899500D01*
X-3605082Y899500D01*
X-3447574Y899500D01*
X-3290781Y914472D01*
X-3290780Y914472D01*
X-3172355Y949245D01*
X-3089125Y973684D01*
X-3089123Y973685D01*
X-3089114Y973689D01*
X-2902326Y1069984D01*
X-2902314Y1069991D01*
X-2737117Y1199905D01*
X-2737109Y1199913D01*
X-2599486Y1358736D01*
X-2599479Y1358746D01*
X-2494395Y1540757D01*
X-2494394Y1540761D01*
X-2425656Y1739363D01*
X-2425656Y1739364D01*
X-2395745Y1947400D01*
X-2405745Y2157321D01*
X-2405747Y2157336D01*
X-2455291Y2361562D01*
X-2455298Y2361582D01*
X-2542533Y2552600D01*
X895745Y2552600D01*
X905745Y2342678D01*
X905747Y2342663D01*
X955291Y2138437D01*
X955298Y2138417D01*
X1042602Y1947249D01*
X1042609Y1947238D01*
X1164507Y1776055D01*
X1164513Y1776049D01*
X1316621Y1631014D01*
X1493428Y1517386D01*
X1602593Y1473684D01*
X1688543Y1439275D01*
X1894915Y1399500D01*
X1894918Y1399500D01*
X2052425Y1399500D01*
X2209218Y1414472D01*
X2209219Y1414472D01*
X2320808Y1447238D01*
X2410875Y1473684D01*
X2413721Y1475151D01*
X2597673Y1569984D01*
X2597685Y1569991D01*
X2762882Y1699905D01*
X2762886Y1699908D01*
X2886585Y1842663D01*
X2900513Y1858736D01*
X2900520Y1858746D01*
X2951616Y1947247D01*
X3005604Y2040756D01*
X3074344Y2239367D01*
X3104254Y2447398D01*
X3094254Y2657330D01*
X3069192Y2760636D01*
X3044708Y2861562D01*
X3044706Y2861567D01*
X3044704Y2861576D01*
X2957396Y3052753D01*
X2835486Y3223952D01*
X2683378Y3368986D01*
X2506572Y3482613D01*
X2311457Y3560725D01*
X2105085Y3600500D01*
X1947575Y3600500D01*
X1790782Y3585528D01*
X1589125Y3526316D01*
X1402318Y3430011D01*
X1237114Y3300092D01*
X1237109Y3300086D01*
X1099486Y3141263D01*
X1099479Y3141253D01*
X994395Y2959242D01*
X994394Y2959238D01*
X925656Y2760636D01*
X925656Y2760635D01*
X895746Y2552602D01*
X895745Y2552600D01*
X-2542533Y2552600D01*
X-2542602Y2552750D01*
X-2542609Y2552761D01*
X-2664507Y2723944D01*
X-2664513Y2723950D01*
X-2664514Y2723952D01*
X-2816622Y2868986D01*
X-2993428Y2982613D01*
X-3188543Y3060725D01*
X-3394915Y3100500D01*
X-3552425Y3100500D01*
X-3709218Y3085528D01*
X-3910875Y3026316D01*
X-4097682Y2930011D01*
X-4262886Y2800092D01*
X-4400519Y2641256D01*
X-4505604Y2459244D01*
X-4574344Y2260633D01*
X-4604254Y2052602D01*
X-8000000Y2052602D01*
X-8000000Y2500000D01*
X-12000000Y2500000D01*
X-19000000Y2500000D01*
X-19000000Y11200000D01*
X-3355133Y11200000D01*
X-3336697Y11071774D01*
X-3282882Y10953937D01*
X-3198049Y10856033D01*
X-3198046Y10856031D01*
X-3198045Y10856030D01*
X-3089071Y10785997D01*
X-3089064Y10785994D01*
X-2964772Y10749500D01*
X-2835228Y10749500D01*
X-2710935Y10785994D01*
X-2710928Y10785997D01*
X-2601954Y10856030D01*
X-2601953Y10856031D01*
X-2601951Y10856033D01*
X-2517118Y10953937D01*
X-2517117Y10953938D01*
X-2517116Y10953940D01*
X-2463304Y11071769D01*
X-2463303Y11071773D01*
X-2444867Y11199999D01*
X7844867Y11199999D01*
X7863303Y11071773D01*
X7863304Y11071769D01*
X7917116Y10953940D01*
X7917117Y10953938D01*
X7917118Y10953937D01*
X8001951Y10856033D01*
X8001953Y10856031D01*
X8001954Y10856030D01*
X8110928Y10785997D01*
X8110935Y10785994D01*
X8235228Y10749500D01*
X8364772Y10749500D01*
X8489064Y10785994D01*
X8489071Y10785997D01*
X8598045Y10856030D01*
X8598046Y10856031D01*
X8598049Y10856033D01*
X8682882Y10953937D01*
X8736697Y11071774D01*
X8755133Y11200000D01*
X8736697Y11328226D01*
X8682882Y11446063D01*
X8598049Y11543967D01*
X8489069Y11614004D01*
X8364772Y11650500D01*
X8235228Y11650500D01*
X8110931Y11614004D01*
X8001951Y11543967D01*
X7917118Y11446063D01*
X7917116Y11446059D01*
X7863304Y11328230D01*
X7863303Y11328226D01*
X7844867Y11200000D01*
X7844867Y11199999D01*
X-2444867Y11199999D01*
X-2444867Y11200000D01*
X-2463303Y11328226D01*
X-2463304Y11328230D01*
X-2517116Y11446059D01*
X-2517118Y11446063D01*
X-2601951Y11543967D01*
X-2710931Y11614004D01*
X-2835228Y11650500D01*
X-2964772Y11650500D01*
X-3089069Y11614004D01*
X-3198049Y11543967D01*
X-3282882Y11446063D01*
X-3336697Y11328226D01*
X-3355133Y11200000D01*
X-19000000Y11200000D01*
X-19000000Y16430404D01*
X-18404313Y16430404D01*
X-18373886Y16153876D01*
X-18303520Y15884724D01*
X-18194716Y15628686D01*
X-18049792Y15391219D01*
X-17871837Y15177383D01*
X-17664643Y14991737D01*
X-17542232Y14910751D01*
X-17432624Y14838235D01*
X-17180735Y14720155D01*
X-17180725Y14720151D01*
X-16914340Y14640007D01*
X-16914338Y14640006D01*
X-16914331Y14640005D01*
X-16639099Y14599500D01*
X-16639098Y14599500D01*
X-16430537Y14599500D01*
X-16222554Y14614722D01*
X-16222547Y14614722D01*
X-16222545Y14614723D01*
X-16086773Y14644967D01*
X-15951002Y14675212D01*
X-15691165Y14774591D01*
X-15691156Y14774594D01*
X-15448563Y14910745D01*
X-15448554Y14910751D01*
X-15228367Y15080775D01*
X-15035279Y15281047D01*
X-15035271Y15281057D01*
X-14873409Y15507300D01*
X-14873407Y15507302D01*
X-14746206Y15754709D01*
X-14746201Y15754723D01*
X-14656378Y16018012D01*
X-14605847Y16291587D01*
X-14600774Y16430404D01*
X14595687Y16430404D01*
X14626114Y16153873D01*
X14626115Y16153869D01*
X14696477Y15884732D01*
X14696479Y15884725D01*
X14805284Y15628685D01*
X14950209Y15391217D01*
X15128165Y15177380D01*
X15235984Y15080775D01*
X15335357Y14991737D01*
X15335359Y14991735D01*
X15335360Y14991735D01*
X15567375Y14838235D01*
X15819264Y14720155D01*
X15819274Y14720151D01*
X16085659Y14640007D01*
X16085661Y14640006D01*
X16236075Y14617870D01*
X16360901Y14599500D01*
X16360902Y14599500D01*
X16569463Y14599500D01*
X16777445Y14614722D01*
X16777450Y14614722D01*
X16777455Y14614723D01*
X17048997Y14675212D01*
X17308838Y14774592D01*
X17308839Y14774592D01*
X17308843Y14774594D01*
X17551436Y14910745D01*
X17551440Y14910747D01*
X17771632Y15080774D01*
X17964722Y15281049D01*
X18126593Y15507304D01*
X18253797Y15754717D01*
X18308179Y15914124D01*
X18343621Y16018012D01*
X18368716Y16153876D01*
X18394152Y16291584D01*
X18404313Y16569596D01*
X18373886Y16846124D01*
X18303520Y17115276D01*
X18194716Y17371314D01*
X18049792Y17608781D01*
X17871837Y17822617D01*
X17664643Y18008263D01*
X17432627Y18161763D01*
X17180733Y18279846D01*
X16914331Y18359995D01*
X16639099Y18400500D01*
X16430537Y18400500D01*
X16222545Y18385277D01*
X15951003Y18324788D01*
X15691162Y18225408D01*
X15691157Y18225405D01*
X15691156Y18225405D01*
X15606363Y18177816D01*
X15448560Y18089253D01*
X15228368Y17919226D01*
X15135227Y17822619D01*
X15035279Y17718952D01*
X15035271Y17718942D01*
X14873409Y17492699D01*
X14873407Y17492697D01*
X14746206Y17245290D01*
X14746201Y17245276D01*
X14656378Y16981987D01*
X14605847Y16708412D01*
X14595687Y16430404D01*
X-14600774Y16430404D01*
X-14595687Y16569597D01*
X-14626114Y16846126D01*
X-14626115Y16846130D01*
X-14696477Y17115267D01*
X-14696479Y17115274D01*
X-14805284Y17371314D01*
X-14950208Y17608781D01*
X-15128163Y17822617D01*
X-15335357Y18008263D01*
X-15567373Y18161763D01*
X-15819267Y18279846D01*
X-16085659Y18359992D01*
X-16085661Y18359993D01*
X-16085663Y18359993D01*
X-16085669Y18359995D01*
X-16360901Y18400500D01*
X-16569463Y18400500D01*
X-16777455Y18385277D01*
X-17048997Y18324788D01*
X-17308838Y18225408D01*
X-17551440Y18089253D01*
X-17771632Y17919226D01*
X-17964722Y17718951D01*
X-18126593Y17492696D01*
X-18253797Y17245283D01*
X-18343621Y16981986D01*
X-18394152Y16708416D01*
X-18404313Y16430404D01*
X-19000000Y16430404D01*
X-19000000Y24900000D01*
X-3355133Y24900000D01*
X-3336697Y24771774D01*
X-3282882Y24653937D01*
X-3198049Y24556033D01*
X-3198046Y24556031D01*
X-3198045Y24556030D01*
X-3089071Y24485997D01*
X-3089064Y24485994D01*
X-2964772Y24449500D01*
X-2835228Y24449500D01*
X-2710935Y24485994D01*
X-2710928Y24485997D01*
X-2601954Y24556030D01*
X-2601953Y24556031D01*
X-2601951Y24556033D01*
X-2517118Y24653937D01*
X-2517117Y24653938D01*
X-2517116Y24653940D01*
X-2463304Y24771769D01*
X-2463303Y24771773D01*
X-2444867Y24899999D01*
X7844867Y24899999D01*
X7863303Y24771773D01*
X7863304Y24771769D01*
X7917116Y24653940D01*
X7917117Y24653938D01*
X7917118Y24653937D01*
X8001951Y24556033D01*
X8001953Y24556031D01*
X8001954Y24556030D01*
X8110928Y24485997D01*
X8110935Y24485994D01*
X8235228Y24449500D01*
X8364772Y24449500D01*
X8489064Y24485994D01*
X8489071Y24485997D01*
X8598045Y24556030D01*
X8598046Y24556031D01*
X8598049Y24556033D01*
X8682882Y24653937D01*
X8736697Y24771774D01*
X8755133Y24900000D01*
X8736697Y25028226D01*
X8682882Y25146063D01*
X8598049Y25243967D01*
X8489069Y25314004D01*
X8364772Y25350500D01*
X8235228Y25350500D01*
X8110931Y25314004D01*
X8001951Y25243967D01*
X7917118Y25146063D01*
X7917116Y25146059D01*
X7863304Y25028230D01*
X7863303Y25028226D01*
X7844867Y24900000D01*
X7844867Y24899999D01*
X-2444867Y24899999D01*
X-2444867Y24900000D01*
X-2463303Y25028226D01*
X-2463304Y25028230D01*
X-2517116Y25146059D01*
X-2517118Y25146063D01*
X-2601951Y25243967D01*
X-2710931Y25314004D01*
X-2835228Y25350500D01*
X-2964772Y25350500D01*
X-3089069Y25314004D01*
X-3198049Y25243967D01*
X-3282882Y25146063D01*
X-3336697Y25028226D01*
X-3355133Y24900000D01*
X-19000000Y24900000D01*
X-19000000Y31000000D01*
X-8025300Y31000000D01*
X-8006140Y30793227D01*
X-8006138Y30793220D01*
X-7949310Y30593493D01*
X-7949310Y30593491D01*
X-7887517Y30469398D01*
X-7856749Y30407606D01*
X-7856747Y30407604D01*
X-7856746Y30407601D01*
X-7731607Y30241890D01*
X-7578146Y30101991D01*
X-7478386Y30040223D01*
X-7401589Y29992673D01*
X-7401586Y29992672D01*
X-7401585Y29992671D01*
X-7207955Y29917658D01*
X-7126303Y29902394D01*
X-7003830Y29879500D01*
X-7003827Y29879500D01*
X-6796173Y29879500D01*
X-6796170Y29879500D01*
X-6694108Y29898579D01*
X-6592044Y29917658D01*
X-6398414Y29992671D01*
X-6221853Y30101991D01*
X-6068392Y30241890D01*
X-5943253Y30407601D01*
X-5943249Y30407609D01*
X-5850689Y30593491D01*
X-5850689Y30593493D01*
X-5793861Y30793220D01*
X-5793860Y30793226D01*
X-5774700Y31000000D01*
X-5783966Y31100000D01*
X-4355133Y31100000D01*
X-4336697Y30971774D01*
X-4282882Y30853937D01*
X-4198049Y30756033D01*
X-4198046Y30756031D01*
X-4198045Y30756030D01*
X-4089071Y30685997D01*
X-4089064Y30685994D01*
X-3964772Y30649500D01*
X-3835228Y30649500D01*
X-3710935Y30685994D01*
X-3710928Y30685997D01*
X-3601954Y30756030D01*
X-3601953Y30756031D01*
X-3569723Y30793227D01*
X-3517118Y30853937D01*
X-3517117Y30853938D01*
X-3517116Y30853940D01*
X-3463304Y30971769D01*
X-3463303Y30971773D01*
X-3444867Y31099999D01*
X-3444867Y31100000D01*
X-2155133Y31100000D01*
X-2136697Y30971774D01*
X-2082882Y30853937D01*
X-1998049Y30756033D01*
X-1998046Y30756031D01*
X-1998045Y30756030D01*
X-1889071Y30685997D01*
X-1889064Y30685994D01*
X-1764772Y30649500D01*
X-1635228Y30649500D01*
X-1510935Y30685994D01*
X-1510928Y30685997D01*
X-1401954Y30756030D01*
X-1401953Y30756031D01*
X-1369723Y30793227D01*
X-1317118Y30853937D01*
X-1317117Y30853938D01*
X-1317116Y30853940D01*
X-1263304Y30971769D01*
X-1263303Y30971773D01*
X-1244867Y31099999D01*
X44867Y31099999D01*
X63303Y30971773D01*
X63304Y30971769D01*
X117116Y30853940D01*
X117117Y30853938D01*
X117118Y30853937D01*
X169723Y30793227D01*
X201953Y30756031D01*
X201954Y30756030D01*
X310928Y30685997D01*
X310935Y30685994D01*
X435228Y30649500D01*
X564772Y30649500D01*
X689064Y30685994D01*
X689071Y30685997D01*
X798045Y30756030D01*
X798046Y30756031D01*
X798049Y30756033D01*
X882882Y30853937D01*
X936697Y30971774D01*
X955133Y31099999D01*
X2244867Y31099999D01*
X2263303Y30971773D01*
X2263304Y30971769D01*
X2317116Y30853940D01*
X2317117Y30853938D01*
X2317118Y30853937D01*
X2369723Y30793227D01*
X2401953Y30756031D01*
X2401954Y30756030D01*
X2510928Y30685997D01*
X2510935Y30685994D01*
X2635228Y30649500D01*
X2764772Y30649500D01*
X2889064Y30685994D01*
X2889071Y30685997D01*
X2998045Y30756030D01*
X2998046Y30756031D01*
X2998049Y30756033D01*
X3082882Y30853937D01*
X3136697Y30971774D01*
X3140755Y31000000D01*
X4574700Y31000000D01*
X4593860Y30793226D01*
X4593861Y30793220D01*
X4650689Y30593493D01*
X4650689Y30593491D01*
X4743249Y30407609D01*
X4743253Y30407601D01*
X4868392Y30241890D01*
X5021853Y30101991D01*
X5198414Y29992671D01*
X5392044Y29917658D01*
X5494108Y29898579D01*
X5596170Y29879500D01*
X5596173Y29879500D01*
X5803827Y29879500D01*
X5803830Y29879500D01*
X5926303Y29902394D01*
X6007955Y29917658D01*
X6201585Y29992671D01*
X6201586Y29992672D01*
X6201589Y29992673D01*
X6278386Y30040223D01*
X6378146Y30101991D01*
X6531607Y30241890D01*
X6656746Y30407601D01*
X6656747Y30407604D01*
X6656749Y30407606D01*
X6687517Y30469398D01*
X6749310Y30593491D01*
X6749310Y30593493D01*
X6806138Y30793220D01*
X6806140Y30793227D01*
X6825300Y31000000D01*
X6806140Y31206773D01*
X6749311Y31406505D01*
X6656749Y31592394D01*
X6531607Y31758110D01*
X6378145Y31898009D01*
X6201589Y32007327D01*
X6007953Y32082342D01*
X5803830Y32120500D01*
X5596170Y32120500D01*
X5392047Y32082342D01*
X5198411Y32007327D01*
X5060253Y31921784D01*
X5021853Y31898008D01*
X4868392Y31758109D01*
X4743253Y31592398D01*
X4743249Y31592390D01*
X4650689Y31406508D01*
X4650689Y31406506D01*
X4593861Y31206779D01*
X4593860Y31206773D01*
X4574700Y31000000D01*
X3140755Y31000000D01*
X3155133Y31100000D01*
X3136697Y31228226D01*
X3082882Y31346063D01*
X2998049Y31443967D01*
X2889069Y31514004D01*
X2764772Y31550500D01*
X2635228Y31550500D01*
X2510931Y31514004D01*
X2401951Y31443967D01*
X2317118Y31346063D01*
X2317116Y31346059D01*
X2263304Y31228230D01*
X2263303Y31228226D01*
X2244867Y31100000D01*
X2244867Y31099999D01*
X955133Y31099999D01*
X955133Y31100000D01*
X936697Y31228226D01*
X882882Y31346063D01*
X798049Y31443967D01*
X689069Y31514004D01*
X564772Y31550500D01*
X435228Y31550500D01*
X310931Y31514004D01*
X201951Y31443967D01*
X117118Y31346063D01*
X117116Y31346059D01*
X63304Y31228230D01*
X63303Y31228226D01*
X44867Y31100000D01*
X44867Y31099999D01*
X-1244867Y31099999D01*
X-1244867Y31100000D01*
X-1263303Y31228226D01*
X-1263304Y31228230D01*
X-1317116Y31346059D01*
X-1317118Y31346063D01*
X-1401951Y31443967D01*
X-1510931Y31514004D01*
X-1635228Y31550500D01*
X-1764772Y31550500D01*
X-1889069Y31514004D01*
X-1998049Y31443967D01*
X-2082882Y31346063D01*
X-2136697Y31228226D01*
X-2155133Y31100000D01*
X-3444867Y31100000D01*
X-3463303Y31228226D01*
X-3463304Y31228230D01*
X-3517116Y31346059D01*
X-3517118Y31346063D01*
X-3601951Y31443967D01*
X-3710931Y31514004D01*
X-3835228Y31550500D01*
X-3964772Y31550500D01*
X-4089069Y31514004D01*
X-4198049Y31443967D01*
X-4282882Y31346063D01*
X-4336697Y31228226D01*
X-4355133Y31100000D01*
X-5783966Y31100000D01*
X-5793860Y31206773D01*
X-5793861Y31206779D01*
X-5850689Y31406506D01*
X-5850689Y31406508D01*
X-5943249Y31592390D01*
X-5943253Y31592398D01*
X-6068392Y31758109D01*
X-6221853Y31898008D01*
X-6260253Y31921784D01*
X-6398411Y32007327D01*
X-6592047Y32082342D01*
X-6796170Y32120500D01*
X-7003830Y32120500D01*
X-7207953Y32082342D01*
X-7401589Y32007327D01*
X-7578145Y31898009D01*
X-7731607Y31758110D01*
X-7856749Y31592394D01*
X-7949311Y31406505D01*
X-8006140Y31206773D01*
X-8025300Y31000000D01*
X-19000000Y31000000D01*
X-19000000Y32838500D01*
X-18981987Y32881987D01*
X-18938500Y32900000D01*
X18938500Y32900000D01*
X18981987Y32881987D01*
G37*
%TD.AperFunction*%
%TD*%
M02*
