%TF.GenerationSoftware,KiCad,Pcbnew,7.0.5-4d25ed1034~172~ubuntu22.04.1*%
%TF.CreationDate,2023-07-12T12:46:34+02:00*%
%TF.ProjectId,Chubut_2,43687562-7574-45f3-922e-6b696361645f,rev?*%
%TF.SameCoordinates,Original*%
%TF.FileFunction,Legend,Bot*%
%TF.FilePolarity,Positive*%
%FSLAX46Y46*%
G04 Gerber Fmt 4.6, Leading zero omitted, Abs format (unit mm)*
G04 Created by KiCad (PCBNEW 7.0.5-4d25ed1034~172~ubuntu22.04.1) date 2023-07-12 12:46:34*
%MOMM*%
%LPD*%
G01*
G04 APERTURE LIST*
%ADD10C,0.150000*%
%ADD11C,0.120000*%
G04 APERTURE END LIST*
D10*
%TO.C,J6*%
X-2709523Y-28359580D02*
X-2661904Y-28407200D01*
X-2661904Y-28407200D02*
X-2519047Y-28454819D01*
X-2519047Y-28454819D02*
X-2423809Y-28454819D01*
X-2423809Y-28454819D02*
X-2280952Y-28407200D01*
X-2280952Y-28407200D02*
X-2185714Y-28311961D01*
X-2185714Y-28311961D02*
X-2138095Y-28216723D01*
X-2138095Y-28216723D02*
X-2090476Y-28026247D01*
X-2090476Y-28026247D02*
X-2090476Y-27883390D01*
X-2090476Y-27883390D02*
X-2138095Y-27692914D01*
X-2138095Y-27692914D02*
X-2185714Y-27597676D01*
X-2185714Y-27597676D02*
X-2280952Y-27502438D01*
X-2280952Y-27502438D02*
X-2423809Y-27454819D01*
X-2423809Y-27454819D02*
X-2519047Y-27454819D01*
X-2519047Y-27454819D02*
X-2661904Y-27502438D01*
X-2661904Y-27502438D02*
X-2709523Y-27550057D01*
X-3138095Y-28454819D02*
X-3138095Y-27454819D01*
X-3138095Y-27931009D02*
X-3709523Y-27931009D01*
X-3709523Y-28454819D02*
X-3709523Y-27454819D01*
X-4709523Y-28454819D02*
X-4138095Y-28454819D01*
X-4423809Y-28454819D02*
X-4423809Y-27454819D01*
X-4423809Y-27454819D02*
X-4328571Y-27597676D01*
X-4328571Y-27597676D02*
X-4233333Y-27692914D01*
X-4233333Y-27692914D02*
X-4138095Y-27740533D01*
%TO.C,J1*%
X17061904Y-28073866D02*
X16300000Y-28073866D01*
X16680952Y-28454819D02*
X16680952Y-27692914D01*
X15919047Y-27454819D02*
X15300000Y-27454819D01*
X15300000Y-27454819D02*
X15633333Y-27835771D01*
X15633333Y-27835771D02*
X15490476Y-27835771D01*
X15490476Y-27835771D02*
X15395238Y-27883390D01*
X15395238Y-27883390D02*
X15347619Y-27931009D01*
X15347619Y-27931009D02*
X15300000Y-28026247D01*
X15300000Y-28026247D02*
X15300000Y-28264342D01*
X15300000Y-28264342D02*
X15347619Y-28359580D01*
X15347619Y-28359580D02*
X15395238Y-28407200D01*
X15395238Y-28407200D02*
X15490476Y-28454819D01*
X15490476Y-28454819D02*
X15776190Y-28454819D01*
X15776190Y-28454819D02*
X15871428Y-28407200D01*
X15871428Y-28407200D02*
X15919047Y-28359580D01*
X14871428Y-28073866D02*
X14109524Y-28073866D01*
X13157143Y-27454819D02*
X13633333Y-27454819D01*
X13633333Y-27454819D02*
X13680952Y-27931009D01*
X13680952Y-27931009D02*
X13633333Y-27883390D01*
X13633333Y-27883390D02*
X13538095Y-27835771D01*
X13538095Y-27835771D02*
X13300000Y-27835771D01*
X13300000Y-27835771D02*
X13204762Y-27883390D01*
X13204762Y-27883390D02*
X13157143Y-27931009D01*
X13157143Y-27931009D02*
X13109524Y-28026247D01*
X13109524Y-28026247D02*
X13109524Y-28264342D01*
X13109524Y-28264342D02*
X13157143Y-28359580D01*
X13157143Y-28359580D02*
X13204762Y-28407200D01*
X13204762Y-28407200D02*
X13300000Y-28454819D01*
X13300000Y-28454819D02*
X13538095Y-28454819D01*
X13538095Y-28454819D02*
X13633333Y-28407200D01*
X13633333Y-28407200D02*
X13680952Y-28359580D01*
X12061904Y-27454819D02*
X11728571Y-28454819D01*
X11728571Y-28454819D02*
X11395238Y-27454819D01*
%TO.C,J8*%
X5009523Y28259580D02*
X4961904Y28307200D01*
X4961904Y28307200D02*
X4819047Y28354819D01*
X4819047Y28354819D02*
X4723809Y28354819D01*
X4723809Y28354819D02*
X4580952Y28307200D01*
X4580952Y28307200D02*
X4485714Y28211961D01*
X4485714Y28211961D02*
X4438095Y28116723D01*
X4438095Y28116723D02*
X4390476Y27926247D01*
X4390476Y27926247D02*
X4390476Y27783390D01*
X4390476Y27783390D02*
X4438095Y27592914D01*
X4438095Y27592914D02*
X4485714Y27497676D01*
X4485714Y27497676D02*
X4580952Y27402438D01*
X4580952Y27402438D02*
X4723809Y27354819D01*
X4723809Y27354819D02*
X4819047Y27354819D01*
X4819047Y27354819D02*
X4961904Y27402438D01*
X4961904Y27402438D02*
X5009523Y27450057D01*
X5438095Y28354819D02*
X5438095Y27354819D01*
X5438095Y27831009D02*
X6009523Y27831009D01*
X6009523Y28354819D02*
X6009523Y27354819D01*
X6390476Y27354819D02*
X7009523Y27354819D01*
X7009523Y27354819D02*
X6676190Y27735771D01*
X6676190Y27735771D02*
X6819047Y27735771D01*
X6819047Y27735771D02*
X6914285Y27783390D01*
X6914285Y27783390D02*
X6961904Y27831009D01*
X6961904Y27831009D02*
X7009523Y27926247D01*
X7009523Y27926247D02*
X7009523Y28164342D01*
X7009523Y28164342D02*
X6961904Y28259580D01*
X6961904Y28259580D02*
X6914285Y28307200D01*
X6914285Y28307200D02*
X6819047Y28354819D01*
X6819047Y28354819D02*
X6533333Y28354819D01*
X6533333Y28354819D02*
X6438095Y28307200D01*
X6438095Y28307200D02*
X6390476Y28259580D01*
%TO.C,J11*%
X-11885714Y-28354819D02*
X-11885714Y-27354819D01*
X-11885714Y-27831009D02*
X-12457142Y-27831009D01*
X-12457142Y-28354819D02*
X-12457142Y-27354819D01*
X-12790476Y-27354819D02*
X-13123809Y-28354819D01*
X-13123809Y-28354819D02*
X-13457142Y-27354819D01*
%TO.C,J9*%
X-7590476Y28259580D02*
X-7638095Y28307200D01*
X-7638095Y28307200D02*
X-7780952Y28354819D01*
X-7780952Y28354819D02*
X-7876190Y28354819D01*
X-7876190Y28354819D02*
X-8019047Y28307200D01*
X-8019047Y28307200D02*
X-8114285Y28211961D01*
X-8114285Y28211961D02*
X-8161904Y28116723D01*
X-8161904Y28116723D02*
X-8209523Y27926247D01*
X-8209523Y27926247D02*
X-8209523Y27783390D01*
X-8209523Y27783390D02*
X-8161904Y27592914D01*
X-8161904Y27592914D02*
X-8114285Y27497676D01*
X-8114285Y27497676D02*
X-8019047Y27402438D01*
X-8019047Y27402438D02*
X-7876190Y27354819D01*
X-7876190Y27354819D02*
X-7780952Y27354819D01*
X-7780952Y27354819D02*
X-7638095Y27402438D01*
X-7638095Y27402438D02*
X-7590476Y27450057D01*
X-7161904Y28354819D02*
X-7161904Y27354819D01*
X-7161904Y27831009D02*
X-6590476Y27831009D01*
X-6590476Y28354819D02*
X-6590476Y27354819D01*
X-5685714Y27688152D02*
X-5685714Y28354819D01*
X-5923809Y27307200D02*
X-6161904Y28021485D01*
X-6161904Y28021485D02*
X-5542857Y28021485D01*
%TO.C,J7*%
X7290476Y-28359580D02*
X7338095Y-28407200D01*
X7338095Y-28407200D02*
X7480952Y-28454819D01*
X7480952Y-28454819D02*
X7576190Y-28454819D01*
X7576190Y-28454819D02*
X7719047Y-28407200D01*
X7719047Y-28407200D02*
X7814285Y-28311961D01*
X7814285Y-28311961D02*
X7861904Y-28216723D01*
X7861904Y-28216723D02*
X7909523Y-28026247D01*
X7909523Y-28026247D02*
X7909523Y-27883390D01*
X7909523Y-27883390D02*
X7861904Y-27692914D01*
X7861904Y-27692914D02*
X7814285Y-27597676D01*
X7814285Y-27597676D02*
X7719047Y-27502438D01*
X7719047Y-27502438D02*
X7576190Y-27454819D01*
X7576190Y-27454819D02*
X7480952Y-27454819D01*
X7480952Y-27454819D02*
X7338095Y-27502438D01*
X7338095Y-27502438D02*
X7290476Y-27550057D01*
X6861904Y-28454819D02*
X6861904Y-27454819D01*
X6861904Y-27931009D02*
X6290476Y-27931009D01*
X6290476Y-28454819D02*
X6290476Y-27454819D01*
X5861904Y-27550057D02*
X5814285Y-27502438D01*
X5814285Y-27502438D02*
X5719047Y-27454819D01*
X5719047Y-27454819D02*
X5480952Y-27454819D01*
X5480952Y-27454819D02*
X5385714Y-27502438D01*
X5385714Y-27502438D02*
X5338095Y-27550057D01*
X5338095Y-27550057D02*
X5290476Y-27645295D01*
X5290476Y-27645295D02*
X5290476Y-27740533D01*
X5290476Y-27740533D02*
X5338095Y-27883390D01*
X5338095Y-27883390D02*
X5909523Y-28454819D01*
X5909523Y-28454819D02*
X5290476Y-28454819D01*
D11*
%TO.C,R8*%
X-3020000Y-15946359D02*
X-3020000Y-16253641D01*
X-3780000Y-15946359D02*
X-3780000Y-16253641D01*
%TO.C,C40*%
X-7292164Y19740000D02*
X-7507836Y19740000D01*
X-7292164Y20460000D02*
X-7507836Y20460000D01*
%TO.C,U1*%
X7757500Y-9857500D02*
X8377500Y-9857500D01*
X8377500Y-9857500D02*
X8377500Y-8127500D01*
X7447500Y-9447500D02*
X7757500Y-9857500D01*
X7447500Y-8127500D02*
X7447500Y-9447500D01*
X8377500Y-8127500D02*
X7447500Y-8127500D01*
%TO.C,C41*%
X-3640000Y22507836D02*
X-3640000Y22292164D01*
X-4360000Y22507836D02*
X-4360000Y22292164D01*
%TO.C,C47*%
X-6660000Y-9007836D02*
X-6660000Y-8792164D01*
X-5940000Y-9007836D02*
X-5940000Y-8792164D01*
%TO.C,C51*%
X-8860000Y-22707836D02*
X-8860000Y-22492164D01*
X-8140000Y-22707836D02*
X-8140000Y-22492164D01*
%TO.C,C35*%
X-3640000Y8807836D02*
X-3640000Y8592164D01*
X-4360000Y8807836D02*
X-4360000Y8592164D01*
%TO.C,R12*%
X4846359Y4280000D02*
X5153641Y4280000D01*
X4846359Y3520000D02*
X5153641Y3520000D01*
%TO.C,C30*%
X8660000Y22507836D02*
X8660000Y22292164D01*
X7940000Y22507836D02*
X7940000Y22292164D01*
%TO.C,C46*%
X-3007836Y-6240000D02*
X-2792164Y-6240000D01*
X-3007836Y-6960000D02*
X-2792164Y-6960000D01*
%TO.C,R21*%
X-6246359Y17120000D02*
X-6553641Y17120000D01*
X-6246359Y17880000D02*
X-6553641Y17880000D01*
%TO.C,C55*%
X-4007836Y-25240000D02*
X-3792164Y-25240000D01*
X-4007836Y-25960000D02*
X-3792164Y-25960000D01*
%TO.C,R16*%
X9780000Y11153641D02*
X9780000Y10846359D01*
X9020000Y11153641D02*
X9020000Y10846359D01*
%TO.C,R4*%
X8180000Y-15946359D02*
X8180000Y-16253641D01*
X7420000Y-15946359D02*
X7420000Y-16253641D01*
%TO.C,C38*%
X-3292164Y25040000D02*
X-3507836Y25040000D01*
X-3292164Y25760000D02*
X-3507836Y25760000D01*
%TO.C,C2*%
X13611252Y-24635000D02*
X13088748Y-24635000D01*
X13611252Y-23165000D02*
X13088748Y-23165000D01*
%TO.C,U3*%
X4342500Y9657500D02*
X3722500Y9657500D01*
X3722500Y9657500D02*
X3722500Y7927500D01*
X4652500Y9247500D02*
X4342500Y9657500D01*
X4652500Y7927500D02*
X4652500Y9247500D01*
X3722500Y7927500D02*
X4652500Y7927500D01*
%TO.C,C27*%
X9760000Y22507836D02*
X9760000Y22292164D01*
X9040000Y22507836D02*
X9040000Y22292164D01*
%TO.C,C48*%
X-7760000Y-9007836D02*
X-7760000Y-8792164D01*
X-7040000Y-9007836D02*
X-7040000Y-8792164D01*
%TO.C,C31*%
X4907836Y25040000D02*
X4692164Y25040000D01*
X4907836Y25760000D02*
X4692164Y25760000D01*
%TO.C,J6*%
X-1530000Y-31620000D02*
X-1530000Y-30380000D01*
X-3100000Y-32200000D02*
X-3400000Y-32500000D01*
X-3400000Y-32500000D02*
X-3700000Y-32200000D01*
X-3700000Y-32200000D02*
X-3100000Y-32200000D01*
X-4020000Y-32870000D02*
X-2780000Y-32870000D01*
X-4020000Y-29130000D02*
X-2780000Y-29130000D01*
X-5270000Y-31620000D02*
X-5270000Y-30380000D01*
%TO.C,C24*%
X8660000Y8807836D02*
X8660000Y8592164D01*
X7940000Y8807836D02*
X7940000Y8592164D01*
%TO.C,C52*%
X-3007836Y-19940000D02*
X-2792164Y-19940000D01*
X-3007836Y-20660000D02*
X-2792164Y-20660000D01*
%TO.C,J1*%
X16170000Y-31620000D02*
X16170000Y-30380000D01*
X14600000Y-32200000D02*
X14300000Y-32500000D01*
X14300000Y-32500000D02*
X14000000Y-32200000D01*
X14000000Y-32200000D02*
X14600000Y-32200000D01*
X13680000Y-32870000D02*
X14920000Y-32870000D01*
X13680000Y-29130000D02*
X14920000Y-29130000D01*
X12430000Y-31620000D02*
X12430000Y-30380000D01*
%TO.C,R25*%
X-8880000Y-25053641D02*
X-8880000Y-24746359D01*
X-8120000Y-25053641D02*
X-8120000Y-24746359D01*
%TO.C,C25*%
X4907836Y11340000D02*
X4692164Y11340000D01*
X4907836Y12060000D02*
X4692164Y12060000D01*
%TO.C,C22*%
X3907836Y6040000D02*
X3692164Y6040000D01*
X3907836Y6760000D02*
X3692164Y6760000D01*
%TO.C,U7*%
X-3442500Y-9857500D02*
X-2822500Y-9857500D01*
X-2822500Y-9857500D02*
X-2822500Y-8127500D01*
X-3752500Y-9447500D02*
X-3442500Y-9857500D01*
X-3752500Y-8127500D02*
X-3752500Y-9447500D01*
X-2822500Y-8127500D02*
X-3752500Y-8127500D01*
%TO.C,C54*%
X-7760000Y-22707836D02*
X-7760000Y-22492164D01*
X-7040000Y-22707836D02*
X-7040000Y-22492164D01*
%TO.C,C12*%
X3440000Y-9007836D02*
X3440000Y-8792164D01*
X4160000Y-9007836D02*
X4160000Y-8792164D01*
%TO.C,R3*%
X7146359Y-14120000D02*
X7453641Y-14120000D01*
X7146359Y-14880000D02*
X7453641Y-14880000D01*
%TO.C,C49*%
X-4007836Y-11540000D02*
X-3792164Y-11540000D01*
X-4007836Y-12260000D02*
X-3792164Y-12260000D01*
%TO.C,R10*%
X2320000Y-11353642D02*
X2320000Y-11046360D01*
X3080000Y-11353642D02*
X3080000Y-11046360D01*
%TO.C,R17*%
X9780000Y24853641D02*
X9780000Y24546359D01*
X9020000Y24853641D02*
X9020000Y24546359D01*
%TO.C,C44*%
X-7007836Y-11540000D02*
X-6792164Y-11540000D01*
X-7007836Y-12260000D02*
X-6792164Y-12260000D01*
%TO.C,C33*%
X-1440000Y8807836D02*
X-1440000Y8592164D01*
X-2160000Y8807836D02*
X-2160000Y8592164D01*
%TO.C,C3*%
X13611252Y-26835000D02*
X13088748Y-26835000D01*
X13611252Y-25365000D02*
X13088748Y-25365000D01*
%TO.C,J8*%
X3830000Y31620000D02*
X3830000Y30380000D01*
X5400000Y32200000D02*
X5700000Y32500000D01*
X5700000Y32500000D02*
X6000000Y32200000D01*
X6000000Y32200000D02*
X5400000Y32200000D01*
X6320000Y32870000D02*
X5080000Y32870000D01*
X6320000Y29130000D02*
X5080000Y29130000D01*
X7570000Y31620000D02*
X7570000Y30380000D01*
%TO.C,R13*%
X4953641Y13920000D02*
X4646359Y13920000D01*
X4953641Y14680000D02*
X4646359Y14680000D01*
%TO.C,R6*%
X-3946359Y-4480000D02*
X-4253641Y-4480000D01*
X-3946359Y-3720000D02*
X-4253641Y-3720000D01*
%TO.C,C36*%
X-2540000Y8807836D02*
X-2540000Y8592164D01*
X-3260000Y8807836D02*
X-3260000Y8592164D01*
%TO.C,C11*%
X4540000Y-9007836D02*
X4540000Y-8792164D01*
X5260000Y-9007836D02*
X5260000Y-8792164D01*
%TO.C,C26*%
X7907836Y25040000D02*
X7692164Y25040000D01*
X7907836Y25760000D02*
X7692164Y25760000D01*
%TO.C,R15*%
X4953641Y17120000D02*
X4646359Y17120000D01*
X4953641Y17880000D02*
X4646359Y17880000D01*
%TO.C,C20*%
X7907836Y11340000D02*
X7692164Y11340000D01*
X7907836Y12060000D02*
X7692164Y12060000D01*
%TO.C,U8*%
X-3442500Y-23557500D02*
X-2822500Y-23557500D01*
X-2822500Y-23557500D02*
X-2822500Y-21827500D01*
X-3752500Y-23147500D02*
X-3442500Y-23557500D01*
X-3752500Y-21827500D02*
X-3752500Y-23147500D01*
X-2822500Y-21827500D02*
X-3752500Y-21827500D01*
%TO.C,U6*%
X-6857500Y23357500D02*
X-7477500Y23357500D01*
X-7477500Y23357500D02*
X-7477500Y21627500D01*
X-6547500Y22947500D02*
X-6857500Y23357500D01*
X-6547500Y21627500D02*
X-6547500Y22947500D01*
X-7477500Y21627500D02*
X-6547500Y21627500D01*
%TO.C,C7*%
X-8761252Y-2365000D02*
X-8238748Y-2365000D01*
X-8761252Y-3835000D02*
X-8238748Y-3835000D01*
%TO.C,G\u002A\u002A\u002A*%
G36*
X-17605062Y-6634785D02*
G01*
X-17542377Y-6731190D01*
X-17602137Y-6862296D01*
X-17703276Y-6901616D01*
X-17831226Y-6861775D01*
X-17891892Y-6756913D01*
X-17854452Y-6681117D01*
X-17720270Y-6619169D01*
X-17605062Y-6634785D01*
G37*
G36*
X-16441709Y3440694D02*
G01*
X-16418213Y3277131D01*
X-16460288Y3074118D01*
X-16502910Y2905422D01*
X-16459260Y2832967D01*
X-16428636Y2811096D01*
X-16433640Y2714868D01*
X-16537771Y2666072D01*
X-16788357Y2634671D01*
X-17177362Y2624024D01*
X-17396221Y2625018D01*
X-17642158Y2633216D01*
X-17779817Y2654362D01*
X-17836496Y2693958D01*
X-17839489Y2757508D01*
X-17823145Y2802637D01*
X-17746456Y2860093D01*
X-17581718Y2893999D01*
X-17296721Y2913619D01*
X-17276619Y2914509D01*
X-17005794Y2932161D01*
X-16846476Y2963983D01*
X-16759888Y3023946D01*
X-16707251Y3126025D01*
X-16664686Y3269748D01*
X-16653285Y3398967D01*
X-16652795Y3434150D01*
X-16576166Y3517079D01*
X-16519460Y3521551D01*
X-16441709Y3440694D01*
G37*
G36*
X15160954Y-5093113D02*
G01*
X15096386Y-5329269D01*
X14899675Y-5506708D01*
X14582483Y-5614074D01*
X14375145Y-5639380D01*
X14024056Y-5627639D01*
X13716306Y-5553775D01*
X13487224Y-5428098D01*
X13372142Y-5260915D01*
X13348072Y-5119235D01*
X13354479Y-5079880D01*
X13572072Y-5079880D01*
X13600032Y-5180799D01*
X13719610Y-5306025D01*
X13753583Y-5322304D01*
X14006935Y-5381139D01*
X14309773Y-5382820D01*
X14596897Y-5331775D01*
X14803111Y-5232432D01*
X14983183Y-5079880D01*
X14803111Y-4927327D01*
X14783820Y-4911688D01*
X14562927Y-4807041D01*
X14245094Y-4774775D01*
X14195450Y-4775211D01*
X13849712Y-4814146D01*
X13641628Y-4915834D01*
X13572072Y-5079880D01*
X13354479Y-5079880D01*
X13390544Y-4858361D01*
X13565298Y-4672976D01*
X13871979Y-4563354D01*
X14310237Y-4529772D01*
X14503436Y-4540790D01*
X14844000Y-4628382D01*
X15064189Y-4800310D01*
X15158506Y-5053181D01*
X15160143Y-5079880D01*
X15160954Y-5093113D01*
G37*
G36*
X15164158Y-7759617D02*
G01*
X15087693Y-7985379D01*
X14886868Y-8168295D01*
X14858213Y-8182964D01*
X14613498Y-8249829D01*
X14301423Y-8272004D01*
X13976025Y-8252237D01*
X13691338Y-8193274D01*
X13501398Y-8097863D01*
X13404223Y-7975288D01*
X13338758Y-7738465D01*
X13341083Y-7726383D01*
X13585925Y-7726383D01*
X13663015Y-7873182D01*
X13716993Y-7912542D01*
X13926179Y-7986734D01*
X14198908Y-8027596D01*
X14473767Y-8028554D01*
X14689342Y-7983035D01*
X14741653Y-7958371D01*
X14899563Y-7825881D01*
X14916073Y-7681495D01*
X14796623Y-7545920D01*
X14546652Y-7439864D01*
X14275999Y-7398080D01*
X14006424Y-7415474D01*
X13783984Y-7484605D01*
X13635032Y-7592549D01*
X13585925Y-7726383D01*
X13341083Y-7726383D01*
X13384307Y-7501806D01*
X13538269Y-7320175D01*
X13739287Y-7230163D01*
X14072080Y-7164182D01*
X14431195Y-7156993D01*
X14750559Y-7214363D01*
X14965418Y-7329354D01*
X15121616Y-7528459D01*
X15149781Y-7681495D01*
X15164158Y-7759617D01*
G37*
G36*
X13507601Y-5857663D02*
G01*
X13557446Y-5962323D01*
X13572072Y-6190076D01*
X13572072Y-6537510D01*
X13998584Y-6190076D01*
X14048903Y-6149594D01*
X14337140Y-5948150D01*
X14566801Y-5860159D01*
X14768511Y-5879670D01*
X14972896Y-6000731D01*
X15107448Y-6165482D01*
X15164355Y-6400044D01*
X15121016Y-6635604D01*
X14987220Y-6826801D01*
X14772752Y-6928274D01*
X14657400Y-6941152D01*
X14525130Y-6909374D01*
X14487387Y-6791594D01*
X14515050Y-6728162D01*
X14637256Y-6681682D01*
X14720390Y-6667852D01*
X14851426Y-6561965D01*
X14905766Y-6397687D01*
X14873052Y-6230473D01*
X14742931Y-6115781D01*
X14634739Y-6104174D01*
X14463460Y-6165680D01*
X14230534Y-6320428D01*
X13916625Y-6579261D01*
X13719969Y-6740003D01*
X13543614Y-6863318D01*
X13439899Y-6910510D01*
X13384394Y-6856923D01*
X13353042Y-6684349D01*
X13343243Y-6376576D01*
X13344911Y-6209418D01*
X13359916Y-5986949D01*
X13395494Y-5874043D01*
X13457657Y-5842643D01*
X13507601Y-5857663D01*
G37*
G36*
X-16457890Y1504532D02*
G01*
X-16627466Y1245184D01*
X-16823397Y1098011D01*
X-17107353Y1010709D01*
X-17384981Y1039227D01*
X-17623667Y1171495D01*
X-17790797Y1395444D01*
X-17853754Y1699003D01*
X-17835730Y1988926D01*
X-17771380Y2180654D01*
X-17657354Y2242643D01*
X-17608571Y2220487D01*
X-17572101Y2100088D01*
X-17570169Y1853810D01*
X-17571930Y1807850D01*
X-17566226Y1580664D01*
X-17519249Y1444816D01*
X-17415165Y1348711D01*
X-17243544Y1232444D01*
X-17243544Y1708709D01*
X-17014715Y1708709D01*
X-17002698Y1486360D01*
X-16954773Y1351678D01*
X-16868193Y1362747D01*
X-16740734Y1518018D01*
X-16673082Y1632729D01*
X-16660028Y1750112D01*
X-16740734Y1899400D01*
X-16849045Y2038000D01*
X-16942568Y2074234D01*
X-16997049Y1964987D01*
X-17014715Y1708709D01*
X-17243544Y1708709D01*
X-17243544Y2414264D01*
X-16995646Y2366673D01*
X-16992994Y2366160D01*
X-16699682Y2245578D01*
X-16505236Y2038960D01*
X-16420893Y1780534D01*
X-16424971Y1750112D01*
X-16457890Y1504532D01*
G37*
G36*
X-17310624Y-974435D02*
G01*
X-17028772Y-996133D01*
X-16833394Y-1034028D01*
X-16701176Y-1102231D01*
X-16585999Y-1216125D01*
X-16455210Y-1436698D01*
X-16408211Y-1709287D01*
X-16477923Y-1950539D01*
X-16506635Y-2015420D01*
X-16466982Y-2113633D01*
X-16438792Y-2140709D01*
X-16437372Y-2249130D01*
X-16450705Y-2262713D01*
X-16579375Y-2304866D01*
X-16799624Y-2330345D01*
X-17070859Y-2339743D01*
X-17352483Y-2333654D01*
X-17603904Y-2312672D01*
X-17784526Y-2277391D01*
X-17853754Y-2228405D01*
X-17807800Y-2166205D01*
X-17647048Y-2120625D01*
X-17352736Y-2090974D01*
X-17306576Y-2087857D01*
X-17004959Y-2049904D01*
X-16823818Y-1976245D01*
X-16735107Y-1847336D01*
X-16710778Y-1643633D01*
X-16737036Y-1464676D01*
X-16839968Y-1345131D01*
X-17043951Y-1283531D01*
X-17373213Y-1266066D01*
X-17625243Y-1261974D01*
X-17775190Y-1241466D01*
X-17839862Y-1192966D01*
X-17853754Y-1104906D01*
X-17852899Y-1070856D01*
X-17831188Y-1001956D01*
X-17755346Y-968150D01*
X-17592712Y-961592D01*
X-17310624Y-974435D01*
G37*
G36*
X13481291Y-9814334D02*
G01*
X13550878Y-9914528D01*
X13586962Y-10151561D01*
X13610210Y-10494112D01*
X13966371Y-10189022D01*
X14277867Y-9956148D01*
X14546984Y-9840555D01*
X14774895Y-9852171D01*
X14978127Y-9987709D01*
X14993853Y-10003937D01*
X15137832Y-10244996D01*
X15156953Y-10497446D01*
X15057239Y-10721175D01*
X14844713Y-10876073D01*
X14765783Y-10904136D01*
X14593430Y-10915736D01*
X14505024Y-10815372D01*
X14539483Y-10732258D01*
X14673833Y-10649662D01*
X14725521Y-10627873D01*
X14892847Y-10497824D01*
X14918809Y-10341753D01*
X14798129Y-10179617D01*
X14778866Y-10164315D01*
X14672037Y-10099976D01*
X14563006Y-10093159D01*
X14424225Y-10155269D01*
X14228143Y-10297712D01*
X13947212Y-10531892D01*
X13943194Y-10535318D01*
X13727468Y-10707506D01*
X13547953Y-10830142D01*
X13443147Y-10876877D01*
X13435498Y-10876316D01*
X13381760Y-10816951D01*
X13352251Y-10645801D01*
X13343243Y-10342943D01*
X13344401Y-10204372D01*
X13358514Y-9967016D01*
X13393045Y-9844083D01*
X13453478Y-9809009D01*
X13481291Y-9814334D01*
G37*
G36*
X13487616Y-3181305D02*
G01*
X13552847Y-3287848D01*
X13586962Y-3529325D01*
X13610210Y-3885678D01*
X13977161Y-3567463D01*
X14160717Y-3419928D01*
X14350375Y-3292739D01*
X14472957Y-3240466D01*
X14583928Y-3238749D01*
X14874453Y-3302510D01*
X15075296Y-3450011D01*
X15171149Y-3654746D01*
X15146703Y-3890209D01*
X14986650Y-4129893D01*
X14849171Y-4237931D01*
X14675660Y-4308266D01*
X14541325Y-4298526D01*
X14487387Y-4202703D01*
X14499184Y-4149597D01*
X14589980Y-4088288D01*
X14694835Y-4048024D01*
X14834671Y-3931271D01*
X14843833Y-3921016D01*
X14929953Y-3776412D01*
X14895910Y-3645235D01*
X14859123Y-3593690D01*
X14721598Y-3500003D01*
X14540084Y-3515615D01*
X14298761Y-3644795D01*
X13981808Y-3891810D01*
X13891585Y-3967864D01*
X13669529Y-4146394D01*
X13499783Y-4270561D01*
X13413419Y-4317117D01*
X13406850Y-4314613D01*
X13374561Y-4220758D01*
X13351834Y-4018480D01*
X13343243Y-3745045D01*
X13345255Y-3553324D01*
X13360448Y-3324508D01*
X13394836Y-3206479D01*
X13453478Y-3172973D01*
X13487616Y-3181305D01*
G37*
G36*
X-16446659Y-3446787D02*
G01*
X-16627466Y-3712774D01*
X-16823397Y-3859947D01*
X-17107353Y-3947249D01*
X-17384981Y-3918731D01*
X-17623667Y-3786463D01*
X-17790797Y-3562514D01*
X-17853754Y-3258955D01*
X-17834126Y-2958597D01*
X-17768333Y-2774316D01*
X-17652275Y-2715315D01*
X-17591054Y-2744328D01*
X-17571605Y-2857283D01*
X-17592626Y-3086441D01*
X-17604628Y-3183388D01*
X-17611869Y-3374663D01*
X-17569006Y-3490174D01*
X-17461770Y-3584208D01*
X-17281682Y-3710848D01*
X-17243544Y-3155875D01*
X-17239586Y-3098274D01*
X-17004540Y-3098274D01*
X-16999924Y-3335130D01*
X-16976577Y-3742983D01*
X-16804955Y-3523968D01*
X-16782059Y-3494236D01*
X-16676320Y-3340257D01*
X-16633334Y-3247413D01*
X-16634384Y-3235708D01*
X-16688739Y-3125037D01*
X-16793360Y-2996312D01*
X-16903470Y-2897984D01*
X-16974290Y-2878503D01*
X-16991292Y-2928641D01*
X-17004540Y-3098274D01*
X-17239586Y-3098274D01*
X-17205406Y-2600901D01*
X-16976577Y-2622674D01*
X-16770126Y-2691036D01*
X-16576126Y-2836687D01*
X-16525116Y-2899928D01*
X-16412154Y-3169214D01*
X-16421875Y-3247413D01*
X-16446659Y-3446787D01*
G37*
G36*
X-17047253Y-4242531D02*
G01*
X-16853873Y-4433875D01*
X-16711600Y-4767897D01*
X-16648092Y-4958547D01*
X-16518209Y-5201075D01*
X-16375001Y-5294693D01*
X-16220208Y-5237739D01*
X-16148530Y-5134344D01*
X-16104079Y-4923820D01*
X-16125614Y-4703189D01*
X-16213814Y-4545946D01*
X-16220789Y-4540009D01*
X-16312328Y-4409886D01*
X-16314642Y-4292122D01*
X-16225636Y-4240841D01*
X-16139150Y-4259250D01*
X-15984917Y-4390270D01*
X-15874595Y-4613577D01*
X-15832433Y-4889189D01*
X-15837258Y-4997568D01*
X-15920092Y-5290812D01*
X-16099237Y-5474171D01*
X-16366367Y-5537537D01*
X-16605204Y-5486118D01*
X-16798374Y-5306203D01*
X-16909864Y-4998598D01*
X-16925143Y-4929430D01*
X-17032743Y-4671869D01*
X-17186193Y-4513275D01*
X-17361180Y-4470700D01*
X-17533394Y-4561201D01*
X-17587932Y-4645598D01*
X-17623998Y-4859174D01*
X-17583478Y-5090755D01*
X-17472373Y-5270570D01*
X-17372102Y-5386750D01*
X-17319820Y-5511221D01*
X-17320756Y-5532491D01*
X-17374156Y-5620338D01*
X-17486460Y-5611309D01*
X-17625353Y-5524568D01*
X-17758521Y-5379282D01*
X-17853648Y-5194616D01*
X-17908566Y-4875226D01*
X-17848754Y-4571769D01*
X-17674176Y-4341239D01*
X-17396096Y-4207927D01*
X-17293983Y-4192030D01*
X-17047253Y-4242531D01*
G37*
G36*
X14189000Y-8556530D02*
G01*
X14320124Y-8633410D01*
X14476027Y-8594668D01*
X14586764Y-8547179D01*
X14749340Y-8512312D01*
X14815684Y-8522610D01*
X14987419Y-8633564D01*
X15120445Y-8825251D01*
X15173874Y-9046246D01*
X15151637Y-9186655D01*
X15049219Y-9386611D01*
X14898142Y-9528257D01*
X14736916Y-9565801D01*
X14732566Y-9564934D01*
X14605384Y-9496672D01*
X14612609Y-9393897D01*
X14752379Y-9289854D01*
X14753116Y-9289517D01*
X14905973Y-9157098D01*
X14938203Y-8985667D01*
X14840298Y-8825441D01*
X14713707Y-8773980D01*
X14554719Y-8822775D01*
X14447013Y-8977016D01*
X14426688Y-9025238D01*
X14329329Y-9112928D01*
X14228649Y-9095084D01*
X14182282Y-8972654D01*
X14177184Y-8922807D01*
X14083440Y-8774856D01*
X13912940Y-8706135D01*
X13720053Y-8743588D01*
X13615823Y-8841244D01*
X13579828Y-9015047D01*
X13650603Y-9196084D01*
X13819970Y-9335881D01*
X13937231Y-9400364D01*
X14025210Y-9501991D01*
X13978040Y-9606444D01*
X13962960Y-9617832D01*
X13829024Y-9624819D01*
X13645791Y-9555378D01*
X13469099Y-9428979D01*
X13368320Y-9271253D01*
X13324030Y-9018768D01*
X13367490Y-8764274D01*
X13496618Y-8572584D01*
X13710223Y-8462909D01*
X13968025Y-8450314D01*
X14189000Y-8556530D01*
G37*
G36*
X15988012Y4335855D02*
G01*
X16012913Y4192993D01*
X16015439Y4129269D01*
X16079278Y3924614D01*
X16241177Y3789412D01*
X16517253Y3714794D01*
X16923624Y3691892D01*
X17529229Y3691892D01*
X17552903Y3977928D01*
X17569035Y4107132D01*
X17622602Y4231139D01*
X17729129Y4263964D01*
X17798882Y4253766D01*
X17871738Y4172573D01*
X17905355Y3977928D01*
X17929029Y3691892D01*
X18297645Y3691892D01*
X18434229Y3688078D01*
X18627399Y3651837D01*
X18712807Y3570594D01*
X18734163Y3496743D01*
X18707462Y3385665D01*
X18567733Y3327395D01*
X18296699Y3310511D01*
X18167518Y3309176D01*
X18003956Y3291608D01*
X17934366Y3238855D01*
X17919820Y3132533D01*
X17909104Y3012848D01*
X17868969Y2903704D01*
X17816450Y2870709D01*
X17691060Y2890011D01*
X17583859Y3002694D01*
X17538438Y3173213D01*
X17533863Y3214552D01*
X17492534Y3265111D01*
X17384332Y3294145D01*
X17180719Y3307372D01*
X16853155Y3310511D01*
X16577222Y3312416D01*
X16337412Y3325257D01*
X16176634Y3358527D01*
X16054050Y3421663D01*
X15928822Y3524101D01*
X15854584Y3595029D01*
X15722037Y3791557D01*
X15679721Y4038966D01*
X15683628Y4223560D01*
X15729594Y4326160D01*
X15841291Y4364615D01*
X15887492Y4369419D01*
X15988012Y4335855D01*
G37*
G36*
X-16451401Y-201651D02*
G01*
X-16585126Y-450322D01*
X-16822175Y-626569D01*
X-17052957Y-692091D01*
X-17356709Y-671919D01*
X-17612135Y-539035D01*
X-17788172Y-312023D01*
X-17853754Y-9467D01*
X-17851892Y55512D01*
X-17842705Y117001D01*
X-17611124Y117001D01*
X-17606905Y-104590D01*
X-17485436Y-300791D01*
X-17329672Y-393323D01*
X-17111196Y-412949D01*
X-16905898Y-340610D01*
X-16748621Y-199058D01*
X-16674208Y-11045D01*
X-16717501Y200676D01*
X-16792774Y324263D01*
X-16946728Y451888D01*
X-17174515Y487120D01*
X-17339415Y454900D01*
X-17515994Y318619D01*
X-17611124Y117001D01*
X-17842705Y117001D01*
X-17820369Y266487D01*
X-17762222Y396757D01*
X-17752576Y406732D01*
X-17717935Y477774D01*
X-17777631Y490394D01*
X-17891497Y450013D01*
X-18019370Y362052D01*
X-18064183Y312208D01*
X-18146210Y111041D01*
X-18140538Y-107562D01*
X-18044445Y-274474D01*
X-18035585Y-282088D01*
X-17947118Y-409708D01*
X-17940165Y-527698D01*
X-18019370Y-579579D01*
X-18170362Y-532913D01*
X-18303634Y-376452D01*
X-18379013Y-148271D01*
X-18390315Y111524D01*
X-18331356Y362832D01*
X-18195953Y565546D01*
X-18094039Y637098D01*
X-17819944Y737297D01*
X-17485050Y787988D01*
X-17145739Y782848D01*
X-16858388Y715554D01*
X-16659696Y590573D01*
X-16489734Y357631D01*
X-16419953Y80612D01*
X-16430165Y-11045D01*
X-16451401Y-201651D01*
G37*
G36*
X-16590801Y-7216224D02*
G01*
X-16267611Y-7221153D01*
X-16057958Y-7233808D01*
X-15937877Y-7257458D01*
X-15883403Y-7295369D01*
X-15870571Y-7350810D01*
X-15894082Y-7409188D01*
X-16022088Y-7523268D01*
X-16271121Y-7675962D01*
X-16652137Y-7874612D01*
X-17433703Y-8263220D01*
X-16652137Y-8655429D01*
X-16411518Y-8780669D01*
X-16124212Y-8946673D01*
X-15937286Y-9077848D01*
X-15870571Y-9161356D01*
X-15870811Y-9167483D01*
X-15898959Y-9213090D01*
X-15989692Y-9244075D01*
X-16165485Y-9263016D01*
X-16448816Y-9272490D01*
X-16862162Y-9275075D01*
X-16925198Y-9275037D01*
X-17319652Y-9271730D01*
X-17587170Y-9261243D01*
X-17750315Y-9240972D01*
X-17831655Y-9208312D01*
X-17853754Y-9160661D01*
X-17853721Y-9158112D01*
X-17823788Y-9102263D01*
X-17720040Y-9067453D01*
X-17516286Y-9049041D01*
X-17186337Y-9042386D01*
X-16518919Y-9038525D01*
X-17191546Y-8695702D01*
X-17373920Y-8598884D01*
X-17621850Y-8451572D01*
X-17785433Y-8332908D01*
X-17837793Y-8260974D01*
X-17811803Y-8228776D01*
X-17674524Y-8129495D01*
X-17448374Y-7995240D01*
X-17165166Y-7845655D01*
X-16518919Y-7522242D01*
X-17186337Y-7521481D01*
X-17429597Y-7519987D01*
X-17659298Y-7510648D01*
X-17786944Y-7486737D01*
X-17841955Y-7441497D01*
X-17853754Y-7368168D01*
X-17846979Y-7310299D01*
X-17809242Y-7266239D01*
X-17716203Y-7238481D01*
X-17543551Y-7223285D01*
X-17266974Y-7216909D01*
X-16862162Y-7215615D01*
X-16590801Y-7216224D01*
G37*
G36*
X16253740Y-8875182D02*
G01*
X16294046Y-8948121D01*
X16276141Y-9081239D01*
X16179563Y-9301342D01*
X16139287Y-9387876D01*
X16023661Y-9820996D01*
X16050330Y-10234997D01*
X16215093Y-10609476D01*
X16513747Y-10924029D01*
X16637499Y-11012187D01*
X16809015Y-11096322D01*
X17013152Y-11134711D01*
X17309609Y-11143844D01*
X17507418Y-11140678D01*
X17740785Y-11115109D01*
X17917762Y-11050274D01*
X18097459Y-10930141D01*
X18161654Y-10877915D01*
X18357579Y-10681948D01*
X18491972Y-10495340D01*
X18555121Y-10331937D01*
X18604334Y-9972349D01*
X18567761Y-9599064D01*
X18447985Y-9283283D01*
X18441517Y-9272650D01*
X18349714Y-9102185D01*
X18339997Y-8998953D01*
X18406303Y-8908454D01*
X18432346Y-8883331D01*
X18534490Y-8832002D01*
X18652432Y-8900246D01*
X18696435Y-8941314D01*
X18858344Y-9200224D01*
X18957060Y-9547849D01*
X18988308Y-9941300D01*
X18947813Y-10337686D01*
X18831296Y-10694117D01*
X18646309Y-10976051D01*
X18334548Y-11276045D01*
X17980652Y-11483369D01*
X17878553Y-11515378D01*
X17558179Y-11557830D01*
X17187087Y-11553209D01*
X16831003Y-11504654D01*
X16555655Y-11415304D01*
X16365668Y-11295594D01*
X16089275Y-11055109D01*
X15852000Y-10779554D01*
X15702698Y-10520194D01*
X15687006Y-10473585D01*
X15638076Y-10174308D01*
X15636953Y-9817401D01*
X15680388Y-9471318D01*
X15765133Y-9204511D01*
X15802166Y-9135885D01*
X15963060Y-8918812D01*
X16118885Y-8828339D01*
X16253740Y-8875182D01*
G37*
G36*
X17188444Y2471252D02*
G01*
X17532511Y2468554D01*
X17762297Y2460010D01*
X17899987Y2442245D01*
X17967767Y2411881D01*
X17987820Y2365542D01*
X17982332Y2299850D01*
X17976968Y2267925D01*
X17948833Y2201726D01*
X17878727Y2157725D01*
X17739027Y2129039D01*
X17502113Y2108788D01*
X17140362Y2090090D01*
X16818359Y2071536D01*
X16493793Y2033709D01*
X16278242Y1968545D01*
X16146608Y1861919D01*
X16073791Y1699704D01*
X16034696Y1467775D01*
X16024572Y1341308D01*
X16048500Y1122893D01*
X16150577Y945048D01*
X16168791Y922987D01*
X16248987Y845184D01*
X16353178Y793164D01*
X16513488Y759458D01*
X16762044Y736599D01*
X17130971Y717117D01*
X17297770Y709215D01*
X17607160Y690861D01*
X17802853Y668264D01*
X17912306Y634658D01*
X17962979Y583277D01*
X17982332Y507357D01*
X17988125Y445052D01*
X17969358Y392306D01*
X17898616Y360023D01*
X17750757Y343182D01*
X17500634Y336760D01*
X17123104Y335736D01*
X16239501Y335736D01*
X15963835Y588365D01*
X15795882Y764669D01*
X15696929Y957777D01*
X15651272Y1224991D01*
X15647117Y1521325D01*
X15729160Y1828062D01*
X15790562Y1957223D01*
X15799208Y2057484D01*
X15725345Y2133860D01*
X15668543Y2198254D01*
X15654882Y2346027D01*
X15678611Y2383822D01*
X15745716Y2421737D01*
X15874077Y2447073D01*
X16086511Y2462218D01*
X16405834Y2469556D01*
X16854863Y2471472D01*
X17188444Y2471252D01*
G37*
G36*
X17185371Y-3325729D02*
G01*
X17530669Y-3328368D01*
X17761314Y-3336836D01*
X17899554Y-3354541D01*
X17967639Y-3384889D01*
X17987815Y-3431288D01*
X17982332Y-3497147D01*
X17976456Y-3532005D01*
X17948410Y-3596820D01*
X17878581Y-3638702D01*
X17739281Y-3664014D01*
X17502824Y-3679120D01*
X17141522Y-3690382D01*
X16996689Y-3694390D01*
X16678779Y-3707141D01*
X16469485Y-3727783D01*
X16336377Y-3763653D01*
X16247026Y-3822089D01*
X16169000Y-3910429D01*
X16108847Y-4001529D01*
X16022522Y-4281377D01*
X16042652Y-4571242D01*
X16160706Y-4824667D01*
X16368156Y-4995192D01*
X16410347Y-5009789D01*
X16612938Y-5045599D01*
X16902930Y-5070527D01*
X17232421Y-5079880D01*
X17468999Y-5082760D01*
X17756551Y-5103551D01*
X17922703Y-5150420D01*
X17986532Y-5230395D01*
X17967111Y-5350499D01*
X17962879Y-5359744D01*
X17899759Y-5409078D01*
X17758014Y-5440207D01*
X17513077Y-5456412D01*
X17140382Y-5460976D01*
X17031854Y-5460647D01*
X16679891Y-5452130D01*
X16433949Y-5428065D01*
X16256987Y-5383078D01*
X16111961Y-5311797D01*
X16028552Y-5254043D01*
X15791109Y-4982595D01*
X15655696Y-4641529D01*
X15634036Y-4274322D01*
X15737854Y-3924450D01*
X15781881Y-3832716D01*
X15800635Y-3711315D01*
X15728359Y-3607595D01*
X15707380Y-3585850D01*
X15645087Y-3492029D01*
X15666311Y-3422949D01*
X15784821Y-3375186D01*
X16014386Y-3345312D01*
X16368776Y-3329901D01*
X16861758Y-3325525D01*
X17185371Y-3325729D01*
G37*
G36*
X15969414Y7915714D02*
G01*
X15999476Y7810885D01*
X16016666Y7609819D01*
X16029054Y7284376D01*
X16051051Y6595546D01*
X16546847Y7020960D01*
X16630460Y7092564D01*
X16988921Y7393841D01*
X17262682Y7608854D01*
X17474866Y7751643D01*
X17648596Y7836251D01*
X17806996Y7876718D01*
X17973190Y7887087D01*
X18055989Y7884871D01*
X18443310Y7802603D01*
X18736721Y7610808D01*
X18922691Y7322002D01*
X18987687Y6948702D01*
X18976950Y6836589D01*
X18870715Y6538892D01*
X18682467Y6264020D01*
X18451464Y6075876D01*
X18275265Y6013857D01*
X18051210Y5998360D01*
X17869762Y6046328D01*
X17781323Y6152033D01*
X17788570Y6233160D01*
X17895113Y6330804D01*
X18162115Y6430728D01*
X18422138Y6585859D01*
X18563577Y6774880D01*
X18606306Y7016966D01*
X18564255Y7153570D01*
X18414307Y7323782D01*
X18201989Y7453870D01*
X17976438Y7505706D01*
X17923042Y7502790D01*
X17799112Y7471073D01*
X17647943Y7393011D01*
X17448172Y7254485D01*
X17178436Y7041374D01*
X16817375Y6739556D01*
X16640478Y6591969D01*
X16336750Y6350133D01*
X16078759Y6159277D01*
X15889434Y6036001D01*
X15791701Y5996906D01*
X15783956Y5998676D01*
X15734730Y6033950D01*
X15701719Y6124760D01*
X15681893Y6295348D01*
X15672220Y6569954D01*
X15669669Y6972817D01*
X15670642Y7347276D01*
X15676586Y7622684D01*
X15691917Y7795035D01*
X15721047Y7889876D01*
X15768392Y7932754D01*
X15838364Y7949216D01*
X15838386Y7949219D01*
X15918407Y7952445D01*
X15969414Y7915714D01*
G37*
G36*
X17004843Y-6097443D02*
G01*
X17344771Y-6161338D01*
X17600765Y-6279888D01*
X17799784Y-6460083D01*
X17914611Y-6655267D01*
X17994190Y-6988097D01*
X17983827Y-7347977D01*
X17879723Y-7677061D01*
X17763350Y-7902102D01*
X18332879Y-7902102D01*
X18388655Y-7902307D01*
X18709019Y-7917634D01*
X18898740Y-7962852D01*
X18975784Y-8045782D01*
X18958118Y-8174244D01*
X18941339Y-8198813D01*
X18878553Y-8230129D01*
X18755557Y-8252039D01*
X18553895Y-8265559D01*
X18255111Y-8271704D01*
X17840748Y-8271491D01*
X17292350Y-8265937D01*
X16902010Y-8260747D01*
X16460741Y-8253125D01*
X16139635Y-8243434D01*
X15919638Y-8229642D01*
X15781696Y-8209715D01*
X15706757Y-8181619D01*
X15675766Y-8143323D01*
X15669669Y-8092793D01*
X15681813Y-8022972D01*
X15736740Y-7975282D01*
X15861873Y-7943348D01*
X16084630Y-7920198D01*
X16432432Y-7898860D01*
X16463787Y-7897140D01*
X16870547Y-7868844D01*
X17154074Y-7831884D01*
X17341898Y-7778661D01*
X17461549Y-7701578D01*
X17540557Y-7593038D01*
X17588260Y-7467067D01*
X17615906Y-7188021D01*
X17571049Y-6907728D01*
X17460051Y-6696988D01*
X17445217Y-6681310D01*
X17332364Y-6583676D01*
X17195300Y-6517505D01*
X17001943Y-6475403D01*
X16720209Y-6449980D01*
X16318018Y-6433843D01*
X16117519Y-6427045D01*
X15877002Y-6411396D01*
X15742002Y-6383946D01*
X15682799Y-6336825D01*
X15669669Y-6262162D01*
X15675753Y-6205959D01*
X15718242Y-6152602D01*
X15826529Y-6119743D01*
X16029529Y-6099952D01*
X16356156Y-6085803D01*
X16554022Y-6081212D01*
X17004843Y-6097443D01*
G37*
G36*
X17970085Y-1704711D02*
G01*
X17884107Y-1918905D01*
X17844904Y-1972440D01*
X17787061Y-2084283D01*
X17823540Y-2147307D01*
X17973680Y-2175133D01*
X18256824Y-2181381D01*
X18495766Y-2186610D01*
X18730332Y-2203376D01*
X18867035Y-2227680D01*
X18879525Y-2233110D01*
X18970703Y-2341871D01*
X18976774Y-2487606D01*
X18892342Y-2592508D01*
X18849935Y-2600557D01*
X18671016Y-2611936D01*
X18384192Y-2619001D01*
X18018057Y-2621188D01*
X17601204Y-2617933D01*
X17576990Y-2617585D01*
X17122596Y-2609145D01*
X16793087Y-2596856D01*
X16562009Y-2577439D01*
X16402907Y-2547615D01*
X16289324Y-2504107D01*
X16194806Y-2443635D01*
X15926798Y-2199517D01*
X15733692Y-1877613D01*
X15650344Y-1478989D01*
X15649195Y-1463730D01*
X15656007Y-1386438D01*
X16005256Y-1386438D01*
X16054812Y-1684914D01*
X16235874Y-1958420D01*
X16338150Y-2051307D01*
X16533129Y-2154459D01*
X16790974Y-2181381D01*
X17124032Y-2133477D01*
X17396875Y-1968347D01*
X17583876Y-1679880D01*
X17640991Y-1451760D01*
X17605647Y-1153237D01*
X17460655Y-897217D01*
X17230859Y-710174D01*
X16941106Y-618580D01*
X16616242Y-648906D01*
X16549707Y-671430D01*
X16262296Y-846672D01*
X16077615Y-1096016D01*
X16005256Y-1386438D01*
X15656007Y-1386438D01*
X15684691Y-1061000D01*
X15856773Y-714080D01*
X16172069Y-409385D01*
X16201776Y-388399D01*
X16529197Y-251447D01*
X16899949Y-227424D01*
X17270935Y-307638D01*
X17599058Y-483398D01*
X17841224Y-746012D01*
X17876430Y-811743D01*
X17964105Y-1092582D01*
X17996037Y-1409755D01*
X17992341Y-1451760D01*
X17970085Y-1704711D01*
G37*
%TO.C,J11*%
X-10830000Y-31620000D02*
X-10830000Y-30380000D01*
X-12400000Y-32200000D02*
X-12700000Y-32500000D01*
X-12700000Y-32500000D02*
X-13000000Y-32200000D01*
X-13000000Y-32200000D02*
X-12400000Y-32200000D01*
X-13320000Y-32870000D02*
X-12080000Y-32870000D01*
X-13320000Y-29130000D02*
X-12080000Y-29130000D01*
X-14570000Y-31620000D02*
X-14570000Y-30380000D01*
%TO.C,C32*%
X-3292164Y11340000D02*
X-3507836Y11340000D01*
X-3292164Y12060000D02*
X-3507836Y12060000D01*
%TO.C,C5*%
X135000Y30361252D02*
X135000Y29838748D01*
X-1335000Y30361252D02*
X-1335000Y29838748D01*
%TO.C,C39*%
X-1440000Y22507836D02*
X-1440000Y22292164D01*
X-2160000Y22507836D02*
X-2160000Y22292164D01*
%TO.C,C8*%
X4192164Y-11540000D02*
X4407836Y-11540000D01*
X4192164Y-12260000D02*
X4407836Y-12260000D01*
%TO.C,C16*%
X8192164Y-19940000D02*
X8407836Y-19940000D01*
X8192164Y-20660000D02*
X8407836Y-20660000D01*
%TO.C,R2*%
X7546359Y-3420000D02*
X7853641Y-3420000D01*
X7546359Y-4180000D02*
X7853641Y-4180000D01*
%TO.C,C9*%
X2340000Y-9007836D02*
X2340000Y-8792164D01*
X3060000Y-9007836D02*
X3060000Y-8792164D01*
%TO.C,J9*%
X-8770000Y31620000D02*
X-8770000Y30380000D01*
X-7200000Y32200000D02*
X-6900000Y32500000D01*
X-6900000Y32500000D02*
X-6600000Y32200000D01*
X-6600000Y32200000D02*
X-7200000Y32200000D01*
X-6280000Y32870000D02*
X-7520000Y32870000D01*
X-6280000Y29130000D02*
X-7520000Y29130000D01*
X-5030000Y31620000D02*
X-5030000Y30380000D01*
%TO.C,R18*%
X-6946359Y3220000D02*
X-7253641Y3220000D01*
X-6946359Y3980000D02*
X-7253641Y3980000D01*
%TO.C,R24*%
X-8880000Y-11353641D02*
X-8880000Y-11046359D01*
X-8120000Y-11353641D02*
X-8120000Y-11046359D01*
%TO.C,R1*%
X-12935000Y-4727064D02*
X-12935000Y-4272936D01*
X-11465000Y-4727064D02*
X-11465000Y-4272936D01*
%TO.C,C15*%
X2340000Y-22707836D02*
X2340000Y-22492164D01*
X3060000Y-22707836D02*
X3060000Y-22492164D01*
%TO.C,C6*%
X2335000Y30361252D02*
X2335000Y29838748D01*
X865000Y30361252D02*
X865000Y29838748D01*
%TO.C,C21*%
X9760000Y8807836D02*
X9760000Y8592164D01*
X9040000Y8807836D02*
X9040000Y8592164D01*
%TO.C,R20*%
X-7280000Y15746359D02*
X-7280000Y16053641D01*
X-6520000Y15746359D02*
X-6520000Y16053641D01*
%TO.C,C45*%
X-8860000Y-9007836D02*
X-8860000Y-8792164D01*
X-8140000Y-9007836D02*
X-8140000Y-8792164D01*
%TO.C,C42*%
X-2540000Y22507836D02*
X-2540000Y22292164D01*
X-3260000Y22507836D02*
X-3260000Y22292164D01*
%TO.C,R9*%
X-4053641Y-17320000D02*
X-3746359Y-17320000D01*
X-4053641Y-18080000D02*
X-3746359Y-18080000D01*
%TO.C,R11*%
X2320000Y-25053641D02*
X2320000Y-24746359D01*
X3080000Y-25053641D02*
X3080000Y-24746359D01*
%TO.C,R7*%
X-4053641Y-14120000D02*
X-3746359Y-14120000D01*
X-4053641Y-14880000D02*
X-3746359Y-14880000D01*
%TO.C,C37*%
X-6292164Y11340000D02*
X-6507836Y11340000D01*
X-6292164Y12060000D02*
X-6507836Y12060000D01*
%TO.C,C28*%
X3907836Y19740000D02*
X3692164Y19740000D01*
X3907836Y20460000D02*
X3692164Y20460000D01*
%TO.C,U4*%
X4342500Y23357500D02*
X3722500Y23357500D01*
X3722500Y23357500D02*
X3722500Y21627500D01*
X4652500Y22947500D02*
X4342500Y23357500D01*
X4652500Y21627500D02*
X4652500Y22947500D01*
X3722500Y21627500D02*
X4652500Y21627500D01*
%TO.C,R19*%
X-6246359Y13920000D02*
X-6553641Y13920000D01*
X-6246359Y14680000D02*
X-6553641Y14680000D01*
%TO.C,J7*%
X8470000Y-31620000D02*
X8470000Y-30380000D01*
X6900000Y-32200000D02*
X6600000Y-32500000D01*
X6600000Y-32500000D02*
X6300000Y-32200000D01*
X6300000Y-32200000D02*
X6900000Y-32200000D01*
X5980000Y-32870000D02*
X7220000Y-32870000D01*
X5980000Y-29130000D02*
X7220000Y-29130000D01*
X4730000Y-31620000D02*
X4730000Y-30380000D01*
%TO.C,C14*%
X4192164Y-25240000D02*
X4407836Y-25240000D01*
X4192164Y-25960000D02*
X4407836Y-25960000D01*
%TO.C,R23*%
X-1420000Y24853641D02*
X-1420000Y24546359D01*
X-2180000Y24853641D02*
X-2180000Y24546359D01*
%TO.C,U2*%
X7757500Y-23557500D02*
X8377500Y-23557500D01*
X8377500Y-23557500D02*
X8377500Y-21827500D01*
X7447500Y-23147500D02*
X7757500Y-23557500D01*
X7447500Y-21827500D02*
X7447500Y-23147500D01*
X8377500Y-21827500D02*
X7447500Y-21827500D01*
%TO.C,C17*%
X4540000Y-22707836D02*
X4540000Y-22492164D01*
X5260000Y-22707836D02*
X5260000Y-22492164D01*
%TO.C,C19*%
X7192164Y-25240000D02*
X7407836Y-25240000D01*
X7192164Y-25960000D02*
X7407836Y-25960000D01*
%TO.C,R14*%
X3920000Y15746359D02*
X3920000Y16053641D01*
X4680000Y15746359D02*
X4680000Y16053641D01*
%TO.C,C13*%
X7192164Y-11540000D02*
X7407836Y-11540000D01*
X7192164Y-12260000D02*
X7407836Y-12260000D01*
%TO.C,C53*%
X-6660000Y-22707836D02*
X-6660000Y-22492164D01*
X-5940000Y-22707836D02*
X-5940000Y-22492164D01*
%TO.C,C1*%
X13611252Y-22435000D02*
X13088748Y-22435000D01*
X13611252Y-20965000D02*
X13088748Y-20965000D01*
%TO.C,C10*%
X8192164Y-6240000D02*
X8407836Y-6240000D01*
X8192164Y-6960000D02*
X8407836Y-6960000D01*
%TO.C,C43*%
X-6292164Y25040000D02*
X-6507836Y25040000D01*
X-6292164Y25760000D02*
X-6507836Y25760000D01*
%TO.C,C4*%
X-2065000Y30361252D02*
X-2065000Y29838748D01*
X-3535000Y30361252D02*
X-3535000Y29838748D01*
%TO.C,C29*%
X7560000Y22507836D02*
X7560000Y22292164D01*
X6840000Y22507836D02*
X6840000Y22292164D01*
%TO.C,C34*%
X-7292164Y6040000D02*
X-7507836Y6040000D01*
X-7292164Y6760000D02*
X-7507836Y6760000D01*
%TO.C,C50*%
X-7007836Y-25240000D02*
X-6792164Y-25240000D01*
X-7007836Y-25960000D02*
X-6792164Y-25960000D01*
%TO.C,U5*%
X-6857500Y9657500D02*
X-7477500Y9657500D01*
X-7477500Y9657500D02*
X-7477500Y7927500D01*
X-6547500Y9247500D02*
X-6857500Y9657500D01*
X-6547500Y7927500D02*
X-6547500Y9247500D01*
X-7477500Y7927500D02*
X-6547500Y7927500D01*
%TO.C,C23*%
X7560000Y8807836D02*
X7560000Y8592164D01*
X6840000Y8807836D02*
X6840000Y8592164D01*
%TO.C,R5*%
X7146359Y-17320000D02*
X7453641Y-17320000D01*
X7146359Y-18080000D02*
X7453641Y-18080000D01*
%TO.C,C18*%
X3440000Y-22707836D02*
X3440000Y-22492164D01*
X4160000Y-22707836D02*
X4160000Y-22492164D01*
%TO.C,R22*%
X-1420000Y11153641D02*
X-1420000Y10846359D01*
X-2180000Y11153641D02*
X-2180000Y10846359D01*
%TO.C,G\u002A\u002A\u002A*%
G36*
X-17264619Y26811377D02*
G01*
X-18088168Y26811377D01*
X-18088168Y27020876D01*
X-17264619Y27020876D01*
X-17264619Y26811377D01*
G37*
G36*
X-15509158Y29845506D02*
G01*
X-16332707Y29845506D01*
X-16332707Y30055006D01*
X-15509158Y30055006D01*
X-15509158Y29845506D01*
G37*
G36*
X-15922739Y26679596D02*
G01*
X-15512770Y26677730D01*
X-15510771Y26571175D01*
X-15508772Y26464619D01*
X-16332707Y26464619D01*
X-16332707Y26681462D01*
X-15922739Y26679596D01*
G37*
G36*
X-16559125Y21082276D02*
G01*
X-16538905Y21080544D01*
X-16527748Y21076893D01*
X-16522746Y21070770D01*
X-16522211Y21059359D01*
X-16533547Y21048402D01*
X-16557737Y21041626D01*
X-16594156Y21039306D01*
X-16643344Y21039306D01*
X-16643344Y21082651D01*
X-16585325Y21082651D01*
X-16559125Y21082276D01*
G37*
G36*
X-16585955Y21985647D02*
G01*
X-16551031Y21983281D01*
X-16529575Y21977018D01*
X-16521760Y21966946D01*
X-16527759Y21953157D01*
X-16538146Y21946891D01*
X-16558134Y21943394D01*
X-16590048Y21942321D01*
X-16643344Y21942321D01*
X-16643344Y21985666D01*
X-16590048Y21985666D01*
X-16585955Y21985647D01*
G37*
G36*
X-17228902Y21095792D02*
G01*
X-17203588Y21090574D01*
X-17189510Y21080780D01*
X-17185153Y21065781D01*
X-17185282Y21061511D01*
X-17189355Y21046986D01*
X-17200846Y21037973D01*
X-17222041Y21033371D01*
X-17255227Y21032082D01*
X-17307963Y21032082D01*
X-17307963Y21097099D01*
X-17260532Y21097099D01*
X-17228902Y21095792D01*
G37*
G36*
X-15757611Y21999795D02*
G01*
X-15721128Y21995180D01*
X-15697248Y21984908D01*
X-15685370Y21968763D01*
X-15685272Y21968452D01*
X-15685987Y21951000D01*
X-15700014Y21938286D01*
X-15726957Y21930509D01*
X-15766414Y21927873D01*
X-15819795Y21927873D01*
X-15819795Y22000114D01*
X-15773178Y22000114D01*
X-15757611Y21999795D01*
G37*
G36*
X-14718934Y21094356D02*
G01*
X-14706010Y21079135D01*
X-14703814Y21073099D01*
X-14704167Y21053135D01*
X-14714357Y21036993D01*
X-14730807Y21027144D01*
X-14749937Y21026059D01*
X-14768170Y21036210D01*
X-14777807Y21052442D01*
X-14778020Y21072094D01*
X-14769114Y21089445D01*
X-14753255Y21100526D01*
X-14732611Y21101368D01*
X-14718934Y21094356D01*
G37*
G36*
X-15751027Y21096707D02*
G01*
X-15717137Y21092387D01*
X-15694454Y21083849D01*
X-15683771Y21071783D01*
X-15685880Y21056880D01*
X-15701571Y21039830D01*
X-15704763Y21037447D01*
X-15719856Y21029788D01*
X-15740145Y21025924D01*
X-15770200Y21024858D01*
X-15819795Y21024858D01*
X-15819795Y21097099D01*
X-15767221Y21097099D01*
X-15751027Y21096707D01*
G37*
G36*
X-17246500Y21450663D02*
G01*
X-17216629Y21447864D01*
X-17197795Y21441725D01*
X-17187977Y21431427D01*
X-17185153Y21416151D01*
X-17186650Y21400894D01*
X-17193136Y21389621D01*
X-17206969Y21382910D01*
X-17230496Y21379677D01*
X-17266063Y21378840D01*
X-17329636Y21378840D01*
X-17329636Y21451081D01*
X-17271368Y21451081D01*
X-17246500Y21450663D01*
G37*
G36*
X-17246715Y21652969D02*
G01*
X-17216725Y21649905D01*
X-17197827Y21642971D01*
X-17187982Y21631200D01*
X-17185153Y21613623D01*
X-17185968Y21603151D01*
X-17192415Y21588897D01*
X-17207002Y21579915D01*
X-17231766Y21575235D01*
X-17268747Y21573891D01*
X-17329636Y21573891D01*
X-17329636Y21653356D01*
X-17268747Y21653356D01*
X-17246715Y21652969D01*
G37*
G36*
X-16146686Y22000007D02*
G01*
X-16122555Y21999625D01*
X-16085026Y21996694D01*
X-16059422Y21990479D01*
X-16044224Y21980510D01*
X-16037913Y21966316D01*
X-16038639Y21953291D01*
X-16047864Y21941464D01*
X-16067455Y21933600D01*
X-16098697Y21929226D01*
X-16142876Y21927873D01*
X-16217121Y21927873D01*
X-16217121Y22000114D01*
X-16146686Y22000007D01*
G37*
G36*
X-16107304Y21096024D02*
G01*
X-16070626Y21091338D01*
X-16046762Y21083146D01*
X-16036061Y21071677D01*
X-16038875Y21057162D01*
X-16055553Y21039830D01*
X-16060777Y21036038D01*
X-16072486Y21030288D01*
X-16088266Y21026889D01*
X-16111570Y21025270D01*
X-16145854Y21024858D01*
X-16217121Y21024858D01*
X-16217121Y21097099D01*
X-16142876Y21097099D01*
X-16107304Y21096024D01*
G37*
G36*
X-15147477Y21544740D02*
G01*
X-15145893Y21543816D01*
X-15135611Y21530211D01*
X-15134406Y21511811D01*
X-15140828Y21493106D01*
X-15153425Y21478590D01*
X-15170744Y21472753D01*
X-15183242Y21476411D01*
X-15198521Y21487201D01*
X-15209397Y21500870D01*
X-15211639Y21516807D01*
X-15201723Y21536163D01*
X-15192278Y21545795D01*
X-15171859Y21551845D01*
X-15147477Y21544740D01*
G37*
G36*
X-14728580Y21996877D02*
G01*
X-14711156Y21985957D01*
X-14704728Y21976305D01*
X-14702245Y21957842D01*
X-14709581Y21941120D01*
X-14723921Y21929139D01*
X-14742449Y21924899D01*
X-14762349Y21931402D01*
X-14767334Y21935446D01*
X-14777716Y21953341D01*
X-14779186Y21974104D01*
X-14770853Y21991445D01*
X-14767966Y21993878D01*
X-14749726Y21999721D01*
X-14728580Y21996877D01*
G37*
G36*
X-16874516Y29867179D02*
G01*
X-17033447Y29867179D01*
X-17033447Y29708248D01*
X-16874516Y29708248D01*
X-16874516Y29614334D01*
X-17300739Y29614334D01*
X-17300739Y29707803D01*
X-17212244Y29709832D01*
X-17123748Y29711860D01*
X-17123748Y29863567D01*
X-17212244Y29865595D01*
X-17300739Y29867623D01*
X-17300739Y29961092D01*
X-16874516Y29961092D01*
X-16874516Y29867179D01*
G37*
G36*
X-18370466Y21161168D02*
G01*
X-18353764Y21152063D01*
X-18339701Y21137431D01*
X-18333788Y21122383D01*
X-18334810Y21116678D01*
X-18344624Y21101183D01*
X-18360397Y21088136D01*
X-18376617Y21082651D01*
X-18386547Y21084671D01*
X-18401901Y21094003D01*
X-18408554Y21103908D01*
X-18413253Y21122383D01*
X-18409173Y21139571D01*
X-18395586Y21155695D01*
X-18376617Y21162116D01*
X-18370466Y21161168D01*
G37*
G36*
X-17976330Y21566528D02*
G01*
X-17967747Y21561011D01*
X-17965358Y21544994D01*
X-17965764Y21534292D01*
X-17969433Y21526707D01*
X-17980096Y21523795D01*
X-18001479Y21523322D01*
X-18020344Y21524015D01*
X-18033732Y21527344D01*
X-18037599Y21534158D01*
X-18034007Y21541266D01*
X-18019312Y21544994D01*
X-18006488Y21547584D01*
X-17996867Y21555830D01*
X-17992494Y21561638D01*
X-17979033Y21566667D01*
X-17976330Y21566528D01*
G37*
G36*
X-16153181Y21533827D02*
G01*
X-16139899Y21531592D01*
X-16134012Y21525674D01*
X-16131758Y21514292D01*
X-16131371Y21510806D01*
X-16131476Y21501375D01*
X-16136450Y21496508D01*
X-16149486Y21494694D01*
X-16173777Y21494425D01*
X-16181550Y21494432D01*
X-16202521Y21494965D01*
X-16213090Y21497447D01*
X-16216450Y21503386D01*
X-16215795Y21514292D01*
X-16213950Y21524570D01*
X-16208731Y21531083D01*
X-16196595Y21533686D01*
X-16173777Y21534158D01*
X-16153181Y21533827D01*
G37*
G36*
X-17231623Y21992306D02*
G01*
X-17209321Y21990728D01*
X-17196580Y21988505D01*
X-17188127Y21980103D01*
X-17185106Y21964105D01*
X-17188871Y21947147D01*
X-17199127Y21935351D01*
X-17205394Y21933114D01*
X-17224215Y21929980D01*
X-17248297Y21928246D01*
X-17272743Y21928035D01*
X-17292659Y21929475D01*
X-17303147Y21932689D01*
X-17303954Y21933886D01*
X-17306809Y21946107D01*
X-17307963Y21965197D01*
X-17307963Y21992890D01*
X-17257985Y21992890D01*
X-17231623Y21992306D01*
G37*
G36*
X-16889966Y21082529D02*
G01*
X-16863314Y21081013D01*
X-16846892Y21077353D01*
X-16837747Y21071033D01*
X-16835297Y21067905D01*
X-16832646Y21058640D01*
X-16841855Y21049360D01*
X-16852711Y21045196D01*
X-16873687Y21041603D01*
X-16899255Y21039484D01*
X-16924704Y21039053D01*
X-16945319Y21040528D01*
X-16956390Y21044122D01*
X-16959338Y21050623D01*
X-16961206Y21065794D01*
X-16960919Y21071915D01*
X-16958057Y21077929D01*
X-16949643Y21081138D01*
X-16932711Y21082419D01*
X-16904297Y21082651D01*
X-16889966Y21082529D01*
G37*
G36*
X-16862807Y21984055D02*
G01*
X-16847291Y21981048D01*
X-16838631Y21975113D01*
X-16837598Y21973823D01*
X-16832612Y21960199D01*
X-16841395Y21950337D01*
X-16863750Y21944342D01*
X-16899481Y21942321D01*
X-16901874Y21942326D01*
X-16927779Y21943099D01*
X-16947415Y21944926D01*
X-16956694Y21947442D01*
X-16959221Y21952953D01*
X-16959704Y21967308D01*
X-16959381Y21969214D01*
X-16956094Y21976118D01*
X-16947612Y21980299D01*
X-16930851Y21982671D01*
X-16902727Y21984143D01*
X-16888263Y21984569D01*
X-16862807Y21984055D01*
G37*
G36*
X-15238131Y31565023D02*
G01*
X-15206240Y31553489D01*
X-15179190Y31532569D01*
X-15159512Y31502936D01*
X-15149734Y31465264D01*
X-15151278Y31427977D01*
X-15164443Y31392566D01*
X-15188105Y31365055D01*
X-15220667Y31347236D01*
X-15260534Y31340899D01*
X-15271174Y31341273D01*
X-15308821Y31350319D01*
X-15339307Y31371750D01*
X-15363278Y31405974D01*
X-15365891Y31411339D01*
X-15376019Y31448598D01*
X-15371754Y31484772D01*
X-15353130Y31519461D01*
X-15337559Y31536560D01*
X-15306320Y31557232D01*
X-15272335Y31566495D01*
X-15238131Y31565023D01*
G37*
G36*
X-16990320Y25889983D02*
G01*
X-16953692Y25875244D01*
X-16925607Y25851608D01*
X-16906791Y25821642D01*
X-16897972Y25787910D01*
X-16899876Y25752980D01*
X-16913231Y25719415D01*
X-16938764Y25689782D01*
X-16959679Y25675948D01*
X-16995036Y25664994D01*
X-17031660Y25665751D01*
X-17066397Y25677491D01*
X-17096095Y25699487D01*
X-17117599Y25731013D01*
X-17122462Y25745202D01*
X-17125431Y25779976D01*
X-17118790Y25815592D01*
X-17103290Y25846007D01*
X-17088649Y25861201D01*
X-17059298Y25879853D01*
X-17026568Y25890585D01*
X-16995832Y25891143D01*
X-16990320Y25889983D01*
G37*
G36*
X-16970576Y27034633D02*
G01*
X-16939174Y27011435D01*
X-16914959Y26978363D01*
X-16900068Y26936597D01*
X-16898289Y26911672D01*
X-16906303Y26875223D01*
X-16925006Y26841076D01*
X-16952408Y26812539D01*
X-16986515Y26792923D01*
X-17008948Y26786802D01*
X-17048112Y26786738D01*
X-17085084Y26799035D01*
X-17116939Y26822500D01*
X-17140756Y26855937D01*
X-17151243Y26883644D01*
X-17155346Y26926273D01*
X-17145145Y26968469D01*
X-17131002Y26995993D01*
X-17110279Y27018692D01*
X-17080404Y27036186D01*
X-17046397Y27046691D01*
X-17007029Y27046778D01*
X-16970576Y27034633D01*
G37*
G36*
X-15222939Y30071665D02*
G01*
X-15194169Y30052360D01*
X-15171413Y30026073D01*
X-15155900Y29994671D01*
X-15148861Y29960019D01*
X-15151527Y29923984D01*
X-15165128Y29888431D01*
X-15190895Y29855226D01*
X-15196741Y29849873D01*
X-15230647Y29829166D01*
X-15267701Y29820801D01*
X-15305275Y29824209D01*
X-15340745Y29838822D01*
X-15371485Y29864071D01*
X-15394870Y29899388D01*
X-15405474Y29937362D01*
X-15403552Y29976785D01*
X-15389941Y30013982D01*
X-15365771Y30045891D01*
X-15332170Y30069452D01*
X-15293596Y30081869D01*
X-15256492Y30082124D01*
X-15222939Y30071665D01*
G37*
G36*
X-17001506Y25554061D02*
G01*
X-16963239Y25545524D01*
X-16933095Y25525115D01*
X-16910530Y25492500D01*
X-16900008Y25463166D01*
X-16898464Y25425521D01*
X-16911180Y25389930D01*
X-16938094Y25356697D01*
X-16945197Y25350884D01*
X-16974597Y25336614D01*
X-17009278Y25330260D01*
X-17043296Y25333151D01*
X-17054642Y25337364D01*
X-17079321Y25353340D01*
X-17101958Y25375370D01*
X-17117199Y25398703D01*
X-17124171Y25419690D01*
X-17125371Y25455121D01*
X-17113019Y25492500D01*
X-17108351Y25501310D01*
X-17084048Y25531016D01*
X-17052038Y25548595D01*
X-17011774Y25554380D01*
X-17001506Y25554061D01*
G37*
G36*
X-15253746Y26701699D02*
G01*
X-15216857Y26688482D01*
X-15185375Y26663366D01*
X-15161606Y26627162D01*
X-15153729Y26606050D01*
X-15148450Y26565303D01*
X-15155404Y26527072D01*
X-15173213Y26493539D01*
X-15200498Y26466887D01*
X-15235882Y26449295D01*
X-15277986Y26442947D01*
X-15305079Y26445183D01*
X-15342989Y26458553D01*
X-15373468Y26484220D01*
X-15396936Y26522463D01*
X-15396953Y26522502D01*
X-15405771Y26558595D01*
X-15402745Y26596904D01*
X-15389219Y26633759D01*
X-15366542Y26665489D01*
X-15336059Y26688424D01*
X-15334518Y26689199D01*
X-15293735Y26702208D01*
X-15253746Y26701699D01*
G37*
G36*
X-17884184Y24854907D02*
G01*
X-17882281Y24617778D01*
X-17513851Y24851223D01*
X-17145421Y25084667D01*
X-17056925Y25084740D01*
X-16968430Y25084812D01*
X-16968430Y24362400D01*
X-17164398Y24362400D01*
X-17162134Y24592581D01*
X-17159869Y24822762D01*
X-17210438Y24788648D01*
X-17214996Y24785626D01*
X-17235142Y24772684D01*
X-17265738Y24753370D01*
X-17305419Y24728533D01*
X-17352818Y24699024D01*
X-17406570Y24665691D01*
X-17465307Y24629383D01*
X-17527665Y24590951D01*
X-17592276Y24551243D01*
X-17923546Y24347952D01*
X-18088168Y24347952D01*
X-18088168Y25092036D01*
X-17886088Y25092036D01*
X-17884184Y24854907D01*
G37*
G36*
X-18230924Y22491144D02*
G01*
X-18225426Y22484130D01*
X-18225354Y22483664D01*
X-18217602Y22479877D01*
X-18199855Y22477556D01*
X-18176084Y22476644D01*
X-18150259Y22477083D01*
X-18126353Y22478816D01*
X-18108335Y22481786D01*
X-18100177Y22485936D01*
X-18098721Y22486585D01*
X-18096953Y22477442D01*
X-18096073Y22458845D01*
X-18096237Y22445528D01*
X-18098112Y22432355D01*
X-18101813Y22432508D01*
X-18105751Y22435981D01*
X-18118018Y22439275D01*
X-18139972Y22440448D01*
X-18173947Y22439732D01*
X-18239882Y22437173D01*
X-18239878Y22464263D01*
X-18239759Y22469150D01*
X-18237296Y22484973D01*
X-18232650Y22491354D01*
X-18230924Y22491144D01*
G37*
G36*
X-15242427Y31227964D02*
G01*
X-15204471Y31217986D01*
X-15176210Y31197307D01*
X-15157819Y31166091D01*
X-15149473Y31124503D01*
X-15149451Y31124187D01*
X-15149031Y31097406D01*
X-15153258Y31077960D01*
X-15163577Y31059158D01*
X-15181166Y31038989D01*
X-15211541Y31018155D01*
X-15245605Y31006111D01*
X-15278623Y31005085D01*
X-15306592Y31015079D01*
X-15334718Y31034111D01*
X-15357800Y31058206D01*
X-15371263Y31083490D01*
X-15373457Y31091426D01*
X-15377767Y31117557D01*
X-15374480Y31140457D01*
X-15362869Y31167372D01*
X-15348862Y31190952D01*
X-15326769Y31213470D01*
X-15298724Y31225417D01*
X-15261202Y31228925D01*
X-15242427Y31227964D01*
G37*
G36*
X-18230924Y22375558D02*
G01*
X-18225426Y22368544D01*
X-18225354Y22368078D01*
X-18217602Y22364291D01*
X-18199855Y22361970D01*
X-18176084Y22361058D01*
X-18150259Y22361497D01*
X-18126353Y22363230D01*
X-18108335Y22366200D01*
X-18100177Y22370350D01*
X-18098758Y22370998D01*
X-18097156Y22361855D01*
X-18096533Y22343259D01*
X-18096822Y22329909D01*
X-18098145Y22317312D01*
X-18100177Y22316169D01*
X-18105573Y22319786D01*
X-18122330Y22323229D01*
X-18146246Y22325093D01*
X-18173207Y22325367D01*
X-18199097Y22324038D01*
X-18219801Y22321096D01*
X-18231206Y22316530D01*
X-18236303Y22314136D01*
X-18239095Y22321772D01*
X-18239875Y22341815D01*
X-18239481Y22352842D01*
X-18236881Y22369294D01*
X-18232650Y22375768D01*
X-18230924Y22375558D01*
G37*
G36*
X-18229818Y22605134D02*
G01*
X-18224269Y22599880D01*
X-18212545Y22595374D01*
X-18192873Y22593112D01*
X-18162021Y22592491D01*
X-18130444Y22593349D01*
X-18108897Y22596319D01*
X-18100177Y22601522D01*
X-18098951Y22602698D01*
X-18096987Y22595477D01*
X-18095963Y22578404D01*
X-18096258Y22560846D01*
X-18098707Y22552560D01*
X-18104061Y22554926D01*
X-18111630Y22558299D01*
X-18129643Y22561389D01*
X-18153400Y22563178D01*
X-18178878Y22563619D01*
X-18202057Y22562663D01*
X-18218914Y22560263D01*
X-18225426Y22556371D01*
X-18225636Y22554644D01*
X-18232650Y22549147D01*
X-18235030Y22551092D01*
X-18238415Y22563460D01*
X-18239645Y22583461D01*
X-18239532Y22592494D01*
X-18238477Y22607504D01*
X-18235561Y22611007D01*
X-18229818Y22605134D01*
G37*
G36*
X-18105319Y21052900D02*
G01*
X-18096464Y21045905D01*
X-18091304Y21028470D01*
X-18088908Y21001210D01*
X-18094595Y20967414D01*
X-18109565Y20940578D01*
X-18132447Y20922879D01*
X-18161869Y20916496D01*
X-18189430Y20919203D01*
X-18212200Y20930087D01*
X-18228614Y20950992D01*
X-18233563Y20962384D01*
X-18239045Y20987397D01*
X-18239507Y21012858D01*
X-18235081Y21034056D01*
X-18225901Y21046276D01*
X-18217448Y21050353D01*
X-18204562Y21053652D01*
X-18201355Y21049611D01*
X-18209616Y21039025D01*
X-18210100Y21038569D01*
X-18223272Y21017663D01*
X-18222607Y20994150D01*
X-18208133Y20969438D01*
X-18187127Y20953973D01*
X-18161322Y20948090D01*
X-18135911Y20952376D01*
X-18115698Y20966959D01*
X-18111183Y20973824D01*
X-18105192Y20996387D01*
X-18108536Y21019284D01*
X-18120774Y21036490D01*
X-18129698Y21044954D01*
X-18128612Y21051567D01*
X-18113780Y21053754D01*
X-18105319Y21052900D01*
G37*
G36*
X-18211200Y21190791D02*
G01*
X-18215956Y21185290D01*
X-18224199Y21164311D01*
X-18221046Y21142661D01*
X-18208274Y21123405D01*
X-18187662Y21109604D01*
X-18160990Y21104323D01*
X-18133262Y21108339D01*
X-18115063Y21121605D01*
X-18105518Y21145383D01*
X-18104211Y21154314D01*
X-18106861Y21170742D01*
X-18119541Y21186922D01*
X-18138080Y21205461D01*
X-18117064Y21205461D01*
X-18104219Y21204168D01*
X-18095979Y21196924D01*
X-18091173Y21179479D01*
X-18089615Y21151007D01*
X-18097143Y21119020D01*
X-18113287Y21092673D01*
X-18136197Y21074791D01*
X-18164021Y21068202D01*
X-18167303Y21068320D01*
X-18193411Y21075969D01*
X-18217326Y21092671D01*
X-18232962Y21114351D01*
X-18234818Y21120723D01*
X-18237432Y21141270D01*
X-18237778Y21165728D01*
X-18236974Y21180366D01*
X-18234321Y21195033D01*
X-18228038Y21201650D01*
X-18215865Y21204186D01*
X-18195468Y21206523D01*
X-18211200Y21190791D01*
G37*
G36*
X-18204646Y20892375D02*
G01*
X-18212804Y20882349D01*
X-18221689Y20868434D01*
X-18224481Y20846490D01*
X-18216643Y20825429D01*
X-18200165Y20807990D01*
X-18177039Y20796913D01*
X-18149258Y20794937D01*
X-18137237Y20798102D01*
X-18119403Y20811292D01*
X-18108424Y20830633D01*
X-18105285Y20852186D01*
X-18110969Y20872012D01*
X-18126462Y20886171D01*
X-18135852Y20891273D01*
X-18134079Y20893589D01*
X-18119198Y20894335D01*
X-18103808Y20893225D01*
X-18095793Y20886132D01*
X-18091173Y20868842D01*
X-18090081Y20839308D01*
X-18098225Y20808235D01*
X-18114345Y20782198D01*
X-18136455Y20764287D01*
X-18162574Y20757592D01*
X-18165339Y20757693D01*
X-18188929Y20764694D01*
X-18212191Y20779865D01*
X-18228742Y20799195D01*
X-18229884Y20801433D01*
X-18236461Y20825235D01*
X-18237955Y20855091D01*
X-18237314Y20866281D01*
X-18234778Y20882854D01*
X-18229087Y20890693D01*
X-18218222Y20893754D01*
X-18207852Y20894913D01*
X-18204646Y20892375D01*
G37*
G36*
X-17065289Y23326694D02*
G01*
X-17072863Y23319026D01*
X-17076698Y23315801D01*
X-17082046Y23309194D01*
X-17083366Y23300029D01*
X-17080750Y23284510D01*
X-17074286Y23258837D01*
X-17059489Y23203631D01*
X-17046661Y23159472D01*
X-17035765Y23126775D01*
X-17026296Y23104178D01*
X-17017751Y23090317D01*
X-17009627Y23083830D01*
X-17000122Y23079534D01*
X-16997349Y23076965D01*
X-16997641Y23076916D01*
X-17007171Y23074494D01*
X-17026396Y23069253D01*
X-17051530Y23062224D01*
X-17060616Y23059669D01*
X-17082146Y23053936D01*
X-17092256Y23052237D01*
X-17092803Y23054483D01*
X-17085641Y23060585D01*
X-17069205Y23073231D01*
X-17098692Y23177565D01*
X-17110895Y23219822D01*
X-17121710Y23254444D01*
X-17130363Y23277899D01*
X-17137505Y23291693D01*
X-17143784Y23297336D01*
X-17149851Y23296337D01*
X-17151865Y23295413D01*
X-17156257Y23298663D01*
X-17153093Y23301972D01*
X-17139319Y23308186D01*
X-17118330Y23314567D01*
X-17103638Y23318323D01*
X-17082456Y23323849D01*
X-17069567Y23327358D01*
X-17065289Y23326694D01*
G37*
G36*
X-17244792Y26612037D02*
G01*
X-17248353Y26584942D01*
X-17264607Y26533084D01*
X-17293183Y26487395D01*
X-17334601Y26447155D01*
X-17389380Y26411644D01*
X-17405987Y26402286D01*
X-17415479Y26396096D01*
X-17414261Y26395263D01*
X-17409478Y26396327D01*
X-17391111Y26398875D01*
X-17364290Y26401628D01*
X-17332990Y26404152D01*
X-17264619Y26408958D01*
X-17264619Y26204551D01*
X-18088168Y26204551D01*
X-18088168Y26420212D01*
X-17855190Y26422911D01*
X-17790315Y26423720D01*
X-17737952Y26424564D01*
X-17696455Y26425558D01*
X-17664031Y26426822D01*
X-17638887Y26428472D01*
X-17619231Y26430626D01*
X-17603268Y26433401D01*
X-17589208Y26436916D01*
X-17575256Y26441288D01*
X-17539502Y26455594D01*
X-17499527Y26480852D01*
X-17471879Y26512643D01*
X-17455828Y26551897D01*
X-17450640Y26599543D01*
X-17450713Y26610340D01*
X-17450436Y26626135D01*
X-17447907Y26637231D01*
X-17441098Y26644565D01*
X-17427981Y26649072D01*
X-17406528Y26651688D01*
X-17374712Y26653348D01*
X-17330504Y26654990D01*
X-17241071Y26658395D01*
X-17244792Y26612037D01*
G37*
G36*
X-15496269Y28965970D02*
G01*
X-15497699Y28951647D01*
X-15504663Y28915843D01*
X-15515006Y28887367D01*
X-15527959Y28866338D01*
X-15557404Y28831826D01*
X-15593899Y28799781D01*
X-15633251Y28774216D01*
X-15635784Y28772866D01*
X-15655093Y28762312D01*
X-15662650Y28757049D01*
X-15659432Y28755829D01*
X-15646416Y28757404D01*
X-15645388Y28757551D01*
X-15624771Y28760062D01*
X-15596063Y28763066D01*
X-15565145Y28765946D01*
X-15509158Y28770810D01*
X-15509158Y28566837D01*
X-16332707Y28566837D01*
X-16332707Y28774452D01*
X-16114178Y28778425D01*
X-16067102Y28779352D01*
X-16006095Y28780924D01*
X-15956409Y28782872D01*
X-15916156Y28785402D01*
X-15883447Y28788724D01*
X-15856393Y28793045D01*
X-15833106Y28798573D01*
X-15811698Y28805515D01*
X-15790280Y28814081D01*
X-15773817Y28822456D01*
X-15739653Y28850402D01*
X-15714609Y28886950D01*
X-15700380Y28929144D01*
X-15698660Y28974026D01*
X-15702214Y29005557D01*
X-15647941Y29010145D01*
X-15617737Y29012229D01*
X-15578070Y29014037D01*
X-15543218Y29014733D01*
X-15492768Y29014733D01*
X-15496269Y28965970D01*
G37*
G36*
X-15605238Y20241284D02*
G01*
X-15614273Y20229801D01*
X-15618398Y20225254D01*
X-15622202Y20219695D01*
X-15623036Y20213265D01*
X-15619976Y20204163D01*
X-15612101Y20190589D01*
X-15598487Y20170740D01*
X-15578212Y20142815D01*
X-15550353Y20105014D01*
X-15533383Y20082302D01*
X-15512688Y20056096D01*
X-15497669Y20039641D01*
X-15486972Y20031514D01*
X-15479239Y20030290D01*
X-15472557Y20031629D01*
X-15466481Y20029646D01*
X-15472223Y20021530D01*
X-15489381Y20008163D01*
X-15491322Y20006821D01*
X-15512068Y19992313D01*
X-15530069Y19979498D01*
X-15541454Y19971568D01*
X-15543827Y19971998D01*
X-15537944Y19982077D01*
X-15534666Y19988954D01*
X-15534561Y19997787D01*
X-15539597Y20010050D01*
X-15550946Y20028456D01*
X-15569780Y20055716D01*
X-15596072Y20092616D01*
X-15623289Y20129420D01*
X-15644323Y20155790D01*
X-15660033Y20172721D01*
X-15671277Y20181210D01*
X-15678916Y20182252D01*
X-15688055Y20179806D01*
X-15687499Y20183922D01*
X-15674960Y20195578D01*
X-15650338Y20214889D01*
X-15639950Y20222625D01*
X-15618580Y20237488D01*
X-15606841Y20243777D01*
X-15605238Y20241284D01*
G37*
G36*
X-17206826Y29448524D02*
G01*
X-17206647Y29420636D01*
X-17206052Y29393730D01*
X-17205139Y29375453D01*
X-17204009Y29368714D01*
X-17203686Y29368822D01*
X-17195105Y29373637D01*
X-17176489Y29384767D01*
X-17149735Y29401059D01*
X-17116738Y29421361D01*
X-17079393Y29444519D01*
X-17060240Y29456426D01*
X-17022962Y29479380D01*
X-16994836Y29496060D01*
X-16973707Y29507466D01*
X-16957420Y29514599D01*
X-16943820Y29518461D01*
X-16930750Y29520051D01*
X-16916055Y29520372D01*
X-16874516Y29520421D01*
X-16874516Y29245904D01*
X-16960717Y29245904D01*
X-16962767Y29321159D01*
X-16964818Y29396413D01*
X-17094852Y29317808D01*
X-17132116Y29295407D01*
X-17168120Y29274264D01*
X-17195485Y29259086D01*
X-17216182Y29248918D01*
X-17232184Y29242807D01*
X-17245465Y29239799D01*
X-17257996Y29238941D01*
X-17267783Y29239079D01*
X-17286417Y29240718D01*
X-17296074Y29243648D01*
X-17296160Y29243754D01*
X-17297593Y29252914D01*
X-17298652Y29274073D01*
X-17299285Y29304909D01*
X-17299446Y29343100D01*
X-17299084Y29386324D01*
X-17297127Y29524033D01*
X-17251976Y29526184D01*
X-17206826Y29528334D01*
X-17206826Y29448524D01*
G37*
G36*
X-16675908Y19903879D02*
G01*
X-16658360Y19901708D01*
X-16654181Y19897895D01*
X-16656511Y19895251D01*
X-16668629Y19890671D01*
X-16672621Y19890223D01*
X-16682446Y19884469D01*
X-16683184Y19881940D01*
X-16685310Y19867166D01*
X-16687926Y19841903D01*
X-16690770Y19808846D01*
X-16693576Y19770689D01*
X-16696273Y19728849D01*
X-16697702Y19699014D01*
X-16697764Y19678941D01*
X-16696362Y19666309D01*
X-16693402Y19658796D01*
X-16688789Y19654081D01*
X-16684758Y19649993D01*
X-16687709Y19646954D01*
X-16701068Y19645517D01*
X-16726847Y19645212D01*
X-16740401Y19645278D01*
X-16760462Y19645831D01*
X-16769195Y19647587D01*
X-16768737Y19651332D01*
X-16761230Y19657854D01*
X-16755624Y19663166D01*
X-16750764Y19671368D01*
X-16747106Y19684188D01*
X-16744175Y19704081D01*
X-16741497Y19733498D01*
X-16738598Y19774894D01*
X-16737655Y19789856D01*
X-16735717Y19826186D01*
X-16734588Y19856580D01*
X-16734356Y19878214D01*
X-16735107Y19888263D01*
X-16738181Y19892848D01*
X-16750515Y19900258D01*
X-16751705Y19900769D01*
X-16746753Y19902290D01*
X-16730715Y19903537D01*
X-16706129Y19904281D01*
X-16705826Y19904286D01*
X-16675908Y19903879D01*
G37*
G36*
X-15677254Y23140584D02*
G01*
X-15652152Y23126310D01*
X-15633405Y23115248D01*
X-15617485Y23105350D01*
X-15611717Y23100373D01*
X-15614740Y23098979D01*
X-15625190Y23099830D01*
X-15631657Y23099604D01*
X-15639368Y23095818D01*
X-15648517Y23086542D01*
X-15660524Y23070004D01*
X-15676809Y23044434D01*
X-15698791Y23008061D01*
X-15713762Y22982694D01*
X-15734439Y22945861D01*
X-15747590Y22919164D01*
X-15753661Y22901481D01*
X-15753099Y22891694D01*
X-15746350Y22888680D01*
X-15743448Y22888357D01*
X-15742145Y22884457D01*
X-15742266Y22884357D01*
X-15750696Y22885769D01*
X-15767871Y22892916D01*
X-15790220Y22904323D01*
X-15791147Y22904833D01*
X-15812819Y22917547D01*
X-15828252Y22928040D01*
X-15834157Y22934085D01*
X-15831069Y22935969D01*
X-15820194Y22932238D01*
X-15814536Y22930149D01*
X-15806756Y22931193D01*
X-15797693Y22937910D01*
X-15786222Y22951703D01*
X-15771219Y22973976D01*
X-15751558Y23006131D01*
X-15726113Y23049573D01*
X-15709268Y23079148D01*
X-15696110Y23104073D01*
X-15689077Y23120776D01*
X-15687296Y23131396D01*
X-15689890Y23138068D01*
X-15690999Y23139424D01*
X-15695576Y23146798D01*
X-15691361Y23147299D01*
X-15677254Y23140584D01*
G37*
G36*
X-18219170Y22096389D02*
G01*
X-18217378Y22094652D01*
X-18197022Y22077403D01*
X-18176828Y22063509D01*
X-18155191Y22051050D01*
X-18125291Y22078653D01*
X-18095392Y22106256D01*
X-18095392Y22082255D01*
X-18097644Y22065100D01*
X-18104422Y22061542D01*
X-18113209Y22061171D01*
X-18127475Y22054091D01*
X-18135359Y22047736D01*
X-18137217Y22041373D01*
X-18127475Y22032826D01*
X-18116669Y22026864D01*
X-18104422Y22025375D01*
X-18100712Y22025208D01*
X-18096929Y22016128D01*
X-18096230Y21994469D01*
X-18096779Y21982715D01*
X-18098356Y21971892D01*
X-18100373Y21973030D01*
X-18103499Y21978561D01*
X-18116653Y21991307D01*
X-18135783Y22004493D01*
X-18167887Y22023308D01*
X-18194851Y22002974D01*
X-18202257Y21997230D01*
X-18219586Y21982573D01*
X-18230615Y21971511D01*
X-18235809Y21966565D01*
X-18238778Y21970699D01*
X-18239645Y21987245D01*
X-18239617Y21991982D01*
X-18237233Y22007792D01*
X-18230844Y22010730D01*
X-18229710Y22010443D01*
X-18216988Y22012951D01*
X-18200252Y22021605D01*
X-18178690Y22035859D01*
X-18209209Y22048689D01*
X-18217858Y22052434D01*
X-18232478Y22060954D01*
X-18238558Y22071564D01*
X-18239801Y22089165D01*
X-18239875Y22116811D01*
X-18219170Y22096389D01*
G37*
G36*
X-16873856Y29065301D02*
G01*
X-17017590Y29065301D01*
X-17063191Y29064955D01*
X-17106411Y29063914D01*
X-17142403Y29062287D01*
X-17168761Y29060185D01*
X-17183080Y29057718D01*
X-17184771Y29057090D01*
X-17204867Y29042212D01*
X-17217513Y29018816D01*
X-17222019Y28990898D01*
X-17217696Y28962453D01*
X-17203852Y28937476D01*
X-17186431Y28917207D01*
X-17030474Y28915003D01*
X-16874516Y28912799D01*
X-16874516Y28810912D01*
X-17038865Y28813791D01*
X-17072326Y28814403D01*
X-17118158Y28815439D01*
X-17152899Y28816661D01*
X-17178650Y28818274D01*
X-17197515Y28820482D01*
X-17211594Y28823489D01*
X-17222992Y28827499D01*
X-17233810Y28832717D01*
X-17242227Y28837409D01*
X-17267225Y28856982D01*
X-17284982Y28883119D01*
X-17298396Y28919726D01*
X-17300205Y28926859D01*
X-17304989Y28964909D01*
X-17304119Y29006707D01*
X-17298011Y29046416D01*
X-17287082Y29078199D01*
X-17284437Y29083064D01*
X-17268370Y29106338D01*
X-17250671Y29125177D01*
X-17243849Y29130714D01*
X-17228352Y29141273D01*
X-17211213Y29149241D01*
X-17190298Y29154973D01*
X-17163475Y29158825D01*
X-17128610Y29161155D01*
X-17083570Y29162319D01*
X-17026223Y29162672D01*
X-16878128Y29162827D01*
X-16873856Y29065301D01*
G37*
G36*
X-18142551Y20739652D02*
G01*
X-18116509Y20722001D01*
X-18108733Y20713853D01*
X-18101369Y20703234D01*
X-18097461Y20690174D01*
X-18095995Y20670672D01*
X-18095963Y20640729D01*
X-18096141Y20629304D01*
X-18097058Y20606142D01*
X-18098478Y20592005D01*
X-18100177Y20589605D01*
X-18108216Y20594599D01*
X-18128962Y20597646D01*
X-18162817Y20598625D01*
X-18163179Y20598635D01*
X-18192956Y20597803D01*
X-18218722Y20594729D01*
X-18231890Y20589605D01*
X-18232290Y20589229D01*
X-18236648Y20587692D01*
X-18238984Y20594418D01*
X-18239567Y20611453D01*
X-18238669Y20640841D01*
X-18238444Y20645436D01*
X-18225200Y20645436D01*
X-18220610Y20632347D01*
X-18220223Y20632056D01*
X-18209717Y20629766D01*
X-18189243Y20628146D01*
X-18162817Y20627531D01*
X-18109840Y20627531D01*
X-18109840Y20652816D01*
X-18110527Y20663579D01*
X-18119857Y20687623D01*
X-18140003Y20702134D01*
X-18170836Y20706997D01*
X-18185167Y20706430D01*
X-18202663Y20701815D01*
X-18214181Y20690941D01*
X-18217847Y20684620D01*
X-18224044Y20665008D01*
X-18225200Y20645436D01*
X-18238444Y20645436D01*
X-18237546Y20663759D01*
X-18235387Y20685723D01*
X-18231360Y20700114D01*
X-18224186Y20710916D01*
X-18212586Y20722112D01*
X-18198726Y20732617D01*
X-18170391Y20743191D01*
X-18142551Y20739652D01*
G37*
G36*
X-15748695Y20118814D02*
G01*
X-15723430Y20102973D01*
X-15718783Y20098065D01*
X-15705158Y20077204D01*
X-15700127Y20053006D01*
X-15703489Y20022571D01*
X-15715040Y19982997D01*
X-15721276Y19963676D01*
X-15728054Y19932997D01*
X-15726776Y19912652D01*
X-15717206Y19901373D01*
X-15699106Y19897895D01*
X-15676611Y19903426D01*
X-15659841Y19919814D01*
X-15653480Y19944166D01*
X-15653319Y19966524D01*
X-15639086Y19948464D01*
X-15631532Y19937455D01*
X-15627529Y19921588D01*
X-15635834Y19907580D01*
X-15657314Y19892792D01*
X-15691349Y19879133D01*
X-15722831Y19878361D01*
X-15749923Y19890984D01*
X-15758696Y19899229D01*
X-15771959Y19924600D01*
X-15773331Y19957470D01*
X-15762862Y19998266D01*
X-15759180Y20008829D01*
X-15749645Y20046065D01*
X-15748632Y20073996D01*
X-15756223Y20091502D01*
X-15757341Y20092538D01*
X-15774777Y20099396D01*
X-15797278Y20097937D01*
X-15818862Y20088452D01*
X-15826577Y20082018D01*
X-15832952Y20069232D01*
X-15832921Y20048720D01*
X-15831945Y20033944D01*
X-15833540Y20022693D01*
X-15839480Y20025007D01*
X-15850438Y20040572D01*
X-15854197Y20046809D01*
X-15861684Y20064011D01*
X-15859371Y20076911D01*
X-15846885Y20090785D01*
X-15842322Y20094773D01*
X-15810836Y20114448D01*
X-15778729Y20122551D01*
X-15748695Y20118814D01*
G37*
G36*
X-18230555Y20561716D02*
G01*
X-18219974Y20554922D01*
X-18195274Y20547452D01*
X-18158222Y20540639D01*
X-18145187Y20538589D01*
X-18118636Y20533645D01*
X-18099476Y20528992D01*
X-18091176Y20525416D01*
X-18091255Y20524203D01*
X-18099100Y20516984D01*
X-18116307Y20506038D01*
X-18140063Y20493217D01*
X-18192522Y20466799D01*
X-18142151Y20441563D01*
X-18136541Y20438744D01*
X-18113270Y20426874D01*
X-18096226Y20417894D01*
X-18088770Y20413567D01*
X-18088111Y20412896D01*
X-18088257Y20408827D01*
X-18097433Y20404952D01*
X-18117425Y20400751D01*
X-18150016Y20395703D01*
X-18155342Y20394908D01*
X-18184441Y20389462D01*
X-18208804Y20383198D01*
X-18223620Y20377317D01*
X-18226675Y20375422D01*
X-18235768Y20371363D01*
X-18239288Y20376503D01*
X-18239875Y20393465D01*
X-18239529Y20404725D01*
X-18236893Y20414111D01*
X-18230844Y20412350D01*
X-18226641Y20410299D01*
X-18209579Y20407948D01*
X-18186275Y20408931D01*
X-18150735Y20412963D01*
X-18191693Y20433673D01*
X-18211145Y20444354D01*
X-18226690Y20454742D01*
X-18232650Y20461377D01*
X-18227566Y20467298D01*
X-18212644Y20477476D01*
X-18191329Y20489264D01*
X-18150008Y20510158D01*
X-18194941Y20515373D01*
X-18239875Y20520588D01*
X-18239645Y20546969D01*
X-18238979Y20562164D01*
X-18236352Y20567273D01*
X-18230555Y20561716D01*
G37*
G36*
X-15989700Y23284041D02*
G01*
X-15971993Y23278878D01*
X-15948169Y23271636D01*
X-15920205Y23261723D01*
X-15875886Y23238189D01*
X-15844551Y23208765D01*
X-15825941Y23173169D01*
X-15819795Y23131115D01*
X-15821267Y23110267D01*
X-15833502Y23070301D01*
X-15856574Y23037600D01*
X-15888602Y23013791D01*
X-15927705Y23000504D01*
X-15972002Y22999367D01*
X-15986473Y23001928D01*
X-16019763Y23012027D01*
X-16052615Y23026371D01*
X-16078057Y23042146D01*
X-16083116Y23047885D01*
X-16086662Y23064543D01*
X-16082129Y23090699D01*
X-16081188Y23094168D01*
X-16078022Y23102434D01*
X-16074657Y23099256D01*
X-16068990Y23083475D01*
X-16060177Y23067306D01*
X-16038898Y23046763D01*
X-16011796Y23031879D01*
X-15983912Y23026057D01*
X-15957642Y23030006D01*
X-15925654Y23043347D01*
X-15899434Y23063069D01*
X-15886810Y23079077D01*
X-15871143Y23111025D01*
X-15862802Y23145845D01*
X-15862655Y23179081D01*
X-15871568Y23206276D01*
X-15879615Y23216712D01*
X-15902443Y23233715D01*
X-15930766Y23244801D01*
X-15960448Y23249120D01*
X-15987352Y23245828D01*
X-16007341Y23234076D01*
X-16008138Y23233231D01*
X-16018004Y23225033D01*
X-16022070Y23225969D01*
X-16020786Y23232704D01*
X-16015664Y23248103D01*
X-16008623Y23265640D01*
X-16001830Y23280035D01*
X-15997450Y23286007D01*
X-15989700Y23284041D01*
G37*
G36*
X-15132254Y20726383D02*
G01*
X-15126094Y20723637D01*
X-15105559Y20710848D01*
X-15091007Y20693174D01*
X-15080433Y20667426D01*
X-15071828Y20630418D01*
X-15064737Y20600147D01*
X-15053105Y20571420D01*
X-15039075Y20556828D01*
X-15022560Y20556294D01*
X-15003470Y20569738D01*
X-14992871Y20585076D01*
X-14990175Y20607534D01*
X-15000977Y20628768D01*
X-15007151Y20638815D01*
X-15003246Y20642197D01*
X-14991956Y20638880D01*
X-14975994Y20628855D01*
X-14970571Y20624375D01*
X-14963308Y20612964D01*
X-14966253Y20597906D01*
X-14972517Y20584613D01*
X-14990075Y20559993D01*
X-15011313Y20540372D01*
X-15032034Y20530079D01*
X-15047897Y20528496D01*
X-15074254Y20535904D01*
X-15095985Y20556043D01*
X-15112335Y20588070D01*
X-15122550Y20631143D01*
X-15125158Y20647183D01*
X-15132308Y20673682D01*
X-15142569Y20690039D01*
X-15157454Y20699202D01*
X-15179763Y20700680D01*
X-15199408Y20689725D01*
X-15212789Y20668286D01*
X-15216031Y20657063D01*
X-15215242Y20642095D01*
X-15205289Y20625369D01*
X-15196763Y20612885D01*
X-15193388Y20603383D01*
X-15200631Y20603571D01*
X-15218722Y20613244D01*
X-15234960Y20626576D01*
X-15241865Y20644417D01*
X-15239231Y20659153D01*
X-15226582Y20683784D01*
X-15206587Y20706812D01*
X-15182727Y20723580D01*
X-15164191Y20731386D01*
X-15149749Y20732277D01*
X-15132254Y20726383D01*
G37*
G36*
X-18230615Y21941868D02*
G01*
X-18221910Y21933125D01*
X-18204882Y21919643D01*
X-18185275Y21906201D01*
X-18167641Y21895877D01*
X-18156532Y21891752D01*
X-18152282Y21893225D01*
X-18138977Y21902054D01*
X-18122088Y21916205D01*
X-18095392Y21940657D01*
X-18095963Y21914399D01*
X-18096159Y21909146D01*
X-18097719Y21897350D01*
X-18100114Y21896983D01*
X-18100843Y21898470D01*
X-18107856Y21901044D01*
X-18122083Y21893778D01*
X-18140471Y21881730D01*
X-18124403Y21868720D01*
X-18111523Y21860855D01*
X-18101864Y21859709D01*
X-18099999Y21859528D01*
X-18096784Y21850456D01*
X-18095612Y21832579D01*
X-18096214Y21816516D01*
X-18098457Y21809151D01*
X-18102881Y21813531D01*
X-18104192Y21815588D01*
X-18118517Y21829954D01*
X-18138417Y21842791D01*
X-18158619Y21851215D01*
X-18173846Y21852340D01*
X-18179587Y21849617D01*
X-18195670Y21838357D01*
X-18213689Y21822574D01*
X-18239875Y21797143D01*
X-18239875Y21823092D01*
X-18239872Y21823955D01*
X-18237489Y21842150D01*
X-18230844Y21847208D01*
X-18224043Y21847391D01*
X-18208933Y21852781D01*
X-18195260Y21861639D01*
X-18189306Y21870451D01*
X-18189749Y21871982D01*
X-18198392Y21880214D01*
X-18214590Y21889595D01*
X-18229689Y21898111D01*
X-18237922Y21909286D01*
X-18239645Y21927405D01*
X-18239029Y21941676D01*
X-18236423Y21947166D01*
X-18230615Y21941868D01*
G37*
G36*
X-17311173Y23236453D02*
G01*
X-17285725Y23226066D01*
X-17268011Y23206117D01*
X-17267242Y23204610D01*
X-17259611Y23184259D01*
X-17258746Y23163764D01*
X-17265088Y23139179D01*
X-17279073Y23106561D01*
X-17289811Y23081626D01*
X-17297719Y23058830D01*
X-17300739Y23043866D01*
X-17299733Y23034341D01*
X-17289788Y23016039D01*
X-17272120Y23006276D01*
X-17250348Y23006359D01*
X-17228086Y23017596D01*
X-17224431Y23020800D01*
X-17214670Y23036241D01*
X-17212515Y23059134D01*
X-17212693Y23065342D01*
X-17212369Y23079152D01*
X-17209466Y23081021D01*
X-17202578Y23072895D01*
X-17189455Y23049673D01*
X-17187602Y23027704D01*
X-17199214Y23010351D01*
X-17208802Y23003705D01*
X-17236033Y22991444D01*
X-17265240Y22984795D01*
X-17289864Y22985551D01*
X-17290364Y22985681D01*
X-17308951Y22994707D01*
X-17326639Y23009225D01*
X-17337158Y23024371D01*
X-17344041Y23053588D01*
X-17338926Y23089700D01*
X-17321792Y23133252D01*
X-17307897Y23166913D01*
X-17303694Y23192274D01*
X-17309776Y23209046D01*
X-17326186Y23218064D01*
X-17333564Y23219238D01*
X-17355945Y23214562D01*
X-17373323Y23199188D01*
X-17381909Y23175979D01*
X-17384550Y23152361D01*
X-17396382Y23177645D01*
X-17398945Y23183178D01*
X-17404254Y23197540D01*
X-17402394Y23206198D01*
X-17392820Y23214844D01*
X-17372079Y23227619D01*
X-17341057Y23237048D01*
X-17311173Y23236453D01*
G37*
G36*
X-15458012Y20368785D02*
G01*
X-15458187Y20368452D01*
X-15461756Y20360196D01*
X-15462349Y20352061D01*
X-15458788Y20342294D01*
X-15449896Y20329145D01*
X-15434496Y20310860D01*
X-15411412Y20285688D01*
X-15379466Y20251877D01*
X-15314285Y20183248D01*
X-15288525Y20210654D01*
X-15275883Y20225283D01*
X-15267326Y20240751D01*
X-15267505Y20253999D01*
X-15268362Y20256925D01*
X-15269688Y20264498D01*
X-15265265Y20262713D01*
X-15252865Y20251134D01*
X-15233484Y20232331D01*
X-15279214Y20189729D01*
X-15281776Y20187340D01*
X-15309072Y20161698D01*
X-15337141Y20135055D01*
X-15360289Y20112813D01*
X-15360550Y20112560D01*
X-15378845Y20095415D01*
X-15393019Y20083241D01*
X-15400022Y20078659D01*
X-15400151Y20078669D01*
X-15408632Y20083054D01*
X-15422468Y20092947D01*
X-15440529Y20107073D01*
X-15418467Y20107234D01*
X-15417950Y20107241D01*
X-15395841Y20113240D01*
X-15373017Y20131526D01*
X-15349627Y20155658D01*
X-15428366Y20238012D01*
X-15439232Y20249359D01*
X-15466176Y20277137D01*
X-15485503Y20296078D01*
X-15498889Y20307489D01*
X-15508008Y20312675D01*
X-15514534Y20312944D01*
X-15520143Y20309600D01*
X-15527102Y20304134D01*
X-15532606Y20301297D01*
X-15530104Y20306125D01*
X-15520960Y20316912D01*
X-15506538Y20331953D01*
X-15488201Y20349542D01*
X-15484082Y20353308D01*
X-15466624Y20368153D01*
X-15457693Y20373465D01*
X-15458012Y20368785D01*
G37*
G36*
X-16208708Y32301630D02*
G01*
X-16184095Y32301100D01*
X-16169390Y32299667D01*
X-16162302Y32296881D01*
X-16160538Y32292293D01*
X-16161806Y32285452D01*
X-16164139Y32272826D01*
X-16167321Y32249432D01*
X-16170250Y32222241D01*
X-16170596Y32218420D01*
X-16171833Y32189625D01*
X-16169050Y32168690D01*
X-16161571Y32150008D01*
X-16156232Y32140194D01*
X-16148883Y32129593D01*
X-16139645Y32121210D01*
X-16126950Y32114759D01*
X-16109225Y32109954D01*
X-16084903Y32106510D01*
X-16052412Y32104140D01*
X-16010183Y32102560D01*
X-15956645Y32101483D01*
X-15890230Y32100624D01*
X-15675313Y32098147D01*
X-15675313Y32301706D01*
X-15509158Y32301706D01*
X-15509158Y32099431D01*
X-15200560Y32099431D01*
X-15220567Y32025384D01*
X-15226222Y32004437D01*
X-15235398Y31970365D01*
X-15243318Y31940869D01*
X-15248723Y31920634D01*
X-15256871Y31889932D01*
X-15509158Y31889932D01*
X-15509158Y31745449D01*
X-15675313Y31745449D01*
X-15675313Y31889932D01*
X-15923027Y31889932D01*
X-15975414Y31889992D01*
X-16036638Y31890305D01*
X-16086154Y31890940D01*
X-16125553Y31891958D01*
X-16156427Y31893419D01*
X-16180365Y31895385D01*
X-16198958Y31897917D01*
X-16213798Y31901076D01*
X-16225192Y31904339D01*
X-16270903Y31925500D01*
X-16306419Y31956869D01*
X-16331574Y31998260D01*
X-16346200Y32049487D01*
X-16352097Y32107680D01*
X-16349666Y32191128D01*
X-16335718Y32281840D01*
X-16331559Y32301706D01*
X-16244661Y32301706D01*
X-16208708Y32301630D01*
G37*
G36*
X-18230934Y22274433D02*
G01*
X-18225426Y22267753D01*
X-18222636Y22263069D01*
X-18210699Y22251893D01*
X-18192558Y22238262D01*
X-18174836Y22226481D01*
X-18162239Y22220559D01*
X-18152658Y22221239D01*
X-18141506Y22227562D01*
X-18126441Y22238578D01*
X-18109357Y22253441D01*
X-18109283Y22253515D01*
X-18099579Y22262335D01*
X-18095942Y22260177D01*
X-18095392Y22245307D01*
X-18095403Y22244011D01*
X-18097422Y22230528D01*
X-18101864Y22227208D01*
X-18111131Y22226161D01*
X-18124909Y22217788D01*
X-18141483Y22204367D01*
X-18123856Y22194619D01*
X-18110496Y22188433D01*
X-18100810Y22186406D01*
X-18099369Y22185712D01*
X-18096523Y22175715D01*
X-18095392Y22157437D01*
X-18095434Y22147954D01*
X-18096322Y22134991D01*
X-18099416Y22133715D01*
X-18106075Y22142184D01*
X-18107606Y22144207D01*
X-18122417Y22158510D01*
X-18141589Y22172087D01*
X-18166422Y22186739D01*
X-18195924Y22165042D01*
X-18206374Y22156927D01*
X-18220066Y22144471D01*
X-18225426Y22136747D01*
X-18225632Y22135187D01*
X-18232650Y22130148D01*
X-18232740Y22130150D01*
X-18237782Y22136603D01*
X-18239875Y22151820D01*
X-18239860Y22153554D01*
X-18236770Y22168987D01*
X-18227232Y22173653D01*
X-18214381Y22177118D01*
X-18197842Y22186699D01*
X-18181094Y22199584D01*
X-18210401Y22213629D01*
X-18211739Y22214273D01*
X-18229721Y22224597D01*
X-18237850Y22235330D01*
X-18239792Y22251152D01*
X-18239777Y22252934D01*
X-18237545Y22268315D01*
X-18232650Y22274630D01*
X-18230934Y22274433D01*
G37*
G36*
X-15048130Y22554120D02*
G01*
X-15038984Y22542481D01*
X-15024837Y22521592D01*
X-15007126Y22493619D01*
X-14987290Y22460726D01*
X-14979429Y22447375D01*
X-14960413Y22414627D01*
X-14947729Y22391460D01*
X-14940525Y22375784D01*
X-14937947Y22365505D01*
X-14939143Y22358533D01*
X-14943258Y22352776D01*
X-14945249Y22350644D01*
X-14957716Y22340994D01*
X-14964637Y22342079D01*
X-14963833Y22353792D01*
X-14963829Y22353805D01*
X-14964602Y22366828D01*
X-14970782Y22385468D01*
X-14980037Y22404844D01*
X-14990038Y22420076D01*
X-14998453Y22426281D01*
X-15004421Y22424059D01*
X-15020740Y22415721D01*
X-15044183Y22402771D01*
X-15071872Y22386890D01*
X-15100928Y22369755D01*
X-15128476Y22353045D01*
X-15151637Y22338441D01*
X-15167534Y22327620D01*
X-15170437Y22325414D01*
X-15184674Y22310667D01*
X-15186249Y22297958D01*
X-15186229Y22297902D01*
X-15184491Y22289523D01*
X-15189380Y22293144D01*
X-15200408Y22308196D01*
X-15217088Y22334107D01*
X-15228833Y22354046D01*
X-15237510Y22370968D01*
X-15241250Y22381061D01*
X-15239355Y22382393D01*
X-15231130Y22373033D01*
X-15226474Y22367701D01*
X-15219526Y22363736D01*
X-15209839Y22363827D01*
X-15195498Y22368670D01*
X-15174582Y22378961D01*
X-15145175Y22395395D01*
X-15105359Y22418670D01*
X-15016980Y22470786D01*
X-15029015Y22490100D01*
X-15047192Y22513882D01*
X-15065544Y22527959D01*
X-15081482Y22530052D01*
X-15083428Y22529531D01*
X-15085258Y22531804D01*
X-15075711Y22541090D01*
X-15075120Y22541575D01*
X-15060563Y22551738D01*
X-15050426Y22555798D01*
X-15048130Y22554120D01*
G37*
G36*
X-15509158Y27399192D02*
G01*
X-15731299Y27321921D01*
X-15757924Y27312691D01*
X-15813454Y27293641D01*
X-15865857Y27275919D01*
X-15913034Y27260221D01*
X-15952883Y27247242D01*
X-15983307Y27237677D01*
X-16002204Y27232222D01*
X-16003769Y27231821D01*
X-16027607Y27225124D01*
X-16044531Y27219296D01*
X-16050967Y27215560D01*
X-16048593Y27213769D01*
X-16035237Y27208373D01*
X-16012749Y27200886D01*
X-15984144Y27192356D01*
X-15982248Y27191812D01*
X-15956558Y27183928D01*
X-15920012Y27172075D01*
X-15875100Y27157091D01*
X-15824309Y27139814D01*
X-15770128Y27121083D01*
X-15715045Y27101734D01*
X-15512770Y27030082D01*
X-15510785Y26913505D01*
X-15510413Y26886813D01*
X-15510210Y26851098D01*
X-15510409Y26822608D01*
X-15510986Y26803749D01*
X-15511918Y26796928D01*
X-15517904Y26799000D01*
X-15536101Y26805581D01*
X-15565075Y26816156D01*
X-15603384Y26830192D01*
X-15649589Y26847159D01*
X-15702248Y26866523D01*
X-15759920Y26887754D01*
X-15821164Y26910321D01*
X-15884538Y26933691D01*
X-15948603Y26957333D01*
X-16011916Y26980715D01*
X-16073037Y27003306D01*
X-16130525Y27024574D01*
X-16182938Y27043987D01*
X-16228837Y27061014D01*
X-16266779Y27075124D01*
X-16295323Y27085784D01*
X-16313030Y27092464D01*
X-16333085Y27100127D01*
X-16329095Y27320203D01*
X-15971501Y27454261D01*
X-15949577Y27462480D01*
X-15879983Y27488559D01*
X-15813413Y27513490D01*
X-15751368Y27536714D01*
X-15695349Y27557669D01*
X-15646855Y27575793D01*
X-15607387Y27590526D01*
X-15578446Y27601307D01*
X-15561533Y27607574D01*
X-15509158Y27626828D01*
X-15509158Y27399192D01*
G37*
G36*
X-16493452Y19901275D02*
G01*
X-16482913Y19883254D01*
X-16468058Y19856532D01*
X-16450039Y19823186D01*
X-16430011Y19785290D01*
X-16426134Y19777902D01*
X-16399351Y19728435D01*
X-16378034Y19692180D01*
X-16362211Y19669180D01*
X-16351908Y19659478D01*
X-16350242Y19658766D01*
X-16347290Y19655533D01*
X-16356767Y19653785D01*
X-16379664Y19653304D01*
X-16399215Y19653800D01*
X-16412360Y19655159D01*
X-16413979Y19657060D01*
X-16410596Y19658924D01*
X-16404949Y19667526D01*
X-16405368Y19669824D01*
X-16410264Y19683216D01*
X-16419496Y19704685D01*
X-16431606Y19731190D01*
X-16445136Y19759692D01*
X-16458628Y19787152D01*
X-16470623Y19810529D01*
X-16479663Y19826784D01*
X-16484288Y19832878D01*
X-16488408Y19827053D01*
X-16494939Y19810782D01*
X-16502291Y19787728D01*
X-16506261Y19773972D01*
X-16518752Y19730718D01*
X-16527775Y19699083D01*
X-16533689Y19677261D01*
X-16536849Y19663447D01*
X-16537615Y19655836D01*
X-16536341Y19652622D01*
X-16533386Y19652000D01*
X-16529107Y19652165D01*
X-16527462Y19652140D01*
X-16520979Y19650662D01*
X-16527759Y19645051D01*
X-16538348Y19641872D01*
X-16559494Y19639499D01*
X-16585551Y19638921D01*
X-16587459Y19638960D01*
X-16607735Y19639859D01*
X-16617935Y19641294D01*
X-16615874Y19642975D01*
X-16612475Y19643775D01*
X-16605223Y19647209D01*
X-16598330Y19654207D01*
X-16591002Y19666466D01*
X-16582444Y19685687D01*
X-16571861Y19713568D01*
X-16558458Y19751810D01*
X-16541440Y19802111D01*
X-16532845Y19827158D01*
X-16520743Y19860433D01*
X-16510395Y19886551D01*
X-16502689Y19903311D01*
X-16498511Y19908515D01*
X-16493452Y19901275D01*
G37*
G36*
X-15258678Y22818355D02*
G01*
X-15242802Y22801991D01*
X-15228920Y22785693D01*
X-15217814Y22770606D01*
X-15213170Y22761601D01*
X-15215836Y22760417D01*
X-15226657Y22768794D01*
X-15231295Y22772561D01*
X-15237738Y22774776D01*
X-15246230Y22772414D01*
X-15259003Y22764272D01*
X-15278289Y22749144D01*
X-15306320Y22725828D01*
X-15312010Y22721026D01*
X-15349154Y22687506D01*
X-15374409Y22659506D01*
X-15388364Y22635581D01*
X-15391609Y22614286D01*
X-15384732Y22594177D01*
X-15368322Y22573809D01*
X-15367378Y22572878D01*
X-15345386Y22558462D01*
X-15320762Y22556358D01*
X-15292201Y22566755D01*
X-15258401Y22589844D01*
X-15227861Y22614839D01*
X-15194698Y22644130D01*
X-15172687Y22666959D01*
X-15161184Y22684018D01*
X-15159542Y22696003D01*
X-15158989Y22698696D01*
X-15151867Y22693992D01*
X-15139312Y22681630D01*
X-15123389Y22663688D01*
X-15106160Y22642244D01*
X-15103042Y22637889D01*
X-15102595Y22632740D01*
X-15114023Y22633796D01*
X-15123103Y22633402D01*
X-15137728Y22626936D01*
X-15158259Y22612698D01*
X-15186793Y22589407D01*
X-15201857Y22576837D01*
X-15227418Y22556493D01*
X-15249190Y22540330D01*
X-15263645Y22531031D01*
X-15283210Y22523331D01*
X-15317494Y22520734D01*
X-15350272Y22531308D01*
X-15379682Y22554284D01*
X-15403863Y22588895D01*
X-15410611Y22604349D01*
X-15414893Y22629613D01*
X-15409510Y22655120D01*
X-15393686Y22682502D01*
X-15366646Y22713389D01*
X-15327617Y22749413D01*
X-15309703Y22765088D01*
X-15287328Y22785844D01*
X-15273912Y22800646D01*
X-15267902Y22811315D01*
X-15267746Y22819675D01*
X-15267038Y22823915D01*
X-15258678Y22818355D01*
G37*
G36*
X-16426621Y23259377D02*
G01*
X-16425547Y23223392D01*
X-16424175Y23187111D01*
X-16422594Y23161640D01*
X-16420523Y23144911D01*
X-16417682Y23134856D01*
X-16413788Y23129406D01*
X-16408561Y23126495D01*
X-16408039Y23126283D01*
X-16407084Y23123365D01*
X-16419597Y23121507D01*
X-16444681Y23120849D01*
X-16466441Y23121069D01*
X-16481512Y23122177D01*
X-16485182Y23124566D01*
X-16479127Y23128611D01*
X-16471844Y23133133D01*
X-16465815Y23140763D01*
X-16461378Y23153432D01*
X-16457990Y23173490D01*
X-16455109Y23203285D01*
X-16452191Y23245168D01*
X-16448101Y23309080D01*
X-16542657Y23219884D01*
X-16570330Y23194112D01*
X-16598756Y23168384D01*
X-16622459Y23147730D01*
X-16639544Y23133797D01*
X-16648113Y23128235D01*
X-16649144Y23128071D01*
X-16652766Y23129571D01*
X-16655130Y23136060D01*
X-16656325Y23149425D01*
X-16656438Y23171554D01*
X-16655558Y23204332D01*
X-16653772Y23249649D01*
X-16653554Y23254823D01*
X-16651777Y23298405D01*
X-16650814Y23329840D01*
X-16650829Y23351208D01*
X-16651989Y23364586D01*
X-16654459Y23372052D01*
X-16658407Y23375684D01*
X-16663998Y23377561D01*
X-16666104Y23378123D01*
X-16677640Y23382300D01*
X-16675816Y23385014D01*
X-16660286Y23386358D01*
X-16630702Y23386424D01*
X-16628911Y23386396D01*
X-16605396Y23385400D01*
X-16595649Y23383484D01*
X-16600000Y23380710D01*
X-16607429Y23378011D01*
X-16614870Y23371023D01*
X-16619363Y23357170D01*
X-16622694Y23332668D01*
X-16624420Y23314028D01*
X-16626833Y23277678D01*
X-16628112Y23243850D01*
X-16628896Y23198082D01*
X-16529565Y23292357D01*
X-16430233Y23386632D01*
X-16426621Y23259377D01*
G37*
G36*
X-16858654Y23370165D02*
G01*
X-16838251Y23361785D01*
X-16824629Y23353149D01*
X-16807655Y23331579D01*
X-16802275Y23301998D01*
X-16802381Y23297784D01*
X-16804127Y23287133D01*
X-16809145Y23275110D01*
X-16818877Y23259242D01*
X-16834768Y23237055D01*
X-16858262Y23206076D01*
X-16870030Y23189444D01*
X-16879889Y23168000D01*
X-16878854Y23150590D01*
X-16867292Y23134300D01*
X-16856311Y23125339D01*
X-16837347Y23120479D01*
X-16814442Y23128158D01*
X-16804510Y23134093D01*
X-16791580Y23148710D01*
X-16787937Y23170060D01*
X-16787720Y23174959D01*
X-16784944Y23182663D01*
X-16780302Y23179428D01*
X-16775480Y23167494D01*
X-16772161Y23149098D01*
X-16771607Y23138039D01*
X-16775377Y23124214D01*
X-16787827Y23114890D01*
X-16793919Y23112410D01*
X-16815746Y23107508D01*
X-16840757Y23105510D01*
X-16862542Y23106727D01*
X-16880195Y23112845D01*
X-16896744Y23126521D01*
X-16906785Y23137784D01*
X-16915593Y23155760D01*
X-16917861Y23180116D01*
X-16917859Y23181007D01*
X-16916595Y23199128D01*
X-16911536Y23214564D01*
X-16900577Y23231650D01*
X-16881612Y23254719D01*
X-16879247Y23257492D01*
X-16861411Y23279994D01*
X-16847755Y23299903D01*
X-16841072Y23313191D01*
X-16840173Y23317401D01*
X-16842856Y23335971D01*
X-16857005Y23347152D01*
X-16881122Y23349583D01*
X-16892398Y23348026D01*
X-16907605Y23340495D01*
X-16919078Y23323273D01*
X-16921246Y23318954D01*
X-16928180Y23306630D01*
X-16931771Y23306029D01*
X-16934348Y23316049D01*
X-16937645Y23336413D01*
X-16936778Y23351085D01*
X-16928986Y23359283D01*
X-16912443Y23365092D01*
X-16903581Y23367455D01*
X-16878413Y23371966D01*
X-16858654Y23370165D01*
G37*
G36*
X-17264619Y25763879D02*
G01*
X-17486760Y25763794D01*
X-17528953Y25763717D01*
X-17590747Y25763285D01*
X-17640416Y25762425D01*
X-17679423Y25761077D01*
X-17709233Y25759184D01*
X-17731311Y25756689D01*
X-17747122Y25753534D01*
X-17765455Y25748163D01*
X-17819235Y25725582D01*
X-17862749Y25696091D01*
X-17895029Y25660672D01*
X-17915106Y25620308D01*
X-17922013Y25575981D01*
X-17921408Y25559616D01*
X-17914185Y25526273D01*
X-17897935Y25502590D01*
X-17871576Y25486646D01*
X-17869381Y25485807D01*
X-17859751Y25482960D01*
X-17847079Y25480645D01*
X-17829939Y25478809D01*
X-17806906Y25477400D01*
X-17776553Y25476365D01*
X-17737456Y25475652D01*
X-17688188Y25475207D01*
X-17627324Y25474979D01*
X-17553437Y25474915D01*
X-17264619Y25474915D01*
X-17264619Y25258191D01*
X-17555389Y25258334D01*
X-17559046Y25258336D01*
X-17642507Y25258534D01*
X-17713000Y25259085D01*
X-17771946Y25260087D01*
X-17820766Y25261641D01*
X-17860881Y25263846D01*
X-17893711Y25266802D01*
X-17920679Y25270608D01*
X-17943205Y25275364D01*
X-17962709Y25281169D01*
X-17980613Y25288123D01*
X-18008771Y25304207D01*
X-18042969Y25333973D01*
X-18071471Y25369922D01*
X-18090089Y25407488D01*
X-18095821Y25429515D01*
X-18101465Y25474522D01*
X-18101946Y25523988D01*
X-18097331Y25572240D01*
X-18087685Y25613608D01*
X-18084666Y25622145D01*
X-18055725Y25680609D01*
X-18015604Y25731806D01*
X-17966311Y25773096D01*
X-17965722Y25773490D01*
X-17959189Y25778517D01*
X-17959269Y25781447D01*
X-17967912Y25782549D01*
X-17987068Y25782093D01*
X-18018685Y25780350D01*
X-18088168Y25776205D01*
X-18088168Y25980603D01*
X-17264619Y25980603D01*
X-17264619Y25763879D01*
G37*
G36*
X-17750273Y28651991D02*
G01*
X-17412378Y28649915D01*
X-17364040Y28626110D01*
X-17350723Y28619183D01*
X-17310676Y28591820D01*
X-17281195Y28558789D01*
X-17261322Y28518313D01*
X-17250100Y28468611D01*
X-17246573Y28407907D01*
X-17247419Y28379281D01*
X-17256967Y28315062D01*
X-17277588Y28259225D01*
X-17309846Y28210510D01*
X-17354309Y28167653D01*
X-17356266Y28166096D01*
X-17374279Y28151381D01*
X-17381827Y28143757D01*
X-17379870Y28141693D01*
X-17369368Y28143660D01*
X-17363829Y28144447D01*
X-17343963Y28145898D01*
X-17312659Y28147417D01*
X-17271819Y28148935D01*
X-17223345Y28150386D01*
X-17169140Y28151701D01*
X-17111106Y28152814D01*
X-16874516Y28156759D01*
X-16874516Y27938339D01*
X-18088554Y27938339D01*
X-18086555Y28044895D01*
X-18084556Y28151450D01*
X-17842548Y28155205D01*
X-17841821Y28155216D01*
X-17775566Y28156305D01*
X-17722090Y28157371D01*
X-17679740Y28158522D01*
X-17646864Y28159868D01*
X-17621810Y28161516D01*
X-17602925Y28163575D01*
X-17588557Y28166154D01*
X-17577053Y28169360D01*
X-17566762Y28173302D01*
X-17560839Y28175889D01*
X-17514910Y28201068D01*
X-17475834Y28231498D01*
X-17447404Y28264288D01*
X-17440065Y28276080D01*
X-17431911Y28294398D01*
X-17428102Y28315344D01*
X-17427161Y28344794D01*
X-17427162Y28346657D01*
X-17427776Y28373155D01*
X-17430419Y28389895D01*
X-17436402Y28401303D01*
X-17447039Y28411808D01*
X-17448209Y28412789D01*
X-17469917Y28426553D01*
X-17493996Y28436427D01*
X-17500285Y28437546D01*
X-17522406Y28439399D01*
X-17557359Y28440974D01*
X-17604101Y28442246D01*
X-17661588Y28443189D01*
X-17728776Y28443777D01*
X-17804621Y28443987D01*
X-18088168Y28444027D01*
X-18088168Y28654068D01*
X-17750273Y28651991D01*
G37*
G36*
X-15955708Y26233431D02*
G01*
X-15888081Y26233328D01*
X-15832425Y26233080D01*
X-15787295Y26232628D01*
X-15751245Y26231918D01*
X-15722827Y26230892D01*
X-15700597Y26229493D01*
X-15683107Y26227664D01*
X-15668913Y26225350D01*
X-15656567Y26222493D01*
X-15644624Y26219036D01*
X-15629140Y26213655D01*
X-15581514Y26188202D01*
X-15543079Y26152856D01*
X-15515583Y26109103D01*
X-15508779Y26092765D01*
X-15503387Y26074543D01*
X-15500243Y26053578D01*
X-15498799Y26025972D01*
X-15498505Y25987827D01*
X-15498654Y25967224D01*
X-15499809Y25932945D01*
X-15502555Y25907037D01*
X-15507437Y25885404D01*
X-15515000Y25863954D01*
X-15520845Y25850821D01*
X-15546814Y25808351D01*
X-15581343Y25767682D01*
X-15620527Y25733635D01*
X-15649263Y25712819D01*
X-15579210Y25717743D01*
X-15509158Y25722667D01*
X-15509158Y25518259D01*
X-16332707Y25518259D01*
X-16332707Y25734260D01*
X-16092505Y25736444D01*
X-16054910Y25736795D01*
X-15996566Y25737428D01*
X-15950028Y25738146D01*
X-15913590Y25739064D01*
X-15885546Y25740295D01*
X-15864190Y25741952D01*
X-15847814Y25744148D01*
X-15834713Y25746997D01*
X-15823180Y25750612D01*
X-15811508Y25755107D01*
X-15779877Y25770967D01*
X-15742640Y25797191D01*
X-15711095Y25827520D01*
X-15689459Y25858385D01*
X-15677994Y25891539D01*
X-15674777Y25927300D01*
X-15679917Y25960485D01*
X-15693272Y25986390D01*
X-15699550Y25993312D01*
X-15708661Y26001039D01*
X-15720010Y26007353D01*
X-15734954Y26012395D01*
X-15754849Y26016307D01*
X-15781051Y26019230D01*
X-15814919Y26021305D01*
X-15857807Y26022673D01*
X-15911074Y26023475D01*
X-15976074Y26023853D01*
X-16054166Y26023948D01*
X-16332707Y26023948D01*
X-16332707Y26233447D01*
X-16011995Y26233447D01*
X-15955708Y26233431D01*
G37*
G36*
X-17251074Y20040530D02*
G01*
X-17219243Y20024571D01*
X-17192714Y20001925D01*
X-17184947Y19992160D01*
X-17174631Y19972224D01*
X-17171120Y19949439D01*
X-17174564Y19921416D01*
X-17185115Y19885767D01*
X-17202924Y19840102D01*
X-17207960Y19827995D01*
X-17219790Y19798635D01*
X-17226619Y19778978D01*
X-17229057Y19766361D01*
X-17227714Y19758124D01*
X-17223201Y19751607D01*
X-17218769Y19746509D01*
X-17215417Y19740828D01*
X-17220055Y19740508D01*
X-17234384Y19745795D01*
X-17260108Y19756934D01*
X-17268742Y19760833D01*
X-17289666Y19771329D01*
X-17299627Y19778201D01*
X-17297858Y19780751D01*
X-17283590Y19778281D01*
X-17279240Y19777425D01*
X-17272307Y19778340D01*
X-17265633Y19784276D01*
X-17257805Y19797326D01*
X-17247406Y19819586D01*
X-17233021Y19853152D01*
X-17222260Y19879937D01*
X-17210421Y19913279D01*
X-17202494Y19940632D01*
X-17199602Y19958456D01*
X-17203942Y19982056D01*
X-17220075Y20004531D01*
X-17246375Y20017693D01*
X-17248740Y20018260D01*
X-17270088Y20020225D01*
X-17288895Y20014733D01*
X-17306377Y20000473D01*
X-17323751Y19976136D01*
X-17342232Y19940411D01*
X-17363035Y19891988D01*
X-17369089Y19876879D01*
X-17379046Y19850251D01*
X-17383813Y19833253D01*
X-17383959Y19823431D01*
X-17380048Y19818334D01*
X-17371751Y19812420D01*
X-17371278Y19809166D01*
X-17380757Y19810640D01*
X-17398231Y19816470D01*
X-17421743Y19826282D01*
X-17427528Y19828909D01*
X-17452737Y19841019D01*
X-17464717Y19848318D01*
X-17463724Y19851015D01*
X-17450019Y19849321D01*
X-17446672Y19848844D01*
X-17439525Y19850005D01*
X-17432587Y19856136D01*
X-17424442Y19869338D01*
X-17413677Y19891717D01*
X-17398878Y19925373D01*
X-17379744Y19966970D01*
X-17360617Y20001157D01*
X-17342247Y20024677D01*
X-17323228Y20039300D01*
X-17302149Y20046791D01*
X-17283237Y20047767D01*
X-17251074Y20040530D01*
G37*
G36*
X-15257764Y20608868D02*
G01*
X-15260062Y20596829D01*
X-15259684Y20588182D01*
X-15254053Y20570978D01*
X-15242305Y20545068D01*
X-15223903Y20509285D01*
X-15198312Y20462461D01*
X-15197871Y20461670D01*
X-15177461Y20424463D01*
X-15160069Y20391728D01*
X-15146726Y20365489D01*
X-15138459Y20347768D01*
X-15136299Y20340587D01*
X-15142378Y20341043D01*
X-15160307Y20345076D01*
X-15187753Y20352286D01*
X-15203371Y20356691D01*
X-15222429Y20362067D01*
X-15262049Y20373817D01*
X-15267152Y20375364D01*
X-15314460Y20389520D01*
X-15350129Y20399649D01*
X-15376104Y20406091D01*
X-15394327Y20409185D01*
X-15406740Y20409271D01*
X-15415286Y20406688D01*
X-15421908Y20401778D01*
X-15421993Y20401697D01*
X-15427699Y20397750D01*
X-15426189Y20402780D01*
X-15420462Y20411969D01*
X-15278931Y20411969D01*
X-15269451Y20402814D01*
X-15246262Y20393945D01*
X-15230525Y20389110D01*
X-15212362Y20383925D01*
X-15203371Y20381911D01*
X-15203701Y20385937D01*
X-15209979Y20399156D01*
X-15221100Y20418391D01*
X-15222908Y20421326D01*
X-15234960Y20440051D01*
X-15242846Y20448479D01*
X-15249493Y20448487D01*
X-15257823Y20441950D01*
X-15259092Y20440797D01*
X-15275285Y20423825D01*
X-15278931Y20411969D01*
X-15420462Y20411969D01*
X-15419006Y20414306D01*
X-15407696Y20429849D01*
X-15393801Y20446928D01*
X-15385835Y20456059D01*
X-15376727Y20465157D01*
X-15373436Y20464422D01*
X-15373759Y20454710D01*
X-15374004Y20450940D01*
X-15371548Y20441084D01*
X-15361504Y20433764D01*
X-15340608Y20426169D01*
X-15305705Y20415130D01*
X-15281281Y20443671D01*
X-15272190Y20454543D01*
X-15261049Y20468816D01*
X-15256585Y20475990D01*
X-15259494Y20482394D01*
X-15268501Y20497662D01*
X-15281523Y20518045D01*
X-15306733Y20556324D01*
X-15283926Y20584703D01*
X-15283379Y20585384D01*
X-15268055Y20603841D01*
X-15259973Y20611437D01*
X-15257764Y20608868D01*
G37*
G36*
X-15594041Y30768624D02*
G01*
X-15512770Y30766581D01*
X-15510760Y30667250D01*
X-15508750Y30567918D01*
X-15357247Y30567918D01*
X-15307177Y30567819D01*
X-15268815Y30567425D01*
X-15241394Y30566601D01*
X-15223144Y30565211D01*
X-15212299Y30563119D01*
X-15207089Y30560190D01*
X-15205745Y30556287D01*
X-15205818Y30555131D01*
X-15208312Y30541723D01*
X-15213824Y30517965D01*
X-15221636Y30486841D01*
X-15231029Y30451335D01*
X-15233315Y30442884D01*
X-15242328Y30409271D01*
X-15249632Y30381570D01*
X-15254527Y30362456D01*
X-15256314Y30354605D01*
X-15261418Y30353647D01*
X-15278840Y30352668D01*
X-15306408Y30351891D01*
X-15341811Y30351379D01*
X-15382736Y30351195D01*
X-15509158Y30351195D01*
X-15509158Y30213936D01*
X-15675313Y30213936D01*
X-15675313Y30350076D01*
X-15933575Y30352900D01*
X-15961217Y30353212D01*
X-16030550Y30354161D01*
X-16087534Y30355356D01*
X-16133726Y30356994D01*
X-16170676Y30359271D01*
X-16199940Y30362384D01*
X-16223071Y30366528D01*
X-16241623Y30371900D01*
X-16257148Y30378696D01*
X-16271202Y30387112D01*
X-16285337Y30397346D01*
X-16292973Y30403876D01*
X-16316348Y30433387D01*
X-16335192Y30471926D01*
X-16347361Y30515410D01*
X-16349936Y30538376D01*
X-16351056Y30575168D01*
X-16350217Y30617520D01*
X-16347626Y30660684D01*
X-16343489Y30699914D01*
X-16338011Y30730461D01*
X-16329095Y30766581D01*
X-16243369Y30768624D01*
X-16157643Y30770666D01*
X-16161563Y30754176D01*
X-16167333Y30725504D01*
X-16171697Y30677729D01*
X-16168338Y30637179D01*
X-16157492Y30605655D01*
X-16139396Y30584960D01*
X-16135067Y30582310D01*
X-16127319Y30579013D01*
X-16116568Y30576405D01*
X-16101181Y30574382D01*
X-16079521Y30572838D01*
X-16049953Y30571667D01*
X-16010843Y30570764D01*
X-15960555Y30570023D01*
X-15897454Y30569339D01*
X-15675313Y30567147D01*
X-15675313Y30770667D01*
X-15594041Y30768624D01*
G37*
G36*
X-16225038Y23347441D02*
G01*
X-16189214Y23339764D01*
X-16150035Y23330567D01*
X-16123955Y23323510D01*
X-16111424Y23318638D01*
X-16112094Y23315814D01*
X-16125616Y23314903D01*
X-16138650Y23313774D01*
X-16144880Y23310645D01*
X-16144959Y23309939D01*
X-16147145Y23298957D01*
X-16151875Y23277247D01*
X-16158546Y23247549D01*
X-16166553Y23212599D01*
X-16169794Y23198495D01*
X-16178984Y23156795D01*
X-16184701Y23126430D01*
X-16187082Y23105339D01*
X-16186264Y23091460D01*
X-16182385Y23082729D01*
X-16175583Y23077086D01*
X-16170825Y23074132D01*
X-16167882Y23070948D01*
X-16172855Y23070278D01*
X-16187289Y23072283D01*
X-16212731Y23077126D01*
X-16250725Y23084970D01*
X-16325483Y23100656D01*
X-16324913Y23130120D01*
X-16324727Y23138514D01*
X-16323882Y23151227D01*
X-16321712Y23151301D01*
X-16317197Y23140049D01*
X-16309128Y23125950D01*
X-16297901Y23117242D01*
X-16274057Y23111287D01*
X-16253782Y23109230D01*
X-16241173Y23114973D01*
X-16232838Y23130393D01*
X-16225388Y23157366D01*
X-16221326Y23174622D01*
X-16217982Y23195447D01*
X-16220315Y23207398D01*
X-16229448Y23213670D01*
X-16246503Y23217460D01*
X-16261411Y23219349D01*
X-16276391Y23217546D01*
X-16286826Y23209065D01*
X-16292593Y23202166D01*
X-16295974Y23199937D01*
X-16293564Y23208938D01*
X-16291028Y23220670D01*
X-16289363Y23240525D01*
X-16289335Y23242967D01*
X-16287084Y23253557D01*
X-16280332Y23251828D01*
X-16277370Y23249972D01*
X-16261669Y23243479D01*
X-16240548Y23237251D01*
X-16229068Y23234539D01*
X-16215415Y23232909D01*
X-16209044Y23237189D01*
X-16205562Y23248835D01*
X-16200732Y23270082D01*
X-16190933Y23308993D01*
X-16191500Y23316643D01*
X-16200725Y23322038D01*
X-16221577Y23326244D01*
X-16221805Y23326278D01*
X-16243797Y23328476D01*
X-16256676Y23326058D01*
X-16265253Y23318131D01*
X-16270233Y23311669D01*
X-16274161Y23310505D01*
X-16274804Y23322553D01*
X-16274426Y23332813D01*
X-16271566Y23344195D01*
X-16263914Y23350119D01*
X-16249171Y23351047D01*
X-16225038Y23347441D01*
G37*
G36*
X-16182338Y19949395D02*
G01*
X-16174645Y19933402D01*
X-16172844Y19928035D01*
X-16169006Y19911657D01*
X-16171728Y19907426D01*
X-16180856Y19915781D01*
X-16188348Y19921409D01*
X-16208011Y19926221D01*
X-16230641Y19924676D01*
X-16249846Y19916691D01*
X-16250690Y19916068D01*
X-16257551Y19909518D01*
X-16260218Y19900739D01*
X-16258999Y19885784D01*
X-16254202Y19860704D01*
X-16249325Y19838139D01*
X-16244996Y19820241D01*
X-16242497Y19812537D01*
X-16240943Y19812220D01*
X-16229297Y19813818D01*
X-16210627Y19818234D01*
X-16197167Y19822487D01*
X-16184298Y19830554D01*
X-16180414Y19842187D01*
X-16179553Y19850762D01*
X-16176593Y19849862D01*
X-16169904Y19836490D01*
X-16167183Y19830396D01*
X-16160669Y19811538D01*
X-16162222Y19801930D01*
X-16171971Y19799278D01*
X-16201970Y19798600D01*
X-16222260Y19794737D01*
X-16232261Y19785630D01*
X-16234097Y19769233D01*
X-16229891Y19743502D01*
X-16221151Y19701835D01*
X-16195658Y19706598D01*
X-16176495Y19711493D01*
X-16158014Y19722342D01*
X-16151515Y19738043D01*
X-16151115Y19740053D01*
X-16147094Y19738108D01*
X-16140315Y19725482D01*
X-16138629Y19721531D01*
X-16133027Y19706510D01*
X-16131874Y19699661D01*
X-16138399Y19697794D01*
X-16156012Y19693803D01*
X-16181083Y19688494D01*
X-16210050Y19682581D01*
X-16239354Y19676779D01*
X-16265435Y19671802D01*
X-16284732Y19668364D01*
X-16293686Y19667181D01*
X-16293840Y19669178D01*
X-16283945Y19674173D01*
X-16278451Y19676538D01*
X-16272570Y19680779D01*
X-16269497Y19687878D01*
X-16269274Y19700090D01*
X-16271943Y19719668D01*
X-16277547Y19748868D01*
X-16286129Y19789942D01*
X-16288010Y19798824D01*
X-16297331Y19841395D01*
X-16304836Y19871982D01*
X-16311207Y19892478D01*
X-16317129Y19904776D01*
X-16323286Y19910767D01*
X-16330361Y19912344D01*
X-16339254Y19913464D01*
X-16337549Y19917124D01*
X-16324628Y19922703D01*
X-16302032Y19929557D01*
X-16271302Y19937040D01*
X-16264613Y19938520D01*
X-16235978Y19944870D01*
X-16212300Y19950141D01*
X-16198156Y19953313D01*
X-16192032Y19954097D01*
X-16182338Y19949395D01*
G37*
G36*
X-15212969Y25078858D02*
G01*
X-15604877Y25075752D01*
X-15670779Y25075221D01*
X-15753341Y25074462D01*
X-15823482Y25073567D01*
X-15882394Y25072390D01*
X-15931269Y25070785D01*
X-15971299Y25068605D01*
X-16003676Y25065704D01*
X-16029591Y25061934D01*
X-16050236Y25057150D01*
X-16066803Y25051204D01*
X-16080485Y25043950D01*
X-16092472Y25035243D01*
X-16103957Y25024934D01*
X-16116131Y25012877D01*
X-16122268Y25006519D01*
X-16142785Y24980488D01*
X-16156815Y24951765D01*
X-16165866Y24916475D01*
X-16171446Y24870745D01*
X-16172195Y24860464D01*
X-16171175Y24795374D01*
X-16159498Y24739745D01*
X-16137275Y24693750D01*
X-16104618Y24657563D01*
X-16061637Y24631358D01*
X-16008442Y24615309D01*
X-15996455Y24613999D01*
X-15969625Y24612536D01*
X-15930486Y24611242D01*
X-15880210Y24610137D01*
X-15819974Y24609242D01*
X-15750952Y24608577D01*
X-15674319Y24608163D01*
X-15591249Y24608020D01*
X-15212969Y24608020D01*
X-15212969Y24391297D01*
X-15608489Y24391549D01*
X-15691831Y24391650D01*
X-15774586Y24391931D01*
X-15845249Y24392480D01*
X-15905076Y24393391D01*
X-15955322Y24394761D01*
X-15997245Y24396685D01*
X-16032099Y24399258D01*
X-16061142Y24402576D01*
X-16085629Y24406734D01*
X-16106816Y24411828D01*
X-16125960Y24417952D01*
X-16144316Y24425203D01*
X-16163141Y24433675D01*
X-16208952Y24460719D01*
X-16255989Y24503448D01*
X-16294546Y24556795D01*
X-16323879Y24619699D01*
X-16343245Y24691098D01*
X-16348479Y24729127D01*
X-16351717Y24783618D01*
X-16351588Y24842371D01*
X-16348253Y24900772D01*
X-16341872Y24954210D01*
X-16332605Y24998071D01*
X-16322108Y25030891D01*
X-16290963Y25099349D01*
X-16250423Y25157156D01*
X-16200719Y25204015D01*
X-16142084Y25239634D01*
X-16139337Y25240935D01*
X-16118585Y25250532D01*
X-16099211Y25258699D01*
X-16079895Y25265549D01*
X-16059320Y25271200D01*
X-16036166Y25275765D01*
X-16009114Y25279361D01*
X-15976846Y25282104D01*
X-15938043Y25284107D01*
X-15891385Y25285488D01*
X-15835555Y25286361D01*
X-15769233Y25286842D01*
X-15691101Y25287045D01*
X-15599839Y25287088D01*
X-15212969Y25287088D01*
X-15212969Y25078858D01*
G37*
G36*
X-17069781Y19965996D02*
G01*
X-17048146Y19961695D01*
X-17026994Y19956453D01*
X-17010928Y19951295D01*
X-17004550Y19947246D01*
X-17005846Y19945055D01*
X-17014849Y19945645D01*
X-17018259Y19946413D01*
X-17029002Y19941163D01*
X-17039580Y19923572D01*
X-17050329Y19892944D01*
X-17061582Y19848587D01*
X-17065497Y19831160D01*
X-17071307Y19804934D01*
X-17075304Y19786395D01*
X-17076792Y19778744D01*
X-17074439Y19779755D01*
X-17062160Y19787111D01*
X-17041161Y19800387D01*
X-17013460Y19818302D01*
X-16981072Y19839576D01*
X-16954928Y19856824D01*
X-16918065Y19880881D01*
X-16890798Y19898172D01*
X-16871636Y19909564D01*
X-16859089Y19915923D01*
X-16851666Y19918117D01*
X-16847878Y19917010D01*
X-16847724Y19912128D01*
X-16849840Y19895032D01*
X-16854229Y19868019D01*
X-16860494Y19833486D01*
X-16868238Y19793834D01*
X-16876335Y19753411D01*
X-16882580Y19720727D01*
X-16886251Y19698063D01*
X-16887523Y19683260D01*
X-16886570Y19674157D01*
X-16883567Y19668595D01*
X-16878688Y19664414D01*
X-16873830Y19660417D01*
X-16874294Y19657932D01*
X-16884947Y19659007D01*
X-16907709Y19663589D01*
X-16931772Y19668771D01*
X-16947755Y19672623D01*
X-16953131Y19675187D01*
X-16949768Y19677448D01*
X-16939533Y19680394D01*
X-16938439Y19680711D01*
X-16930432Y19684571D01*
X-16923914Y19692332D01*
X-16917741Y19706548D01*
X-16910770Y19729772D01*
X-16901859Y19764558D01*
X-16894914Y19792874D01*
X-16888285Y19820584D01*
X-16883739Y19840394D01*
X-16881992Y19849248D01*
X-16887126Y19847452D01*
X-16902404Y19838727D01*
X-16925970Y19824146D01*
X-16955956Y19804867D01*
X-16990492Y19782049D01*
X-17022601Y19760693D01*
X-17054734Y19739580D01*
X-17081213Y19722463D01*
X-17099929Y19710702D01*
X-17108775Y19705658D01*
X-17111604Y19708118D01*
X-17111762Y19719865D01*
X-17108969Y19742128D01*
X-17103077Y19776083D01*
X-17093937Y19822905D01*
X-17087622Y19854420D01*
X-17080427Y19890851D01*
X-17074707Y19920424D01*
X-17070930Y19940705D01*
X-17069567Y19949262D01*
X-17072617Y19953516D01*
X-17084560Y19959473D01*
X-17093139Y19963171D01*
X-17096159Y19967625D01*
X-17096094Y19967686D01*
X-17087298Y19968335D01*
X-17069781Y19965996D01*
G37*
G36*
X-15874216Y20061773D02*
G01*
X-15887274Y20047796D01*
X-15889394Y20045414D01*
X-15900290Y20028047D01*
X-15912449Y20002510D01*
X-15923613Y19973421D01*
X-15930504Y19952745D01*
X-15936626Y19932147D01*
X-15938429Y19919987D01*
X-15936233Y19913202D01*
X-15930355Y19908731D01*
X-15926600Y19906319D01*
X-15911419Y19894417D01*
X-15894016Y19878751D01*
X-15881410Y19864563D01*
X-15869996Y19839708D01*
X-15872832Y19815772D01*
X-15889798Y19792969D01*
X-15920775Y19771510D01*
X-15958975Y19754565D01*
X-15965644Y19751607D01*
X-15981561Y19745849D01*
X-16008737Y19736722D01*
X-16024740Y19732520D01*
X-16028829Y19733406D01*
X-16020264Y19739543D01*
X-16013187Y19745164D01*
X-16007638Y19755578D01*
X-16009794Y19764086D01*
X-16016195Y19783382D01*
X-16025716Y19810209D01*
X-16037215Y19841507D01*
X-16048733Y19872045D01*
X-15998051Y19872045D01*
X-15997748Y19865852D01*
X-15993412Y19847534D01*
X-15985637Y19824974D01*
X-15976249Y19802712D01*
X-15967073Y19785291D01*
X-15959935Y19777250D01*
X-15958975Y19777065D01*
X-15947599Y19780587D01*
X-15932194Y19790490D01*
X-15919935Y19801918D01*
X-15914816Y19814954D01*
X-15915984Y19835132D01*
X-15923042Y19859423D01*
X-15937673Y19881799D01*
X-15946917Y19890187D01*
X-15959929Y19895810D01*
X-15976140Y19892773D01*
X-15990364Y19884929D01*
X-15998051Y19872045D01*
X-16048733Y19872045D01*
X-16049554Y19874221D01*
X-16061593Y19905291D01*
X-16072191Y19931660D01*
X-16080209Y19950270D01*
X-16089554Y19963557D01*
X-16103899Y19970137D01*
X-16106814Y19970167D01*
X-16114531Y19971285D01*
X-16112217Y19974613D01*
X-16098658Y19980968D01*
X-16072639Y19991168D01*
X-16045959Y20000777D01*
X-16028799Y20005493D01*
X-16024447Y20004031D01*
X-16032776Y19996409D01*
X-16035108Y19994672D01*
X-16040882Y19988705D01*
X-16042067Y19980571D01*
X-16038457Y19966499D01*
X-16029848Y19942719D01*
X-16021269Y19920968D01*
X-16013991Y19907518D01*
X-16007030Y19902897D01*
X-15998235Y19904506D01*
X-15995179Y19905983D01*
X-15985784Y19915971D01*
X-15976405Y19935620D01*
X-15965857Y19967226D01*
X-15958772Y19989639D01*
X-15947778Y20017155D01*
X-15935523Y20035767D01*
X-15919564Y20048769D01*
X-15897454Y20059459D01*
X-15882305Y20065324D01*
X-15872337Y20067360D01*
X-15874216Y20061773D01*
G37*
G36*
X-15825426Y28385969D02*
G01*
X-15780338Y28382170D01*
X-15741808Y28375220D01*
X-15706655Y28364622D01*
X-15671701Y28349876D01*
X-15636557Y28330804D01*
X-15585497Y28291123D01*
X-15545780Y28242494D01*
X-15517409Y28184921D01*
X-15500385Y28118408D01*
X-15494710Y28042957D01*
X-15495926Y28004510D01*
X-15505483Y27937873D01*
X-15525305Y27879095D01*
X-15556305Y27825846D01*
X-15599395Y27775796D01*
X-15637881Y27742072D01*
X-15692406Y27707704D01*
X-15754230Y27682785D01*
X-15812571Y27669513D01*
X-15825031Y27666678D01*
X-15906484Y27658742D01*
X-15927816Y27658019D01*
X-16014736Y27661404D01*
X-16091959Y27675369D01*
X-16159405Y27699856D01*
X-16216992Y27734807D01*
X-16264640Y27780162D01*
X-16302269Y27835863D01*
X-16329797Y27901853D01*
X-16347145Y27978072D01*
X-16349942Y28000732D01*
X-16352678Y28069469D01*
X-16348485Y28144010D01*
X-16337767Y28219546D01*
X-16320926Y28291271D01*
X-16317052Y28304477D01*
X-16309211Y28330156D01*
X-16303160Y28348557D01*
X-16299967Y28356366D01*
X-16299745Y28356532D01*
X-16290297Y28357301D01*
X-16270770Y28356119D01*
X-16244658Y28353459D01*
X-16215457Y28349790D01*
X-16186662Y28345585D01*
X-16161766Y28341316D01*
X-16144266Y28337453D01*
X-16137656Y28334469D01*
X-16137717Y28333607D01*
X-16140973Y28321712D01*
X-16147662Y28304030D01*
X-16150394Y28297170D01*
X-16163330Y28254423D01*
X-16173236Y28204326D01*
X-16179722Y28151061D01*
X-16182398Y28098810D01*
X-16180872Y28051756D01*
X-16174754Y28014081D01*
X-16171281Y28003453D01*
X-16159817Y27977140D01*
X-16145777Y27951753D01*
X-16132899Y27934805D01*
X-16098633Y27906646D01*
X-16054432Y27886697D01*
X-16002204Y27875964D01*
X-15957053Y27871264D01*
X-15957053Y28176735D01*
X-15812571Y28176735D01*
X-15812571Y27874101D01*
X-15774644Y27885243D01*
X-15752250Y27893091D01*
X-15708359Y27918429D01*
X-15674257Y27954269D01*
X-15669884Y27961497D01*
X-15659852Y27990084D01*
X-15654579Y28025147D01*
X-15654615Y28061156D01*
X-15660509Y28092582D01*
X-15664354Y28102196D01*
X-15685166Y28131509D01*
X-15715744Y28155127D01*
X-15752714Y28170904D01*
X-15792704Y28176695D01*
X-15812571Y28176735D01*
X-15957053Y28176735D01*
X-15957053Y28386234D01*
X-15908290Y28386904D01*
X-15880252Y28387113D01*
X-15825426Y28385969D01*
G37*
G36*
X-15453695Y22985102D02*
G01*
X-15418005Y22962679D01*
X-15375512Y22928104D01*
X-15363303Y22917158D01*
X-15354682Y22908167D01*
X-15355674Y22905383D01*
X-15365416Y22907004D01*
X-15372910Y22907841D01*
X-15381127Y22905456D01*
X-15391105Y22898058D01*
X-15404593Y22884028D01*
X-15423342Y22861748D01*
X-15449102Y22829597D01*
X-15457844Y22818578D01*
X-15483579Y22786016D01*
X-15490632Y22776877D01*
X-15501722Y22762508D01*
X-15513347Y22746277D01*
X-15519527Y22735548D01*
X-15521334Y22728542D01*
X-15519840Y22723484D01*
X-15516119Y22718597D01*
X-15511292Y22711836D01*
X-15512774Y22709302D01*
X-15522985Y22714496D01*
X-15540528Y22726519D01*
X-15564002Y22744471D01*
X-15592009Y22767450D01*
X-15592495Y22767904D01*
X-15590259Y22770465D01*
X-15577561Y22769263D01*
X-15568452Y22768111D01*
X-15557045Y22770519D01*
X-15545172Y22780057D01*
X-15528957Y22799103D01*
X-15525051Y22803990D01*
X-15512074Y22820949D01*
X-15507015Y22830885D01*
X-15508928Y22837275D01*
X-15516868Y22843599D01*
X-15523237Y22847513D01*
X-15533970Y22850351D01*
X-15549151Y22848717D01*
X-15573396Y22842520D01*
X-15607279Y22834457D01*
X-15642466Y22831231D01*
X-15670730Y22836247D01*
X-15694971Y22849677D01*
X-15706650Y22859202D01*
X-15715455Y22869216D01*
X-15712253Y22872472D01*
X-15696984Y22868421D01*
X-15694180Y22867592D01*
X-15673786Y22866097D01*
X-15644310Y22868221D01*
X-15609675Y22873544D01*
X-15573807Y22881645D01*
X-15572238Y22882065D01*
X-15556214Y22887800D01*
X-15556175Y22887857D01*
X-15526757Y22887857D01*
X-15514488Y22868622D01*
X-15513820Y22867999D01*
X-15500122Y22857197D01*
X-15490632Y22852963D01*
X-15490030Y22853093D01*
X-15481440Y22859961D01*
X-15467924Y22874624D01*
X-15452377Y22893451D01*
X-15437690Y22912807D01*
X-15426756Y22929059D01*
X-15422468Y22938574D01*
X-15422728Y22940439D01*
X-15431233Y22950097D01*
X-15447928Y22957785D01*
X-15467599Y22960921D01*
X-15469790Y22960779D01*
X-15486730Y22954269D01*
X-15503679Y22941055D01*
X-15509520Y22934587D01*
X-15525120Y22909724D01*
X-15526757Y22887857D01*
X-15556175Y22887857D01*
X-15550387Y22896366D01*
X-15551007Y22912902D01*
X-15549928Y22935400D01*
X-15542271Y22959753D01*
X-15527744Y22980950D01*
X-15507785Y22994090D01*
X-15483362Y22995523D01*
X-15453695Y22985102D01*
G37*
G36*
X-18032070Y27770399D02*
G01*
X-18004560Y27768815D01*
X-17973820Y27766499D01*
X-17943352Y27763734D01*
X-17916657Y27760809D01*
X-17897236Y27758008D01*
X-17888591Y27755618D01*
X-17888328Y27750550D01*
X-17891598Y27735016D01*
X-17898128Y27713382D01*
X-17904574Y27688834D01*
X-17910214Y27648899D01*
X-17912088Y27605913D01*
X-17910249Y27564139D01*
X-17904744Y27527840D01*
X-17895626Y27501280D01*
X-17894192Y27498649D01*
X-17873056Y27467670D01*
X-17846473Y27444130D01*
X-17809950Y27423973D01*
X-17802404Y27420614D01*
X-17786419Y27414758D01*
X-17769104Y27410913D01*
X-17747180Y27408671D01*
X-17717369Y27407624D01*
X-17676393Y27407366D01*
X-17654789Y27407418D01*
X-17619729Y27408002D01*
X-17594157Y27409576D01*
X-17574748Y27412560D01*
X-17558174Y27417375D01*
X-17541107Y27424439D01*
X-17516776Y27437933D01*
X-17482759Y27465234D01*
X-17454951Y27497534D01*
X-17437304Y27530784D01*
X-17434166Y27541774D01*
X-17429214Y27577608D01*
X-17428771Y27619844D01*
X-17432726Y27663233D01*
X-17440967Y27702526D01*
X-17446126Y27722288D01*
X-17449447Y27740436D01*
X-17449095Y27749047D01*
X-17440620Y27751618D01*
X-17421214Y27755013D01*
X-17394458Y27758791D01*
X-17363904Y27762545D01*
X-17333101Y27765865D01*
X-17305601Y27768341D01*
X-17284955Y27769566D01*
X-17274714Y27769130D01*
X-17268580Y27762623D01*
X-17261805Y27743423D01*
X-17256409Y27714454D01*
X-17252524Y27678320D01*
X-17250279Y27637628D01*
X-17249805Y27594985D01*
X-17251232Y27552997D01*
X-17254692Y27514271D01*
X-17260313Y27481413D01*
X-17267248Y27455233D01*
X-17294649Y27387261D01*
X-17333573Y27327976D01*
X-17383937Y27277467D01*
X-17445658Y27235823D01*
X-17518655Y27203133D01*
X-17531653Y27198583D01*
X-17550312Y27192858D01*
X-17568667Y27188861D01*
X-17589671Y27186272D01*
X-17616271Y27184774D01*
X-17651420Y27184048D01*
X-17698066Y27183776D01*
X-17740410Y27183888D01*
X-17784786Y27185063D01*
X-17820408Y27187950D01*
X-17850480Y27193141D01*
X-17878206Y27201229D01*
X-17906787Y27212809D01*
X-17939428Y27228472D01*
X-17966719Y27244683D01*
X-18010246Y27282751D01*
X-18046705Y27331132D01*
X-18074633Y27387707D01*
X-18092567Y27450357D01*
X-18097524Y27488815D01*
X-18099467Y27542652D01*
X-18097380Y27600759D01*
X-18091472Y27658004D01*
X-18081955Y27709250D01*
X-18080187Y27716450D01*
X-18073381Y27742207D01*
X-18067596Y27761266D01*
X-18063929Y27769935D01*
X-18063393Y27770223D01*
X-18052848Y27770964D01*
X-18032070Y27770399D01*
G37*
G36*
X-16038774Y29661949D02*
G01*
X-15991863Y29649997D01*
X-15950931Y29626703D01*
X-15914998Y29591328D01*
X-15883084Y29543131D01*
X-15854209Y29481373D01*
X-15851275Y29474115D01*
X-15831324Y29426971D01*
X-15814291Y29391555D01*
X-15799086Y29366002D01*
X-15784620Y29348450D01*
X-15769804Y29337035D01*
X-15766037Y29334863D01*
X-15750280Y29327650D01*
X-15736149Y29327261D01*
X-15716204Y29333157D01*
X-15694475Y29343316D01*
X-15676599Y29359867D01*
X-15665227Y29383794D01*
X-15659364Y29417311D01*
X-15658016Y29462628D01*
X-15658313Y29475973D01*
X-15660269Y29510429D01*
X-15663538Y29541236D01*
X-15667603Y29562995D01*
X-15672157Y29582069D01*
X-15672199Y29594251D01*
X-15666840Y29600811D01*
X-15662216Y29602540D01*
X-15644836Y29605100D01*
X-15619572Y29606584D01*
X-15590140Y29607028D01*
X-15560259Y29606471D01*
X-15533647Y29604950D01*
X-15514022Y29602503D01*
X-15505102Y29599168D01*
X-15504582Y29598161D01*
X-15501430Y29583832D01*
X-15498963Y29558698D01*
X-15497232Y29525926D01*
X-15496286Y29488680D01*
X-15496175Y29450124D01*
X-15496947Y29413423D01*
X-15498652Y29381742D01*
X-15501340Y29358245D01*
X-15506982Y29331312D01*
X-15528572Y29268229D01*
X-15559898Y29213263D01*
X-15599937Y29167980D01*
X-15647668Y29133946D01*
X-15652522Y29131443D01*
X-15691242Y29117830D01*
X-15736617Y29110104D01*
X-15782694Y29108912D01*
X-15823518Y29114897D01*
X-15841729Y29120678D01*
X-15885981Y29143681D01*
X-15923749Y29178129D01*
X-15955771Y29224808D01*
X-15982787Y29284505D01*
X-15992752Y29310889D01*
X-16008948Y29351295D01*
X-16022613Y29381022D01*
X-16034857Y29402124D01*
X-16046787Y29416653D01*
X-16059510Y29426663D01*
X-16080420Y29436389D01*
X-16107990Y29437975D01*
X-16127714Y29432191D01*
X-16152914Y29413244D01*
X-16171249Y29383114D01*
X-16182469Y29342865D01*
X-16186322Y29293559D01*
X-16182557Y29236259D01*
X-16170921Y29172027D01*
X-16161647Y29132134D01*
X-16204892Y29127614D01*
X-16223120Y29126017D01*
X-16259607Y29123917D01*
X-16293459Y29123094D01*
X-16338781Y29123094D01*
X-16343403Y29171857D01*
X-16346022Y29197048D01*
X-16348757Y29219009D01*
X-16350864Y29231456D01*
X-16352485Y29245137D01*
X-16352723Y29271282D01*
X-16351417Y29304654D01*
X-16348842Y29341430D01*
X-16345275Y29377785D01*
X-16340991Y29409896D01*
X-16336266Y29433937D01*
X-16318917Y29487134D01*
X-16289121Y29545556D01*
X-16251256Y29592912D01*
X-16205898Y29628658D01*
X-16153618Y29652249D01*
X-16094991Y29663141D01*
X-16092643Y29663299D01*
X-16038774Y29661949D01*
G37*
G36*
X-16041937Y31608137D02*
G01*
X-16038990Y31608136D01*
X-15970254Y31607919D01*
X-15905677Y31607353D01*
X-15846975Y31606476D01*
X-15795862Y31605326D01*
X-15754054Y31603943D01*
X-15723264Y31602362D01*
X-15705207Y31600624D01*
X-15674772Y31594164D01*
X-15621557Y31573411D01*
X-15577805Y31541947D01*
X-15543324Y31499565D01*
X-15517920Y31446057D01*
X-15501400Y31381214D01*
X-15496823Y31341680D01*
X-15494926Y31286625D01*
X-15496466Y31226029D01*
X-15501198Y31164389D01*
X-15508873Y31106205D01*
X-15519246Y31055974D01*
X-15524988Y31034733D01*
X-15533193Y31007113D01*
X-15540118Y30986894D01*
X-15544689Y30977392D01*
X-15544693Y30977389D01*
X-15553636Y30975864D01*
X-15573344Y30975797D01*
X-15600245Y30976912D01*
X-15630765Y30978937D01*
X-15661331Y30981597D01*
X-15688369Y30984618D01*
X-15708307Y30987726D01*
X-15717572Y30990648D01*
X-15717565Y30994005D01*
X-15713254Y31007378D01*
X-15704899Y31026795D01*
X-15704501Y31027645D01*
X-15687602Y31071741D01*
X-15674705Y31121198D01*
X-15666066Y31172898D01*
X-15661941Y31223724D01*
X-15662587Y31270558D01*
X-15668258Y31310283D01*
X-15679212Y31339780D01*
X-15682811Y31345448D01*
X-15708722Y31370720D01*
X-15744607Y31386207D01*
X-15789522Y31391468D01*
X-15832066Y31391468D01*
X-15836425Y31317420D01*
X-15837229Y31305245D01*
X-15848302Y31219811D01*
X-15868110Y31143357D01*
X-15896273Y31076633D01*
X-15932409Y31020390D01*
X-15976137Y30975378D01*
X-16027074Y30942348D01*
X-16028440Y30941677D01*
X-16054788Y30929714D01*
X-16076875Y30922889D01*
X-16100924Y30919844D01*
X-16107460Y30919718D01*
X-16133158Y30919224D01*
X-16136330Y30919242D01*
X-16173300Y30920981D01*
X-16202432Y30926214D01*
X-16229703Y30935981D01*
X-16264880Y30955953D01*
X-16302218Y30991383D01*
X-16329839Y31036753D01*
X-16346934Y31090993D01*
X-16347160Y31092145D01*
X-16352465Y31151713D01*
X-16346345Y31211512D01*
X-16341693Y31227665D01*
X-16186762Y31227665D01*
X-16184589Y31190839D01*
X-16172625Y31159262D01*
X-16151235Y31135938D01*
X-16135526Y31128853D01*
X-16107460Y31124681D01*
X-16077169Y31126729D01*
X-16050889Y31135052D01*
X-16035949Y31146098D01*
X-16015523Y31172902D01*
X-15998001Y31209906D01*
X-15984273Y31254614D01*
X-15975227Y31304529D01*
X-15971753Y31357153D01*
X-15971501Y31391468D01*
X-16000320Y31391468D01*
X-16014906Y31390493D01*
X-16052594Y31381768D01*
X-16091521Y31365832D01*
X-16125614Y31344941D01*
X-16135521Y31336004D01*
X-16154369Y31313356D01*
X-16169812Y31288323D01*
X-16178777Y31266739D01*
X-16186762Y31227665D01*
X-16341693Y31227665D01*
X-16329817Y31268898D01*
X-16303899Y31321228D01*
X-16269607Y31365861D01*
X-16227958Y31400154D01*
X-16206285Y31413758D01*
X-16332741Y31409528D01*
X-16332724Y31508859D01*
X-16332707Y31608191D01*
X-16041937Y31608137D01*
G37*
G36*
X-16546413Y23725610D02*
G01*
X-16477494Y23723574D01*
X-16414684Y23720252D01*
X-16361875Y23715675D01*
X-16243050Y23699248D01*
X-16068035Y23663162D01*
X-15897931Y23613618D01*
X-15733214Y23550852D01*
X-15574359Y23475097D01*
X-15421842Y23386589D01*
X-15276140Y23285564D01*
X-15137728Y23172255D01*
X-15007082Y23046898D01*
X-14996072Y23035429D01*
X-14942522Y22977774D01*
X-14895002Y22922775D01*
X-14850394Y22866533D01*
X-14805582Y22805151D01*
X-14757449Y22734732D01*
X-14708363Y22657751D01*
X-14623235Y22504401D01*
X-14551002Y22344986D01*
X-14491526Y22179145D01*
X-14444668Y22006515D01*
X-14410290Y21826735D01*
X-14405510Y21793787D01*
X-14401403Y21759714D01*
X-14398353Y21725220D01*
X-14396206Y21687500D01*
X-14394804Y21643749D01*
X-14393993Y21591162D01*
X-14393615Y21526934D01*
X-14393619Y21473984D01*
X-14394383Y21405677D01*
X-14396298Y21346458D01*
X-14399641Y21293139D01*
X-14404690Y21242532D01*
X-14411721Y21191447D01*
X-14421010Y21136699D01*
X-14432834Y21075097D01*
X-14462941Y20945012D01*
X-14514470Y20777312D01*
X-14578868Y20615159D01*
X-14655629Y20459201D01*
X-14744247Y20310086D01*
X-14844215Y20168461D01*
X-14955028Y20034976D01*
X-15076177Y19910278D01*
X-15207158Y19795016D01*
X-15347462Y19689838D01*
X-15496584Y19595392D01*
X-15654018Y19512326D01*
X-15725150Y19479740D01*
X-15880705Y19418454D01*
X-16038098Y19370316D01*
X-16199057Y19334914D01*
X-16365313Y19311832D01*
X-16538595Y19300657D01*
X-16596388Y19299763D01*
X-16611392Y19299531D01*
X-16787914Y19306149D01*
X-16960087Y19326300D01*
X-17128716Y19360168D01*
X-17294605Y19407933D01*
X-17458560Y19469778D01*
X-17621383Y19545886D01*
X-17706781Y19592175D01*
X-17852707Y19683668D01*
X-17990607Y19786246D01*
X-18119913Y19899089D01*
X-18240054Y20021380D01*
X-18350459Y20152299D01*
X-18450559Y20291029D01*
X-18539782Y20436750D01*
X-18617560Y20588644D01*
X-18683321Y20745893D01*
X-18736495Y20907678D01*
X-18776512Y21073180D01*
X-18802801Y21241581D01*
X-18804533Y21256837D01*
X-18808150Y21288607D01*
X-18811184Y21315142D01*
X-18813113Y21331883D01*
X-18813304Y21333924D01*
X-18814116Y21350633D01*
X-18814908Y21378653D01*
X-18815629Y21415452D01*
X-18816227Y21458499D01*
X-18816326Y21469452D01*
X-18760647Y21469452D01*
X-18758819Y21400512D01*
X-18748690Y21267465D01*
X-18723147Y21099013D01*
X-18683760Y20932771D01*
X-18630859Y20769610D01*
X-18564773Y20610399D01*
X-18485833Y20456012D01*
X-18394369Y20307317D01*
X-18290710Y20165188D01*
X-18258288Y20126188D01*
X-18212362Y20074982D01*
X-18160466Y20020369D01*
X-18105532Y19965283D01*
X-18050494Y19912653D01*
X-17998284Y19865411D01*
X-17951835Y19826487D01*
X-17831748Y19737285D01*
X-17686883Y19645015D01*
X-17536669Y19565546D01*
X-17380355Y19498560D01*
X-17217189Y19443741D01*
X-17046418Y19400772D01*
X-16867292Y19369336D01*
X-16849619Y19367262D01*
X-16805532Y19364043D01*
X-16748142Y19361772D01*
X-16678184Y19360474D01*
X-16596388Y19360171D01*
X-16588468Y19360192D01*
X-16524955Y19360549D01*
X-16472948Y19361322D01*
X-16429805Y19362649D01*
X-16392879Y19364673D01*
X-16359529Y19367534D01*
X-16327109Y19371372D01*
X-16292975Y19376329D01*
X-16143970Y19404259D01*
X-15971432Y19449495D01*
X-15805595Y19507516D01*
X-15646527Y19578286D01*
X-15494294Y19661774D01*
X-15348963Y19757944D01*
X-15210602Y19866763D01*
X-15079278Y19988197D01*
X-14999801Y20071458D01*
X-14892049Y20199356D01*
X-14796469Y20332911D01*
X-14711856Y20473856D01*
X-14637007Y20623919D01*
X-14630627Y20638132D01*
X-14567022Y20798833D01*
X-14516834Y20963849D01*
X-14480085Y21132168D01*
X-14456798Y21302781D01*
X-14446992Y21474675D01*
X-14450690Y21646839D01*
X-14467913Y21818263D01*
X-14498683Y21987934D01*
X-14543022Y22154842D01*
X-14600950Y22317975D01*
X-14654169Y22439328D01*
X-14734927Y22592820D01*
X-14827184Y22738536D01*
X-14930278Y22875895D01*
X-15043543Y23004313D01*
X-15166316Y23123206D01*
X-15297932Y23231991D01*
X-15437727Y23330085D01*
X-15585037Y23416905D01*
X-15739198Y23491868D01*
X-15899545Y23554390D01*
X-16065415Y23603889D01*
X-16152507Y23624436D01*
X-16261716Y23645013D01*
X-16370090Y23659007D01*
X-16482450Y23667007D01*
X-16603612Y23669602D01*
X-16648134Y23669265D01*
X-16810214Y23661263D01*
X-16965516Y23642220D01*
X-17116313Y23611605D01*
X-17264880Y23568885D01*
X-17413491Y23513530D01*
X-17564420Y23445008D01*
X-17567111Y23443680D01*
X-17688295Y23379539D01*
X-17800088Y23310982D01*
X-17905822Y23235640D01*
X-18008832Y23151139D01*
X-18112449Y23055110D01*
X-18136108Y23031658D01*
X-18256012Y22900976D01*
X-18363864Y22762460D01*
X-18459451Y22616533D01*
X-18542562Y22463621D01*
X-18612983Y22304148D01*
X-18670501Y22138540D01*
X-18714904Y21967220D01*
X-18745979Y21790614D01*
X-18750586Y21750114D01*
X-18755447Y21687129D01*
X-18758831Y21616718D01*
X-18760608Y21542840D01*
X-18760647Y21469452D01*
X-18816326Y21469452D01*
X-18816649Y21505262D01*
X-18815776Y21600423D01*
X-18809389Y21721862D01*
X-18796532Y21837498D01*
X-18776686Y21951677D01*
X-18749333Y22068743D01*
X-18744782Y22085922D01*
X-18691427Y22257160D01*
X-18625299Y22421983D01*
X-18546649Y22579928D01*
X-18455728Y22730533D01*
X-18352788Y22873337D01*
X-18238080Y23007878D01*
X-18232071Y23014356D01*
X-18136237Y23112347D01*
X-18040539Y23199680D01*
X-17941420Y23279418D01*
X-17835324Y23354622D01*
X-17819489Y23365103D01*
X-17665043Y23457993D01*
X-17505532Y23537353D01*
X-17341003Y23603166D01*
X-17171501Y23655416D01*
X-16997072Y23694085D01*
X-16817764Y23719157D01*
X-16805383Y23720302D01*
X-16750928Y23723706D01*
X-16687021Y23725706D01*
X-16617553Y23726330D01*
X-16546413Y23725610D01*
G37*
G36*
X-16508958Y23580163D02*
G01*
X-16336146Y23565683D01*
X-16167191Y23537390D01*
X-16002473Y23495406D01*
X-15842372Y23439852D01*
X-15687268Y23370852D01*
X-15537542Y23288528D01*
X-15393572Y23193001D01*
X-15304855Y23125156D01*
X-15174855Y23011153D01*
X-15055657Y22887906D01*
X-14947629Y22756018D01*
X-14851139Y22616095D01*
X-14766556Y22468739D01*
X-14694248Y22314556D01*
X-14634584Y22154150D01*
X-14587932Y21988126D01*
X-14554661Y21817086D01*
X-14547607Y21760164D01*
X-14541881Y21691610D01*
X-14537794Y21616730D01*
X-14535468Y21539603D01*
X-14535025Y21464304D01*
X-14536586Y21394909D01*
X-14540273Y21335495D01*
X-14548844Y21256580D01*
X-14577747Y21085101D01*
X-14620143Y20918360D01*
X-14675793Y20756867D01*
X-14744458Y20601132D01*
X-14825897Y20451667D01*
X-14919873Y20308981D01*
X-15026146Y20173585D01*
X-15144477Y20045990D01*
X-15241266Y19955506D01*
X-15375489Y19847049D01*
X-15517094Y19750971D01*
X-15665889Y19667369D01*
X-15821680Y19596338D01*
X-15984274Y19537973D01*
X-16153476Y19492370D01*
X-16329095Y19459626D01*
X-16363184Y19455514D01*
X-16420207Y19451073D01*
X-16485919Y19448049D01*
X-16557025Y19446439D01*
X-16630230Y19446246D01*
X-16662041Y19446785D01*
X-16702238Y19447467D01*
X-16769755Y19450105D01*
X-16829483Y19454157D01*
X-16878128Y19459626D01*
X-17017770Y19484481D01*
X-17188426Y19527377D01*
X-17352415Y19583017D01*
X-17509572Y19651321D01*
X-17604152Y19702268D01*
X-17659486Y19732074D01*
X-17575256Y19732074D01*
X-17559001Y19721425D01*
X-17558679Y19721217D01*
X-17545492Y19713851D01*
X-17522495Y19702053D01*
X-17492839Y19687408D01*
X-17459670Y19671496D01*
X-17312822Y19609328D01*
X-17154850Y19557482D01*
X-16993087Y19519048D01*
X-16828496Y19494091D01*
X-16662041Y19482674D01*
X-16494686Y19484862D01*
X-16327393Y19500719D01*
X-16161128Y19530311D01*
X-15996854Y19573701D01*
X-15869103Y19618582D01*
X-15728945Y19679916D01*
X-15591414Y19752470D01*
X-15459396Y19834709D01*
X-15335779Y19925097D01*
X-15317873Y19939752D01*
X-15276527Y19975955D01*
X-15230049Y20019108D01*
X-15181146Y20066511D01*
X-15132524Y20115467D01*
X-15086888Y20163275D01*
X-15046945Y20207236D01*
X-15015399Y20244653D01*
X-14975513Y20296485D01*
X-14880415Y20436021D01*
X-14797875Y20581717D01*
X-14728002Y20732719D01*
X-14670904Y20888172D01*
X-14626690Y21047222D01*
X-14595466Y21209012D01*
X-14577342Y21372690D01*
X-14572424Y21537400D01*
X-14580822Y21702287D01*
X-14602643Y21866497D01*
X-14637996Y22029174D01*
X-14686988Y22189465D01*
X-14749727Y22346514D01*
X-14802269Y22454072D01*
X-14883854Y22594310D01*
X-14977477Y22729476D01*
X-15081853Y22857891D01*
X-15195696Y22977878D01*
X-15317719Y23087759D01*
X-15375097Y23132705D01*
X-15453072Y23187781D01*
X-15537639Y23242143D01*
X-15624800Y23293350D01*
X-15710553Y23338961D01*
X-15790898Y23376535D01*
X-15836237Y23395386D01*
X-15999564Y23453571D01*
X-16164885Y23497578D01*
X-16331647Y23527419D01*
X-16499297Y23543104D01*
X-16667283Y23544646D01*
X-16835050Y23532056D01*
X-17002048Y23505346D01*
X-17167721Y23464528D01*
X-17331518Y23409613D01*
X-17492886Y23340613D01*
X-17575256Y23301459D01*
X-17575256Y22202389D01*
X-15444141Y22202389D01*
X-15444141Y22160602D01*
X-15308689Y22157652D01*
X-15291232Y22157256D01*
X-15246127Y22155960D01*
X-15212140Y22154342D01*
X-15186759Y22152132D01*
X-15167471Y22149061D01*
X-15151760Y22144858D01*
X-15137116Y22139256D01*
X-15130025Y22136397D01*
X-15103586Y22128692D01*
X-15071143Y22123912D01*
X-15028513Y22121368D01*
X-15016253Y22120911D01*
X-14983147Y22118787D01*
X-14958374Y22115026D01*
X-14937237Y22108698D01*
X-14915037Y22098870D01*
X-14876752Y22074499D01*
X-14844444Y22040496D01*
X-14816457Y21994696D01*
X-14800901Y21963993D01*
X-14815070Y21936219D01*
X-14836521Y21905217D01*
X-14870309Y21873557D01*
X-14911563Y21847128D01*
X-14913479Y21846152D01*
X-14931855Y21838690D01*
X-14954281Y21833384D01*
X-14984221Y21829613D01*
X-15010694Y21827764D01*
X-15025142Y21826755D01*
X-15048517Y21825131D01*
X-15063438Y21824095D01*
X-15095907Y21820102D01*
X-15120510Y21814461D01*
X-15140728Y21806565D01*
X-15150162Y21802296D01*
X-15162858Y21797872D01*
X-15177787Y21794755D01*
X-15197392Y21792717D01*
X-15224115Y21791527D01*
X-15260400Y21790955D01*
X-15308689Y21790773D01*
X-15444141Y21790614D01*
X-15444141Y21740045D01*
X-15552503Y21740045D01*
X-15877588Y21740045D01*
X-16213190Y21740045D01*
X-16091018Y21617235D01*
X-15978084Y21617235D01*
X-15933618Y21617003D01*
X-15899644Y21616019D01*
X-15872278Y21613834D01*
X-15847629Y21610003D01*
X-15821812Y21604077D01*
X-15790939Y21595611D01*
X-15768054Y21589624D01*
X-15731162Y21581606D01*
X-15685865Y21573394D01*
X-15630664Y21564741D01*
X-15564062Y21555400D01*
X-15484559Y21545125D01*
X-15451611Y21540977D01*
X-15398169Y21534151D01*
X-15350482Y21527936D01*
X-15310266Y21522563D01*
X-15279238Y21518264D01*
X-15259116Y21515269D01*
X-15251616Y21513809D01*
X-15253939Y21513172D01*
X-15268327Y21511143D01*
X-15294394Y21508038D01*
X-15330474Y21504039D01*
X-15374897Y21499329D01*
X-15425996Y21494091D01*
X-15482103Y21488509D01*
X-15493804Y21487358D01*
X-15562902Y21480346D01*
X-15619919Y21474090D01*
X-15666877Y21468302D01*
X-15705795Y21462695D01*
X-15738694Y21456982D01*
X-15767592Y21450876D01*
X-15794511Y21444089D01*
X-15813765Y21438964D01*
X-15844394Y21431658D01*
X-15857722Y21429327D01*
X-15871808Y21426864D01*
X-15900419Y21424061D01*
X-15934644Y21422730D01*
X-15978895Y21422349D01*
X-16039353Y21422254D01*
X-16083814Y21422184D01*
X-16139632Y21366038D01*
X-16158544Y21346701D01*
X-16177652Y21326376D01*
X-16190651Y21311586D01*
X-16195449Y21304633D01*
X-16194426Y21304244D01*
X-16182306Y21303256D01*
X-16157586Y21302339D01*
X-16121609Y21301511D01*
X-16075715Y21300792D01*
X-16021245Y21300200D01*
X-15959541Y21299754D01*
X-15891944Y21299472D01*
X-15819795Y21299374D01*
X-15444141Y21299374D01*
X-15444141Y21256030D01*
X-15312301Y21255712D01*
X-15297725Y21255659D01*
X-15249509Y21255077D01*
X-15212977Y21253780D01*
X-15185936Y21251610D01*
X-15166195Y21248406D01*
X-15151564Y21244008D01*
X-15142885Y21241214D01*
X-15117442Y21235633D01*
X-15084984Y21230624D01*
X-15050426Y21227012D01*
X-15031802Y21225450D01*
X-14999614Y21222220D01*
X-14973052Y21218905D01*
X-14956513Y21216019D01*
X-14930393Y21207459D01*
X-14885301Y21181471D01*
X-14846862Y21143695D01*
X-14816587Y21095437D01*
X-14809622Y21080558D01*
X-14804627Y21065487D01*
X-14805572Y21053662D01*
X-14811989Y21039387D01*
X-14823137Y21021835D01*
X-14849341Y20992403D01*
X-14881565Y20965363D01*
X-14915074Y20945047D01*
X-14933060Y20937686D01*
X-14956106Y20931815D01*
X-14985443Y20928102D01*
X-15010694Y20926661D01*
X-15025142Y20925836D01*
X-15055210Y20924229D01*
X-15059240Y20924014D01*
X-15089894Y20920592D01*
X-15113339Y20915169D01*
X-15133504Y20907064D01*
X-15142804Y20902813D01*
X-15155718Y20898278D01*
X-15171086Y20894966D01*
X-15191307Y20892622D01*
X-15218780Y20890992D01*
X-15255903Y20889820D01*
X-15305076Y20888853D01*
X-15444141Y20886495D01*
X-15444141Y20844255D01*
X-15552503Y20844255D01*
X-15728289Y20844255D01*
X-16274914Y20844255D01*
X-16620088Y20844255D01*
X-16745005Y20844255D01*
X-17055119Y20844255D01*
X-17328432Y20844255D01*
X-17575256Y20844255D01*
X-17575256Y19732074D01*
X-17659486Y19732074D01*
X-17659735Y19732208D01*
X-17712514Y19766675D01*
X-17718428Y19770537D01*
X-17654721Y19770537D01*
X-17629437Y19758480D01*
X-17604152Y19746423D01*
X-17604152Y21241581D01*
X-17575256Y21241581D01*
X-17575256Y21065794D01*
X-17575157Y21030393D01*
X-17574716Y20984654D01*
X-17573969Y20945232D01*
X-17572972Y20914158D01*
X-17571777Y20893467D01*
X-17570440Y20885191D01*
X-17566763Y20884438D01*
X-17550262Y20883340D01*
X-17522160Y20882365D01*
X-17484192Y20881546D01*
X-17438092Y20880919D01*
X-17385594Y20880517D01*
X-17328432Y20880375D01*
X-17091240Y20880375D01*
X-17091240Y21241581D01*
X-17055119Y21241581D01*
X-17055119Y20880375D01*
X-16773379Y20880375D01*
X-16773379Y21064364D01*
X-16744482Y21064364D01*
X-16744472Y21048544D01*
X-16744206Y20993631D01*
X-16743530Y20951482D01*
X-16742375Y20920755D01*
X-16740675Y20900102D01*
X-16738360Y20888181D01*
X-16735364Y20883647D01*
X-16734455Y20883443D01*
X-16722135Y20882656D01*
X-16697700Y20882074D01*
X-16663050Y20881710D01*
X-16620088Y20881579D01*
X-16570715Y20881694D01*
X-16516834Y20882068D01*
X-16307423Y20883987D01*
X-16305491Y21062784D01*
X-16304715Y21134516D01*
X-16274914Y21134516D01*
X-16274914Y20995961D01*
X-16168359Y20995973D01*
X-16161002Y20995983D01*
X-16112568Y20996816D01*
X-16075853Y20999419D01*
X-16048482Y21004406D01*
X-16028078Y21012391D01*
X-16012265Y21023988D01*
X-15998667Y21039810D01*
X-15992978Y21048275D01*
X-15988991Y21061860D01*
X-15993976Y21077914D01*
X-15995816Y21081388D01*
X-16009838Y21098421D01*
X-16028729Y21113531D01*
X-16039408Y21119484D01*
X-16051768Y21124102D01*
X-16067783Y21127301D01*
X-16090153Y21129449D01*
X-16121575Y21130914D01*
X-16164747Y21132062D01*
X-16274914Y21134516D01*
X-16304715Y21134516D01*
X-16303558Y21241581D01*
X-16274914Y21241581D01*
X-16274914Y21162116D01*
X-16162653Y21162116D01*
X-16130069Y21162013D01*
X-16094303Y21161382D01*
X-16068381Y21159936D01*
X-16049604Y21157403D01*
X-16035274Y21153510D01*
X-16022691Y21147985D01*
X-16013610Y21142826D01*
X-15987685Y21122746D01*
X-15966182Y21098859D01*
X-15953568Y21075827D01*
X-15952395Y21066758D01*
X-15958409Y21044883D01*
X-15973640Y21021104D01*
X-15995522Y20998336D01*
X-16021485Y20979496D01*
X-16048963Y20967499D01*
X-16051071Y20966979D01*
X-16070623Y20964215D01*
X-16100328Y20961964D01*
X-16136533Y20960446D01*
X-16175583Y20959881D01*
X-16274914Y20959841D01*
X-16274914Y20880375D01*
X-15906484Y20880375D01*
X-15906484Y21125995D01*
X-15877588Y21125995D01*
X-15877588Y21003185D01*
X-15796204Y21003185D01*
X-15792899Y21003190D01*
X-15746997Y21004577D01*
X-15712746Y21008992D01*
X-15687669Y21017227D01*
X-15669289Y21030075D01*
X-15655129Y21048328D01*
X-15651419Y21054623D01*
X-15647542Y21065451D01*
X-15651430Y21075286D01*
X-15664323Y21089715D01*
X-15679031Y21102740D01*
X-15699507Y21113953D01*
X-15725796Y21121080D01*
X-15760732Y21124841D01*
X-15807153Y21125955D01*
X-15877588Y21125995D01*
X-15906484Y21125995D01*
X-15906484Y21241581D01*
X-15878309Y21241581D01*
X-15876142Y21200043D01*
X-15873976Y21158504D01*
X-15783674Y21154892D01*
X-15745029Y21152838D01*
X-15707872Y21148815D01*
X-15680247Y21142223D01*
X-15659438Y21132057D01*
X-15642733Y21117309D01*
X-15627416Y21096975D01*
X-15623156Y21090432D01*
X-15614319Y21074020D01*
X-15612820Y21061367D01*
X-15617501Y21046575D01*
X-15622427Y21036826D01*
X-15643510Y21010742D01*
X-15671824Y20988581D01*
X-15702206Y20974723D01*
X-15711503Y20972809D01*
X-15736654Y20969888D01*
X-15768900Y20967869D01*
X-15803541Y20967105D01*
X-15877588Y20967065D01*
X-15877588Y20928536D01*
X-15877225Y20913533D01*
X-15875477Y20894597D01*
X-15872772Y20885191D01*
X-15872575Y20885053D01*
X-15862995Y20883573D01*
X-15841475Y20882289D01*
X-15810316Y20881277D01*
X-15771820Y20880614D01*
X-15728289Y20880375D01*
X-15588623Y20880375D01*
X-15588623Y21241581D01*
X-15552503Y21241581D01*
X-15552503Y20880375D01*
X-15480261Y20880375D01*
X-15480261Y20981513D01*
X-15444141Y20981513D01*
X-15444141Y20930944D01*
X-15308689Y20931247D01*
X-15287739Y20931315D01*
X-15244066Y20931722D01*
X-15211619Y20932622D01*
X-15188090Y20934217D01*
X-15171173Y20936706D01*
X-15158563Y20940289D01*
X-15147952Y20945165D01*
X-15122668Y20958780D01*
X-15149526Y20970146D01*
X-15155127Y20972255D01*
X-15170320Y20975998D01*
X-15191256Y20978641D01*
X-15220109Y20980339D01*
X-15259053Y20981245D01*
X-15310263Y20981513D01*
X-15444141Y20981513D01*
X-15480261Y20981513D01*
X-15480261Y21004837D01*
X-15135282Y21004837D01*
X-15103056Y20985951D01*
X-15091473Y20979684D01*
X-15070385Y20970625D01*
X-15055210Y20967065D01*
X-15053735Y20967076D01*
X-15047899Y20967999D01*
X-15043939Y20972030D01*
X-15041492Y20981436D01*
X-15040193Y20998486D01*
X-15039680Y21025448D01*
X-15039590Y21064590D01*
X-15039630Y21085396D01*
X-15040062Y21118820D01*
X-15041180Y21141027D01*
X-15043244Y21154195D01*
X-15046516Y21160498D01*
X-15051255Y21162116D01*
X-15060119Y21160384D01*
X-15077084Y21153641D01*
X-15096244Y21143848D01*
X-15113737Y21133207D01*
X-15125702Y21123921D01*
X-15128278Y21118192D01*
X-15123731Y21114177D01*
X-15110172Y21102675D01*
X-15092139Y21087653D01*
X-15061611Y21062412D01*
X-15077691Y21051082D01*
X-15078519Y21050495D01*
X-15095755Y21037475D01*
X-15114527Y21022295D01*
X-15135282Y21004837D01*
X-15480261Y21004837D01*
X-15480261Y21104323D01*
X-15444141Y21104323D01*
X-15444141Y21016486D01*
X-15312301Y21018866D01*
X-15288940Y21019314D01*
X-15246965Y21020395D01*
X-15216007Y21021818D01*
X-15193708Y21023841D01*
X-15177709Y21026723D01*
X-15165651Y21030723D01*
X-15155176Y21036099D01*
X-15140878Y21045810D01*
X-15131456Y21058957D01*
X-15135985Y21072325D01*
X-15154438Y21087781D01*
X-15154636Y21087914D01*
X-15164033Y21093741D01*
X-15173883Y21097998D01*
X-15186519Y21100930D01*
X-15204272Y21102783D01*
X-15229475Y21103802D01*
X-15264461Y21104234D01*
X-15311563Y21104323D01*
X-15444141Y21104323D01*
X-15480261Y21104323D01*
X-15480261Y21198237D01*
X-15444141Y21198237D01*
X-15444141Y21140444D01*
X-15317865Y21140444D01*
X-15302756Y21140465D01*
X-15256456Y21140938D01*
X-15221602Y21142170D01*
X-15195846Y21144337D01*
X-15176843Y21147616D01*
X-15162246Y21152184D01*
X-15154141Y21155774D01*
X-15141239Y21163724D01*
X-15010694Y21163724D01*
X-15010694Y20967065D01*
X-14990827Y20967382D01*
X-14989205Y20967422D01*
X-14952144Y20974644D01*
X-14914438Y20992044D01*
X-14881049Y21016715D01*
X-14856942Y21045753D01*
X-14844060Y21067631D01*
X-14871390Y21097970D01*
X-14888531Y21114713D01*
X-14931968Y21142558D01*
X-14983603Y21158737D01*
X-15010694Y21163724D01*
X-15141239Y21163724D01*
X-15139910Y21164543D01*
X-15135445Y21171553D01*
X-15139119Y21177277D01*
X-15152325Y21184823D01*
X-15175502Y21190477D01*
X-15209755Y21194399D01*
X-15256190Y21196749D01*
X-15315913Y21197687D01*
X-15444141Y21198237D01*
X-15480261Y21198237D01*
X-15480261Y21241581D01*
X-15552503Y21241581D01*
X-15588623Y21241581D01*
X-15878309Y21241581D01*
X-15906484Y21241581D01*
X-16274914Y21241581D01*
X-16303558Y21241581D01*
X-16484414Y21241581D01*
X-16744482Y21241581D01*
X-16744482Y21064364D01*
X-16773379Y21064364D01*
X-16773379Y21241581D01*
X-17055119Y21241581D01*
X-17091240Y21241581D01*
X-17575256Y21241581D01*
X-17604152Y21241581D01*
X-17604152Y21281483D01*
X-16274914Y21281483D01*
X-16090599Y21465529D01*
X-16039353Y21465529D01*
X-15913708Y21465529D01*
X-15913708Y21513162D01*
X-15870364Y21513162D01*
X-15870072Y21491917D01*
X-15868440Y21476356D01*
X-15864606Y21469967D01*
X-15857722Y21469840D01*
X-15854657Y21470561D01*
X-15838098Y21474486D01*
X-15813065Y21480440D01*
X-15783674Y21487444D01*
X-15758678Y21492482D01*
X-15718442Y21498571D01*
X-15674247Y21503597D01*
X-15631968Y21506810D01*
X-15602531Y21508680D01*
X-15574935Y21511510D01*
X-15561443Y21514455D01*
X-15561862Y21517276D01*
X-15576002Y21519734D01*
X-15603668Y21521589D01*
X-15644669Y21522602D01*
X-15707232Y21526876D01*
X-15787986Y21541382D01*
X-15813802Y21547441D01*
X-15840716Y21553653D01*
X-15859580Y21557881D01*
X-15867392Y21559443D01*
X-15868836Y21553577D01*
X-15869941Y21536885D01*
X-15870364Y21513162D01*
X-15913708Y21513162D01*
X-15913708Y21559443D01*
X-16031997Y21559443D01*
X-16011201Y21537736D01*
X-15990405Y21516030D01*
X-16014879Y21490779D01*
X-16039353Y21465529D01*
X-16090599Y21465529D01*
X-16043740Y21512319D01*
X-16157437Y21626182D01*
X-16173555Y21642305D01*
X-16204972Y21673614D01*
X-16232103Y21700497D01*
X-16253473Y21721499D01*
X-16267605Y21735166D01*
X-16273024Y21740045D01*
X-16273279Y21737940D01*
X-16273720Y21723842D01*
X-16274112Y21697948D01*
X-16274442Y21661977D01*
X-16274695Y21617645D01*
X-16274857Y21566668D01*
X-16274914Y21510764D01*
X-16274914Y21281483D01*
X-17604152Y21281483D01*
X-17604152Y21512603D01*
X-17604153Y21539404D01*
X-17604176Y21697506D01*
X-17604191Y21740045D01*
X-17575256Y21740045D01*
X-17575256Y21284926D01*
X-17091240Y21284926D01*
X-17091240Y21740045D01*
X-17055119Y21740045D01*
X-17055119Y21284926D01*
X-16773379Y21284926D01*
X-16745005Y21284926D01*
X-16534983Y21284926D01*
X-16534983Y21740045D01*
X-16484414Y21740045D01*
X-16484414Y21284926D01*
X-16303811Y21284926D01*
X-16303811Y21740045D01*
X-16484414Y21740045D01*
X-16534983Y21740045D01*
X-16744482Y21740045D01*
X-16744482Y21602787D01*
X-16711259Y21602787D01*
X-16696421Y21602135D01*
X-16658935Y21593058D01*
X-16630890Y21574011D01*
X-16613311Y21545912D01*
X-16607224Y21509679D01*
X-16607395Y21503014D01*
X-16612846Y21478933D01*
X-16628278Y21456642D01*
X-16637623Y21446931D01*
X-16651050Y21437542D01*
X-16668466Y21432421D01*
X-16695101Y21429437D01*
X-16740870Y21425796D01*
X-16742938Y21355361D01*
X-16745005Y21284926D01*
X-16773379Y21284926D01*
X-16773379Y21429408D01*
X-16961664Y21429408D01*
X-16959629Y21514292D01*
X-16957594Y21599175D01*
X-16865486Y21601197D01*
X-16773379Y21603219D01*
X-16773379Y21740045D01*
X-17055119Y21740045D01*
X-17091240Y21740045D01*
X-17575256Y21740045D01*
X-17604191Y21740045D01*
X-17604232Y21851676D01*
X-17604321Y22001294D01*
X-17604439Y22144596D01*
X-17575256Y22144596D01*
X-17575256Y21783390D01*
X-17091240Y21783390D01*
X-17091240Y22144596D01*
X-17055119Y22144596D01*
X-17055119Y21783390D01*
X-16773379Y21783390D01*
X-16773379Y22144596D01*
X-16744482Y22144596D01*
X-16744482Y21783390D01*
X-16303811Y21783390D01*
X-16303811Y22029010D01*
X-16274914Y22029010D01*
X-16274914Y21898004D01*
X-16156278Y21900296D01*
X-16120469Y21901034D01*
X-16086125Y21902056D01*
X-16061922Y21903503D01*
X-16045451Y21905730D01*
X-16034305Y21909093D01*
X-16026076Y21913948D01*
X-16018356Y21920648D01*
X-16006008Y21932901D01*
X-15992521Y21951163D01*
X-15989766Y21966793D01*
X-15996665Y21982883D01*
X-16001368Y21989735D01*
X-16014161Y22004411D01*
X-16029585Y22014971D01*
X-16049997Y22022061D01*
X-16077756Y22026329D01*
X-16115220Y22028420D01*
X-16164747Y22028983D01*
X-16274914Y22029010D01*
X-16303811Y22029010D01*
X-16303811Y22144596D01*
X-16274914Y22144596D01*
X-16274914Y22066374D01*
X-16156971Y22063946D01*
X-16121685Y22063172D01*
X-16087126Y22062080D01*
X-16062367Y22060516D01*
X-16044792Y22058084D01*
X-16031785Y22054391D01*
X-16020733Y22049042D01*
X-16009019Y22041644D01*
X-16002166Y22036656D01*
X-15980173Y22015378D01*
X-15963995Y21992336D01*
X-15957434Y21979124D01*
X-15952826Y21965296D01*
X-15954630Y21953261D01*
X-15962690Y21936357D01*
X-15967861Y21927907D01*
X-15985808Y21906582D01*
X-16007052Y21888140D01*
X-16007262Y21887992D01*
X-16018893Y21880017D01*
X-16029427Y21874260D01*
X-16041454Y21870304D01*
X-16057566Y21867734D01*
X-16080352Y21866133D01*
X-16112403Y21865085D01*
X-16156309Y21864175D01*
X-16274914Y21861883D01*
X-16274914Y21783390D01*
X-15906484Y21783390D01*
X-15906484Y22021786D01*
X-15877588Y22021786D01*
X-15877588Y21906200D01*
X-15792704Y21906227D01*
X-15789816Y21906231D01*
X-15743366Y21907590D01*
X-15708811Y21911861D01*
X-15683884Y21919745D01*
X-15666319Y21931944D01*
X-15653847Y21949158D01*
X-15650390Y21968454D01*
X-15660720Y21988374D01*
X-15684804Y22007697D01*
X-15693914Y22012546D01*
X-15708028Y22017184D01*
X-15727089Y22019991D01*
X-15754260Y22021379D01*
X-15792704Y22021759D01*
X-15877588Y22021786D01*
X-15906484Y22021786D01*
X-15906484Y22144596D01*
X-15877588Y22144596D01*
X-15877588Y22057907D01*
X-15796317Y22057748D01*
X-15756165Y22057067D01*
X-15726239Y22054893D01*
X-15704008Y22050818D01*
X-15686087Y22044434D01*
X-15672827Y22037141D01*
X-15650554Y22020352D01*
X-15630448Y22000560D01*
X-15615899Y21981271D01*
X-15610295Y21965995D01*
X-15613518Y21952959D01*
X-15625945Y21931743D01*
X-15644779Y21909735D01*
X-15666874Y21891101D01*
X-15672909Y21887136D01*
X-15684746Y21881014D01*
X-15698810Y21876883D01*
X-15718157Y21874230D01*
X-15745841Y21872544D01*
X-15784918Y21871312D01*
X-15877588Y21868931D01*
X-15877588Y21783390D01*
X-15588623Y21783390D01*
X-15588623Y22144596D01*
X-15552503Y22144596D01*
X-15552503Y21783390D01*
X-15480261Y21783390D01*
X-15480261Y21884528D01*
X-15444141Y21884528D01*
X-15444141Y21825382D01*
X-15308689Y21828000D01*
X-15296741Y21828238D01*
X-15250444Y21829401D01*
X-15215801Y21830860D01*
X-15190521Y21832850D01*
X-15172314Y21835603D01*
X-15158888Y21839352D01*
X-15147952Y21844329D01*
X-15122668Y21858039D01*
X-15151564Y21871094D01*
X-15164138Y21875871D01*
X-15179257Y21879382D01*
X-15199237Y21881786D01*
X-15226473Y21883282D01*
X-15263363Y21884067D01*
X-15312301Y21884338D01*
X-15444141Y21884528D01*
X-15480261Y21884528D01*
X-15480261Y21902244D01*
X-15135293Y21902244D01*
X-15096368Y21882550D01*
X-15078424Y21873930D01*
X-15059392Y21865939D01*
X-15048517Y21862856D01*
X-15045295Y21868662D01*
X-15042564Y21885914D01*
X-15040621Y21911472D01*
X-15039491Y21942165D01*
X-15039199Y21974819D01*
X-15039771Y22006261D01*
X-15041232Y22033319D01*
X-15043608Y22052818D01*
X-15045532Y22057907D01*
X-15010694Y22057907D01*
X-15010694Y21863764D01*
X-14983603Y21867702D01*
X-14948626Y21876588D01*
X-14905405Y21898489D01*
X-14870146Y21929453D01*
X-14858092Y21943985D01*
X-14850526Y21956339D01*
X-14850179Y21966442D01*
X-14855671Y21979014D01*
X-14864380Y21992288D01*
X-14889508Y22016759D01*
X-14921797Y22037736D01*
X-14956479Y22052393D01*
X-14988789Y22057907D01*
X-15010694Y22057907D01*
X-15045532Y22057907D01*
X-15046923Y22061586D01*
X-15054953Y22061350D01*
X-15072377Y22055736D01*
X-15094548Y22045758D01*
X-15134839Y22025398D01*
X-15100964Y21994696D01*
X-15067089Y21963993D01*
X-15101191Y21933119D01*
X-15135293Y21902244D01*
X-15480261Y21902244D01*
X-15480261Y22008214D01*
X-15444141Y22008214D01*
X-15444141Y21919773D01*
X-15307388Y21922017D01*
X-15267905Y21922734D01*
X-15229566Y21923758D01*
X-15201701Y21925144D01*
X-15182097Y21927134D01*
X-15168541Y21929970D01*
X-15158819Y21933894D01*
X-15150719Y21939148D01*
X-15138990Y21948620D01*
X-15129684Y21961290D01*
X-15133186Y21972883D01*
X-15149404Y21986728D01*
X-15150254Y21987331D01*
X-15159292Y21993161D01*
X-15169048Y21997474D01*
X-15181811Y22000547D01*
X-15199868Y22002657D01*
X-15225508Y22004080D01*
X-15261018Y22005092D01*
X-15308689Y22005970D01*
X-15444141Y22008214D01*
X-15480261Y22008214D01*
X-15480261Y22102399D01*
X-15444141Y22102399D01*
X-15444141Y22043458D01*
X-15312301Y22043648D01*
X-15305777Y22043660D01*
X-15258739Y22043963D01*
X-15223448Y22044780D01*
X-15197495Y22046315D01*
X-15178470Y22048771D01*
X-15163963Y22052353D01*
X-15151564Y22057265D01*
X-15122668Y22070693D01*
X-15151564Y22084028D01*
X-15162181Y22088245D01*
X-15177536Y22092197D01*
X-15197854Y22095103D01*
X-15225507Y22097197D01*
X-15262866Y22098711D01*
X-15312301Y22099880D01*
X-15444141Y22102399D01*
X-15480261Y22102399D01*
X-15480261Y22144596D01*
X-15552503Y22144596D01*
X-15588623Y22144596D01*
X-15877588Y22144596D01*
X-15906484Y22144596D01*
X-16274914Y22144596D01*
X-16303811Y22144596D01*
X-16744482Y22144596D01*
X-16773379Y22144596D01*
X-17055119Y22144596D01*
X-17091240Y22144596D01*
X-17575256Y22144596D01*
X-17604439Y22144596D01*
X-17604440Y22145742D01*
X-17604588Y22284401D01*
X-17604763Y22416654D01*
X-17604964Y22541881D01*
X-17605189Y22659463D01*
X-17605438Y22768784D01*
X-17605708Y22869223D01*
X-17605997Y22960162D01*
X-17606306Y23040982D01*
X-17606631Y23111066D01*
X-17606971Y23169795D01*
X-17607325Y23216549D01*
X-17607692Y23250711D01*
X-17608069Y23271662D01*
X-17608456Y23278783D01*
X-17608845Y23278747D01*
X-17618307Y23274822D01*
X-17633740Y23266389D01*
X-17654721Y23253995D01*
X-17654721Y19770537D01*
X-17718428Y19770537D01*
X-17802741Y19825597D01*
X-17896494Y19898706D01*
X-17938426Y19931405D01*
X-18066626Y20049553D01*
X-18094025Y20077430D01*
X-18209237Y20207024D01*
X-18312367Y20344379D01*
X-18403203Y20489052D01*
X-18481534Y20640596D01*
X-18547148Y20798567D01*
X-18599832Y20962521D01*
X-18639376Y21132013D01*
X-18660418Y21272284D01*
X-18621670Y21272284D01*
X-18618988Y21248496D01*
X-18612503Y21205948D01*
X-18603497Y21155820D01*
X-18592719Y21101815D01*
X-18580917Y21047633D01*
X-18568840Y20996978D01*
X-18557237Y20953550D01*
X-18518130Y20832649D01*
X-18454782Y20676570D01*
X-18378711Y20525350D01*
X-18290840Y20380781D01*
X-18192091Y20244653D01*
X-18189014Y20240810D01*
X-18168183Y20216261D01*
X-18141494Y20186592D01*
X-18110517Y20153375D01*
X-18076820Y20118181D01*
X-18041971Y20082582D01*
X-18007537Y20048149D01*
X-17975088Y20016452D01*
X-17946190Y19989064D01*
X-17922414Y19967556D01*
X-17905325Y19953499D01*
X-17896494Y19948464D01*
X-17881482Y19950526D01*
X-17855599Y19963814D01*
X-17834000Y19986803D01*
X-17819198Y20016422D01*
X-17813706Y20049602D01*
X-17813706Y20050027D01*
X-17819710Y20088516D01*
X-17837427Y20118605D01*
X-17866765Y20140228D01*
X-17907633Y20153317D01*
X-17959940Y20157805D01*
X-18015927Y20157964D01*
X-18015927Y20295222D01*
X-17953808Y20295222D01*
X-17942623Y20295321D01*
X-17900337Y20298441D01*
X-17868862Y20306632D01*
X-17845664Y20320835D01*
X-17828214Y20341994D01*
X-17822935Y20351932D01*
X-17814119Y20386463D01*
X-17816521Y20422604D01*
X-17830050Y20454890D01*
X-17831561Y20457110D01*
X-17851874Y20479572D01*
X-17877588Y20494262D01*
X-17911480Y20502276D01*
X-17956328Y20504710D01*
X-18015927Y20504721D01*
X-18015927Y20641980D01*
X-17952603Y20641980D01*
X-17941191Y20642051D01*
X-17907439Y20643671D01*
X-17883192Y20647858D01*
X-17864666Y20655180D01*
X-17842255Y20672428D01*
X-17823395Y20701081D01*
X-17814481Y20734678D01*
X-17816403Y20769455D01*
X-17830050Y20801648D01*
X-17831561Y20803868D01*
X-17851874Y20826330D01*
X-17877588Y20841020D01*
X-17911480Y20849034D01*
X-17956328Y20851468D01*
X-18015927Y20851479D01*
X-18015927Y20890577D01*
X-17966051Y20890577D01*
X-17910913Y20882633D01*
X-17902211Y20881321D01*
X-17871199Y20874915D01*
X-17848548Y20866191D01*
X-17829295Y20853367D01*
X-17797926Y20821115D01*
X-17777392Y20781698D01*
X-17770426Y20737411D01*
X-17773216Y20707261D01*
X-17787830Y20666306D01*
X-17813694Y20632264D01*
X-17849379Y20606392D01*
X-17893456Y20589947D01*
X-17944499Y20584187D01*
X-17958424Y20583126D01*
X-17964316Y20576794D01*
X-17964010Y20560708D01*
X-17963400Y20554799D01*
X-17960901Y20544545D01*
X-17954243Y20538828D01*
X-17940011Y20535755D01*
X-17914789Y20533435D01*
X-17875179Y20527236D01*
X-17836509Y20511719D01*
X-17806175Y20486135D01*
X-17781988Y20449093D01*
X-17774987Y20427884D01*
X-17770864Y20395983D01*
X-17771450Y20363115D01*
X-17777047Y20336227D01*
X-17787300Y20317475D01*
X-17806689Y20292806D01*
X-17829523Y20270182D01*
X-17851048Y20254829D01*
X-17865063Y20249630D01*
X-17890412Y20243709D01*
X-17918605Y20239705D01*
X-17965358Y20235340D01*
X-17965358Y20186860D01*
X-17925393Y20186860D01*
X-17908948Y20186212D01*
X-17862728Y20176374D01*
X-17824474Y20155643D01*
X-17795483Y20125244D01*
X-17777049Y20086402D01*
X-17770466Y20040340D01*
X-17770468Y20037750D01*
X-17775493Y19997719D01*
X-17791189Y19964007D01*
X-17819391Y19932572D01*
X-17849011Y19905845D01*
X-17804241Y19874325D01*
X-17804056Y19874194D01*
X-17778342Y19856124D01*
X-17753898Y19839000D01*
X-17735992Y19826513D01*
X-17712514Y19810222D01*
X-17712514Y23214582D01*
X-17733870Y23201967D01*
X-17736138Y23200596D01*
X-17753884Y23188973D01*
X-17777829Y23172380D01*
X-17803461Y23153933D01*
X-17851696Y23118513D01*
X-17832114Y23105667D01*
X-17803683Y23080031D01*
X-17781968Y23043512D01*
X-17771872Y23001372D01*
X-17771721Y22970716D01*
X-17781524Y22926432D01*
X-17802766Y22889831D01*
X-17834316Y22862129D01*
X-17875044Y22844537D01*
X-17923819Y22838270D01*
X-17965358Y22838111D01*
X-17965358Y22812827D01*
X-17965235Y22803317D01*
X-17962748Y22792330D01*
X-17953903Y22788170D01*
X-17934656Y22787502D01*
X-17899398Y22784730D01*
X-17856618Y22771193D01*
X-17819260Y22745523D01*
X-17815757Y22742304D01*
X-17789175Y22711177D01*
X-17774691Y22677162D01*
X-17770307Y22635780D01*
X-17771066Y22619824D01*
X-17781718Y22577006D01*
X-17803858Y22541463D01*
X-17836105Y22514482D01*
X-17877077Y22497350D01*
X-17925393Y22491354D01*
X-17965358Y22491354D01*
X-17965358Y22466069D01*
X-17965324Y22460368D01*
X-17963484Y22446886D01*
X-17955720Y22441660D01*
X-17937773Y22440785D01*
X-17908710Y22438710D01*
X-17863323Y22426084D01*
X-17825125Y22403300D01*
X-17795780Y22371866D01*
X-17776953Y22333289D01*
X-17770307Y22289078D01*
X-17772025Y22266126D01*
X-17785268Y22223599D01*
X-17810439Y22187560D01*
X-17846160Y22160346D01*
X-17860569Y22154760D01*
X-17886346Y22148636D01*
X-17914789Y22144779D01*
X-17961746Y22140984D01*
X-17961746Y22090415D01*
X-17909479Y22086348D01*
X-17889488Y22084468D01*
X-17865575Y22080129D01*
X-17847520Y22072677D01*
X-17830014Y22060377D01*
X-17797856Y22027371D01*
X-17777349Y21988029D01*
X-17770426Y21943839D01*
X-17773068Y21914116D01*
X-17787430Y21872864D01*
X-17813071Y21838684D01*
X-17848629Y21812781D01*
X-17892740Y21796356D01*
X-17944041Y21790614D01*
X-17957400Y21789482D01*
X-17964016Y21782848D01*
X-17965358Y21766269D01*
X-17965178Y21758209D01*
X-17962222Y21746435D01*
X-17952671Y21739251D01*
X-17932769Y21732799D01*
X-17909635Y21724474D01*
X-17866147Y21698943D01*
X-17827502Y21663803D01*
X-17796896Y21622253D01*
X-17777528Y21577493D01*
X-17777439Y21577173D01*
X-17771492Y21538249D01*
X-17772243Y21494062D01*
X-17779148Y21450878D01*
X-17791663Y21414960D01*
X-17816061Y21376677D01*
X-17829855Y21362418D01*
X-17853715Y21337754D01*
X-17897987Y21307752D01*
X-17945492Y21289434D01*
X-17955878Y21285988D01*
X-17963565Y21277259D01*
X-17965358Y21259504D01*
X-17965325Y21253902D01*
X-17963485Y21240456D01*
X-17955721Y21235235D01*
X-17937773Y21234357D01*
X-17932559Y21234288D01*
X-17885512Y21227301D01*
X-17843651Y21209854D01*
X-17810520Y21183369D01*
X-17800884Y21172041D01*
X-17786026Y21151794D01*
X-17777209Y21135984D01*
X-17772062Y21113687D01*
X-17770642Y21081094D01*
X-17774048Y21048453D01*
X-17781988Y21022693D01*
X-17801502Y20991343D01*
X-17830585Y20963829D01*
X-17867618Y20946629D01*
X-17914789Y20938351D01*
X-17924704Y20937533D01*
X-17945873Y20935120D01*
X-17957187Y20931349D01*
X-17962059Y20924428D01*
X-17963899Y20912566D01*
X-17966051Y20890577D01*
X-18015927Y20890577D01*
X-18015927Y20988737D01*
X-17954163Y20988737D01*
X-17939440Y20988878D01*
X-17903712Y20991342D01*
X-17877043Y20997880D01*
X-17855544Y21009789D01*
X-17835324Y21028365D01*
X-17829671Y21034876D01*
X-17821841Y21048476D01*
X-17818174Y21066323D01*
X-17817264Y21093487D01*
X-17817445Y21108014D01*
X-17819504Y21130071D01*
X-17824995Y21145247D01*
X-17835324Y21158608D01*
X-17841821Y21165286D01*
X-17862109Y21181662D01*
X-17884931Y21191741D01*
X-17914194Y21196830D01*
X-17953803Y21198237D01*
X-18015206Y21198237D01*
X-18017372Y21239775D01*
X-18019539Y21281314D01*
X-18040558Y21281314D01*
X-18167275Y21281314D01*
X-18214590Y21281314D01*
X-18359073Y21281314D01*
X-18361223Y21236163D01*
X-18362409Y21216937D01*
X-18364957Y21200405D01*
X-18369597Y21192828D01*
X-18377478Y21191012D01*
X-18384514Y21192224D01*
X-18389076Y21198332D01*
X-18391114Y21212521D01*
X-18391581Y21237969D01*
X-18391581Y21284926D01*
X-18397249Y21284926D01*
X-18507167Y21284926D01*
X-18522045Y21284917D01*
X-18561343Y21284702D01*
X-18588855Y21284030D01*
X-18606612Y21282676D01*
X-18616646Y21280417D01*
X-18620988Y21277028D01*
X-18621670Y21272284D01*
X-18660418Y21272284D01*
X-18665566Y21306598D01*
X-18668519Y21344299D01*
X-18670471Y21396819D01*
X-18671124Y21457660D01*
X-18670561Y21523645D01*
X-18670519Y21525309D01*
X-18634306Y21525309D01*
X-18634110Y21484558D01*
X-18633430Y21445498D01*
X-18632277Y21410679D01*
X-18630661Y21382650D01*
X-18628593Y21363963D01*
X-18626082Y21357167D01*
X-18623373Y21356821D01*
X-18608772Y21354585D01*
X-18583824Y21350619D01*
X-18551050Y21345326D01*
X-18512968Y21339107D01*
X-18491809Y21335652D01*
X-18455881Y21329870D01*
X-18426413Y21325238D01*
X-18406003Y21322162D01*
X-18397249Y21321047D01*
X-18393260Y21327216D01*
X-18391581Y21342223D01*
X-18391581Y21363400D01*
X-18337563Y21341399D01*
X-18336874Y21341119D01*
X-18298969Y21327990D01*
X-18271424Y21323831D01*
X-18253278Y21328652D01*
X-18243568Y21342463D01*
X-18241614Y21356371D01*
X-18248733Y21372459D01*
X-18268209Y21385713D01*
X-18301075Y21397114D01*
X-18310222Y21399666D01*
X-18333037Y21407427D01*
X-18344860Y21414821D01*
X-18348236Y21423256D01*
X-18348874Y21428381D01*
X-18355889Y21434882D01*
X-18373521Y21436633D01*
X-18384772Y21436432D01*
X-18394607Y21433557D01*
X-18398265Y21424099D01*
X-18398805Y21404124D01*
X-18398880Y21394953D01*
X-18400480Y21379402D01*
X-18405853Y21372916D01*
X-18417196Y21371615D01*
X-18421984Y21371680D01*
X-18429670Y21373421D01*
X-18433430Y21379982D01*
X-18434335Y21394567D01*
X-18433450Y21420378D01*
X-18432963Y21430981D01*
X-18431321Y21452574D01*
X-18428154Y21464272D01*
X-18422012Y21469436D01*
X-18411447Y21471427D01*
X-18402645Y21472774D01*
X-18396265Y21476445D01*
X-18392978Y21485324D01*
X-18391759Y21502491D01*
X-18391694Y21512986D01*
X-18298296Y21512986D01*
X-18291404Y21473864D01*
X-18271673Y21438521D01*
X-18239703Y21409207D01*
X-18214590Y21392274D01*
X-18212600Y21509387D01*
X-18212512Y21515871D01*
X-18174857Y21515871D01*
X-18174848Y21502492D01*
X-18174466Y21439394D01*
X-18173523Y21390564D01*
X-18172014Y21355862D01*
X-18169933Y21335145D01*
X-18167275Y21328271D01*
X-18162177Y21328756D01*
X-18141505Y21337618D01*
X-18121240Y21354646D01*
X-18106381Y21375926D01*
X-18100247Y21391895D01*
X-18095772Y21428319D01*
X-18103550Y21462934D01*
X-18123056Y21492082D01*
X-18133187Y21503190D01*
X-18140854Y21517181D01*
X-18096211Y21517181D01*
X-18091689Y21490750D01*
X-18073720Y21466881D01*
X-18069810Y21463252D01*
X-18057152Y21448033D01*
X-18052047Y21435797D01*
X-18050786Y21428259D01*
X-18040558Y21420212D01*
X-18019852Y21421605D01*
X-17988427Y21432424D01*
X-17955614Y21446245D01*
X-17914789Y21446245D01*
X-17867781Y21439220D01*
X-17867201Y21439133D01*
X-17844561Y21436282D01*
X-17829855Y21435439D01*
X-17826242Y21436789D01*
X-17826797Y21437249D01*
X-17836847Y21445117D01*
X-17852077Y21456694D01*
X-17872441Y21472005D01*
X-17835822Y21490561D01*
X-17820305Y21498743D01*
X-17805089Y21507677D01*
X-17799203Y21512486D01*
X-17803091Y21515939D01*
X-17816818Y21524256D01*
X-17837034Y21535025D01*
X-17857075Y21545556D01*
X-17867025Y21552641D01*
X-17867554Y21557943D01*
X-17860513Y21563728D01*
X-17849375Y21571492D01*
X-17831712Y21584786D01*
X-17817264Y21596311D01*
X-17831712Y21592737D01*
X-17837038Y21591561D01*
X-17856720Y21587987D01*
X-17880475Y21584318D01*
X-17914789Y21579474D01*
X-17914789Y21446245D01*
X-17955614Y21446245D01*
X-17947298Y21449748D01*
X-17945207Y21512091D01*
X-17943115Y21574434D01*
X-17984111Y21592564D01*
X-18010273Y21602971D01*
X-18031954Y21607711D01*
X-18044952Y21604124D01*
X-18050972Y21592201D01*
X-18051621Y21589854D01*
X-18060237Y21574855D01*
X-18074533Y21558683D01*
X-18087260Y21543390D01*
X-18096211Y21517181D01*
X-18140854Y21517181D01*
X-18143313Y21521668D01*
X-18145961Y21544767D01*
X-18140357Y21572932D01*
X-18125053Y21596721D01*
X-18102970Y21611097D01*
X-18098342Y21614020D01*
X-18097182Y21622889D01*
X-18102095Y21640940D01*
X-18109150Y21656212D01*
X-18131459Y21681543D01*
X-18162215Y21698911D01*
X-18163258Y21699250D01*
X-18166868Y21699236D01*
X-18169643Y21695838D01*
X-18171691Y21687476D01*
X-18173122Y21672568D01*
X-18174045Y21649534D01*
X-18174569Y21616793D01*
X-18174804Y21572766D01*
X-18174857Y21515871D01*
X-18212512Y21515871D01*
X-18212237Y21536145D01*
X-18212069Y21572520D01*
X-18212331Y21601938D01*
X-18212993Y21621901D01*
X-18214026Y21629916D01*
X-18214433Y21630261D01*
X-18223944Y21629307D01*
X-18239053Y21620340D01*
X-18256308Y21606170D01*
X-18272255Y21589604D01*
X-18283444Y21573451D01*
X-18291751Y21553633D01*
X-18298296Y21512986D01*
X-18391694Y21512986D01*
X-18391581Y21531026D01*
X-18391581Y21588339D01*
X-18369909Y21588339D01*
X-18364757Y21588466D01*
X-18351770Y21592104D01*
X-18348236Y21602509D01*
X-18347174Y21608515D01*
X-18338148Y21617366D01*
X-18317534Y21624519D01*
X-18289865Y21632367D01*
X-18261437Y21643860D01*
X-18245554Y21656482D01*
X-18241098Y21671255D01*
X-18246953Y21689204D01*
X-18258647Y21700423D01*
X-18278226Y21703218D01*
X-18306843Y21697388D01*
X-18345715Y21682855D01*
X-18395193Y21661785D01*
X-18397377Y21625062D01*
X-18398342Y21611519D01*
X-18401060Y21596213D01*
X-18406703Y21589700D01*
X-18417243Y21588339D01*
X-18419839Y21588362D01*
X-18428283Y21589839D01*
X-18432793Y21595975D01*
X-18434597Y21610033D01*
X-18434926Y21635275D01*
X-18434909Y21644776D01*
X-18434168Y21666419D01*
X-18431109Y21678909D01*
X-18424084Y21686258D01*
X-18411447Y21692479D01*
X-18402377Y21696706D01*
X-18396033Y21701516D01*
X-18402417Y21703206D01*
X-18415337Y21702339D01*
X-18438566Y21699465D01*
X-18468823Y21695084D01*
X-18503061Y21689704D01*
X-18538234Y21683835D01*
X-18571293Y21677986D01*
X-18599192Y21672665D01*
X-18618884Y21668382D01*
X-18623638Y21666839D01*
X-18627321Y21665644D01*
X-18627681Y21665155D01*
X-18630055Y21654207D01*
X-18631894Y21632199D01*
X-18633208Y21601679D01*
X-18634009Y21565199D01*
X-18634306Y21525309D01*
X-18670519Y21525309D01*
X-18668863Y21591596D01*
X-18666113Y21658336D01*
X-18662391Y21720687D01*
X-18660154Y21747270D01*
X-18623638Y21747270D01*
X-18391581Y21747270D01*
X-18391581Y21843671D01*
X-18391288Y21881601D01*
X-18390279Y21930849D01*
X-18388722Y21978578D01*
X-18386793Y22018323D01*
X-18385477Y22037680D01*
X-18382668Y22066498D01*
X-18379751Y22081490D01*
X-18376809Y22083072D01*
X-18373922Y22071660D01*
X-18371172Y22047670D01*
X-18368639Y22011519D01*
X-18366405Y21963621D01*
X-18364551Y21904394D01*
X-18360580Y21747270D01*
X-18015927Y21747270D01*
X-18015927Y21848407D01*
X-17952603Y21848407D01*
X-17941191Y21848478D01*
X-17907439Y21850099D01*
X-17883192Y21854286D01*
X-17864666Y21861608D01*
X-17842255Y21878855D01*
X-17823395Y21907509D01*
X-17814481Y21941106D01*
X-17816403Y21975882D01*
X-17830050Y22008076D01*
X-17831561Y22010295D01*
X-17851874Y22032757D01*
X-17877588Y22047447D01*
X-17911480Y22055461D01*
X-17956328Y22057895D01*
X-18015927Y22057907D01*
X-18015927Y22195165D01*
X-17954163Y22195165D01*
X-17940710Y22195282D01*
X-17904529Y22197666D01*
X-17877572Y22204093D01*
X-17855987Y22215833D01*
X-17835923Y22234156D01*
X-17820930Y22259256D01*
X-17814351Y22291425D01*
X-17817081Y22324783D01*
X-17829406Y22354096D01*
X-17831584Y22357245D01*
X-17852175Y22379695D01*
X-17877915Y22394317D01*
X-17911675Y22402255D01*
X-17956328Y22404653D01*
X-18015927Y22404664D01*
X-18015927Y22541923D01*
X-17956328Y22541934D01*
X-17950521Y22541965D01*
X-17907274Y22544944D01*
X-17874586Y22553596D01*
X-17849587Y22569064D01*
X-17829406Y22592491D01*
X-17817316Y22620815D01*
X-17814294Y22654126D01*
X-17820592Y22686410D01*
X-17835923Y22712431D01*
X-17842109Y22718791D01*
X-17862228Y22734972D01*
X-17885043Y22744958D01*
X-17914404Y22750018D01*
X-17954163Y22751422D01*
X-18015927Y22751422D01*
X-18015927Y22888680D01*
X-17956328Y22888692D01*
X-17952172Y22888707D01*
X-17908327Y22891558D01*
X-17875210Y22900078D01*
X-17850044Y22915364D01*
X-17830050Y22938511D01*
X-17823706Y22949543D01*
X-17813939Y22984117D01*
X-17816166Y23019982D01*
X-17829727Y23053242D01*
X-17853964Y23080003D01*
X-17864590Y23086372D01*
X-17878669Y23090567D01*
X-17880837Y23090003D01*
X-17893369Y23082055D01*
X-17913611Y23066006D01*
X-17939758Y23043509D01*
X-17970003Y23016214D01*
X-18002541Y22985770D01*
X-18035566Y22953830D01*
X-18067271Y22922044D01*
X-18095851Y22892062D01*
X-18163224Y22815430D01*
X-18265042Y22682616D01*
X-18355568Y22541947D01*
X-18434200Y22394599D01*
X-18500331Y22241750D01*
X-18553357Y22084578D01*
X-18592674Y21924261D01*
X-18595791Y21908546D01*
X-18603637Y21868023D01*
X-18610555Y21830984D01*
X-18615887Y21800985D01*
X-18618980Y21781584D01*
X-18623638Y21747270D01*
X-18660154Y21747270D01*
X-18657781Y21775471D01*
X-18652363Y21819511D01*
X-18633425Y21925066D01*
X-18591661Y22093578D01*
X-18536800Y22256438D01*
X-18469169Y22413108D01*
X-18389099Y22563049D01*
X-18296917Y22705723D01*
X-18192952Y22840591D01*
X-18077534Y22967116D01*
X-17950991Y23084758D01*
X-17813652Y23192980D01*
X-17736587Y23246259D01*
X-17589494Y23334694D01*
X-17436884Y23409840D01*
X-17279115Y23471581D01*
X-17116546Y23519802D01*
X-16949533Y23554388D01*
X-16778436Y23575225D01*
X-16603612Y23582196D01*
X-16508958Y23580163D01*
G37*
%TD*%
M02*
