%TF.GenerationSoftware,KiCad,Pcbnew,7.0.5-4d25ed1034~172~ubuntu22.04.1*%
%TF.CreationDate,2023-07-12T12:46:34+02:00*%
%TF.ProjectId,Chubut_2,43687562-7574-45f3-922e-6b696361645f,rev?*%
%TF.SameCoordinates,Original*%
%TF.FileFunction,Copper,L4,Bot*%
%TF.FilePolarity,Positive*%
%FSLAX46Y46*%
G04 Gerber Fmt 4.6, Leading zero omitted, Abs format (unit mm)*
G04 Created by KiCad (PCBNEW 7.0.5-4d25ed1034~172~ubuntu22.04.1) date 2023-07-12 12:46:34*
%MOMM*%
%LPD*%
G01*
G04 APERTURE LIST*
G04 Aperture macros list*
%AMRoundRect*
0 Rectangle with rounded corners*
0 $1 Rounding radius*
0 $2 $3 $4 $5 $6 $7 $8 $9 X,Y pos of 4 corners*
0 Add a 4 corners polygon primitive as box body*
4,1,4,$2,$3,$4,$5,$6,$7,$8,$9,$2,$3,0*
0 Add four circle primitives for the rounded corners*
1,1,$1+$1,$2,$3*
1,1,$1+$1,$4,$5*
1,1,$1+$1,$6,$7*
1,1,$1+$1,$8,$9*
0 Add four rect primitives between the rounded corners*
20,1,$1+$1,$2,$3,$4,$5,0*
20,1,$1+$1,$4,$5,$6,$7,0*
20,1,$1+$1,$6,$7,$8,$9,0*
20,1,$1+$1,$8,$9,$2,$3,0*%
%AMHorizOval*
0 Thick line with rounded ends*
0 $1 width*
0 $2 $3 position (X,Y) of the first rounded end (center of the circle)*
0 $4 $5 position (X,Y) of the second rounded end (center of the circle)*
0 Add line between two ends*
20,1,$1,$2,$3,$4,$5,0*
0 Add two circle primitives to create the rounded ends*
1,1,$1,$2,$3*
1,1,$1,$4,$5*%
%AMFreePoly0*
4,1,11,0.930000,-1.150000,-0.130000,-1.150000,-0.490000,-1.510000,-0.490000,-3.190000,-1.910000,-3.190000,-1.910000,-1.150000,-0.750000,-1.150000,-0.460000,-0.840000,-0.460000,1.040000,0.930000,1.040000,0.930000,-1.150000,0.930000,-1.150000,$1*%
G04 Aperture macros list end*
%TA.AperFunction,SMDPad,CuDef*%
%ADD10O,2.500000X3.000000*%
%TD*%
%TA.AperFunction,SMDPad,CuDef*%
%ADD11HorizOval,2.500000X-0.176777X0.176777X0.176777X-0.176777X0*%
%TD*%
%TA.AperFunction,SMDPad,CuDef*%
%ADD12RoundRect,0.135000X-0.185000X0.135000X-0.185000X-0.135000X0.185000X-0.135000X0.185000X0.135000X0*%
%TD*%
%TA.AperFunction,SMDPad,CuDef*%
%ADD13RoundRect,0.140000X0.140000X0.170000X-0.140000X0.170000X-0.140000X-0.170000X0.140000X-0.170000X0*%
%TD*%
%TA.AperFunction,SMDPad,CuDef*%
%ADD14R,0.950000X0.500000*%
%TD*%
%TA.AperFunction,ComponentPad*%
%ADD15C,0.450000*%
%TD*%
%TA.AperFunction,SMDPad,CuDef*%
%ADD16R,0.950000X0.800000*%
%TD*%
%TA.AperFunction,SMDPad,CuDef*%
%ADD17FreePoly0,90.000000*%
%TD*%
%TA.AperFunction,SMDPad,CuDef*%
%ADD18RoundRect,0.140000X-0.170000X0.140000X-0.170000X-0.140000X0.170000X-0.140000X0.170000X0.140000X0*%
%TD*%
%TA.AperFunction,SMDPad,CuDef*%
%ADD19RoundRect,0.140000X0.170000X-0.140000X0.170000X0.140000X-0.170000X0.140000X-0.170000X-0.140000X0*%
%TD*%
%TA.AperFunction,SMDPad,CuDef*%
%ADD20RoundRect,0.135000X-0.135000X-0.185000X0.135000X-0.185000X0.135000X0.185000X-0.135000X0.185000X0*%
%TD*%
%TA.AperFunction,SMDPad,CuDef*%
%ADD21RoundRect,0.147500X0.147500X0.172500X-0.147500X0.172500X-0.147500X-0.172500X0.147500X-0.172500X0*%
%TD*%
%TA.AperFunction,SMDPad,CuDef*%
%ADD22RoundRect,0.140000X-0.140000X-0.170000X0.140000X-0.170000X0.140000X0.170000X-0.140000X0.170000X0*%
%TD*%
%TA.AperFunction,SMDPad,CuDef*%
%ADD23RoundRect,0.135000X0.135000X0.185000X-0.135000X0.185000X-0.135000X-0.185000X0.135000X-0.185000X0*%
%TD*%
%TA.AperFunction,SMDPad,CuDef*%
%ADD24RoundRect,0.147500X-0.147500X-0.172500X0.147500X-0.172500X0.147500X0.172500X-0.147500X0.172500X0*%
%TD*%
%TA.AperFunction,SMDPad,CuDef*%
%ADD25RoundRect,0.250000X0.250000X0.475000X-0.250000X0.475000X-0.250000X-0.475000X0.250000X-0.475000X0*%
%TD*%
%TA.AperFunction,SMDPad,CuDef*%
%ADD26FreePoly0,270.000000*%
%TD*%
%TA.AperFunction,ComponentPad*%
%ADD27C,1.240000*%
%TD*%
%TA.AperFunction,SMDPad,CuDef*%
%ADD28RoundRect,0.135000X0.185000X-0.135000X0.185000X0.135000X-0.185000X0.135000X-0.185000X-0.135000X0*%
%TD*%
%TA.AperFunction,SMDPad,CuDef*%
%ADD29RoundRect,0.250000X-0.250000X-0.475000X0.250000X-0.475000X0.250000X0.475000X-0.250000X0.475000X0*%
%TD*%
%TA.AperFunction,SMDPad,CuDef*%
%ADD30RoundRect,0.250000X-0.475000X0.250000X-0.475000X-0.250000X0.475000X-0.250000X0.475000X0.250000X0*%
%TD*%
%TA.AperFunction,SMDPad,CuDef*%
%ADD31RoundRect,0.250000X0.450000X-0.350000X0.450000X0.350000X-0.450000X0.350000X-0.450000X-0.350000X0*%
%TD*%
%TA.AperFunction,ViaPad*%
%ADD32C,0.500000*%
%TD*%
%TA.AperFunction,Conductor*%
%ADD33C,0.250000*%
%TD*%
%TA.AperFunction,Conductor*%
%ADD34C,0.500000*%
%TD*%
%TA.AperFunction,Conductor*%
%ADD35C,0.700000*%
%TD*%
%TA.AperFunction,Conductor*%
%ADD36C,0.715000*%
%TD*%
G04 APERTURE END LIST*
D10*
%TO.P,J10,1,Pin_1*%
%TO.N,GND*%
X-14000000Y0D03*
%TD*%
D11*
%TO.P,J4,1,Pin_1*%
%TO.N,/CH3/In*%
X2000000Y2500000D03*
%TD*%
%TO.P,J2,1,Pin_1*%
%TO.N,/CH1/In*%
X-2000000Y-2500000D03*
%TD*%
%TO.P,J15,1,Pin_1*%
%TO.N,GND*%
X5500000Y500000D03*
%TD*%
D10*
%TO.P,J13,1,Pin_1*%
%TO.N,GND*%
X12000000Y0D03*
%TD*%
%TO.P,J16,1,Pin_1*%
%TO.N,GND*%
X14000000Y0D03*
%TD*%
%TO.P,J3,1,Pin_1*%
%TO.N,/CH2/In*%
X3500000Y-2000000D03*
%TD*%
D11*
%TO.P,J14,1,Pin_1*%
%TO.N,GND*%
X-5500000Y-500000D03*
%TD*%
D10*
%TO.P,J12,1,Pin_1*%
%TO.N,/HV2*%
X-10000000Y0D03*
%TD*%
%TO.P,J5,1,Pin_1*%
%TO.N,/CH4/In*%
X-3500000Y2000000D03*
%TD*%
D12*
%TO.P,R8,1*%
%TO.N,/CH1/Stage_1/Out*%
X-3400000Y-15590000D03*
%TO.P,R8,2*%
%TO.N,/CH1/Stage_2/In*%
X-3400000Y-16610000D03*
%TD*%
D13*
%TO.P,C40,1*%
%TO.N,/CH4/Stage_2/In*%
X-6920000Y20100000D03*
%TO.P,C40,2*%
%TO.N,/CH4/Stage_2/50Ohm_1*%
X-7880000Y20100000D03*
%TD*%
D14*
%TO.P,U1,1,RF-OUT_and_DC-IN*%
%TO.N,/CH2/Stage_1/50Ohm_2*%
X6827500Y-9657500D03*
D15*
%TO.P,U1,2,GND*%
%TO.N,GND*%
X8297500Y-10197500D03*
X9037500Y-10197500D03*
X9787500Y-10187500D03*
X8287500Y-9657500D03*
X9787500Y-9647500D03*
X6017500Y-8507500D03*
D16*
X6827500Y-8507500D03*
D17*
X6827500Y-8507500D03*
D15*
X7667500Y-8507500D03*
X6817500Y-7817500D03*
X6007500Y-7807500D03*
X7667500Y-7807500D03*
D14*
%TO.P,U1,3,RF-IN*%
%TO.N,/CH2/Stage_1/50Ohm_1*%
X9027500Y-8357500D03*
%TO.P,U1,4,GND*%
%TO.N,GND*%
X9027500Y-9657500D03*
%TD*%
D18*
%TO.P,C41,1*%
%TO.N,Net-(C39-Pad1)*%
X-4000000Y22880000D03*
%TO.P,C41,2*%
%TO.N,GND*%
X-4000000Y21920000D03*
%TD*%
D19*
%TO.P,C47,1*%
%TO.N,Net-(C45-Pad1)*%
X-6300000Y-9380000D03*
%TO.P,C47,2*%
%TO.N,GND*%
X-6300000Y-8420000D03*
%TD*%
%TO.P,C51,1*%
%TO.N,Net-(C51-Pad1)*%
X-8500000Y-23080000D03*
%TO.P,C51,2*%
%TO.N,GND*%
X-8500000Y-22120000D03*
%TD*%
D18*
%TO.P,C35,1*%
%TO.N,Net-(C33-Pad1)*%
X-4000000Y9180000D03*
%TO.P,C35,2*%
%TO.N,GND*%
X-4000000Y8220000D03*
%TD*%
D20*
%TO.P,R12,1*%
%TO.N,/CH3/In*%
X4490000Y3900000D03*
%TO.P,R12,2*%
%TO.N,GND*%
X5510000Y3900000D03*
%TD*%
D21*
%TO.P,L9,1,1*%
%TO.N,Net-(C33-Pad1)*%
X-2915000Y10400000D03*
%TO.P,L9,2,2*%
%TO.N,Net-(L10-Pad1)*%
X-3885000Y10400000D03*
%TD*%
D18*
%TO.P,C30,1*%
%TO.N,Net-(C27-Pad1)*%
X8300000Y22880000D03*
%TO.P,C30,2*%
%TO.N,GND*%
X8300000Y21920000D03*
%TD*%
D22*
%TO.P,C46,1*%
%TO.N,/CH1/In*%
X-3380000Y-6600000D03*
%TO.P,C46,2*%
%TO.N,/CH1/Stage_1/50Ohm_1*%
X-2420000Y-6600000D03*
%TD*%
D21*
%TO.P,L7,1,1*%
%TO.N,Net-(C27-Pad1)*%
X8285000Y24100000D03*
%TO.P,L7,2,2*%
%TO.N,Net-(L7-Pad2)*%
X7315000Y24100000D03*
%TD*%
%TO.P,L6,1,1*%
%TO.N,Net-(L5-Pad2)*%
X6285000Y10400000D03*
%TO.P,L6,2,2*%
%TO.N,/CH3/Stage_1/50Ohm_2*%
X5315000Y10400000D03*
%TD*%
D23*
%TO.P,R21,1*%
%TO.N,GND*%
X-5890000Y17500000D03*
%TO.P,R21,2*%
%TO.N,/CH4/Stage_2/In*%
X-6910000Y17500000D03*
%TD*%
D22*
%TO.P,C55,1*%
%TO.N,/CH1/Stage_2/50Ohm_2*%
X-4380000Y-25600000D03*
%TO.P,C55,2*%
%TO.N,/CH1/Out*%
X-3420000Y-25600000D03*
%TD*%
D12*
%TO.P,R16,1*%
%TO.N,/POWER*%
X9400000Y11510000D03*
%TO.P,R16,2*%
%TO.N,Net-(C21-Pad1)*%
X9400000Y10490000D03*
%TD*%
%TO.P,R4,1*%
%TO.N,/CH2/Stage_1/Out*%
X7800000Y-15590000D03*
%TO.P,R4,2*%
%TO.N,/CH2/Stage_2/In*%
X7800000Y-16610000D03*
%TD*%
D13*
%TO.P,C38,1*%
%TO.N,/POWER*%
X-2920000Y25400000D03*
%TO.P,C38,2*%
%TO.N,GND*%
X-3880000Y25400000D03*
%TD*%
D24*
%TO.P,L4,1,1*%
%TO.N,Net-(L3-Pad2)*%
X5815000Y-24300000D03*
%TO.P,L4,2,2*%
%TO.N,/CH2/Stage_2/50Ohm_2*%
X6785000Y-24300000D03*
%TD*%
D25*
%TO.P,C2,1*%
%TO.N,/POWER*%
X14300000Y-23900000D03*
%TO.P,C2,2*%
%TO.N,GND*%
X12400000Y-23900000D03*
%TD*%
D14*
%TO.P,U3,1,RF-OUT_and_DC-IN*%
%TO.N,/CH3/Stage_1/50Ohm_2*%
X5272500Y9457500D03*
D15*
%TO.P,U3,2,GND*%
%TO.N,GND*%
X3802500Y9997500D03*
X3062500Y9997500D03*
X2312500Y9987500D03*
X3812500Y9457500D03*
X2312500Y9447500D03*
X6082500Y8307500D03*
D16*
X5272500Y8307500D03*
D26*
X5272500Y8307500D03*
D15*
X4432500Y8307500D03*
X5282500Y7617500D03*
X6092500Y7607500D03*
X4432500Y7607500D03*
D14*
%TO.P,U3,3,RF-IN*%
%TO.N,/CH3/Stage_1/50Ohm_1*%
X3072500Y8157500D03*
%TO.P,U3,4,GND*%
%TO.N,GND*%
X3072500Y9457500D03*
%TD*%
D24*
%TO.P,L1,1,1*%
%TO.N,Net-(C11-Pad1)*%
X3815000Y-10600000D03*
%TO.P,L1,2,2*%
%TO.N,Net-(L1-Pad2)*%
X4785000Y-10600000D03*
%TD*%
D18*
%TO.P,C27,1*%
%TO.N,Net-(C27-Pad1)*%
X9400000Y22880000D03*
%TO.P,C27,2*%
%TO.N,GND*%
X9400000Y21920000D03*
%TD*%
D21*
%TO.P,L12,1,1*%
%TO.N,Net-(L11-Pad2)*%
X-4915000Y24100000D03*
%TO.P,L12,2,2*%
%TO.N,/CH4/Stage_2/50Ohm_2*%
X-5885000Y24100000D03*
%TD*%
D19*
%TO.P,C48,1*%
%TO.N,Net-(C45-Pad1)*%
X-7400000Y-9380000D03*
%TO.P,C48,2*%
%TO.N,GND*%
X-7400000Y-8420000D03*
%TD*%
D13*
%TO.P,C31,1*%
%TO.N,/CH3/Stage_2/50Ohm_2*%
X5280000Y25400000D03*
%TO.P,C31,2*%
%TO.N,/CH3/Out*%
X4320000Y25400000D03*
%TD*%
D27*
%TO.P,J6,1,In*%
%TO.N,/CH1/Out*%
X-3400000Y-31000000D03*
%TO.P,J6,2,Ext*%
%TO.N,GND*%
X-2130000Y-32270000D03*
X-2130000Y-29730000D03*
X-4670000Y-32270000D03*
X-4670000Y-29730000D03*
%TD*%
D18*
%TO.P,C24,1*%
%TO.N,Net-(C21-Pad1)*%
X8300000Y9180000D03*
%TO.P,C24,2*%
%TO.N,GND*%
X8300000Y8220000D03*
%TD*%
D22*
%TO.P,C52,1*%
%TO.N,/CH1/Stage_2/In*%
X-3380000Y-20300000D03*
%TO.P,C52,2*%
%TO.N,/CH1/Stage_2/50Ohm_1*%
X-2420000Y-20300000D03*
%TD*%
D27*
%TO.P,J1,1,In*%
%TO.N,/POWER*%
X14300000Y-31000000D03*
%TO.P,J1,2,Ext*%
%TO.N,GND*%
X15570000Y-32270000D03*
X15570000Y-29730000D03*
X13030000Y-32270000D03*
X13030000Y-29730000D03*
%TD*%
D28*
%TO.P,R25,1*%
%TO.N,/POWER*%
X-8500000Y-25410000D03*
%TO.P,R25,2*%
%TO.N,Net-(C51-Pad1)*%
X-8500000Y-24390000D03*
%TD*%
D24*
%TO.P,L3,1,1*%
%TO.N,Net-(C15-Pad1)*%
X3815000Y-24300000D03*
%TO.P,L3,2,2*%
%TO.N,Net-(L3-Pad2)*%
X4785000Y-24300000D03*
%TD*%
D13*
%TO.P,C25,1*%
%TO.N,/CH3/Stage_1/50Ohm_2*%
X5280000Y11700000D03*
%TO.P,C25,2*%
%TO.N,/CH3/Stage_1/Out*%
X4320000Y11700000D03*
%TD*%
%TO.P,C22,1*%
%TO.N,/CH3/In*%
X4280000Y6400000D03*
%TO.P,C22,2*%
%TO.N,/CH3/Stage_1/50Ohm_1*%
X3320000Y6400000D03*
%TD*%
D24*
%TO.P,L14,1,1*%
%TO.N,Net-(L13-Pad2)*%
X-5385000Y-10600000D03*
%TO.P,L14,2,2*%
%TO.N,/CH1/Stage_1/50Ohm_2*%
X-4415000Y-10600000D03*
%TD*%
D14*
%TO.P,U7,1,RF-OUT_and_DC-IN*%
%TO.N,/CH1/Stage_1/50Ohm_2*%
X-4372500Y-9657500D03*
D15*
%TO.P,U7,2,GND*%
%TO.N,GND*%
X-2902500Y-10197500D03*
X-2162500Y-10197500D03*
X-1412500Y-10187500D03*
X-2912500Y-9657500D03*
X-1412500Y-9647500D03*
X-5182500Y-8507500D03*
D16*
X-4372500Y-8507500D03*
D17*
X-4372500Y-8507500D03*
D15*
X-3532500Y-8507500D03*
X-4382500Y-7817500D03*
X-5192500Y-7807500D03*
X-3532500Y-7807500D03*
D14*
%TO.P,U7,3,RF-IN*%
%TO.N,/CH1/Stage_1/50Ohm_1*%
X-2172500Y-8357500D03*
%TO.P,U7,4,GND*%
%TO.N,GND*%
X-2172500Y-9657500D03*
%TD*%
D19*
%TO.P,C54,1*%
%TO.N,Net-(C51-Pad1)*%
X-7400000Y-23080000D03*
%TO.P,C54,2*%
%TO.N,GND*%
X-7400000Y-22120000D03*
%TD*%
%TO.P,C12,1*%
%TO.N,Net-(C11-Pad1)*%
X3800000Y-9380000D03*
%TO.P,C12,2*%
%TO.N,GND*%
X3800000Y-8420000D03*
%TD*%
D20*
%TO.P,R3,1*%
%TO.N,GND*%
X6790000Y-14500000D03*
%TO.P,R3,2*%
%TO.N,/CH2/Stage_1/Out*%
X7810000Y-14500000D03*
%TD*%
D22*
%TO.P,C49,1*%
%TO.N,/CH1/Stage_1/50Ohm_2*%
X-4380000Y-11900000D03*
%TO.P,C49,2*%
%TO.N,/CH1/Stage_1/Out*%
X-3420000Y-11900000D03*
%TD*%
D28*
%TO.P,R10,1*%
%TO.N,/POWER*%
X2700000Y-11710001D03*
%TO.P,R10,2*%
%TO.N,Net-(C11-Pad1)*%
X2700000Y-10690001D03*
%TD*%
D12*
%TO.P,R17,1*%
%TO.N,/POWER*%
X9400000Y25210000D03*
%TO.P,R17,2*%
%TO.N,Net-(C27-Pad1)*%
X9400000Y24190000D03*
%TD*%
D22*
%TO.P,C44,1*%
%TO.N,/POWER*%
X-7380000Y-11900000D03*
%TO.P,C44,2*%
%TO.N,GND*%
X-6420000Y-11900000D03*
%TD*%
D18*
%TO.P,C33,1*%
%TO.N,Net-(C33-Pad1)*%
X-1800000Y9180000D03*
%TO.P,C33,2*%
%TO.N,GND*%
X-1800000Y8220000D03*
%TD*%
D25*
%TO.P,C3,1*%
%TO.N,/POWER*%
X14300000Y-26100000D03*
%TO.P,C3,2*%
%TO.N,GND*%
X12400000Y-26100000D03*
%TD*%
D27*
%TO.P,J8,1,In*%
%TO.N,/CH3/Out*%
X5700000Y31000000D03*
%TO.P,J8,2,Ext*%
%TO.N,GND*%
X4430000Y32270000D03*
X4430000Y29730000D03*
X6970000Y32270000D03*
X6970000Y29730000D03*
%TD*%
D23*
%TO.P,R13,1*%
%TO.N,GND*%
X5310000Y14300000D03*
%TO.P,R13,2*%
%TO.N,/CH3/Stage_1/Out*%
X4290000Y14300000D03*
%TD*%
%TO.P,R6,1*%
%TO.N,/CH1/In*%
X-3590000Y-4100000D03*
%TO.P,R6,2*%
%TO.N,GND*%
X-4610000Y-4100000D03*
%TD*%
D18*
%TO.P,C36,1*%
%TO.N,Net-(C33-Pad1)*%
X-2900000Y9180000D03*
%TO.P,C36,2*%
%TO.N,GND*%
X-2900000Y8220000D03*
%TD*%
D21*
%TO.P,L10,1,1*%
%TO.N,Net-(L10-Pad1)*%
X-4915000Y10400000D03*
%TO.P,L10,2,2*%
%TO.N,/CH4/Stage_1/50Ohm_2*%
X-5885000Y10400000D03*
%TD*%
D19*
%TO.P,C11,1*%
%TO.N,Net-(C11-Pad1)*%
X4900000Y-9380000D03*
%TO.P,C11,2*%
%TO.N,GND*%
X4900000Y-8420000D03*
%TD*%
D13*
%TO.P,C26,1*%
%TO.N,/POWER*%
X8280000Y25400000D03*
%TO.P,C26,2*%
%TO.N,GND*%
X7320000Y25400000D03*
%TD*%
D23*
%TO.P,R15,1*%
%TO.N,GND*%
X5310000Y17500000D03*
%TO.P,R15,2*%
%TO.N,/CH3/Stage_2/In*%
X4290000Y17500000D03*
%TD*%
D13*
%TO.P,C20,1*%
%TO.N,/POWER*%
X8280000Y11700000D03*
%TO.P,C20,2*%
%TO.N,GND*%
X7320000Y11700000D03*
%TD*%
D14*
%TO.P,U8,1,RF-OUT_and_DC-IN*%
%TO.N,/CH1/Stage_2/50Ohm_2*%
X-4372500Y-23357500D03*
D15*
%TO.P,U8,2,GND*%
%TO.N,GND*%
X-2902500Y-23897500D03*
X-2162500Y-23897500D03*
X-1412500Y-23887500D03*
X-2912500Y-23357500D03*
X-1412500Y-23347500D03*
X-5182500Y-22207500D03*
D16*
X-4372500Y-22207500D03*
D17*
X-4372500Y-22207500D03*
D15*
X-3532500Y-22207500D03*
X-4382500Y-21517500D03*
X-5192500Y-21507500D03*
X-3532500Y-21507500D03*
D14*
%TO.P,U8,3,RF-IN*%
%TO.N,/CH1/Stage_2/50Ohm_1*%
X-2172500Y-22057500D03*
%TO.P,U8,4,GND*%
%TO.N,GND*%
X-2172500Y-23357500D03*
%TD*%
%TO.P,U6,1,RF-OUT_and_DC-IN*%
%TO.N,/CH4/Stage_2/50Ohm_2*%
X-5927500Y23157500D03*
D15*
%TO.P,U6,2,GND*%
%TO.N,GND*%
X-7397500Y23697500D03*
X-8137500Y23697500D03*
X-8887500Y23687500D03*
X-7387500Y23157500D03*
X-8887500Y23147500D03*
X-5117500Y22007500D03*
D16*
X-5927500Y22007500D03*
D26*
X-5927500Y22007500D03*
D15*
X-6767500Y22007500D03*
X-5917500Y21317500D03*
X-5107500Y21307500D03*
X-6767500Y21307500D03*
D14*
%TO.P,U6,3,RF-IN*%
%TO.N,/CH4/Stage_2/50Ohm_1*%
X-8127500Y21857500D03*
%TO.P,U6,4,GND*%
%TO.N,GND*%
X-8127500Y23157500D03*
%TD*%
D29*
%TO.P,C7,1*%
%TO.N,/HV2*%
X-9450000Y-3100000D03*
%TO.P,C7,2*%
%TO.N,GND*%
X-7550000Y-3100000D03*
%TD*%
D24*
%TO.P,L13,1,1*%
%TO.N,Net-(C45-Pad1)*%
X-7385000Y-10600000D03*
%TO.P,L13,2,2*%
%TO.N,Net-(L13-Pad2)*%
X-6415000Y-10600000D03*
%TD*%
D27*
%TO.P,J11,1,In*%
%TO.N,/HV1*%
X-12700000Y-31000000D03*
%TO.P,J11,2,Ext*%
%TO.N,GND*%
X-11430000Y-32270000D03*
X-11430000Y-29730000D03*
X-13970000Y-32270000D03*
X-13970000Y-29730000D03*
%TD*%
D21*
%TO.P,L5,1,1*%
%TO.N,Net-(C21-Pad1)*%
X8285000Y10400000D03*
%TO.P,L5,2,2*%
%TO.N,Net-(L5-Pad2)*%
X7315000Y10400000D03*
%TD*%
D13*
%TO.P,C32,1*%
%TO.N,/POWER*%
X-2920000Y11700000D03*
%TO.P,C32,2*%
%TO.N,GND*%
X-3880000Y11700000D03*
%TD*%
D30*
%TO.P,C5,1*%
%TO.N,/POWER*%
X-600000Y31050000D03*
%TO.P,C5,2*%
%TO.N,GND*%
X-600000Y29150000D03*
%TD*%
D18*
%TO.P,C39,1*%
%TO.N,Net-(C39-Pad1)*%
X-1800000Y22880000D03*
%TO.P,C39,2*%
%TO.N,GND*%
X-1800000Y21920000D03*
%TD*%
D22*
%TO.P,C8,1*%
%TO.N,/POWER*%
X3820000Y-11900000D03*
%TO.P,C8,2*%
%TO.N,GND*%
X4780000Y-11900000D03*
%TD*%
%TO.P,C16,1*%
%TO.N,/CH2/Stage_2/In*%
X7820000Y-20300000D03*
%TO.P,C16,2*%
%TO.N,/CH2/Stage_2/50Ohm_1*%
X8780000Y-20300000D03*
%TD*%
D20*
%TO.P,R2,1*%
%TO.N,/CH2/In*%
X7190000Y-3800000D03*
%TO.P,R2,2*%
%TO.N,GND*%
X8210000Y-3800000D03*
%TD*%
D19*
%TO.P,C9,1*%
%TO.N,Net-(C11-Pad1)*%
X2700000Y-9380000D03*
%TO.P,C9,2*%
%TO.N,GND*%
X2700000Y-8420000D03*
%TD*%
D27*
%TO.P,J9,1,In*%
%TO.N,/CH4/Out*%
X-6900000Y31000000D03*
%TO.P,J9,2,Ext*%
%TO.N,GND*%
X-8170000Y32270000D03*
X-8170000Y29730000D03*
X-5630000Y32270000D03*
X-5630000Y29730000D03*
%TD*%
D23*
%TO.P,R18,1*%
%TO.N,/CH4/In*%
X-6590000Y3600000D03*
%TO.P,R18,2*%
%TO.N,GND*%
X-7610000Y3600000D03*
%TD*%
D28*
%TO.P,R24,1*%
%TO.N,/POWER*%
X-8500000Y-11710000D03*
%TO.P,R24,2*%
%TO.N,Net-(C45-Pad1)*%
X-8500000Y-10690000D03*
%TD*%
D31*
%TO.P,R1,1*%
%TO.N,/HV1*%
X-12200000Y-5500000D03*
%TO.P,R1,2*%
%TO.N,/HV2*%
X-12200000Y-3500000D03*
%TD*%
D24*
%TO.P,L15,1,1*%
%TO.N,Net-(C51-Pad1)*%
X-7385000Y-24300000D03*
%TO.P,L15,2,2*%
%TO.N,Net-(L15-Pad2)*%
X-6415000Y-24300000D03*
%TD*%
D19*
%TO.P,C15,1*%
%TO.N,Net-(C15-Pad1)*%
X2700000Y-23080000D03*
%TO.P,C15,2*%
%TO.N,GND*%
X2700000Y-22120000D03*
%TD*%
D30*
%TO.P,C6,1*%
%TO.N,/POWER*%
X1600000Y31050000D03*
%TO.P,C6,2*%
%TO.N,GND*%
X1600000Y29150000D03*
%TD*%
D18*
%TO.P,C21,1*%
%TO.N,Net-(C21-Pad1)*%
X9400000Y9180000D03*
%TO.P,C21,2*%
%TO.N,GND*%
X9400000Y8220000D03*
%TD*%
D28*
%TO.P,R20,1*%
%TO.N,/CH4/Stage_1/Out*%
X-6900000Y15390000D03*
%TO.P,R20,2*%
%TO.N,/CH4/Stage_2/In*%
X-6900000Y16410000D03*
%TD*%
D19*
%TO.P,C45,1*%
%TO.N,Net-(C45-Pad1)*%
X-8500000Y-9380000D03*
%TO.P,C45,2*%
%TO.N,GND*%
X-8500000Y-8420000D03*
%TD*%
D18*
%TO.P,C42,1*%
%TO.N,Net-(C39-Pad1)*%
X-2900000Y22880000D03*
%TO.P,C42,2*%
%TO.N,GND*%
X-2900000Y21920000D03*
%TD*%
D20*
%TO.P,R9,1*%
%TO.N,GND*%
X-4410000Y-17700000D03*
%TO.P,R9,2*%
%TO.N,/CH1/Stage_2/In*%
X-3390000Y-17700000D03*
%TD*%
D28*
%TO.P,R11,1*%
%TO.N,/POWER*%
X2700000Y-25410000D03*
%TO.P,R11,2*%
%TO.N,Net-(C15-Pad1)*%
X2700000Y-24390000D03*
%TD*%
D20*
%TO.P,R7,1*%
%TO.N,GND*%
X-4410000Y-14500000D03*
%TO.P,R7,2*%
%TO.N,/CH1/Stage_1/Out*%
X-3390000Y-14500000D03*
%TD*%
D13*
%TO.P,C37,1*%
%TO.N,/CH4/Stage_1/50Ohm_2*%
X-5920000Y11700000D03*
%TO.P,C37,2*%
%TO.N,/CH4/Stage_1/Out*%
X-6880000Y11700000D03*
%TD*%
D21*
%TO.P,L11,1,1*%
%TO.N,Net-(C39-Pad1)*%
X-2915000Y24100000D03*
%TO.P,L11,2,2*%
%TO.N,Net-(L11-Pad2)*%
X-3885000Y24100000D03*
%TD*%
D13*
%TO.P,C28,1*%
%TO.N,/CH3/Stage_2/In*%
X4280000Y20100000D03*
%TO.P,C28,2*%
%TO.N,/CH3/Stage_2/50Ohm_1*%
X3320000Y20100000D03*
%TD*%
D14*
%TO.P,U4,1,RF-OUT_and_DC-IN*%
%TO.N,/CH3/Stage_2/50Ohm_2*%
X5272500Y23157500D03*
D15*
%TO.P,U4,2,GND*%
%TO.N,GND*%
X3802500Y23697500D03*
X3062500Y23697500D03*
X2312500Y23687500D03*
X3812500Y23157500D03*
X2312500Y23147500D03*
X6082500Y22007500D03*
D16*
X5272500Y22007500D03*
D26*
X5272500Y22007500D03*
D15*
X4432500Y22007500D03*
X5282500Y21317500D03*
X6092500Y21307500D03*
X4432500Y21307500D03*
D14*
%TO.P,U4,3,RF-IN*%
%TO.N,/CH3/Stage_2/50Ohm_1*%
X3072500Y21857500D03*
%TO.P,U4,4,GND*%
%TO.N,GND*%
X3072500Y23157500D03*
%TD*%
D23*
%TO.P,R19,1*%
%TO.N,GND*%
X-5890000Y14300000D03*
%TO.P,R19,2*%
%TO.N,/CH4/Stage_1/Out*%
X-6910000Y14300000D03*
%TD*%
D27*
%TO.P,J7,1,In*%
%TO.N,/CH2/Out*%
X6600000Y-31000000D03*
%TO.P,J7,2,Ext*%
%TO.N,GND*%
X7870000Y-32270000D03*
X7870000Y-29730000D03*
X5330000Y-32270000D03*
X5330000Y-29730000D03*
%TD*%
D24*
%TO.P,L2,1,1*%
%TO.N,Net-(L1-Pad2)*%
X5815000Y-10600000D03*
%TO.P,L2,2,2*%
%TO.N,/CH2/Stage_1/50Ohm_2*%
X6785000Y-10600000D03*
%TD*%
D22*
%TO.P,C14,1*%
%TO.N,/POWER*%
X3820000Y-25600000D03*
%TO.P,C14,2*%
%TO.N,GND*%
X4780000Y-25600000D03*
%TD*%
D12*
%TO.P,R23,1*%
%TO.N,/POWER*%
X-1800000Y25210000D03*
%TO.P,R23,2*%
%TO.N,Net-(C39-Pad1)*%
X-1800000Y24190000D03*
%TD*%
D21*
%TO.P,L8,1,1*%
%TO.N,Net-(L7-Pad2)*%
X6285000Y24100000D03*
%TO.P,L8,2,2*%
%TO.N,/CH3/Stage_2/50Ohm_2*%
X5315000Y24100000D03*
%TD*%
D14*
%TO.P,U2,1,RF-OUT_and_DC-IN*%
%TO.N,/CH2/Stage_2/50Ohm_2*%
X6827500Y-23357500D03*
D15*
%TO.P,U2,2,GND*%
%TO.N,GND*%
X8297500Y-23897500D03*
X9037500Y-23897500D03*
X9787500Y-23887500D03*
X8287500Y-23357500D03*
X9787500Y-23347500D03*
X6017500Y-22207500D03*
D16*
X6827500Y-22207500D03*
D17*
X6827500Y-22207500D03*
D15*
X7667500Y-22207500D03*
X6817500Y-21517500D03*
X6007500Y-21507500D03*
X7667500Y-21507500D03*
D14*
%TO.P,U2,3,RF-IN*%
%TO.N,/CH2/Stage_2/50Ohm_1*%
X9027500Y-22057500D03*
%TO.P,U2,4,GND*%
%TO.N,GND*%
X9027500Y-23357500D03*
%TD*%
D19*
%TO.P,C17,1*%
%TO.N,Net-(C15-Pad1)*%
X4900000Y-23080000D03*
%TO.P,C17,2*%
%TO.N,GND*%
X4900000Y-22120000D03*
%TD*%
D22*
%TO.P,C19,1*%
%TO.N,/CH2/Stage_2/50Ohm_2*%
X6820000Y-25600000D03*
%TO.P,C19,2*%
%TO.N,/CH2/Out*%
X7780000Y-25600000D03*
%TD*%
D28*
%TO.P,R14,1*%
%TO.N,/CH3/Stage_1/Out*%
X4300000Y15390000D03*
%TO.P,R14,2*%
%TO.N,/CH3/Stage_2/In*%
X4300000Y16410000D03*
%TD*%
D22*
%TO.P,C13,1*%
%TO.N,/CH2/Stage_1/50Ohm_2*%
X6820000Y-11900000D03*
%TO.P,C13,2*%
%TO.N,/CH2/Stage_1/Out*%
X7780000Y-11900000D03*
%TD*%
D19*
%TO.P,C53,1*%
%TO.N,Net-(C51-Pad1)*%
X-6300000Y-23080000D03*
%TO.P,C53,2*%
%TO.N,GND*%
X-6300000Y-22120000D03*
%TD*%
D24*
%TO.P,L16,1,1*%
%TO.N,Net-(L15-Pad2)*%
X-5385000Y-24300000D03*
%TO.P,L16,2,2*%
%TO.N,/CH1/Stage_2/50Ohm_2*%
X-4415000Y-24300000D03*
%TD*%
D25*
%TO.P,C1,1*%
%TO.N,/POWER*%
X14300000Y-21700000D03*
%TO.P,C1,2*%
%TO.N,GND*%
X12400000Y-21700000D03*
%TD*%
D22*
%TO.P,C10,1*%
%TO.N,/CH2/In*%
X7820000Y-6600000D03*
%TO.P,C10,2*%
%TO.N,/CH2/Stage_1/50Ohm_1*%
X8780000Y-6600000D03*
%TD*%
D13*
%TO.P,C43,1*%
%TO.N,/CH4/Stage_2/50Ohm_2*%
X-5920000Y25400000D03*
%TO.P,C43,2*%
%TO.N,/CH4/Out*%
X-6880000Y25400000D03*
%TD*%
D30*
%TO.P,C4,1*%
%TO.N,/POWER*%
X-2800000Y31050000D03*
%TO.P,C4,2*%
%TO.N,GND*%
X-2800000Y29150000D03*
%TD*%
D18*
%TO.P,C29,1*%
%TO.N,Net-(C27-Pad1)*%
X7200000Y22880000D03*
%TO.P,C29,2*%
%TO.N,GND*%
X7200000Y21920000D03*
%TD*%
D13*
%TO.P,C34,1*%
%TO.N,/CH4/In*%
X-6920000Y6400000D03*
%TO.P,C34,2*%
%TO.N,/CH4/Stage_1/50Ohm_1*%
X-7880000Y6400000D03*
%TD*%
D22*
%TO.P,C50,1*%
%TO.N,/POWER*%
X-7380000Y-25600000D03*
%TO.P,C50,2*%
%TO.N,GND*%
X-6420000Y-25600000D03*
%TD*%
D14*
%TO.P,U5,1,RF-OUT_and_DC-IN*%
%TO.N,/CH4/Stage_1/50Ohm_2*%
X-5927500Y9457500D03*
D15*
%TO.P,U5,2,GND*%
%TO.N,GND*%
X-7397500Y9997500D03*
X-8137500Y9997500D03*
X-8887500Y9987500D03*
X-7387500Y9457500D03*
X-8887500Y9447500D03*
X-5117500Y8307500D03*
D16*
X-5927500Y8307500D03*
D26*
X-5927500Y8307500D03*
D15*
X-6767500Y8307500D03*
X-5917500Y7617500D03*
X-5107500Y7607500D03*
X-6767500Y7607500D03*
D14*
%TO.P,U5,3,RF-IN*%
%TO.N,/CH4/Stage_1/50Ohm_1*%
X-8127500Y8157500D03*
%TO.P,U5,4,GND*%
%TO.N,GND*%
X-8127500Y9457500D03*
%TD*%
D18*
%TO.P,C23,1*%
%TO.N,Net-(C21-Pad1)*%
X7200000Y9180000D03*
%TO.P,C23,2*%
%TO.N,GND*%
X7200000Y8220000D03*
%TD*%
D20*
%TO.P,R5,1*%
%TO.N,GND*%
X6790000Y-17700000D03*
%TO.P,R5,2*%
%TO.N,/CH2/Stage_2/In*%
X7810000Y-17700000D03*
%TD*%
D19*
%TO.P,C18,1*%
%TO.N,Net-(C15-Pad1)*%
X3800000Y-23080000D03*
%TO.P,C18,2*%
%TO.N,GND*%
X3800000Y-22120000D03*
%TD*%
D12*
%TO.P,R22,1*%
%TO.N,/POWER*%
X-1800000Y11510000D03*
%TO.P,R22,2*%
%TO.N,Net-(C33-Pad1)*%
X-1800000Y10490000D03*
%TD*%
D32*
%TO.N,GND*%
X821308Y-4342476D03*
X10200000Y30600000D03*
X-7161914Y463974D03*
X145850Y3974699D03*
X1200000Y9789694D03*
X-8000000Y14900000D03*
X5300000Y-25600000D03*
X8900000Y-15100000D03*
X16500000Y2900000D03*
X10900000Y21800000D03*
X-1474556Y-4683827D03*
X2406941Y5573237D03*
X-1300000Y15800000D03*
X6800000Y25400000D03*
X6079223Y4472102D03*
X-10000000Y-10000000D03*
X-6400000Y-11400000D03*
X7300000Y11200000D03*
X-4905966Y-26889694D03*
X8300000Y21400000D03*
X14100000Y25500000D03*
X-10000000Y8200000D03*
X4500000Y-26900000D03*
X1200000Y-22089694D03*
X1916936Y6784484D03*
X10900000Y9789694D03*
X1700000Y-16300000D03*
X6040683Y-4700344D03*
X-1400000Y2300000D03*
X-12200000Y30500000D03*
X-1800000Y-13200000D03*
X5805966Y26689694D03*
X2512524Y4701142D03*
X6200000Y3900000D03*
X-2000000Y-5300000D03*
X16500000Y8900000D03*
X1200000Y-13200000D03*
X1200000Y13000000D03*
X-10000000Y15700000D03*
X-12200000Y14200000D03*
X6700000Y1700000D03*
X10900000Y15800000D03*
X4477073Y-4094720D03*
X-3900000Y12200000D03*
X7200000Y7700000D03*
X-4400000Y-13900000D03*
X-400000Y5300000D03*
X1200000Y21900000D03*
X-300000Y-19000000D03*
X3998080Y1405444D03*
X-8300000Y-13189694D03*
X-6330558Y1229262D03*
X10900000Y-22100000D03*
X-5900000Y14900000D03*
X1200000Y20289694D03*
X5300000Y16900000D03*
X10900000Y-16100000D03*
X-13200000Y5100000D03*
X-10000000Y-5300000D03*
X1200000Y8200000D03*
X-3900000Y25900000D03*
X-300000Y26689694D03*
X-2300000Y-13900000D03*
X-16500000Y-27100000D03*
X1000000Y-3100000D03*
X-6400000Y-12400000D03*
X-8300000Y-26889694D03*
X-300000Y10800000D03*
X-4985078Y-14479532D03*
X2900000Y-13189694D03*
X-8300000Y5100000D03*
X10900000Y-6789694D03*
X5900000Y5100000D03*
X-4400000Y-15100000D03*
X-300000Y-22100000D03*
X-11800000Y18500000D03*
X7500000Y5000000D03*
X9294034Y18800000D03*
X4900000Y-7900000D03*
X-1800000Y3500000D03*
X5900000Y18800000D03*
X-10000000Y20289694D03*
X16500000Y-27100000D03*
X5400000Y3000000D03*
X6900000Y-800000D03*
X1200000Y-26900000D03*
X9057791Y-4579220D03*
X11000000Y8100000D03*
X10900000Y11300000D03*
X-300000Y18800000D03*
X-16500000Y20900000D03*
X4800000Y-25100000D03*
X13800000Y-5000000D03*
X12400000Y-25000000D03*
X5805966Y12989694D03*
X4800000Y-26100000D03*
X-16500000Y-30100000D03*
X-5256952Y-4700344D03*
X8900000Y-13900000D03*
X-10000000Y13000000D03*
X12700000Y-18100000D03*
X-10000000Y-13200000D03*
X-16500000Y-100000D03*
X-300000Y-25300000D03*
X10900000Y6589694D03*
X10900000Y-11600000D03*
X-8000000Y13700000D03*
X-4400000Y25400000D03*
X5864502Y-1165704D03*
X-5900000Y13700000D03*
X2700000Y26700000D03*
X-6500000Y2500000D03*
X4300000Y-13200000D03*
X16500000Y-9100000D03*
X2100000Y-8400000D03*
X4700000Y-5300000D03*
X1454460Y-1661214D03*
X2700000Y-7900000D03*
X12400000Y-22800000D03*
X1400000Y-30800000D03*
X1382886Y-2294366D03*
X-10000000Y-11589694D03*
X5500000Y20100000D03*
X2100000Y-22100000D03*
X-10000000Y-16100000D03*
X-1800000Y-26900000D03*
X3200000Y18100000D03*
X9200000Y26700000D03*
X-600000Y-14700000D03*
X3200000Y14900000D03*
X4600000Y-15300000D03*
X8677900Y-3224824D03*
X-2100000Y200000D03*
X1200000Y-25289694D03*
X-5700000Y1500000D03*
X-5900000Y16900000D03*
X3100000Y11900000D03*
X-16500000Y11900000D03*
X16500000Y11900000D03*
X14200000Y11700000D03*
X650536Y4372331D03*
X-6400000Y-26100000D03*
X7125301Y1042069D03*
X16500000Y5900000D03*
X-4700000Y4100000D03*
X9200000Y-19000000D03*
X-6400000Y-25100000D03*
X-300000Y24600000D03*
X1200000Y-10000000D03*
X12400000Y-27200000D03*
X1246984Y4716436D03*
X1856374Y-3511119D03*
X6536194Y-5862041D03*
X-8500000Y13000000D03*
X-6600000Y-13200000D03*
X10900000Y-19000000D03*
X13400000Y29500000D03*
X2805966Y-5300000D03*
X5300000Y13700000D03*
X-1200000Y8200000D03*
X-300000Y-20489694D03*
X2285816Y249253D03*
X2291322Y-3990113D03*
X-8100000Y25600000D03*
X1200000Y-11589694D03*
X-6611347Y-1765822D03*
X127593Y-3527636D03*
X2900000Y-19000000D03*
X-5394034Y26689694D03*
X-2085686Y-4705850D03*
X5500000Y6400000D03*
X-300000Y20289694D03*
X-7266522Y-224234D03*
X1200000Y17000000D03*
X-3300000Y17000000D03*
X10900000Y18800000D03*
X4800000Y-12400000D03*
X4829436Y2324891D03*
X10000000Y8200000D03*
X-8394034Y-5300000D03*
X9400000Y7700000D03*
X6600000Y-20300000D03*
X-1200000Y21900000D03*
X2010532Y6107287D03*
X-5300000Y-4100000D03*
X-10000000Y-8389694D03*
X-4300000Y-3100000D03*
X16500000Y29900000D03*
X-10000000Y23489694D03*
X-10000000Y-25289694D03*
X-3700000Y26689694D03*
X8900000Y-18300000D03*
X-2100000Y26700000D03*
X-8000000Y18100000D03*
X-5300000Y18800000D03*
X16500000Y-6100000D03*
X-8500000Y-7900000D03*
X7300000Y25900000D03*
X9400000Y-26900000D03*
X13600000Y21600000D03*
X-4400000Y-18300000D03*
X6800000Y-17100000D03*
X8900000Y-3800000D03*
X10000000Y21900000D03*
X-2300000Y-17100000D03*
X16500000Y-12100000D03*
X6294034Y-26889694D03*
X10900000Y-5300000D03*
X1200000Y6589694D03*
X-10000000Y-19000000D03*
X6794960Y-2096162D03*
X-2100000Y13000000D03*
X-5025714Y-2354928D03*
X7500000Y12989694D03*
X2900000Y-26889694D03*
X-16500000Y5900000D03*
X-6300000Y-21600000D03*
X9000000Y-25800000D03*
X-205900Y2166239D03*
X500000Y29100000D03*
X-16500000Y23900000D03*
X2300000Y-14600000D03*
X1200000Y25100000D03*
X7600000Y18800000D03*
X-3900000Y24900000D03*
X-3700000Y18800000D03*
X8017219Y-2866956D03*
X-300000Y-11600000D03*
X-5900000Y18100000D03*
X-300000Y-23689694D03*
X10900000Y-23689694D03*
X2700000Y13000000D03*
X-2900000Y21400000D03*
X6800000Y-18300000D03*
X10900000Y-9989694D03*
X-4354022Y-2068634D03*
X-5300000Y17500000D03*
X13000000Y-14000000D03*
X-6100000Y2000000D03*
X-5300000Y5100000D03*
X8400000Y14800000D03*
X-300000Y-9989694D03*
X-7400000Y-21600000D03*
X10900000Y-20489694D03*
X-2600000Y-200000D03*
X-13200000Y11400000D03*
X6600000Y-6600000D03*
X8900000Y-17100000D03*
X10900000Y20289694D03*
X243212Y-2872462D03*
X-2300000Y-18300000D03*
X-9100000Y-8400000D03*
X6315967Y-1584135D03*
X-300000Y6589694D03*
X-300000Y22200000D03*
X16500000Y-3100000D03*
X-2200000Y-25800000D03*
X-5000000Y-17700000D03*
X-1905966Y5100000D03*
X6200000Y-5300000D03*
X3612683Y821843D03*
X-16500000Y-6100000D03*
X3800000Y-7900000D03*
X7300000Y24900000D03*
X10900000Y-8400000D03*
X6214922Y-14479532D03*
X-13200000Y27200000D03*
X-6900000Y1100000D03*
X9000000Y-12100000D03*
X-5000000Y-19000000D03*
X-13200000Y21600000D03*
X-4905966Y-13189694D03*
X-8500000Y26700000D03*
X-16500000Y-3100000D03*
X-2200000Y-12100000D03*
X13400000Y-11400000D03*
X7200000Y21400000D03*
X1200000Y-20500000D03*
X-7100000Y-1100000D03*
X-9100000Y-22100000D03*
X-3968625Y-1292334D03*
X-2800000Y14900000D03*
X6800000Y-15100000D03*
X1300000Y5400000D03*
X10900000Y-13200000D03*
X-5800000Y-2400000D03*
X5100000Y-3800000D03*
X-10000000Y21900000D03*
X13700000Y5500000D03*
X-2700000Y4200000D03*
X-1800000Y21400000D03*
X9400000Y-13200000D03*
X-10000000Y25100000D03*
X-3700000Y12989694D03*
X-10000000Y-23700000D03*
X2700000Y-21600000D03*
X16500000Y-21100000D03*
X5572701Y-4281913D03*
X9100000Y13000000D03*
X5900000Y17500000D03*
X-5700000Y6400000D03*
X1828138Y4812020D03*
X-1800000Y7700000D03*
X10900000Y12989694D03*
X-300000Y-13200000D03*
X1200000Y26700000D03*
X9200000Y-1100000D03*
X-5394034Y12989694D03*
X-300000Y11900000D03*
X-3900000Y11200000D03*
X-1905966Y18800000D03*
X-300000Y-26900000D03*
X-8900000Y-14600000D03*
X-8200000Y-30800000D03*
X-4600000Y-6600000D03*
X0Y-17300000D03*
X10800000Y5200000D03*
X-1500000Y2900000D03*
X-4000000Y21400000D03*
X3100000Y25600000D03*
X-4838521Y-3478085D03*
X8300000Y7700000D03*
X-10000000Y-22089694D03*
X193661Y-2211781D03*
X-10000000Y6589694D03*
X7300000Y12200000D03*
X-4400000Y-17100000D03*
X10900000Y-26900000D03*
X-4755936Y-5988671D03*
X4300000Y2000000D03*
X2700000Y29100000D03*
X-6300000Y-7900000D03*
X-300000Y8600000D03*
X-252297Y-4116743D03*
X5885078Y14279532D03*
X1200000Y-8389694D03*
X-5900000Y-11900000D03*
X6139786Y2071630D03*
X16500000Y23900000D03*
X-7400000Y-7900000D03*
X1200000Y23489694D03*
X-8400000Y3600000D03*
X-8300000Y18800000D03*
X832319Y-2002566D03*
X6294034Y-13189694D03*
X1200000Y-6800000D03*
X-4600000Y-20300000D03*
X3800000Y-21600000D03*
X-10000000Y18800000D03*
X-300000Y-5300000D03*
X10900000Y23489694D03*
X4900000Y-21600000D03*
X-9900000Y5200000D03*
X-6800000Y-17300000D03*
X-3200000Y-400000D03*
X-300000Y-8400000D03*
X7500000Y26689694D03*
X1900419Y7379097D03*
X6800000Y11700000D03*
X2900000Y18800000D03*
X700000Y15200000D03*
X-3900000Y29100000D03*
X5300000Y18100000D03*
X6800000Y-13900000D03*
X-16500000Y2900000D03*
X-4000000Y7700000D03*
X-6800000Y-5300000D03*
X5473599Y5633799D03*
X5300000Y14900000D03*
X4800000Y-11400000D03*
X-797359Y-4518657D03*
X-900000Y3200000D03*
X-1400000Y1700000D03*
X3200000Y13700000D03*
X-4036930Y4299687D03*
X-6600000Y-26900000D03*
X-10000000Y26700000D03*
X-2000000Y-19000000D03*
X3788864Y-4314947D03*
X9400000Y21400000D03*
X2996047Y436446D03*
X7158335Y-174683D03*
X4505966Y-19000000D03*
X-5314922Y14279532D03*
X10300000Y-30900000D03*
X-3325781Y4357038D03*
X-16500000Y-21100000D03*
X-16500000Y-24100000D03*
X9294034Y5100000D03*
X-6694034Y-19000000D03*
X-4400000Y11700000D03*
X-8100000Y12000000D03*
X-7600000Y-15600000D03*
X3040093Y-4243374D03*
X1200000Y-5300000D03*
X1200000Y-19000000D03*
X-10000000Y-26900000D03*
X16500000Y20900000D03*
X-300000Y-6789694D03*
X-205900Y3401192D03*
X16500000Y-24100000D03*
X1200000Y11400000D03*
X16500000Y-100000D03*
X10900000Y-25300000D03*
X-8400000Y-19000000D03*
X-16500000Y-9100000D03*
X-8000000Y16900000D03*
X-3500000Y5200000D03*
X-300000Y12989694D03*
X-5700000Y20100000D03*
X-10000000Y-6800000D03*
X8400000Y17000000D03*
X-2900000Y7700000D03*
X9200000Y-5300000D03*
X7300000Y-2500000D03*
X-10000000Y11400000D03*
X-2300000Y-15100000D03*
X1200000Y18800000D03*
X-16500000Y-12100000D03*
X9400000Y2500000D03*
X-16500000Y29900000D03*
X-1100000Y4200000D03*
X12397667Y-20599341D03*
X6018661Y3266360D03*
X5300000Y-11900000D03*
X-3800000Y-300000D03*
X10900000Y25000000D03*
X6200000Y-19000000D03*
X4200000Y-17000000D03*
X5506633Y2280845D03*
X16500000Y26900000D03*
X-1700000Y29100000D03*
X1200000Y-23700000D03*
X1509516Y-2955047D03*
X-16500000Y8900000D03*
X-8500000Y-21600000D03*
X-5000000Y-5300000D03*
X-267075Y2812391D03*
X3200000Y16900000D03*
X10900000Y26689694D03*
X-10000000Y9789694D03*
X-10000000Y-20600000D03*
X-16500000Y26900000D03*
X6200000Y-17700000D03*
X2900000Y5100000D03*
X-2200000Y3900000D03*
X-5900000Y-25600000D03*
X7284965Y452963D03*
%TO.N,/POWER*%
X2700000Y31100000D03*
X8300000Y24900000D03*
X500000Y31100000D03*
X-1700000Y31100000D03*
X-3900000Y31100000D03*
X14300000Y-22800000D03*
X8300000Y11200000D03*
X-7400000Y-25100000D03*
X14300000Y-20600000D03*
X-7400000Y-11400000D03*
X3800000Y-25100000D03*
X-2900000Y11200000D03*
X14300000Y-27200000D03*
X-2900000Y24900000D03*
X3800000Y-11400000D03*
X14300000Y-25000000D03*
%TD*%
D33*
%TO.N,/HV2*%
X-12200000Y-3500000D02*
X-11800000Y-3100000D01*
X-10000000Y-2550000D02*
X-10000000Y0D01*
X-9450000Y-3100000D02*
X-10000000Y-2550000D01*
X-9990000Y10000D02*
X-10000000Y0D01*
X-11800000Y-3100000D02*
X-9450000Y-3100000D01*
D34*
%TO.N,/POWER*%
X-7380000Y-25600000D02*
X-8310000Y-25600000D01*
X-8310000Y-25600000D02*
X-8500000Y-25410000D01*
X3820000Y-11900000D02*
X2890000Y-11900000D01*
X2890000Y-11900000D02*
X2700000Y-11710000D01*
X2700000Y31100000D02*
X-3900000Y31100000D01*
X-7380000Y-11900000D02*
X-8310000Y-11900000D01*
X-1990000Y25400000D02*
X-1800000Y25210000D01*
X14300000Y-27200000D02*
X14300000Y-20600000D01*
X9210000Y11700000D02*
X9400000Y11510000D01*
X-2920000Y25400000D02*
X-1990000Y25400000D01*
X2890000Y-25600000D02*
X2700000Y-25410000D01*
X9210000Y25400000D02*
X9400000Y25210000D01*
X8280000Y25400000D02*
X9210000Y25400000D01*
X-8310000Y-11900000D02*
X-8500000Y-11710000D01*
X-2920000Y11700000D02*
X-1990000Y11700000D01*
X3820000Y-25600000D02*
X2890000Y-25600000D01*
X8280000Y11700000D02*
X9210000Y11700000D01*
X-1990000Y11700000D02*
X-1800000Y11510000D01*
D35*
%TO.N,/CH2/Stage_1/50Ohm_1*%
X8780000Y-6600000D02*
X9027500Y-6847500D01*
X9027500Y-6847500D02*
X9027500Y-8357500D01*
X8980000Y-8310000D02*
X9027500Y-8357500D01*
%TO.N,/CH2/Stage_2/In*%
X7800000Y-16610000D02*
X7800000Y-17690000D01*
X7810000Y-17700000D02*
X7810000Y-20290000D01*
X7810000Y-20290000D02*
X7820000Y-20300000D01*
X7800000Y-17690000D02*
X7810000Y-17700000D01*
%TO.N,/CH2/Stage_1/50Ohm_2*%
X6820000Y-10635000D02*
X6785000Y-10600000D01*
X6820000Y-11900000D02*
X6820000Y-10635000D01*
X6827500Y-10557500D02*
X6785000Y-10600000D01*
X6827500Y-9657500D02*
X6827500Y-10557500D01*
%TO.N,/CH3/Stage_2/In*%
X4290000Y20090000D02*
X4280000Y20100000D01*
X4300000Y16410000D02*
X4300000Y17490000D01*
X4300000Y17490000D02*
X4290000Y17500000D01*
X4290000Y17500000D02*
X4290000Y20090000D01*
D33*
%TO.N,Net-(C15-Pad1)*%
X3815000Y-23095000D02*
X3800000Y-23080000D01*
X3815000Y-24300000D02*
X3815000Y-24195000D01*
X3815000Y-24195000D02*
X2700000Y-23080000D01*
X2700000Y-23080000D02*
X2700000Y-24390000D01*
X2700000Y-24390000D02*
X2700000Y-24180000D01*
X3725000Y-24390000D02*
X3815000Y-24300000D01*
X2700000Y-24390000D02*
X3725000Y-24390000D01*
X4900000Y-23080000D02*
X2700000Y-23080000D01*
X3815000Y-24300000D02*
X3815000Y-23095000D01*
X2700000Y-24180000D02*
X3800000Y-23080000D01*
D35*
%TO.N,/CH2/Stage_2/50Ohm_1*%
X9027500Y-20547500D02*
X9027500Y-22057500D01*
X8980000Y-22010000D02*
X9027500Y-22057500D01*
X8780000Y-20300000D02*
X9027500Y-20547500D01*
D33*
%TO.N,Net-(C11-Pad1)*%
X2700000Y-9380000D02*
X2700000Y-10690000D01*
X3800000Y-9590000D02*
X2700000Y-10690000D01*
X2700000Y-10690000D02*
X2790000Y-10600000D01*
X3800000Y-9380000D02*
X4900000Y-9380000D01*
X3800000Y-9380000D02*
X3800000Y-9590000D01*
X3800000Y-9380000D02*
X2700000Y-9380000D01*
X3815000Y-10600000D02*
X3815000Y-9395000D01*
X2790000Y-10600000D02*
X3815000Y-10600000D01*
X2700000Y-9485000D02*
X3815000Y-10600000D01*
X2700000Y-9380000D02*
X2700000Y-9485000D01*
X3815000Y-9395000D02*
X3800000Y-9380000D01*
D35*
%TO.N,/CH2/Stage_2/50Ohm_2*%
X6827500Y-23357500D02*
X6827500Y-24257500D01*
X6827500Y-24257500D02*
X6785000Y-24300000D01*
X6820000Y-24335000D02*
X6785000Y-24300000D01*
X6820000Y-25600000D02*
X6820000Y-24335000D01*
D33*
%TO.N,Net-(C21-Pad1)*%
X9400000Y9180000D02*
X9400000Y9285000D01*
X9400000Y10490000D02*
X9310000Y10400000D01*
X8285000Y9195000D02*
X8300000Y9180000D01*
X8285000Y10400000D02*
X8285000Y9195000D01*
X9310000Y10400000D02*
X8285000Y10400000D01*
X8300000Y9180000D02*
X8300000Y9390000D01*
X9400000Y9180000D02*
X9400000Y10490000D01*
X8300000Y9180000D02*
X7200000Y9180000D01*
X8300000Y9180000D02*
X9400000Y9180000D01*
X8300000Y9390000D02*
X9400000Y10490000D01*
X9400000Y9285000D02*
X8285000Y10400000D01*
D35*
%TO.N,/CH3/Stage_1/50Ohm_1*%
X3072500Y6647500D02*
X3072500Y8157500D01*
X3320000Y6400000D02*
X3072500Y6647500D01*
X3120000Y8110000D02*
X3072500Y8157500D01*
%TO.N,/CH4/Stage_2/In*%
X-6910000Y20090000D02*
X-6920000Y20100000D01*
X-6900000Y16410000D02*
X-6900000Y17490000D01*
X-6900000Y17490000D02*
X-6910000Y17500000D01*
X-6910000Y17500000D02*
X-6910000Y20090000D01*
%TO.N,/CH3/Stage_1/50Ohm_2*%
X5272500Y10357500D02*
X5315000Y10400000D01*
X5280000Y10435000D02*
X5315000Y10400000D01*
X5280000Y11700000D02*
X5280000Y10435000D01*
X5272500Y9457500D02*
X5272500Y10357500D01*
D33*
%TO.N,Net-(C27-Pad1)*%
X9400000Y23980000D02*
X8300000Y22880000D01*
X7200000Y22880000D02*
X9400000Y22880000D01*
X9400000Y24190000D02*
X9400000Y23980000D01*
X9400000Y22880000D02*
X9400000Y24190000D01*
X8285000Y23995000D02*
X9400000Y22880000D01*
X9400000Y24190000D02*
X8375000Y24190000D01*
X8375000Y24190000D02*
X8285000Y24100000D01*
X8285000Y24100000D02*
X8285000Y23995000D01*
X8285000Y22895000D02*
X8300000Y22880000D01*
X8285000Y24100000D02*
X8285000Y22895000D01*
D35*
%TO.N,/CH3/Stage_2/50Ohm_1*%
X3320000Y20100000D02*
X3072500Y20347500D01*
X3072500Y20347500D02*
X3072500Y21857500D01*
X3120000Y21810000D02*
X3072500Y21857500D01*
%TO.N,/CH3/Stage_2/50Ohm_2*%
X5272500Y24057500D02*
X5315000Y24100000D01*
X5280000Y24135000D02*
X5315000Y24100000D01*
X5272500Y23157500D02*
X5272500Y24057500D01*
X5280000Y25400000D02*
X5280000Y24135000D01*
%TO.N,/CH1/Stage_2/In*%
X-3400000Y-16610000D02*
X-3400000Y-17690000D01*
X-3390000Y-17700000D02*
X-3390000Y-20290000D01*
X-3390000Y-20290000D02*
X-3380000Y-20300000D01*
X-3400000Y-17690000D02*
X-3390000Y-17700000D01*
D33*
%TO.N,Net-(C33-Pad1)*%
X-2900000Y9180000D02*
X-2900000Y9390000D01*
X-1890000Y10400000D02*
X-2915000Y10400000D01*
X-2900000Y9390000D02*
X-1800000Y10490000D01*
X-1800000Y9180000D02*
X-1800000Y10490000D01*
X-1800000Y9285000D02*
X-2915000Y10400000D01*
X-2915000Y10400000D02*
X-2915000Y9195000D01*
X-1800000Y9180000D02*
X-1800000Y9285000D01*
X-2915000Y9195000D02*
X-2900000Y9180000D01*
X-1800000Y10490000D02*
X-1890000Y10400000D01*
X-2900000Y9180000D02*
X-4000000Y9180000D01*
X-2900000Y9180000D02*
X-1800000Y9180000D01*
%TO.N,/HV1*%
X-12700000Y-31000000D02*
X-12700000Y-26700000D01*
X-12700000Y-26700000D02*
X-12100000Y-26100000D01*
X-12100000Y-26100000D02*
X-12100000Y-5600000D01*
X-12100000Y-5600000D02*
X-12200000Y-5500000D01*
D35*
%TO.N,/CH1/Stage_1/Out*%
X-3390000Y-15580000D02*
X-3400000Y-15590000D01*
X-3420000Y-14470000D02*
X-3390000Y-14500000D01*
X-3420000Y-11900000D02*
X-3420000Y-14470000D01*
X-3390000Y-14500000D02*
X-3390000Y-15580000D01*
%TO.N,/CH2/Stage_1/Out*%
X7810000Y-14500000D02*
X7810000Y-15580000D01*
X7780000Y-14470000D02*
X7810000Y-14500000D01*
X7810000Y-15580000D02*
X7800000Y-15590000D01*
X7780000Y-11900000D02*
X7780000Y-14470000D01*
%TO.N,/CH3/Stage_1/Out*%
X4290000Y14300000D02*
X4290000Y15380000D01*
X4320000Y14270000D02*
X4290000Y14300000D01*
X4290000Y15380000D02*
X4300000Y15390000D01*
X4320000Y11700000D02*
X4320000Y14270000D01*
%TO.N,/CH4/Stage_1/Out*%
X-6910000Y14300000D02*
X-6910000Y15380000D01*
X-6880000Y14270000D02*
X-6910000Y14300000D01*
X-6880000Y11700000D02*
X-6880000Y14270000D01*
X-6910000Y15380000D02*
X-6900000Y15390000D01*
%TO.N,/CH4/Stage_1/50Ohm_1*%
X-8127500Y6647500D02*
X-8127500Y8157500D01*
X-7880000Y6400000D02*
X-8127500Y6647500D01*
X-8080000Y8110000D02*
X-8127500Y8157500D01*
%TO.N,/CH4/Stage_1/50Ohm_2*%
X-5927500Y9457500D02*
X-5927500Y10357500D01*
X-5920000Y10435000D02*
X-5885000Y10400000D01*
X-5920000Y11700000D02*
X-5920000Y10435000D01*
X-5927500Y10357500D02*
X-5885000Y10400000D01*
D33*
%TO.N,Net-(C39-Pad1)*%
X-1800000Y24190000D02*
X-1800000Y23980000D01*
X-2915000Y22895000D02*
X-2900000Y22880000D01*
X-1800000Y24190000D02*
X-2825000Y24190000D01*
X-2825000Y24190000D02*
X-2915000Y24100000D01*
X-2915000Y24100000D02*
X-2915000Y22895000D01*
X-1800000Y22880000D02*
X-1800000Y24190000D01*
X-2915000Y24100000D02*
X-2915000Y23995000D01*
X-4000000Y22880000D02*
X-1800000Y22880000D01*
X-2915000Y23995000D02*
X-1800000Y22880000D01*
X-1800000Y23980000D02*
X-2900000Y22880000D01*
D35*
%TO.N,/CH4/Stage_2/50Ohm_1*%
X-8080000Y21810000D02*
X-8127500Y21857500D01*
X-8127500Y20347500D02*
X-8127500Y21857500D01*
X-7880000Y20100000D02*
X-8127500Y20347500D01*
%TO.N,/CH4/Stage_2/50Ohm_2*%
X-5920000Y25400000D02*
X-5920000Y24135000D01*
X-5927500Y24057500D02*
X-5885000Y24100000D01*
X-5920000Y24135000D02*
X-5885000Y24100000D01*
X-5927500Y23157500D02*
X-5927500Y24057500D01*
D33*
%TO.N,Net-(C45-Pad1)*%
X-7400000Y-9590000D02*
X-8500000Y-10690000D01*
X-8500000Y-9380000D02*
X-8500000Y-9485000D01*
X-8410000Y-10600000D02*
X-7385000Y-10600000D01*
X-8500000Y-9380000D02*
X-8500000Y-10690000D01*
X-8500000Y-10690000D02*
X-8410000Y-10600000D01*
X-7385000Y-9395000D02*
X-7400000Y-9380000D01*
X-7400000Y-9380000D02*
X-8500000Y-9380000D01*
X-8500000Y-9485000D02*
X-7385000Y-10600000D01*
X-7400000Y-9380000D02*
X-6300000Y-9380000D01*
X-7385000Y-10600000D02*
X-7385000Y-9395000D01*
X-7400000Y-9380000D02*
X-7400000Y-9590000D01*
D35*
%TO.N,/CH1/Stage_1/50Ohm_1*%
X-2420000Y-6600000D02*
X-2172500Y-6847500D01*
X-2172500Y-6847500D02*
X-2172500Y-8357500D01*
X-2220000Y-8310000D02*
X-2172500Y-8357500D01*
%TO.N,/CH1/Stage_1/50Ohm_2*%
X-4372500Y-9657500D02*
X-4372500Y-10557500D01*
X-4380000Y-10635000D02*
X-4415000Y-10600000D01*
X-4372500Y-10557500D02*
X-4415000Y-10600000D01*
X-4380000Y-11900000D02*
X-4380000Y-10635000D01*
D33*
%TO.N,Net-(C51-Pad1)*%
X-8500000Y-24390000D02*
X-8500000Y-24180000D01*
X-7475000Y-24390000D02*
X-7385000Y-24300000D01*
X-7385000Y-24300000D02*
X-7385000Y-23095000D01*
X-8500000Y-24390000D02*
X-7475000Y-24390000D01*
X-6300000Y-23080000D02*
X-8500000Y-23080000D01*
X-8500000Y-24180000D02*
X-7400000Y-23080000D01*
X-7385000Y-24195000D02*
X-8500000Y-23080000D01*
X-7385000Y-24300000D02*
X-7385000Y-24195000D01*
X-8500000Y-23080000D02*
X-8500000Y-24390000D01*
X-7385000Y-23095000D02*
X-7400000Y-23080000D01*
D35*
%TO.N,/CH1/Stage_2/50Ohm_1*%
X-2172500Y-20547500D02*
X-2172500Y-22057500D01*
X-2220000Y-22010000D02*
X-2172500Y-22057500D01*
X-2420000Y-20300000D02*
X-2172500Y-20547500D01*
%TO.N,/CH1/Stage_2/50Ohm_2*%
X-4380000Y-25600000D02*
X-4380000Y-24335000D01*
X-4372500Y-23357500D02*
X-4372500Y-24257500D01*
X-4380000Y-24335000D02*
X-4415000Y-24300000D01*
X-4372500Y-24257500D02*
X-4415000Y-24300000D01*
D33*
%TO.N,Net-(L1-Pad2)*%
X5815000Y-10600000D02*
X4785000Y-10600000D01*
%TO.N,Net-(L3-Pad2)*%
X5815000Y-24300000D02*
X4785000Y-24300000D01*
%TO.N,Net-(L5-Pad2)*%
X6285000Y10400000D02*
X7315000Y10400000D01*
%TO.N,Net-(L7-Pad2)*%
X6285000Y24100000D02*
X7315000Y24100000D01*
%TO.N,Net-(L10-Pad1)*%
X-4915000Y10400000D02*
X-3885000Y10400000D01*
%TO.N,Net-(L11-Pad2)*%
X-4915000Y24100000D02*
X-3885000Y24100000D01*
%TO.N,Net-(L13-Pad2)*%
X-5385000Y-10600000D02*
X-6415000Y-10600000D01*
%TO.N,Net-(L15-Pad2)*%
X-5385000Y-24300000D02*
X-6415000Y-24300000D01*
D35*
%TO.N,/CH2/In*%
X7820000Y-4820000D02*
X5000000Y-2000000D01*
X5000000Y-2000000D02*
X3500000Y-2000000D01*
X7820000Y-6600000D02*
X7820000Y-4820000D01*
%TO.N,/CH2/Out*%
X7780000Y-27620000D02*
X6600000Y-28800000D01*
X6600000Y-28800000D02*
X6600000Y-31000000D01*
X7780000Y-25600000D02*
X7780000Y-27620000D01*
%TO.N,/CH3/In*%
X3090000Y2500000D02*
X2000000Y2500000D01*
X4280000Y4110000D02*
X4490000Y3900000D01*
X4280000Y6400000D02*
X4280000Y4110000D01*
X4490000Y3900000D02*
X3090000Y2500000D01*
D36*
X2000000Y2500000D02*
X3010000Y2500000D01*
D35*
%TO.N,/CH3/Out*%
X4320000Y25400000D02*
X4320000Y27320000D01*
X4320000Y27320000D02*
X5700000Y28700000D01*
X5700000Y28700000D02*
X5700000Y31000000D01*
%TO.N,/CH4/In*%
X-6920000Y4520000D02*
X-4400000Y2000000D01*
X-6920000Y6400000D02*
X-6920000Y4520000D01*
X-4400000Y2000000D02*
X-3500000Y2000000D01*
D36*
X-3500000Y2000000D02*
X-3820001Y2320001D01*
D35*
%TO.N,/CH4/Out*%
X-6880000Y25400000D02*
X-6880000Y30980000D01*
X-6880000Y30980000D02*
X-6900000Y31000000D01*
%TO.N,/CH1/In*%
X-3380000Y-4310000D02*
X-3590000Y-4100000D01*
X-3380000Y-6600000D02*
X-3380000Y-4310000D01*
X-3590000Y-4100000D02*
X-3590000Y-4090000D01*
X-3590000Y-4090000D02*
X-2000000Y-2500000D01*
%TO.N,/CH1/Out*%
X-3420000Y-25600000D02*
X-3420000Y-30980000D01*
X-3420000Y-30980000D02*
X-3400000Y-31000000D01*
%TD*%
%TA.AperFunction,Conductor*%
%TO.N,GND*%
G36*
X18981987Y32881987D02*
G01*
X19000000Y32838500D01*
X19000000Y-32838500D01*
X18981987Y-32881987D01*
X18938500Y-32900000D01*
X-18938500Y-32900000D01*
X-18981987Y-32881987D01*
X-19000000Y-32838500D01*
X-19000000Y-31000005D01*
X-14325511Y-31000005D01*
X-14309237Y-31206779D01*
X-14305498Y-31254286D01*
X-14245953Y-31502311D01*
X-14148341Y-31737967D01*
X-14015066Y-31955451D01*
X-13849410Y-32149410D01*
X-13655451Y-32315066D01*
X-13437967Y-32448341D01*
X-13202311Y-32545953D01*
X-12954286Y-32605498D01*
X-12954281Y-32605498D01*
X-12954277Y-32605499D01*
X-12700005Y-32625511D01*
X-12700000Y-32625511D01*
X-12699995Y-32625511D01*
X-12445722Y-32605499D01*
X-12445716Y-32605498D01*
X-12445714Y-32605498D01*
X-12197689Y-32545953D01*
X-11962033Y-32448341D01*
X-11924484Y-32425330D01*
X-11744551Y-32315068D01*
X-11744548Y-32315065D01*
X-11550590Y-32149410D01*
X-11384934Y-31955451D01*
X-11384931Y-31955448D01*
X-11251660Y-31737969D01*
X-11251659Y-31737967D01*
X-11154047Y-31502311D01*
X-11154046Y-31502309D01*
X-11154045Y-31502306D01*
X-11094501Y-31254284D01*
X-11094500Y-31254277D01*
X-11074489Y-31000005D01*
X-11074489Y-30999994D01*
X-11094500Y-30745722D01*
X-11094501Y-30745715D01*
X-11154045Y-30497693D01*
X-11154047Y-30497689D01*
X-11251660Y-30262030D01*
X-11384931Y-30044551D01*
X-11384934Y-30044548D01*
X-11550590Y-29850589D01*
X-11552942Y-29848581D01*
X-11574310Y-29806641D01*
X-11574500Y-29801817D01*
X-11574500Y-27191671D01*
X-11556487Y-27148184D01*
X-11374235Y-26965932D01*
X-11366423Y-26959324D01*
X-11364925Y-26958257D01*
X-11359601Y-26954466D01*
X-11294892Y-26886601D01*
X-11294381Y-26886078D01*
X-11266239Y-26857936D01*
X-11258399Y-26848442D01*
X-11256943Y-26846801D01*
X-11211274Y-26798904D01*
X-11190404Y-26766432D01*
X-11188246Y-26763477D01*
X-11169935Y-26741299D01*
X-11163678Y-26733721D01*
X-11131965Y-26675643D01*
X-11130845Y-26673754D01*
X-11130416Y-26673087D01*
X-11095065Y-26618080D01*
X-11095064Y-26618078D01*
X-11095062Y-26618075D01*
X-11080721Y-26582253D01*
X-11079162Y-26578942D01*
X-11060665Y-26545067D01*
X-11040515Y-26482035D01*
X-11039773Y-26479970D01*
X-11015178Y-26418532D01*
X-11015176Y-26418527D01*
X-11007873Y-26380634D01*
X-11006968Y-26377089D01*
X-10995219Y-26340333D01*
X-10987362Y-26274628D01*
X-10987024Y-26272460D01*
X-10974499Y-26207471D01*
X-10974499Y-26168873D01*
X-10974281Y-26165220D01*
X-10969701Y-26126912D01*
X-10969701Y-26126901D01*
X-10974037Y-26066279D01*
X-10974422Y-26060883D01*
X-10974500Y-26058708D01*
X-10974500Y-25584316D01*
X-9020500Y-25584316D01*
X-9014068Y-25633173D01*
X-8964065Y-25740404D01*
X-8880404Y-25824065D01*
X-8773173Y-25874068D01*
X-8724316Y-25880500D01*
X-8692136Y-25880500D01*
X-8648649Y-25898513D01*
X-8644054Y-25903655D01*
X-8619879Y-25933970D01*
X-8582838Y-25959224D01*
X-8571200Y-25967158D01*
X-8570284Y-25967807D01*
X-8522882Y-26002793D01*
X-8522426Y-26002952D01*
X-8508077Y-26010196D01*
X-8507673Y-26010472D01*
X-8451303Y-26027858D01*
X-8450346Y-26028173D01*
X-8394699Y-26047646D01*
X-8394213Y-26047664D01*
X-8378366Y-26050357D01*
X-8377903Y-26050500D01*
X-8377902Y-26050500D01*
X-8319017Y-26050500D01*
X-8317867Y-26050522D01*
X-8298729Y-26051237D01*
X-8258990Y-26052725D01*
X-8258659Y-26052636D01*
X-8258504Y-26052595D01*
X-8242590Y-26050500D01*
X-7737792Y-26050500D01*
X-7711801Y-26056261D01*
X-7609487Y-26103972D01*
X-7559901Y-26110500D01*
X-7200100Y-26110499D01*
X-7200094Y-26110498D01*
X-7200091Y-26110498D01*
X-7150513Y-26103972D01*
X-7150511Y-26103971D01*
X-7041684Y-26053224D01*
X-6956775Y-25968315D01*
X-6906027Y-25859485D01*
X-6899500Y-25809906D01*
X-6899500Y-25390104D01*
X-6899501Y-25390091D01*
X-6906027Y-25340513D01*
X-6906028Y-25340511D01*
X-6954401Y-25236776D01*
X-6959537Y-25202033D01*
X-6944867Y-25100000D01*
X-6944867Y-25099999D01*
X-6963303Y-24971773D01*
X-6963304Y-24971769D01*
X-7017116Y-24853939D01*
X-7017118Y-24853936D01*
X-7030537Y-24838449D01*
X-7045399Y-24793787D01*
X-7027543Y-24754691D01*
X-6950366Y-24677514D01*
X-6950055Y-24677078D01*
X-6949722Y-24676870D01*
X-6946760Y-24673908D01*
X-6946074Y-24674593D01*
X-6910128Y-24652150D01*
X-6864268Y-24662755D01*
X-6849945Y-24677078D01*
X-6849637Y-24677507D01*
X-6849636Y-24677511D01*
X-6767511Y-24759636D01*
X-6663170Y-24810645D01*
X-6595528Y-24820500D01*
X-6595522Y-24820500D01*
X-6234478Y-24820500D01*
X-6234472Y-24820500D01*
X-6166830Y-24810645D01*
X-6062489Y-24759636D01*
X-6062488Y-24759635D01*
X-6062487Y-24759635D01*
X-5980363Y-24677510D01*
X-5971798Y-24659989D01*
X-5936516Y-24628832D01*
X-5916547Y-24625500D01*
X-5883453Y-24625500D01*
X-5839966Y-24643513D01*
X-5828202Y-24659988D01*
X-5819636Y-24677511D01*
X-5737511Y-24759636D01*
X-5633170Y-24810645D01*
X-5565528Y-24820500D01*
X-5292000Y-24820500D01*
X-5248513Y-24838513D01*
X-5230500Y-24882000D01*
X-5230500Y-25646120D01*
X-5230499Y-25646122D01*
X-5220246Y-25740404D01*
X-5215514Y-25783910D01*
X-5156444Y-25959221D01*
X-5061070Y-26117736D01*
X-5058925Y-26119999D01*
X-5050640Y-26130981D01*
X-5030117Y-26165687D01*
X-4915687Y-26280117D01*
X-4776395Y-26362494D01*
X-4732302Y-26375303D01*
X-4729548Y-26376249D01*
X-4608875Y-26424331D01*
X-4426317Y-26454260D01*
X-4335327Y-26449326D01*
X-4290931Y-26464958D01*
X-4270590Y-26507406D01*
X-4270500Y-26510736D01*
X-4270500Y-30272780D01*
X-4282922Y-30309842D01*
X-4356746Y-30407601D01*
X-4356747Y-30407604D01*
X-4356749Y-30407606D01*
X-4356750Y-30407609D01*
X-4449310Y-30593491D01*
X-4449310Y-30593492D01*
X-4449311Y-30593495D01*
X-4506140Y-30793227D01*
X-4525300Y-31000000D01*
X-4506140Y-31206773D01*
X-4449311Y-31406505D01*
X-4356749Y-31592394D01*
X-4231607Y-31758110D01*
X-4078145Y-31898009D01*
X-3901589Y-32007327D01*
X-3707953Y-32082342D01*
X-3503830Y-32120500D01*
X-3503827Y-32120500D01*
X-3296173Y-32120500D01*
X-3296170Y-32120500D01*
X-3092047Y-32082342D01*
X-2898411Y-32007327D01*
X-2721855Y-31898009D01*
X-2721853Y-31898008D01*
X-2568392Y-31758109D01*
X-2443253Y-31592398D01*
X-2443249Y-31592390D01*
X-2350689Y-31406508D01*
X-2350689Y-31406506D01*
X-2293861Y-31206779D01*
X-2293860Y-31206773D01*
X-2274700Y-31000000D01*
X-2293860Y-30793226D01*
X-2293861Y-30793220D01*
X-2350689Y-30593493D01*
X-2350689Y-30593491D01*
X-2443249Y-30407609D01*
X-2443254Y-30407601D01*
X-2557078Y-30256872D01*
X-2569500Y-30219810D01*
X-2569500Y-25584322D01*
X2179500Y-25584322D01*
X2185931Y-25633171D01*
X2235934Y-25740403D01*
X2235934Y-25740404D01*
X2235935Y-25740404D01*
X2319596Y-25824065D01*
X2426827Y-25874068D01*
X2475684Y-25880500D01*
X2507863Y-25880500D01*
X2551350Y-25898513D01*
X2555945Y-25903655D01*
X2580116Y-25933964D01*
X2580121Y-25933970D01*
X2628821Y-25967173D01*
X2629731Y-25967820D01*
X2645560Y-25979502D01*
X2677118Y-26002793D01*
X2677580Y-26002954D01*
X2691918Y-26010193D01*
X2692325Y-26010471D01*
X2692327Y-26010472D01*
X2748626Y-26027837D01*
X2749673Y-26028180D01*
X2805301Y-26047646D01*
X2805786Y-26047664D01*
X2821624Y-26050353D01*
X2822098Y-26050500D01*
X2880983Y-26050500D01*
X2882133Y-26050522D01*
X2901730Y-26051254D01*
X2941010Y-26052725D01*
X2941383Y-26052624D01*
X2941496Y-26052595D01*
X2957410Y-26050500D01*
X3462208Y-26050500D01*
X3488198Y-26056261D01*
X3590513Y-26103972D01*
X3640099Y-26110500D01*
X3999900Y-26110499D01*
X4049487Y-26103972D01*
X4158316Y-26053224D01*
X4243224Y-25968316D01*
X4293972Y-25859487D01*
X4300500Y-25809901D01*
X4300499Y-25390100D01*
X4293972Y-25340513D01*
X4245598Y-25236775D01*
X4240462Y-25202032D01*
X4255133Y-25100000D01*
X4236697Y-24971774D01*
X4182882Y-24853937D01*
X4169463Y-24838451D01*
X4154600Y-24793790D01*
X4172456Y-24754691D01*
X4249633Y-24677514D01*
X4249636Y-24677511D01*
X4249637Y-24677507D01*
X4249945Y-24677078D01*
X4250277Y-24676870D01*
X4253240Y-24673908D01*
X4253925Y-24674593D01*
X4289872Y-24652150D01*
X4335732Y-24662755D01*
X4350055Y-24677078D01*
X4350366Y-24677514D01*
X4432487Y-24759635D01*
X4432488Y-24759635D01*
X4432489Y-24759636D01*
X4536830Y-24810645D01*
X4604472Y-24820500D01*
X4604478Y-24820500D01*
X4965522Y-24820500D01*
X4965528Y-24820500D01*
X5033170Y-24810645D01*
X5137511Y-24759636D01*
X5219636Y-24677511D01*
X5228202Y-24659988D01*
X5263484Y-24628832D01*
X5283453Y-24625500D01*
X5316547Y-24625500D01*
X5360034Y-24643513D01*
X5371798Y-24659989D01*
X5380363Y-24677510D01*
X5462487Y-24759635D01*
X5462488Y-24759635D01*
X5462489Y-24759636D01*
X5566830Y-24810645D01*
X5634472Y-24820500D01*
X5908000Y-24820500D01*
X5951487Y-24838513D01*
X5969500Y-24882000D01*
X5969500Y-25646122D01*
X5984484Y-25783904D01*
X6041258Y-25952403D01*
X6043556Y-25959221D01*
X6138930Y-26117736D01*
X6141073Y-26119998D01*
X6149360Y-26130985D01*
X6169883Y-26165687D01*
X6284313Y-26280117D01*
X6423605Y-26362494D01*
X6467690Y-26375301D01*
X6470456Y-26376251D01*
X6591125Y-26424331D01*
X6773683Y-26454260D01*
X6864672Y-26449326D01*
X6909069Y-26464958D01*
X6929410Y-26507406D01*
X6929500Y-26510736D01*
X6929500Y-27242236D01*
X6911487Y-27285723D01*
X6023928Y-28173281D01*
X6022091Y-28174975D01*
X5978899Y-28211663D01*
X5930158Y-28275778D01*
X5929646Y-28276434D01*
X5879163Y-28339238D01*
X5879157Y-28339247D01*
X5876577Y-28344448D01*
X5870453Y-28354321D01*
X5866946Y-28358935D01*
X5866942Y-28358942D01*
X5833110Y-28432068D01*
X5832750Y-28432818D01*
X5796963Y-28504978D01*
X5796962Y-28504983D01*
X5795565Y-28510599D01*
X5791703Y-28521568D01*
X5789269Y-28526828D01*
X5789268Y-28526833D01*
X5771947Y-28605523D01*
X5771756Y-28606334D01*
X5752315Y-28684504D01*
X5752315Y-28684506D01*
X5752158Y-28690300D01*
X5750744Y-28701844D01*
X5749500Y-28707498D01*
X5749500Y-28788067D01*
X5749489Y-28788849D01*
X5748723Y-28817142D01*
X5747306Y-28869421D01*
X5747307Y-28869435D01*
X5748398Y-28875117D01*
X5749500Y-28886706D01*
X5749500Y-30246295D01*
X5737078Y-30283357D01*
X5643254Y-30407601D01*
X5643249Y-30407609D01*
X5550689Y-30593491D01*
X5550689Y-30593493D01*
X5493861Y-30793220D01*
X5493860Y-30793226D01*
X5474700Y-31000000D01*
X5493860Y-31206773D01*
X5493861Y-31206779D01*
X5550689Y-31406506D01*
X5550689Y-31406508D01*
X5643249Y-31592390D01*
X5643253Y-31592398D01*
X5768392Y-31758109D01*
X5921853Y-31898008D01*
X5921855Y-31898009D01*
X6098411Y-32007327D01*
X6292047Y-32082342D01*
X6496170Y-32120500D01*
X6496173Y-32120500D01*
X6703827Y-32120500D01*
X6703830Y-32120500D01*
X6907953Y-32082342D01*
X7101589Y-32007327D01*
X7278145Y-31898009D01*
X7431607Y-31758110D01*
X7556749Y-31592394D01*
X7649311Y-31406505D01*
X7706140Y-31206773D01*
X7725300Y-31000002D01*
X13474308Y-31000002D01*
X13495009Y-31183732D01*
X13503074Y-31206779D01*
X13556077Y-31358254D01*
X13654448Y-31514811D01*
X13785189Y-31645552D01*
X13941746Y-31743923D01*
X14116266Y-31804990D01*
X14162199Y-31810165D01*
X14299997Y-31825692D01*
X14300000Y-31825692D01*
X14300003Y-31825692D01*
X14410240Y-31813270D01*
X14483734Y-31804990D01*
X14658254Y-31743923D01*
X14814811Y-31645552D01*
X14945552Y-31514811D01*
X15043923Y-31358254D01*
X15104990Y-31183734D01*
X15115341Y-31091866D01*
X15125692Y-31000002D01*
X15125692Y-30999997D01*
X15104990Y-30816267D01*
X15096928Y-30793226D01*
X15043923Y-30641746D01*
X14945552Y-30485189D01*
X14814811Y-30354448D01*
X14658254Y-30256077D01*
X14554609Y-30219810D01*
X14483732Y-30195009D01*
X14300003Y-30174308D01*
X14299997Y-30174308D01*
X14116267Y-30195009D01*
X13941748Y-30256076D01*
X13941744Y-30256078D01*
X13785187Y-30354449D01*
X13654449Y-30485187D01*
X13556078Y-30641744D01*
X13556076Y-30641748D01*
X13495009Y-30816267D01*
X13474308Y-30999997D01*
X13474308Y-31000002D01*
X7725300Y-31000002D01*
X7725300Y-31000000D01*
X7706140Y-30793227D01*
X7649311Y-30593495D01*
X7649310Y-30593492D01*
X7649310Y-30593491D01*
X7556750Y-30407609D01*
X7556749Y-30407606D01*
X7482922Y-30309842D01*
X7462922Y-30283357D01*
X7450500Y-30246295D01*
X7450500Y-29177762D01*
X7468512Y-29134276D01*
X8356082Y-28246705D01*
X8357885Y-28245042D01*
X8401100Y-28208337D01*
X8449867Y-28144183D01*
X8450300Y-28143628D01*
X8500842Y-28080754D01*
X8503415Y-28075564D01*
X8509554Y-28065667D01*
X8513054Y-28061064D01*
X8513054Y-28061063D01*
X8513056Y-28061061D01*
X8546888Y-27987931D01*
X8547221Y-27987234D01*
X8583036Y-27915021D01*
X8584429Y-27909419D01*
X8588301Y-27898421D01*
X8590730Y-27893172D01*
X8590730Y-27893170D01*
X8590732Y-27893167D01*
X8608074Y-27814374D01*
X8608225Y-27813735D01*
X8627684Y-27735495D01*
X8627840Y-27729697D01*
X8629254Y-27718152D01*
X8630500Y-27712497D01*
X8630500Y-27631931D01*
X8630510Y-27631150D01*
X8632693Y-27550568D01*
X8631601Y-27544881D01*
X8630500Y-27533291D01*
X8630500Y-26629273D01*
X13599500Y-26629273D01*
X13602353Y-26659693D01*
X13602354Y-26659701D01*
X13630907Y-26741299D01*
X13647207Y-26787882D01*
X13727850Y-26897150D01*
X13824519Y-26968495D01*
X13848812Y-27008811D01*
X13849499Y-27017977D01*
X13849500Y-27163378D01*
X13848874Y-27172130D01*
X13844867Y-27199999D01*
X13844867Y-27200000D01*
X13849110Y-27229510D01*
X13849336Y-27231584D01*
X13849499Y-27233758D01*
X13854288Y-27265536D01*
X13863302Y-27328223D01*
X13863609Y-27329267D01*
X13864509Y-27333340D01*
X13864651Y-27334286D01*
X13864652Y-27334287D01*
X13891984Y-27391044D01*
X13892250Y-27391612D01*
X13917116Y-27446060D01*
X13919492Y-27449757D01*
X13919139Y-27449983D01*
X13921915Y-27454208D01*
X13923575Y-27456643D01*
X13964205Y-27500431D01*
X13964903Y-27501210D01*
X14001950Y-27543967D01*
X14001971Y-27543980D01*
X14013797Y-27553880D01*
X14015945Y-27556194D01*
X14064861Y-27584435D01*
X14066035Y-27585151D01*
X14110931Y-27614004D01*
X14114342Y-27615005D01*
X14127766Y-27620753D01*
X14130503Y-27622334D01*
X14133556Y-27624097D01*
X14157736Y-27629615D01*
X14185414Y-27635932D01*
X14187189Y-27636394D01*
X14235228Y-27650500D01*
X14242309Y-27650500D01*
X14255995Y-27652042D01*
X14265954Y-27654315D01*
X14315712Y-27650585D01*
X14318011Y-27650500D01*
X14364772Y-27650500D01*
X14374951Y-27647510D01*
X14387682Y-27645191D01*
X14401378Y-27644166D01*
X14421165Y-27636400D01*
X14444775Y-27627134D01*
X14447344Y-27626254D01*
X14489069Y-27614004D01*
X14500948Y-27606368D01*
X14511737Y-27600853D01*
X14527791Y-27594553D01*
X14527790Y-27594553D01*
X14527794Y-27594552D01*
X14561683Y-27567524D01*
X14564201Y-27565718D01*
X14598049Y-27543967D01*
X14609603Y-27530631D01*
X14617730Y-27522828D01*
X14633970Y-27509879D01*
X14656542Y-27476769D01*
X14658693Y-27473977D01*
X14682882Y-27446063D01*
X14691666Y-27426826D01*
X14696789Y-27417739D01*
X14710472Y-27397673D01*
X14721314Y-27362519D01*
X14722714Y-27358839D01*
X14736697Y-27328226D01*
X14740205Y-27303821D01*
X14742311Y-27294450D01*
X14750499Y-27267905D01*
X14750500Y-27267901D01*
X14750500Y-27236621D01*
X14751126Y-27227868D01*
X14755133Y-27199999D01*
X14751126Y-27172130D01*
X14750500Y-27163378D01*
X14750500Y-27148184D01*
X14750500Y-27017974D01*
X14768512Y-26974490D01*
X14775469Y-26968503D01*
X14872150Y-26897150D01*
X14952793Y-26787882D01*
X14997646Y-26659699D01*
X15000327Y-26631115D01*
X15000500Y-26629273D01*
X15000500Y-25570726D01*
X14997646Y-25540306D01*
X14997646Y-25540301D01*
X14952793Y-25412118D01*
X14872150Y-25302850D01*
X14775479Y-25231504D01*
X14751187Y-25191188D01*
X14750500Y-25182022D01*
X14750500Y-25036621D01*
X14751126Y-25027868D01*
X14755133Y-24999999D01*
X14751126Y-24972130D01*
X14750500Y-24963378D01*
X14750500Y-24919883D01*
X14750500Y-24817974D01*
X14768512Y-24774490D01*
X14775469Y-24768503D01*
X14872150Y-24697150D01*
X14952793Y-24587882D01*
X14997646Y-24459699D01*
X14998963Y-24445653D01*
X15000500Y-24429273D01*
X15000500Y-23370726D01*
X14997646Y-23340306D01*
X14997646Y-23340301D01*
X14952793Y-23212118D01*
X14872150Y-23102850D01*
X14775479Y-23031504D01*
X14751187Y-22991188D01*
X14750500Y-22982022D01*
X14750500Y-22836621D01*
X14751126Y-22827868D01*
X14754905Y-22801589D01*
X14755133Y-22800000D01*
X14751126Y-22772130D01*
X14750500Y-22763378D01*
X14750500Y-22736487D01*
X14750500Y-22617974D01*
X14768512Y-22574490D01*
X14775469Y-22568503D01*
X14872150Y-22497150D01*
X14952793Y-22387882D01*
X14997646Y-22259699D01*
X14998963Y-22245653D01*
X15000500Y-22229273D01*
X15000500Y-21170726D01*
X14997646Y-21140306D01*
X14997646Y-21140301D01*
X14952793Y-21012118D01*
X14872150Y-20902850D01*
X14775479Y-20831504D01*
X14751187Y-20791188D01*
X14750500Y-20782022D01*
X14750500Y-20636621D01*
X14751126Y-20627868D01*
X14755133Y-20600000D01*
X14750887Y-20570471D01*
X14750662Y-20568402D01*
X14750500Y-20566250D01*
X14750500Y-20566238D01*
X14745703Y-20534414D01*
X14736697Y-20471774D01*
X14736692Y-20471763D01*
X14736392Y-20470740D01*
X14735489Y-20466651D01*
X14735348Y-20465713D01*
X14708005Y-20408935D01*
X14707739Y-20408367D01*
X14704980Y-20402326D01*
X14687292Y-20363593D01*
X14682881Y-20353934D01*
X14680506Y-20350239D01*
X14680859Y-20350011D01*
X14678138Y-20345872D01*
X14676424Y-20343357D01*
X14635794Y-20299568D01*
X14635096Y-20298789D01*
X14627585Y-20290121D01*
X14613309Y-20273644D01*
X14598050Y-20256034D01*
X14598049Y-20256033D01*
X14598022Y-20256016D01*
X14586200Y-20246118D01*
X14584055Y-20243806D01*
X14535154Y-20215572D01*
X14533946Y-20214836D01*
X14509528Y-20199144D01*
X14489070Y-20185996D01*
X14485653Y-20184993D01*
X14472235Y-20179247D01*
X14470612Y-20178310D01*
X14466445Y-20175904D01*
X14414590Y-20164068D01*
X14412785Y-20163597D01*
X14364772Y-20149500D01*
X14357691Y-20149500D01*
X14344005Y-20147958D01*
X14334048Y-20145685D01*
X14334046Y-20145685D01*
X14284288Y-20149414D01*
X14281989Y-20149500D01*
X14235223Y-20149500D01*
X14225047Y-20152488D01*
X14212325Y-20154806D01*
X14198621Y-20155833D01*
X14198620Y-20155833D01*
X14155236Y-20172861D01*
X14152664Y-20173741D01*
X14110929Y-20185996D01*
X14099040Y-20193636D01*
X14088266Y-20199144D01*
X14072205Y-20205447D01*
X14072203Y-20205449D01*
X14038327Y-20232464D01*
X14035779Y-20234291D01*
X14001952Y-20256031D01*
X13990395Y-20269368D01*
X13982266Y-20277172D01*
X13966031Y-20290119D01*
X13943465Y-20323217D01*
X13941296Y-20326033D01*
X13917117Y-20353938D01*
X13908333Y-20373171D01*
X13903207Y-20382261D01*
X13889529Y-20402323D01*
X13889528Y-20402326D01*
X13878690Y-20437460D01*
X13877276Y-20441172D01*
X13863303Y-20471770D01*
X13859793Y-20496181D01*
X13857688Y-20505550D01*
X13849500Y-20532098D01*
X13849500Y-20563378D01*
X13848874Y-20572130D01*
X13844867Y-20599999D01*
X13848874Y-20627868D01*
X13849500Y-20636621D01*
X13849500Y-20782022D01*
X13831487Y-20825509D01*
X13824522Y-20831502D01*
X13727850Y-20902850D01*
X13647207Y-21012117D01*
X13602354Y-21140298D01*
X13602353Y-21140306D01*
X13599500Y-21170726D01*
X13599500Y-22229273D01*
X13602353Y-22259693D01*
X13602354Y-22259701D01*
X13647207Y-22387882D01*
X13727850Y-22497150D01*
X13824519Y-22568495D01*
X13848812Y-22608811D01*
X13849499Y-22617977D01*
X13849500Y-22763378D01*
X13848873Y-22772130D01*
X13844867Y-22800000D01*
X13845095Y-22801589D01*
X13848874Y-22827868D01*
X13849500Y-22836621D01*
X13849500Y-22982022D01*
X13831487Y-23025509D01*
X13824522Y-23031502D01*
X13786414Y-23059628D01*
X13727850Y-23102850D01*
X13647207Y-23212117D01*
X13602354Y-23340298D01*
X13602353Y-23340306D01*
X13599500Y-23370726D01*
X13599500Y-24429273D01*
X13602353Y-24459693D01*
X13602354Y-24459701D01*
X13638960Y-24564313D01*
X13647207Y-24587882D01*
X13727850Y-24697150D01*
X13824519Y-24768495D01*
X13848812Y-24808811D01*
X13849499Y-24817977D01*
X13849500Y-24963378D01*
X13848874Y-24972130D01*
X13844867Y-24999999D01*
X13848874Y-25027868D01*
X13849500Y-25036621D01*
X13849500Y-25182022D01*
X13831487Y-25225509D01*
X13824522Y-25231502D01*
X13727850Y-25302850D01*
X13647207Y-25412117D01*
X13602354Y-25540298D01*
X13602353Y-25540306D01*
X13599500Y-25570726D01*
X13599500Y-26629273D01*
X8630500Y-26629273D01*
X8630500Y-25553879D01*
X8630499Y-25553877D01*
X8615515Y-25416095D01*
X8615514Y-25416093D01*
X8615514Y-25416090D01*
X8556444Y-25240779D01*
X8461070Y-25082264D01*
X8458920Y-25079994D01*
X8450636Y-25069010D01*
X8430117Y-25034313D01*
X8315687Y-24919883D01*
X8176395Y-24837506D01*
X8176393Y-24837505D01*
X8176391Y-24837504D01*
X8150320Y-24829930D01*
X8132314Y-24824699D01*
X8129531Y-24823743D01*
X8008875Y-24775669D01*
X7826317Y-24745740D01*
X7826316Y-24745740D01*
X7735328Y-24750672D01*
X7690930Y-24735039D01*
X7670590Y-24692590D01*
X7670500Y-24689262D01*
X7670500Y-24399362D01*
X7672318Y-24384518D01*
X7675184Y-24372995D01*
X7675340Y-24367197D01*
X7676754Y-24355652D01*
X7678000Y-24349997D01*
X7678000Y-24269431D01*
X7678010Y-24268650D01*
X7680193Y-24188068D01*
X7679101Y-24182381D01*
X7678000Y-24170791D01*
X7678000Y-23961531D01*
X7690267Y-23924675D01*
X7691574Y-23922929D01*
X7746296Y-23849831D01*
X7796591Y-23714983D01*
X7803000Y-23655373D01*
X7802999Y-23059628D01*
X7796591Y-23000017D01*
X7746296Y-22865169D01*
X7744222Y-22862399D01*
X7723214Y-22834336D01*
X7660046Y-22749954D01*
X7546624Y-22665046D01*
X7544833Y-22663705D01*
X7544828Y-22663703D01*
X7409987Y-22613410D01*
X7409985Y-22613409D01*
X7409983Y-22613409D01*
X7350373Y-22607000D01*
X7350372Y-22607000D01*
X7253479Y-22607000D01*
X7230716Y-22602632D01*
X7056381Y-22533171D01*
X7056377Y-22533170D01*
X7056375Y-22533169D01*
X6873817Y-22503240D01*
X6873816Y-22503240D01*
X6781455Y-22508247D01*
X6689093Y-22513255D01*
X6689091Y-22513255D01*
X6689088Y-22513256D01*
X6510841Y-22562745D01*
X6510839Y-22562746D01*
X6440880Y-22599836D01*
X6412074Y-22607000D01*
X6304627Y-22607000D01*
X6245018Y-22613408D01*
X6245014Y-22613409D01*
X6110171Y-22663703D01*
X6110166Y-22663705D01*
X5994954Y-22749954D01*
X5908705Y-22865166D01*
X5908703Y-22865171D01*
X5858410Y-23000012D01*
X5858410Y-23000014D01*
X5858409Y-23000017D01*
X5855024Y-23031505D01*
X5852000Y-23059628D01*
X5852000Y-23655372D01*
X5858027Y-23711427D01*
X5844765Y-23756590D01*
X5803452Y-23779148D01*
X5796879Y-23779500D01*
X5634472Y-23779500D01*
X5583740Y-23786891D01*
X5566828Y-23789355D01*
X5462487Y-23840364D01*
X5380363Y-23922489D01*
X5371798Y-23940011D01*
X5336516Y-23971168D01*
X5316547Y-23974500D01*
X5283453Y-23974500D01*
X5239966Y-23956487D01*
X5228202Y-23940011D01*
X5219636Y-23922489D01*
X5137512Y-23840364D01*
X5033171Y-23789355D01*
X5023506Y-23787947D01*
X4965528Y-23779500D01*
X4604472Y-23779500D01*
X4553740Y-23786891D01*
X4536828Y-23789355D01*
X4432487Y-23840364D01*
X4350361Y-23922491D01*
X4350046Y-23922933D01*
X4349710Y-23923142D01*
X4346761Y-23926092D01*
X4346078Y-23925409D01*
X4310113Y-23947852D01*
X4264256Y-23937235D01*
X4249949Y-23922926D01*
X4249637Y-23922489D01*
X4167509Y-23840362D01*
X4166257Y-23839468D01*
X4165662Y-23838515D01*
X4163908Y-23836761D01*
X4164314Y-23836354D01*
X4141337Y-23799536D01*
X4140500Y-23789421D01*
X4140500Y-23554716D01*
X4158513Y-23511229D01*
X4166724Y-23504339D01*
X4168313Y-23503225D01*
X4168316Y-23503224D01*
X4248027Y-23423512D01*
X4291514Y-23405500D01*
X4408486Y-23405500D01*
X4451972Y-23423512D01*
X4531684Y-23503224D01*
X4640513Y-23553972D01*
X4690099Y-23560500D01*
X5109900Y-23560499D01*
X5159487Y-23553972D01*
X5268316Y-23503224D01*
X5353224Y-23418316D01*
X5403972Y-23309487D01*
X5410500Y-23259901D01*
X5410499Y-22900100D01*
X5409367Y-22891503D01*
X5403972Y-22850513D01*
X5403971Y-22850511D01*
X5396428Y-22834336D01*
X5353224Y-22741684D01*
X5268316Y-22656776D01*
X5268315Y-22656775D01*
X5159485Y-22606027D01*
X5109902Y-22599500D01*
X4690104Y-22599500D01*
X4690091Y-22599501D01*
X4640513Y-22606027D01*
X4640511Y-22606028D01*
X4531684Y-22656775D01*
X4451973Y-22736487D01*
X4408486Y-22754500D01*
X4291514Y-22754500D01*
X4248027Y-22736487D01*
X4168315Y-22656775D01*
X4059485Y-22606027D01*
X4009902Y-22599500D01*
X3590104Y-22599500D01*
X3590091Y-22599501D01*
X3540513Y-22606027D01*
X3540511Y-22606028D01*
X3431684Y-22656775D01*
X3351973Y-22736487D01*
X3308486Y-22754500D01*
X3191514Y-22754500D01*
X3148027Y-22736487D01*
X3068315Y-22656775D01*
X2959485Y-22606027D01*
X2909902Y-22599500D01*
X2490104Y-22599500D01*
X2490091Y-22599501D01*
X2440513Y-22606027D01*
X2440511Y-22606028D01*
X2331684Y-22656775D01*
X2246775Y-22741684D01*
X2196027Y-22850514D01*
X2189500Y-22900093D01*
X2189500Y-23259895D01*
X2189501Y-23259908D01*
X2196027Y-23309486D01*
X2196028Y-23309488D01*
X2246775Y-23418315D01*
X2246776Y-23418316D01*
X2331684Y-23503224D01*
X2338989Y-23506630D01*
X2370790Y-23541330D01*
X2374500Y-23562368D01*
X2374500Y-23911152D01*
X2356487Y-23954639D01*
X2338992Y-23966889D01*
X2319599Y-23975932D01*
X2319592Y-23975937D01*
X2235934Y-24059596D01*
X2185931Y-24166828D01*
X2179500Y-24215677D01*
X2179500Y-24564322D01*
X2185931Y-24613171D01*
X2235934Y-24720403D01*
X2319596Y-24804065D01*
X2405798Y-24844262D01*
X2437598Y-24878966D01*
X2435545Y-24925991D01*
X2405798Y-24955738D01*
X2319596Y-24995934D01*
X2235934Y-25079596D01*
X2185931Y-25186828D01*
X2179500Y-25235677D01*
X2179500Y-25584322D01*
X-2569500Y-25584322D01*
X-2569500Y-25553877D01*
X-2584484Y-25416095D01*
X-2643555Y-25240780D01*
X-2643558Y-25240775D01*
X-2738930Y-25082262D01*
X-2738932Y-25082259D01*
X-2741079Y-25079994D01*
X-2749362Y-25069010D01*
X-2769878Y-25034318D01*
X-2769883Y-25034312D01*
X-2884311Y-24919884D01*
X-3023603Y-24837507D01*
X-3023605Y-24837506D01*
X-3067674Y-24824702D01*
X-3070477Y-24823739D01*
X-3191118Y-24775671D01*
X-3191125Y-24775669D01*
X-3373683Y-24745740D01*
X-3464672Y-24750672D01*
X-3509070Y-24735039D01*
X-3529410Y-24692590D01*
X-3529500Y-24689262D01*
X-3529500Y-24399361D01*
X-3527682Y-24384519D01*
X-3524816Y-24372995D01*
X-3524815Y-24372987D01*
X-3524658Y-24367198D01*
X-3523245Y-24355655D01*
X-3522000Y-24349995D01*
X-3522000Y-24269431D01*
X-3521989Y-24268650D01*
X-3520555Y-24215684D01*
X-3519806Y-24188070D01*
X-3520898Y-24182383D01*
X-3522000Y-24170791D01*
X-3522000Y-23961531D01*
X-3509733Y-23924675D01*
X-3508423Y-23922926D01*
X-3453704Y-23849831D01*
X-3434945Y-23799536D01*
X-3403410Y-23714987D01*
X-3403409Y-23714985D01*
X-3403409Y-23714983D01*
X-3397000Y-23655373D01*
X-3397000Y-23370726D01*
X-3397000Y-23059627D01*
X-3403408Y-23000018D01*
X-3403409Y-23000014D01*
X-3453703Y-22865171D01*
X-3453705Y-22865166D01*
X-3539954Y-22749954D01*
X-3655166Y-22663705D01*
X-3655171Y-22663703D01*
X-3790012Y-22613410D01*
X-3790015Y-22613409D01*
X-3790017Y-22613409D01*
X-3849627Y-22607000D01*
X-3849628Y-22607000D01*
X-3946521Y-22607000D01*
X-3969284Y-22602632D01*
X-4143618Y-22533171D01*
X-4143625Y-22533169D01*
X-4326182Y-22503240D01*
X-4326183Y-22503240D01*
X-4510907Y-22513255D01*
X-4510910Y-22513255D01*
X-4510911Y-22513256D01*
X-4689158Y-22562745D01*
X-4689159Y-22562746D01*
X-4711310Y-22574490D01*
X-4759118Y-22599836D01*
X-4787924Y-22607000D01*
X-4895372Y-22607000D01*
X-4954981Y-22613408D01*
X-4954985Y-22613409D01*
X-5089828Y-22663703D01*
X-5089833Y-22663705D01*
X-5091624Y-22665046D01*
X-5205046Y-22749954D01*
X-5268214Y-22834336D01*
X-5289222Y-22862399D01*
X-5291296Y-22865169D01*
X-5341591Y-23000017D01*
X-5348000Y-23059627D01*
X-5347999Y-23370726D01*
X-5347999Y-23655372D01*
X-5341973Y-23711427D01*
X-5355235Y-23756590D01*
X-5396548Y-23779148D01*
X-5403121Y-23779500D01*
X-5565528Y-23779500D01*
X-5623506Y-23787947D01*
X-5633171Y-23789355D01*
X-5737512Y-23840364D01*
X-5819636Y-23922489D01*
X-5828202Y-23940011D01*
X-5863484Y-23971168D01*
X-5883453Y-23974500D01*
X-5916547Y-23974500D01*
X-5960034Y-23956487D01*
X-5971798Y-23940011D01*
X-5980363Y-23922489D01*
X-6062487Y-23840364D01*
X-6166828Y-23789355D01*
X-6183740Y-23786891D01*
X-6234472Y-23779500D01*
X-6595528Y-23779500D01*
X-6653506Y-23787947D01*
X-6663171Y-23789355D01*
X-6767512Y-23840364D01*
X-6849635Y-23922488D01*
X-6849950Y-23922929D01*
X-6850285Y-23923138D01*
X-6853239Y-23926092D01*
X-6853922Y-23925408D01*
X-6889881Y-23947852D01*
X-6935739Y-23937240D01*
X-6950050Y-23922929D01*
X-6950364Y-23922488D01*
X-7032490Y-23840362D01*
X-7033743Y-23839468D01*
X-7034337Y-23838515D01*
X-7036092Y-23836761D01*
X-7035685Y-23836354D01*
X-7058663Y-23799536D01*
X-7059500Y-23789421D01*
X-7059500Y-23554716D01*
X-7041487Y-23511229D01*
X-7033276Y-23504339D01*
X-7031684Y-23503224D01*
X-6951973Y-23423513D01*
X-6908486Y-23405500D01*
X-6791514Y-23405500D01*
X-6748027Y-23423512D01*
X-6668316Y-23503224D01*
X-6559487Y-23553972D01*
X-6509901Y-23560500D01*
X-6090100Y-23560499D01*
X-6090094Y-23560498D01*
X-6090091Y-23560498D01*
X-6040513Y-23553972D01*
X-6040511Y-23553971D01*
X-5931684Y-23503224D01*
X-5846775Y-23418315D01*
X-5796027Y-23309485D01*
X-5789500Y-23259906D01*
X-5789500Y-22900104D01*
X-5789501Y-22900091D01*
X-5796027Y-22850513D01*
X-5796028Y-22850511D01*
X-5846775Y-22741684D01*
X-5931684Y-22656775D01*
X-6040514Y-22606027D01*
X-6090097Y-22599500D01*
X-6509895Y-22599500D01*
X-6509908Y-22599501D01*
X-6559486Y-22606027D01*
X-6559488Y-22606028D01*
X-6668315Y-22656775D01*
X-6748027Y-22736487D01*
X-6791514Y-22754500D01*
X-6908486Y-22754500D01*
X-6951973Y-22736487D01*
X-7031684Y-22656775D01*
X-7140514Y-22606027D01*
X-7190097Y-22599500D01*
X-7609895Y-22599500D01*
X-7609908Y-22599501D01*
X-7659486Y-22606027D01*
X-7659488Y-22606028D01*
X-7768315Y-22656775D01*
X-7848027Y-22736487D01*
X-7891514Y-22754500D01*
X-8008486Y-22754500D01*
X-8051973Y-22736487D01*
X-8131684Y-22656775D01*
X-8240514Y-22606027D01*
X-8290097Y-22599500D01*
X-8709895Y-22599500D01*
X-8709908Y-22599501D01*
X-8759486Y-22606027D01*
X-8759488Y-22606028D01*
X-8868315Y-22656775D01*
X-8868316Y-22656776D01*
X-8953224Y-22741684D01*
X-9003972Y-22850513D01*
X-9010500Y-22900099D01*
X-9010499Y-23259900D01*
X-9003972Y-23309487D01*
X-8953224Y-23418316D01*
X-8868316Y-23503224D01*
X-8861010Y-23506630D01*
X-8829210Y-23541330D01*
X-8825500Y-23562368D01*
X-8825500Y-23911152D01*
X-8843513Y-23954639D01*
X-8861008Y-23966889D01*
X-8880400Y-23975932D01*
X-8880407Y-23975937D01*
X-8929979Y-24025510D01*
X-8964065Y-24059596D01*
X-9014068Y-24166827D01*
X-9020500Y-24215684D01*
X-9020500Y-24564316D01*
X-9014068Y-24613173D01*
X-8964065Y-24720404D01*
X-8880404Y-24804065D01*
X-8794200Y-24844262D01*
X-8762401Y-24878966D01*
X-8764454Y-24925991D01*
X-8794200Y-24955737D01*
X-8820017Y-24967776D01*
X-8880403Y-24995934D01*
X-8880404Y-24995935D01*
X-8964065Y-25079596D01*
X-9014068Y-25186827D01*
X-9020500Y-25235684D01*
X-9020500Y-25584316D01*
X-10974500Y-25584316D01*
X-10974500Y-11884316D01*
X-9020500Y-11884316D01*
X-9014068Y-11933173D01*
X-8964065Y-12040404D01*
X-8880404Y-12124065D01*
X-8773173Y-12174068D01*
X-8724316Y-12180500D01*
X-8692136Y-12180500D01*
X-8648649Y-12198513D01*
X-8644054Y-12203655D01*
X-8619879Y-12233970D01*
X-8582838Y-12259224D01*
X-8571200Y-12267158D01*
X-8570284Y-12267807D01*
X-8522882Y-12302793D01*
X-8522426Y-12302952D01*
X-8508077Y-12310196D01*
X-8507673Y-12310472D01*
X-8451303Y-12327858D01*
X-8450346Y-12328173D01*
X-8394699Y-12347646D01*
X-8394213Y-12347664D01*
X-8378366Y-12350357D01*
X-8377903Y-12350500D01*
X-8377902Y-12350500D01*
X-8319017Y-12350500D01*
X-8317867Y-12350522D01*
X-8298729Y-12351237D01*
X-8258990Y-12352725D01*
X-8258659Y-12352636D01*
X-8258504Y-12352595D01*
X-8242590Y-12350500D01*
X-7737792Y-12350500D01*
X-7711801Y-12356261D01*
X-7609487Y-12403972D01*
X-7559901Y-12410500D01*
X-7200100Y-12410499D01*
X-7200094Y-12410498D01*
X-7200091Y-12410498D01*
X-7150513Y-12403972D01*
X-7150511Y-12403971D01*
X-7041684Y-12353224D01*
X-6956775Y-12268315D01*
X-6906027Y-12159485D01*
X-6899500Y-12109906D01*
X-6899500Y-11690104D01*
X-6899501Y-11690091D01*
X-6906027Y-11640513D01*
X-6906028Y-11640511D01*
X-6954401Y-11536776D01*
X-6959537Y-11502033D01*
X-6944867Y-11400000D01*
X-6944867Y-11399999D01*
X-6963303Y-11271773D01*
X-6963304Y-11271769D01*
X-7017116Y-11153939D01*
X-7017118Y-11153936D01*
X-7030537Y-11138449D01*
X-7045399Y-11093787D01*
X-7027543Y-11054691D01*
X-6950366Y-10977514D01*
X-6950055Y-10977078D01*
X-6949722Y-10976870D01*
X-6946760Y-10973908D01*
X-6946074Y-10974593D01*
X-6910128Y-10952150D01*
X-6864268Y-10962755D01*
X-6849945Y-10977078D01*
X-6849637Y-10977507D01*
X-6849636Y-10977511D01*
X-6767511Y-11059636D01*
X-6663170Y-11110645D01*
X-6595528Y-11120500D01*
X-6595522Y-11120500D01*
X-6234478Y-11120500D01*
X-6234472Y-11120500D01*
X-6166830Y-11110645D01*
X-6062489Y-11059636D01*
X-6062488Y-11059635D01*
X-6062487Y-11059635D01*
X-5980363Y-10977510D01*
X-5971798Y-10959989D01*
X-5936516Y-10928832D01*
X-5916547Y-10925500D01*
X-5883453Y-10925500D01*
X-5839966Y-10943513D01*
X-5828202Y-10959988D01*
X-5819636Y-10977511D01*
X-5737511Y-11059636D01*
X-5633170Y-11110645D01*
X-5565528Y-11120500D01*
X-5292000Y-11120500D01*
X-5248513Y-11138513D01*
X-5230500Y-11182000D01*
X-5230500Y-11946120D01*
X-5230499Y-11946122D01*
X-5220246Y-12040405D01*
X-5215514Y-12083910D01*
X-5156444Y-12259221D01*
X-5061070Y-12417736D01*
X-5058925Y-12419999D01*
X-5050640Y-12430981D01*
X-5030117Y-12465687D01*
X-4915687Y-12580117D01*
X-4776395Y-12662494D01*
X-4732302Y-12675303D01*
X-4729548Y-12676249D01*
X-4608875Y-12724331D01*
X-4426317Y-12754260D01*
X-4335326Y-12749326D01*
X-4290930Y-12764958D01*
X-4270589Y-12807406D01*
X-4270500Y-12810699D01*
X-4270500Y-14256114D01*
X-4270500Y-14434184D01*
X-4270600Y-14436667D01*
X-4273766Y-14475547D01*
X-4275201Y-14493164D01*
X-4264328Y-14572964D01*
X-4264231Y-14573749D01*
X-4255514Y-14653910D01*
X-4253665Y-14659395D01*
X-4251007Y-14670733D01*
X-4250227Y-14676468D01*
X-4244271Y-14692677D01*
X-4240500Y-14713882D01*
X-4240500Y-15438085D01*
X-4242318Y-15452928D01*
X-4247684Y-15474505D01*
X-4252693Y-15659432D01*
X-4217831Y-15841113D01*
X-4203824Y-15873671D01*
X-4202554Y-15877213D01*
X-4187741Y-15928202D01*
X-4172871Y-15979388D01*
X-4172869Y-15979393D01*
X-4120057Y-16068693D01*
X-4120056Y-16068694D01*
X-4113424Y-16115294D01*
X-4120055Y-16131303D01*
X-4172869Y-16220607D01*
X-4172869Y-16220609D01*
X-4172870Y-16220610D01*
X-4198425Y-16308574D01*
X-4201668Y-16317242D01*
X-4210732Y-16336833D01*
X-4250500Y-16517503D01*
X-4250500Y-16517507D01*
X-4250500Y-17654184D01*
X-4250600Y-17656667D01*
X-4255201Y-17713167D01*
X-4252455Y-17733317D01*
X-4244328Y-17792967D01*
X-4244226Y-17793795D01*
X-4240680Y-17826408D01*
X-4240500Y-17829734D01*
X-4240500Y-20254184D01*
X-4240600Y-20256667D01*
X-4245201Y-20313167D01*
X-4234328Y-20392964D01*
X-4234231Y-20393749D01*
X-4225514Y-20473910D01*
X-4223665Y-20479395D01*
X-4221007Y-20490733D01*
X-4220227Y-20496468D01*
X-4192421Y-20572153D01*
X-4192190Y-20572808D01*
X-4166444Y-20649221D01*
X-4163460Y-20654178D01*
X-4158432Y-20664670D01*
X-4156432Y-20670116D01*
X-4113004Y-20738056D01*
X-4112639Y-20738644D01*
X-4071070Y-20807736D01*
X-4067086Y-20811941D01*
X-4059917Y-20821112D01*
X-4056800Y-20825989D01*
X-4054449Y-20828339D01*
X-4044997Y-20840524D01*
X-4030117Y-20865687D01*
X-3915687Y-20980117D01*
X-3776395Y-21062494D01*
X-3754477Y-21068861D01*
X-3734268Y-21074733D01*
X-3724104Y-21078692D01*
X-3675021Y-21103036D01*
X-3495495Y-21147684D01*
X-3310579Y-21152693D01*
X-3310575Y-21152692D01*
X-3310568Y-21152693D01*
X-3128887Y-21117831D01*
X-3108801Y-21109190D01*
X-3061737Y-21108553D01*
X-3028006Y-21141382D01*
X-3023000Y-21165685D01*
X-3023000Y-21453467D01*
X-3035267Y-21490322D01*
X-3091294Y-21565166D01*
X-3091296Y-21565169D01*
X-3141591Y-21700017D01*
X-3148000Y-21759627D01*
X-3147999Y-22355372D01*
X-3141591Y-22414983D01*
X-3091296Y-22549831D01*
X-3005046Y-22665046D01*
X-2889831Y-22751296D01*
X-2754983Y-22801591D01*
X-2695373Y-22808000D01*
X-2598479Y-22807999D01*
X-2575716Y-22812367D01*
X-2573231Y-22813356D01*
X-2573230Y-22813358D01*
X-2520553Y-22834345D01*
X-2518302Y-22835350D01*
X-2467521Y-22860536D01*
X-2435733Y-22868441D01*
X-2431809Y-22869704D01*
X-2401375Y-22881831D01*
X-2345434Y-22891001D01*
X-2343006Y-22891502D01*
X-2287995Y-22905184D01*
X-2255260Y-22906070D01*
X-2251120Y-22906463D01*
X-2218817Y-22911760D01*
X-2162213Y-22908690D01*
X-2159748Y-22908657D01*
X-2113279Y-22909916D01*
X-2103077Y-22910193D01*
X-2103074Y-22910192D01*
X-2103068Y-22910193D01*
X-2070908Y-22904022D01*
X-2066782Y-22903517D01*
X-2034093Y-22901745D01*
X-1979445Y-22886572D01*
X-1977067Y-22886015D01*
X-1921387Y-22875331D01*
X-1891316Y-22862395D01*
X-1887389Y-22861013D01*
X-1855841Y-22852254D01*
X-1826354Y-22836621D01*
X-1805760Y-22825703D01*
X-1803507Y-22824623D01*
X-1776497Y-22813004D01*
X-1752195Y-22807999D01*
X-1649628Y-22807999D01*
X-1590017Y-22801591D01*
X-1590011Y-22801589D01*
X-1571472Y-22794674D01*
X-1455169Y-22751296D01*
X-1339954Y-22665046D01*
X-1253704Y-22549831D01*
X-1203409Y-22414983D01*
X-1197000Y-22355373D01*
X-1197000Y-22229266D01*
X-1197000Y-21759627D01*
X-1203408Y-21700018D01*
X-1203409Y-21700014D01*
X-1253703Y-21565170D01*
X-1253705Y-21565166D01*
X-1309733Y-21490322D01*
X-1322000Y-21453467D01*
X-1322000Y-20583314D01*
X-1321899Y-20580832D01*
X-1320218Y-20560190D01*
X-1317298Y-20524334D01*
X-1328174Y-20444506D01*
X-1328275Y-20443680D01*
X-1336985Y-20363593D01*
X-1336987Y-20363583D01*
X-1338835Y-20358098D01*
X-1341489Y-20346775D01*
X-1342271Y-20341039D01*
X-1342272Y-20341035D01*
X-1370061Y-20265388D01*
X-1370338Y-20264604D01*
X-1396054Y-20188283D01*
X-1396055Y-20188281D01*
X-1396056Y-20188279D01*
X-1399043Y-20183312D01*
X-1404065Y-20172833D01*
X-1406065Y-20167389D01*
X-1406070Y-20167379D01*
X-1449444Y-20099521D01*
X-1449883Y-20098814D01*
X-1491426Y-20029769D01*
X-1491432Y-20029760D01*
X-1495420Y-20025550D01*
X-1502576Y-20016396D01*
X-1505699Y-20011511D01*
X-1562668Y-19954541D01*
X-1563248Y-19953945D01*
X-1618651Y-19895458D01*
X-1623448Y-19892205D01*
X-1632415Y-19884794D01*
X-1745551Y-19771658D01*
X-1754999Y-19759479D01*
X-1769883Y-19734312D01*
X-1884311Y-19619884D01*
X-2023603Y-19537507D01*
X-2023610Y-19537504D01*
X-2065732Y-19525265D01*
X-2075895Y-19521305D01*
X-2124975Y-19496965D01*
X-2124977Y-19496964D01*
X-2304506Y-19452315D01*
X-2304504Y-19452315D01*
X-2479666Y-19447570D01*
X-2522649Y-19428386D01*
X-2539500Y-19386093D01*
X-2539500Y-17735814D01*
X-2539399Y-17733332D01*
X-2537718Y-17712690D01*
X-2534798Y-17676834D01*
X-2545674Y-17597007D01*
X-2545775Y-17596181D01*
X-2546753Y-17587191D01*
X-2549320Y-17563582D01*
X-2549500Y-17560271D01*
X-2549500Y-16563877D01*
X-2564485Y-16426093D01*
X-2585670Y-16363212D01*
X-2586059Y-16361974D01*
X-2627128Y-16220613D01*
X-2627131Y-16220607D01*
X-2679943Y-16131305D01*
X-2686575Y-16084705D01*
X-2679943Y-16068695D01*
X-2649970Y-16018012D01*
X-2627131Y-15979393D01*
X-2627130Y-15979390D01*
X-2627128Y-15979387D01*
X-2612258Y-15928202D01*
X-2608296Y-15918035D01*
X-2586965Y-15875025D01*
X-2585569Y-15869410D01*
X-2581701Y-15858427D01*
X-2579270Y-15853173D01*
X-2579268Y-15853169D01*
X-2571422Y-15817524D01*
X-2561940Y-15774449D01*
X-2561758Y-15773673D01*
X-2542315Y-15695495D01*
X-2542315Y-15695494D01*
X-2542158Y-15689698D01*
X-2540745Y-15678155D01*
X-2539500Y-15672495D01*
X-2539500Y-15591931D01*
X-2539489Y-15591150D01*
X-2538596Y-15558191D01*
X-2537306Y-15510570D01*
X-2538398Y-15504883D01*
X-2539500Y-15493291D01*
X-2539500Y-14535814D01*
X-2539399Y-14533332D01*
X-2537718Y-14512690D01*
X-2534798Y-14476834D01*
X-2545674Y-14397006D01*
X-2545775Y-14396180D01*
X-2554485Y-14316093D01*
X-2554487Y-14316083D01*
X-2556335Y-14310598D01*
X-2558989Y-14299275D01*
X-2559771Y-14293539D01*
X-2559772Y-14293532D01*
X-2565728Y-14277321D01*
X-2569500Y-14256115D01*
X-2569500Y-11884323D01*
X2179500Y-11884323D01*
X2185931Y-11933172D01*
X2235934Y-12040404D01*
X2235935Y-12040405D01*
X2319596Y-12124066D01*
X2426827Y-12174069D01*
X2475684Y-12180501D01*
X2507863Y-12180501D01*
X2551350Y-12198514D01*
X2555945Y-12203655D01*
X2580121Y-12233970D01*
X2628821Y-12267173D01*
X2629731Y-12267820D01*
X2645560Y-12279502D01*
X2677118Y-12302793D01*
X2677580Y-12302954D01*
X2691918Y-12310193D01*
X2692325Y-12310471D01*
X2692327Y-12310472D01*
X2748626Y-12327837D01*
X2749673Y-12328180D01*
X2805301Y-12347646D01*
X2805786Y-12347664D01*
X2821624Y-12350353D01*
X2822098Y-12350500D01*
X2880983Y-12350500D01*
X2882133Y-12350522D01*
X2901730Y-12351254D01*
X2941010Y-12352725D01*
X2941383Y-12352624D01*
X2941496Y-12352595D01*
X2957410Y-12350500D01*
X3462208Y-12350500D01*
X3488198Y-12356261D01*
X3590513Y-12403972D01*
X3640099Y-12410500D01*
X3999900Y-12410499D01*
X4049487Y-12403972D01*
X4158316Y-12353224D01*
X4243224Y-12268316D01*
X4293972Y-12159487D01*
X4300500Y-12109901D01*
X4300499Y-11690100D01*
X4293972Y-11640513D01*
X4245598Y-11536775D01*
X4240462Y-11502032D01*
X4255133Y-11400000D01*
X4236697Y-11271774D01*
X4182882Y-11153937D01*
X4169463Y-11138451D01*
X4154600Y-11093790D01*
X4172456Y-11054691D01*
X4249633Y-10977514D01*
X4249636Y-10977511D01*
X4249637Y-10977507D01*
X4249945Y-10977078D01*
X4250277Y-10976870D01*
X4253240Y-10973908D01*
X4253925Y-10974593D01*
X4289872Y-10952150D01*
X4335732Y-10962755D01*
X4350055Y-10977078D01*
X4350366Y-10977514D01*
X4432487Y-11059635D01*
X4432488Y-11059635D01*
X4432489Y-11059636D01*
X4536830Y-11110645D01*
X4604472Y-11120500D01*
X4604478Y-11120500D01*
X4965522Y-11120500D01*
X4965528Y-11120500D01*
X5033170Y-11110645D01*
X5137511Y-11059636D01*
X5219636Y-10977511D01*
X5228202Y-10959988D01*
X5263484Y-10928832D01*
X5283453Y-10925500D01*
X5316547Y-10925500D01*
X5360034Y-10943513D01*
X5371798Y-10959989D01*
X5380363Y-10977510D01*
X5462487Y-11059635D01*
X5462488Y-11059635D01*
X5462489Y-11059636D01*
X5566830Y-11110645D01*
X5634472Y-11120500D01*
X5908000Y-11120500D01*
X5951487Y-11138513D01*
X5969500Y-11182000D01*
X5969500Y-11946122D01*
X5984484Y-12083904D01*
X6014864Y-12174069D01*
X6043556Y-12259221D01*
X6138930Y-12417736D01*
X6141073Y-12419998D01*
X6149360Y-12430985D01*
X6169883Y-12465687D01*
X6284313Y-12580117D01*
X6423605Y-12662494D01*
X6467690Y-12675301D01*
X6470456Y-12676251D01*
X6591125Y-12724331D01*
X6773683Y-12754260D01*
X6864672Y-12749326D01*
X6909069Y-12764958D01*
X6929410Y-12807406D01*
X6929500Y-12810736D01*
X6929500Y-14434184D01*
X6929399Y-14436667D01*
X6927941Y-14454568D01*
X6924798Y-14493165D01*
X6935674Y-14572996D01*
X6935775Y-14573822D01*
X6944485Y-14653905D01*
X6944486Y-14653910D01*
X6946332Y-14659388D01*
X6946336Y-14659400D01*
X6948991Y-14670730D01*
X6949772Y-14676465D01*
X6949772Y-14676467D01*
X6949773Y-14676468D01*
X6955727Y-14692676D01*
X6959500Y-14713882D01*
X6959500Y-15438085D01*
X6957682Y-15452928D01*
X6952315Y-15474505D01*
X6947306Y-15659420D01*
X6947307Y-15659434D01*
X6982167Y-15841106D01*
X6982169Y-15841112D01*
X6982169Y-15841113D01*
X6996164Y-15873648D01*
X6996167Y-15873653D01*
X6997449Y-15877228D01*
X7027128Y-15979387D01*
X7027130Y-15979390D01*
X7027131Y-15979393D01*
X7049970Y-16018012D01*
X7079943Y-16068695D01*
X7086575Y-16115295D01*
X7079943Y-16131305D01*
X7027131Y-16220607D01*
X7027128Y-16220613D01*
X7001571Y-16308581D01*
X6998330Y-16317243D01*
X6989269Y-16336829D01*
X6989268Y-16336833D01*
X6949501Y-16517497D01*
X6949500Y-16517507D01*
X6949500Y-17654184D01*
X6949399Y-17656667D01*
X6947941Y-17674568D01*
X6944798Y-17713165D01*
X6955674Y-17792991D01*
X6955775Y-17793817D01*
X6959320Y-17826408D01*
X6959500Y-17829727D01*
X6959500Y-20254184D01*
X6959399Y-20256667D01*
X6958017Y-20273644D01*
X6954798Y-20313165D01*
X6965674Y-20392996D01*
X6965775Y-20393822D01*
X6974254Y-20471780D01*
X6974486Y-20473910D01*
X6976332Y-20479388D01*
X6976336Y-20479400D01*
X6978991Y-20490730D01*
X6979772Y-20496461D01*
X6979773Y-20496469D01*
X7007565Y-20572122D01*
X7007842Y-20572906D01*
X7033554Y-20649218D01*
X7033555Y-20649221D01*
X7036540Y-20654181D01*
X7041568Y-20664675D01*
X7043564Y-20670108D01*
X7043567Y-20670114D01*
X7086964Y-20738009D01*
X7087403Y-20738717D01*
X7128929Y-20807735D01*
X7132914Y-20811942D01*
X7140080Y-20821108D01*
X7142112Y-20824287D01*
X7143201Y-20825991D01*
X7145548Y-20828337D01*
X7154999Y-20840521D01*
X7165286Y-20857915D01*
X7169880Y-20865683D01*
X7169883Y-20865687D01*
X7284313Y-20980117D01*
X7423605Y-21062494D01*
X7423607Y-21062494D01*
X7423608Y-21062495D01*
X7465731Y-21074733D01*
X7475899Y-21078695D01*
X7524975Y-21103034D01*
X7524979Y-21103036D01*
X7704505Y-21147684D01*
X7704504Y-21147684D01*
X7889420Y-21152693D01*
X7889423Y-21152692D01*
X7889432Y-21152693D01*
X8071113Y-21117831D01*
X8091197Y-21109190D01*
X8138262Y-21108552D01*
X8171994Y-21141381D01*
X8177000Y-21165685D01*
X8177000Y-21453467D01*
X8164733Y-21490322D01*
X8108705Y-21565166D01*
X8108703Y-21565170D01*
X8058410Y-21700012D01*
X8052000Y-21759628D01*
X8052000Y-22355372D01*
X8058408Y-22414981D01*
X8058409Y-22414985D01*
X8091327Y-22503240D01*
X8108704Y-22549831D01*
X8194954Y-22665046D01*
X8310169Y-22751296D01*
X8445017Y-22801591D01*
X8504627Y-22808000D01*
X8601517Y-22807999D01*
X8624280Y-22812366D01*
X8626770Y-22813358D01*
X8679436Y-22834341D01*
X8681696Y-22835350D01*
X8732479Y-22860536D01*
X8757090Y-22866656D01*
X8764247Y-22868437D01*
X8768207Y-22869711D01*
X8798625Y-22881831D01*
X8854564Y-22891001D01*
X8856997Y-22891503D01*
X8912005Y-22905184D01*
X8912003Y-22905184D01*
X8916471Y-22905304D01*
X8944737Y-22906070D01*
X8948878Y-22906464D01*
X8957791Y-22907925D01*
X8981183Y-22911760D01*
X9037785Y-22908690D01*
X9040250Y-22908657D01*
X9085580Y-22909885D01*
X9096922Y-22910193D01*
X9096924Y-22910192D01*
X9096932Y-22910193D01*
X9129092Y-22904021D01*
X9133214Y-22903517D01*
X9165907Y-22901745D01*
X9220547Y-22886573D01*
X9222937Y-22886014D01*
X9278613Y-22875331D01*
X9308677Y-22862397D01*
X9312604Y-22861015D01*
X9319823Y-22859010D01*
X9344159Y-22852254D01*
X9394257Y-22825692D01*
X9396467Y-22824633D01*
X9423504Y-22813002D01*
X9447804Y-22807999D01*
X9550372Y-22807999D01*
X9609983Y-22801591D01*
X9744831Y-22751296D01*
X9860046Y-22665046D01*
X9946296Y-22549831D01*
X9996591Y-22414983D01*
X10003000Y-22355373D01*
X10002999Y-21759628D01*
X9996591Y-21700017D01*
X9946296Y-21565169D01*
X9946294Y-21565166D01*
X9890267Y-21490322D01*
X9878000Y-21453467D01*
X9878000Y-20583314D01*
X9878100Y-20580832D01*
X9882701Y-20524333D01*
X9871826Y-20444521D01*
X9871727Y-20443707D01*
X9863013Y-20363585D01*
X9861164Y-20358098D01*
X9858508Y-20346768D01*
X9857727Y-20341032D01*
X9857724Y-20341026D01*
X9857724Y-20341022D01*
X9829941Y-20265399D01*
X9829676Y-20264649D01*
X9803944Y-20188279D01*
X9800961Y-20183321D01*
X9795930Y-20172822D01*
X9795262Y-20171004D01*
X9793932Y-20167384D01*
X9750534Y-20099488D01*
X9750095Y-20098780D01*
X9741475Y-20084455D01*
X9708570Y-20029764D01*
X9704581Y-20025553D01*
X9697418Y-20016389D01*
X9694300Y-20011511D01*
X9637350Y-19954561D01*
X9636769Y-19953964D01*
X9581351Y-19895461D01*
X9581347Y-19895458D01*
X9576556Y-19892209D01*
X9567582Y-19884793D01*
X9454448Y-19771659D01*
X9444999Y-19759478D01*
X9430117Y-19734313D01*
X9315687Y-19619883D01*
X9176395Y-19537506D01*
X9134262Y-19525264D01*
X9124102Y-19521305D01*
X9075021Y-19496964D01*
X8895493Y-19452315D01*
X8895495Y-19452315D01*
X8720334Y-19447570D01*
X8677351Y-19428386D01*
X8660500Y-19386093D01*
X8660500Y-17735814D01*
X8660600Y-17733332D01*
X8665201Y-17676833D01*
X8654325Y-17597007D01*
X8654226Y-17596203D01*
X8650680Y-17563590D01*
X8650500Y-17560264D01*
X8650500Y-16569596D01*
X14595687Y-16569596D01*
X14626114Y-16846126D01*
X14626115Y-16846130D01*
X14696477Y-17115267D01*
X14696479Y-17115274D01*
X14696480Y-17115276D01*
X14805284Y-17371314D01*
X14950208Y-17608781D01*
X15128163Y-17822617D01*
X15335357Y-18008263D01*
X15567373Y-18161763D01*
X15819267Y-18279846D01*
X15968647Y-18324788D01*
X16085659Y-18359992D01*
X16085661Y-18359993D01*
X16085663Y-18359993D01*
X16085669Y-18359995D01*
X16360901Y-18400500D01*
X16360902Y-18400500D01*
X16569463Y-18400500D01*
X16777455Y-18385277D01*
X17048997Y-18324788D01*
X17308838Y-18225408D01*
X17551440Y-18089253D01*
X17771632Y-17919226D01*
X17964722Y-17718951D01*
X18126593Y-17492696D01*
X18253797Y-17245283D01*
X18343621Y-16981986D01*
X18394152Y-16708416D01*
X18404313Y-16430404D01*
X18373886Y-16153876D01*
X18303520Y-15884724D01*
X18194716Y-15628686D01*
X18049792Y-15391219D01*
X17871837Y-15177383D01*
X17664643Y-14991737D01*
X17432627Y-14838237D01*
X17432624Y-14838235D01*
X17180735Y-14720155D01*
X17180725Y-14720151D01*
X16914340Y-14640007D01*
X16914338Y-14640006D01*
X16742539Y-14614723D01*
X16639099Y-14599500D01*
X16430537Y-14599500D01*
X16222554Y-14614722D01*
X16222547Y-14614722D01*
X16222545Y-14614723D01*
X16109051Y-14640005D01*
X15951002Y-14675212D01*
X15691165Y-14774591D01*
X15691156Y-14774594D01*
X15448563Y-14910745D01*
X15448554Y-14910751D01*
X15228367Y-15080775D01*
X15035279Y-15281047D01*
X15035271Y-15281057D01*
X14873409Y-15507300D01*
X14873407Y-15507302D01*
X14746206Y-15754709D01*
X14746201Y-15754723D01*
X14656378Y-16018012D01*
X14605847Y-16291587D01*
X14595687Y-16569596D01*
X8650500Y-16569596D01*
X8650500Y-16563879D01*
X8650499Y-16563877D01*
X8635515Y-16426096D01*
X8635514Y-16426093D01*
X8635514Y-16426090D01*
X8614324Y-16363202D01*
X8613943Y-16361988D01*
X8600944Y-16317243D01*
X8572869Y-16220607D01*
X8528267Y-16145189D01*
X8520056Y-16131305D01*
X8513424Y-16084704D01*
X8520053Y-16068698D01*
X8572869Y-15979393D01*
X8587739Y-15928208D01*
X8591701Y-15918039D01*
X8596719Y-15907920D01*
X8613036Y-15875021D01*
X8614429Y-15869419D01*
X8618301Y-15858421D01*
X8620730Y-15853172D01*
X8620731Y-15853169D01*
X8620732Y-15853167D01*
X8638074Y-15774374D01*
X8638225Y-15773735D01*
X8657684Y-15695495D01*
X8657840Y-15689697D01*
X8659254Y-15678152D01*
X8660500Y-15672497D01*
X8660500Y-15591931D01*
X8660510Y-15591150D01*
X8662693Y-15510568D01*
X8661601Y-15504881D01*
X8660500Y-15493291D01*
X8660500Y-14535814D01*
X8660600Y-14533332D01*
X8665201Y-14476833D01*
X8654326Y-14397021D01*
X8654227Y-14396207D01*
X8645513Y-14316085D01*
X8643664Y-14310598D01*
X8641008Y-14299268D01*
X8640227Y-14293532D01*
X8638810Y-14289677D01*
X8634272Y-14277321D01*
X8630500Y-14256114D01*
X8630500Y-11853879D01*
X8630499Y-11853877D01*
X8615515Y-11716095D01*
X8615514Y-11716093D01*
X8615514Y-11716090D01*
X8556444Y-11540779D01*
X8461070Y-11382264D01*
X8458920Y-11379994D01*
X8450636Y-11369010D01*
X8430117Y-11334313D01*
X8315687Y-11219883D01*
X8176395Y-11137506D01*
X8176393Y-11137505D01*
X8176391Y-11137504D01*
X8150320Y-11129930D01*
X8132314Y-11124699D01*
X8129531Y-11123743D01*
X8008875Y-11075669D01*
X7826317Y-11045740D01*
X7826316Y-11045740D01*
X7735328Y-11050672D01*
X7690930Y-11035039D01*
X7670590Y-10992590D01*
X7670500Y-10989262D01*
X7670500Y-10699362D01*
X7672318Y-10684518D01*
X7675184Y-10672995D01*
X7675340Y-10667197D01*
X7676754Y-10655652D01*
X7678000Y-10649997D01*
X7678000Y-10569431D01*
X7678010Y-10568650D01*
X7680193Y-10488068D01*
X7679101Y-10482381D01*
X7678000Y-10470791D01*
X7678000Y-10261531D01*
X7690267Y-10224675D01*
X7691574Y-10222929D01*
X7746296Y-10149831D01*
X7796591Y-10014983D01*
X7803000Y-9955373D01*
X7802999Y-9359628D01*
X7796591Y-9300017D01*
X7746296Y-9165169D01*
X7744222Y-9162399D01*
X7707245Y-9113004D01*
X7660046Y-9049954D01*
X7546624Y-8965046D01*
X7544833Y-8963705D01*
X7544828Y-8963703D01*
X7409987Y-8913410D01*
X7409985Y-8913409D01*
X7409983Y-8913409D01*
X7350373Y-8907000D01*
X7350372Y-8907000D01*
X7253479Y-8907000D01*
X7230716Y-8902632D01*
X7056381Y-8833171D01*
X7056377Y-8833170D01*
X7056375Y-8833169D01*
X6873817Y-8803240D01*
X6873816Y-8803240D01*
X6781455Y-8808247D01*
X6689093Y-8813255D01*
X6689091Y-8813255D01*
X6689088Y-8813256D01*
X6510841Y-8862745D01*
X6510839Y-8862746D01*
X6440880Y-8899836D01*
X6412074Y-8907000D01*
X6304627Y-8907000D01*
X6245018Y-8913408D01*
X6245014Y-8913409D01*
X6110171Y-8963703D01*
X6110166Y-8963705D01*
X5994954Y-9049954D01*
X5908705Y-9165166D01*
X5908703Y-9165171D01*
X5858410Y-9300012D01*
X5852000Y-9359628D01*
X5852000Y-9955372D01*
X5858027Y-10011427D01*
X5844765Y-10056590D01*
X5803452Y-10079148D01*
X5796879Y-10079500D01*
X5634472Y-10079500D01*
X5583740Y-10086891D01*
X5566828Y-10089355D01*
X5462487Y-10140364D01*
X5380363Y-10222489D01*
X5371798Y-10240011D01*
X5336516Y-10271168D01*
X5316547Y-10274500D01*
X5283453Y-10274500D01*
X5239966Y-10256487D01*
X5228202Y-10240011D01*
X5219636Y-10222489D01*
X5137512Y-10140364D01*
X5033171Y-10089355D01*
X5023506Y-10087947D01*
X4965528Y-10079500D01*
X4604472Y-10079500D01*
X4553740Y-10086891D01*
X4536828Y-10089355D01*
X4432487Y-10140364D01*
X4350364Y-10222488D01*
X4350050Y-10222929D01*
X4349714Y-10223138D01*
X4346761Y-10226092D01*
X4346077Y-10225408D01*
X4310119Y-10247852D01*
X4264261Y-10237240D01*
X4249950Y-10222929D01*
X4249635Y-10222488D01*
X4167509Y-10140362D01*
X4166257Y-10139468D01*
X4165662Y-10138515D01*
X4163908Y-10136761D01*
X4164314Y-10136354D01*
X4141337Y-10099536D01*
X4140500Y-10089421D01*
X4140500Y-9854716D01*
X4158513Y-9811229D01*
X4166724Y-9804339D01*
X4168313Y-9803225D01*
X4168316Y-9803224D01*
X4248027Y-9723513D01*
X4291514Y-9705500D01*
X4408486Y-9705500D01*
X4451973Y-9723513D01*
X4531684Y-9803224D01*
X4640513Y-9853972D01*
X4690099Y-9860500D01*
X5109900Y-9860499D01*
X5159487Y-9853972D01*
X5268316Y-9803224D01*
X5353224Y-9718316D01*
X5403972Y-9609487D01*
X5410500Y-9559901D01*
X5410499Y-9200100D01*
X5409367Y-9191503D01*
X5403972Y-9150513D01*
X5403971Y-9150511D01*
X5396428Y-9134336D01*
X5353224Y-9041684D01*
X5268316Y-8956776D01*
X5268315Y-8956775D01*
X5159485Y-8906027D01*
X5109902Y-8899500D01*
X4690104Y-8899500D01*
X4690091Y-8899501D01*
X4640513Y-8906027D01*
X4640511Y-8906028D01*
X4531684Y-8956775D01*
X4451973Y-9036487D01*
X4408486Y-9054500D01*
X4291514Y-9054500D01*
X4248027Y-9036487D01*
X4168315Y-8956775D01*
X4059485Y-8906027D01*
X4009902Y-8899500D01*
X3590104Y-8899500D01*
X3590091Y-8899501D01*
X3540513Y-8906027D01*
X3540511Y-8906028D01*
X3431684Y-8956775D01*
X3351973Y-9036487D01*
X3308486Y-9054500D01*
X3191514Y-9054500D01*
X3148027Y-9036487D01*
X3068315Y-8956775D01*
X2959485Y-8906027D01*
X2909902Y-8899500D01*
X2490104Y-8899500D01*
X2490091Y-8899501D01*
X2440513Y-8906027D01*
X2440511Y-8906028D01*
X2331684Y-8956775D01*
X2246775Y-9041684D01*
X2196027Y-9150514D01*
X2189500Y-9200093D01*
X2189500Y-9559895D01*
X2189501Y-9559908D01*
X2196027Y-9609486D01*
X2196028Y-9609488D01*
X2246775Y-9718315D01*
X2246776Y-9718316D01*
X2331684Y-9803224D01*
X2338989Y-9806630D01*
X2370790Y-9841330D01*
X2374500Y-9862368D01*
X2374500Y-10211153D01*
X2356487Y-10254640D01*
X2338992Y-10266890D01*
X2319599Y-10275933D01*
X2319592Y-10275938D01*
X2235934Y-10359597D01*
X2185931Y-10466829D01*
X2179500Y-10515678D01*
X2179500Y-10864323D01*
X2185931Y-10913172D01*
X2235934Y-11020404D01*
X2319596Y-11104066D01*
X2405798Y-11144263D01*
X2437598Y-11178967D01*
X2435545Y-11225992D01*
X2405798Y-11255739D01*
X2319596Y-11295935D01*
X2235934Y-11379597D01*
X2185931Y-11486829D01*
X2179500Y-11535678D01*
X2179500Y-11884323D01*
X-2569500Y-11884323D01*
X-2569500Y-11853877D01*
X-2584484Y-11716095D01*
X-2643555Y-11540780D01*
X-2643558Y-11540775D01*
X-2738930Y-11382262D01*
X-2738932Y-11382259D01*
X-2741079Y-11379994D01*
X-2749362Y-11369010D01*
X-2769878Y-11334318D01*
X-2769883Y-11334312D01*
X-2884311Y-11219884D01*
X-3023603Y-11137507D01*
X-3023605Y-11137506D01*
X-3067674Y-11124702D01*
X-3070477Y-11123739D01*
X-3191118Y-11075671D01*
X-3191125Y-11075669D01*
X-3373683Y-11045740D01*
X-3464672Y-11050672D01*
X-3509070Y-11035039D01*
X-3529410Y-10992590D01*
X-3529500Y-10989262D01*
X-3529500Y-10699361D01*
X-3527682Y-10684519D01*
X-3524816Y-10672995D01*
X-3524815Y-10672987D01*
X-3524658Y-10667198D01*
X-3523245Y-10655655D01*
X-3522000Y-10649995D01*
X-3522000Y-10569431D01*
X-3521989Y-10568650D01*
X-3520555Y-10515684D01*
X-3519806Y-10488070D01*
X-3520898Y-10482383D01*
X-3522000Y-10470791D01*
X-3522000Y-10261531D01*
X-3509733Y-10224675D01*
X-3508096Y-10222489D01*
X-3453704Y-10149831D01*
X-3434945Y-10099536D01*
X-3403410Y-10014987D01*
X-3403409Y-10014985D01*
X-3403409Y-10014983D01*
X-3397000Y-9955373D01*
X-3397000Y-9705500D01*
X-3397000Y-9359627D01*
X-3403408Y-9300018D01*
X-3403409Y-9300014D01*
X-3453703Y-9165171D01*
X-3453705Y-9165166D01*
X-3539954Y-9049954D01*
X-3655166Y-8963705D01*
X-3655171Y-8963703D01*
X-3790012Y-8913410D01*
X-3790015Y-8913409D01*
X-3790017Y-8913409D01*
X-3849627Y-8907000D01*
X-3849628Y-8907000D01*
X-3946521Y-8907000D01*
X-3969284Y-8902632D01*
X-4143618Y-8833171D01*
X-4143625Y-8833169D01*
X-4326182Y-8803240D01*
X-4326183Y-8803240D01*
X-4510907Y-8813255D01*
X-4510910Y-8813255D01*
X-4510911Y-8813256D01*
X-4689158Y-8862745D01*
X-4689159Y-8862746D01*
X-4759118Y-8899836D01*
X-4787924Y-8907000D01*
X-4895372Y-8907000D01*
X-4954981Y-8913408D01*
X-4954985Y-8913409D01*
X-5089828Y-8963703D01*
X-5089833Y-8963705D01*
X-5091624Y-8965046D01*
X-5205046Y-9049954D01*
X-5252245Y-9113004D01*
X-5289222Y-9162399D01*
X-5291296Y-9165169D01*
X-5341591Y-9300017D01*
X-5348000Y-9359627D01*
X-5347999Y-9705500D01*
X-5347999Y-9955372D01*
X-5341973Y-10011427D01*
X-5355235Y-10056590D01*
X-5396548Y-10079148D01*
X-5403121Y-10079500D01*
X-5565528Y-10079500D01*
X-5623506Y-10087947D01*
X-5633171Y-10089355D01*
X-5737512Y-10140364D01*
X-5819636Y-10222489D01*
X-5828202Y-10240011D01*
X-5863484Y-10271168D01*
X-5883453Y-10274500D01*
X-5916547Y-10274500D01*
X-5960034Y-10256487D01*
X-5971798Y-10240011D01*
X-5980363Y-10222489D01*
X-6062487Y-10140364D01*
X-6166828Y-10089355D01*
X-6183740Y-10086891D01*
X-6234472Y-10079500D01*
X-6595528Y-10079500D01*
X-6653506Y-10087947D01*
X-6663171Y-10089355D01*
X-6767512Y-10140364D01*
X-6849635Y-10222488D01*
X-6849950Y-10222929D01*
X-6850285Y-10223138D01*
X-6853239Y-10226092D01*
X-6853922Y-10225408D01*
X-6889881Y-10247852D01*
X-6935739Y-10237240D01*
X-6950050Y-10222929D01*
X-6950364Y-10222488D01*
X-7032490Y-10140362D01*
X-7033743Y-10139468D01*
X-7034337Y-10138515D01*
X-7036092Y-10136761D01*
X-7035685Y-10136354D01*
X-7058663Y-10099536D01*
X-7059500Y-10089421D01*
X-7059500Y-9854716D01*
X-7041487Y-9811229D01*
X-7033276Y-9804339D01*
X-7031684Y-9803224D01*
X-6951973Y-9723513D01*
X-6908486Y-9705500D01*
X-6791514Y-9705500D01*
X-6748027Y-9723513D01*
X-6668316Y-9803224D01*
X-6559487Y-9853972D01*
X-6509901Y-9860500D01*
X-6090100Y-9860499D01*
X-6090094Y-9860498D01*
X-6090091Y-9860498D01*
X-6040513Y-9853972D01*
X-6040511Y-9853971D01*
X-5931684Y-9803224D01*
X-5846775Y-9718315D01*
X-5796027Y-9609485D01*
X-5789500Y-9559906D01*
X-5789500Y-9200104D01*
X-5789501Y-9200091D01*
X-5796027Y-9150513D01*
X-5796028Y-9150511D01*
X-5846775Y-9041684D01*
X-5931684Y-8956775D01*
X-6040514Y-8906027D01*
X-6090097Y-8899500D01*
X-6509895Y-8899500D01*
X-6509908Y-8899501D01*
X-6559486Y-8906027D01*
X-6559488Y-8906028D01*
X-6668315Y-8956775D01*
X-6748027Y-9036487D01*
X-6791514Y-9054500D01*
X-6908486Y-9054500D01*
X-6951973Y-9036487D01*
X-7031684Y-8956775D01*
X-7140514Y-8906027D01*
X-7190097Y-8899500D01*
X-7609895Y-8899500D01*
X-7609908Y-8899501D01*
X-7659486Y-8906027D01*
X-7659488Y-8906028D01*
X-7768315Y-8956775D01*
X-7848027Y-9036487D01*
X-7891514Y-9054500D01*
X-8008486Y-9054500D01*
X-8051973Y-9036487D01*
X-8131684Y-8956775D01*
X-8240514Y-8906027D01*
X-8290097Y-8899500D01*
X-8709895Y-8899500D01*
X-8709908Y-8899501D01*
X-8759486Y-8906027D01*
X-8759488Y-8906028D01*
X-8868315Y-8956775D01*
X-8868316Y-8956776D01*
X-8953224Y-9041684D01*
X-9003972Y-9150513D01*
X-9010500Y-9200099D01*
X-9010499Y-9559900D01*
X-9003972Y-9609487D01*
X-8953224Y-9718316D01*
X-8868316Y-9803224D01*
X-8861010Y-9806630D01*
X-8829210Y-9841330D01*
X-8825500Y-9862368D01*
X-8825500Y-10211152D01*
X-8843513Y-10254639D01*
X-8861008Y-10266889D01*
X-8880400Y-10275932D01*
X-8880407Y-10275937D01*
X-8929979Y-10325510D01*
X-8964065Y-10359596D01*
X-9014068Y-10466827D01*
X-9020500Y-10515684D01*
X-9020500Y-10864316D01*
X-9014068Y-10913173D01*
X-8964065Y-11020404D01*
X-8880404Y-11104065D01*
X-8794200Y-11144262D01*
X-8762401Y-11178966D01*
X-8764454Y-11225991D01*
X-8794200Y-11255737D01*
X-8828580Y-11271769D01*
X-8880403Y-11295934D01*
X-8880404Y-11295935D01*
X-8964065Y-11379596D01*
X-9014068Y-11486827D01*
X-9020500Y-11535684D01*
X-9020500Y-11884316D01*
X-10974500Y-11884316D01*
X-10974500Y-6866227D01*
X-10956487Y-6822740D01*
X-10948021Y-6815672D01*
X-10945346Y-6813819D01*
X-10786181Y-6654654D01*
X-10786180Y-6654653D01*
X-10786179Y-6654652D01*
X-10657994Y-6469628D01*
X-10657993Y-6469626D01*
X-10564905Y-6264687D01*
X-10509903Y-6046412D01*
X-10499500Y-5914220D01*
X-10499500Y-5085780D01*
X-10509903Y-4953587D01*
X-10564903Y-4735317D01*
X-10638429Y-4573445D01*
X-10640012Y-4526401D01*
X-10607868Y-4492016D01*
X-10560824Y-4490433D01*
X-10538950Y-4504521D01*
X-10504654Y-4538819D01*
X-10319626Y-4667007D01*
X-10114683Y-4760096D01*
X-9896412Y-4815096D01*
X-9764217Y-4825500D01*
X-9135784Y-4825499D01*
X-9135780Y-4825499D01*
X-9003587Y-4815096D01*
X-8931110Y-4796833D01*
X-8785317Y-4760096D01*
X-8785313Y-4760094D01*
X-8785312Y-4760094D01*
X-8690513Y-4717034D01*
X-8580374Y-4667007D01*
X-8535601Y-4635988D01*
X-8395347Y-4538820D01*
X-8236179Y-4379652D01*
X-8107994Y-4194628D01*
X-8107993Y-4194626D01*
X-8075533Y-4123164D01*
X-4445201Y-4123164D01*
X-4442965Y-4139574D01*
X-4442425Y-4149547D01*
X-4442693Y-4159431D01*
X-4434524Y-4202001D01*
X-4434153Y-4204474D01*
X-4431759Y-4226483D01*
X-4425514Y-4283910D01*
X-4423665Y-4289395D01*
X-4421008Y-4300734D01*
X-4420227Y-4306468D01*
X-4409922Y-4334514D01*
X-4408971Y-4337962D01*
X-4408813Y-4337914D01*
X-4407833Y-4341106D01*
X-4407831Y-4341108D01*
X-4407831Y-4341113D01*
X-4405863Y-4345685D01*
X-4405291Y-4347120D01*
X-4392417Y-4382164D01*
X-4392182Y-4382831D01*
X-4366444Y-4459221D01*
X-4363460Y-4464178D01*
X-4358432Y-4474670D01*
X-4356432Y-4480116D01*
X-4313004Y-4548056D01*
X-4312639Y-4548644D01*
X-4271070Y-4617736D01*
X-4271067Y-4617738D01*
X-4271068Y-4617738D01*
X-4267092Y-4621935D01*
X-4259916Y-4631112D01*
X-4256800Y-4635989D01*
X-4256795Y-4635993D01*
X-4255563Y-4637527D01*
X-4250552Y-4644764D01*
X-4239063Y-4664193D01*
X-4230500Y-4695496D01*
X-4230500Y-6646120D01*
X-4230499Y-6646122D01*
X-4219797Y-6744534D01*
X-4215514Y-6783910D01*
X-4156444Y-6959221D01*
X-4061070Y-7117736D01*
X-4058925Y-7119999D01*
X-4050640Y-7130981D01*
X-4030117Y-7165687D01*
X-3915687Y-7280117D01*
X-3776395Y-7362494D01*
X-3732302Y-7375303D01*
X-3729548Y-7376249D01*
X-3608875Y-7424331D01*
X-3426317Y-7454260D01*
X-3241593Y-7444245D01*
X-3100950Y-7405196D01*
X-3054232Y-7410918D01*
X-3025242Y-7448001D01*
X-3023000Y-7464454D01*
X-3023000Y-7753467D01*
X-3035267Y-7790322D01*
X-3091294Y-7865166D01*
X-3091296Y-7865169D01*
X-3141591Y-8000017D01*
X-3148000Y-8059627D01*
X-3147999Y-8655372D01*
X-3141591Y-8714983D01*
X-3091296Y-8849831D01*
X-3005046Y-8965046D01*
X-2889831Y-9051296D01*
X-2754983Y-9101591D01*
X-2695373Y-9108000D01*
X-2598479Y-9107999D01*
X-2575716Y-9112367D01*
X-2573231Y-9113356D01*
X-2573230Y-9113358D01*
X-2520553Y-9134345D01*
X-2518302Y-9135350D01*
X-2467521Y-9160536D01*
X-2435733Y-9168441D01*
X-2431809Y-9169704D01*
X-2401375Y-9181831D01*
X-2345434Y-9191001D01*
X-2343006Y-9191502D01*
X-2287995Y-9205184D01*
X-2255260Y-9206070D01*
X-2251120Y-9206463D01*
X-2218817Y-9211760D01*
X-2162213Y-9208690D01*
X-2159748Y-9208657D01*
X-2113279Y-9209916D01*
X-2103077Y-9210193D01*
X-2103074Y-9210192D01*
X-2103068Y-9210193D01*
X-2070908Y-9204022D01*
X-2066782Y-9203517D01*
X-2034093Y-9201745D01*
X-1979445Y-9186572D01*
X-1977067Y-9186015D01*
X-1921387Y-9175331D01*
X-1891316Y-9162395D01*
X-1887389Y-9161013D01*
X-1855841Y-9152254D01*
X-1836071Y-9141772D01*
X-1805760Y-9125703D01*
X-1803507Y-9124623D01*
X-1776497Y-9113004D01*
X-1752195Y-9107999D01*
X-1649628Y-9107999D01*
X-1590017Y-9101591D01*
X-1590011Y-9101589D01*
X-1571472Y-9094674D01*
X-1455169Y-9051296D01*
X-1339954Y-8965046D01*
X-1253704Y-8849831D01*
X-1203409Y-8714983D01*
X-1197000Y-8655373D01*
X-1197000Y-8655371D01*
X-1197000Y-8059627D01*
X-1203408Y-8000018D01*
X-1203409Y-8000014D01*
X-1253703Y-7865170D01*
X-1253705Y-7865166D01*
X-1309733Y-7790322D01*
X-1322000Y-7753467D01*
X-1322000Y-6883314D01*
X-1321899Y-6880832D01*
X-1318087Y-6834016D01*
X-1317298Y-6824334D01*
X-1328174Y-6744506D01*
X-1328275Y-6743680D01*
X-1336985Y-6663593D01*
X-1336987Y-6663583D01*
X-1338835Y-6658098D01*
X-1341489Y-6646775D01*
X-1342271Y-6641039D01*
X-1342272Y-6641035D01*
X-1370061Y-6565388D01*
X-1370338Y-6564604D01*
X-1396054Y-6488283D01*
X-1396055Y-6488281D01*
X-1396056Y-6488279D01*
X-1399043Y-6483312D01*
X-1404065Y-6472833D01*
X-1406065Y-6467389D01*
X-1406070Y-6467379D01*
X-1449444Y-6399521D01*
X-1449883Y-6398814D01*
X-1491426Y-6329769D01*
X-1491432Y-6329760D01*
X-1495420Y-6325550D01*
X-1502576Y-6316396D01*
X-1505699Y-6311511D01*
X-1562668Y-6254541D01*
X-1563248Y-6253945D01*
X-1618651Y-6195458D01*
X-1623448Y-6192205D01*
X-1632415Y-6184794D01*
X-1745551Y-6071658D01*
X-1754999Y-6059479D01*
X-1769883Y-6034312D01*
X-1884311Y-5919884D01*
X-2023603Y-5837507D01*
X-2023610Y-5837504D01*
X-2065732Y-5825265D01*
X-2075895Y-5821305D01*
X-2124975Y-5796965D01*
X-2124977Y-5796964D01*
X-2304506Y-5752315D01*
X-2304504Y-5752315D01*
X-2469666Y-5747841D01*
X-2512649Y-5728657D01*
X-2529500Y-5686364D01*
X-2529500Y-4372415D01*
X-2511487Y-4328928D01*
X-2468000Y-4310915D01*
X-2443410Y-4316045D01*
X-2402997Y-4333677D01*
X-2149573Y-4401582D01*
X-1888859Y-4430958D01*
X-1626680Y-4421147D01*
X-1368890Y-4372371D01*
X-1121250Y-4285718D01*
X-1110692Y-4280138D01*
X-889296Y-4163127D01*
X-889296Y-4163126D01*
X-889290Y-4163123D01*
X-678192Y-4007327D01*
X-492673Y-3821808D01*
X-336877Y-3610710D01*
X-336873Y-3610703D01*
X-336872Y-3610703D01*
X-214281Y-3378749D01*
X-127630Y-3131114D01*
X-127628Y-3131105D01*
X-78853Y-2873323D01*
X-78852Y-2873318D01*
X-69042Y-2611139D01*
X-69042Y-2611137D01*
X-98416Y-2350435D01*
X-98419Y-2350419D01*
X-107777Y-2315494D01*
X1749500Y-2315494D01*
X1764197Y-2511629D01*
X1764198Y-2511631D01*
X1822578Y-2767410D01*
X1918429Y-3011637D01*
X1918430Y-3011639D01*
X1918432Y-3011643D01*
X2049614Y-3238857D01*
X2213195Y-3443981D01*
X2405521Y-3622433D01*
X2622296Y-3770228D01*
X2858677Y-3884063D01*
X3109385Y-3961396D01*
X3368818Y-4000500D01*
X3631182Y-4000500D01*
X3890615Y-3961396D01*
X4141323Y-3884063D01*
X4377704Y-3770228D01*
X4594479Y-3622433D01*
X4786805Y-3443981D01*
X4945493Y-3244992D01*
X4986689Y-3222225D01*
X5031920Y-3235255D01*
X5037062Y-3239851D01*
X6951487Y-5154276D01*
X6969500Y-5197763D01*
X6969500Y-6646122D01*
X6984484Y-6783904D01*
X7038988Y-6945666D01*
X7043556Y-6959221D01*
X7138930Y-7117736D01*
X7141073Y-7119998D01*
X7149360Y-7130985D01*
X7169883Y-7165687D01*
X7284313Y-7280117D01*
X7423605Y-7362494D01*
X7467690Y-7375301D01*
X7470456Y-7376251D01*
X7591125Y-7424331D01*
X7773683Y-7454260D01*
X7958407Y-7444245D01*
X8099049Y-7405196D01*
X8145768Y-7410918D01*
X8174758Y-7448001D01*
X8177000Y-7464454D01*
X8177000Y-7753467D01*
X8164733Y-7790322D01*
X8108705Y-7865166D01*
X8108703Y-7865170D01*
X8058410Y-8000012D01*
X8052000Y-8059628D01*
X8052000Y-8655372D01*
X8058408Y-8714981D01*
X8058409Y-8714985D01*
X8058410Y-8714987D01*
X8108704Y-8849831D01*
X8194954Y-8965046D01*
X8310169Y-9051296D01*
X8445017Y-9101591D01*
X8504627Y-9108000D01*
X8601517Y-9107999D01*
X8624280Y-9112366D01*
X8626770Y-9113358D01*
X8679436Y-9134341D01*
X8681696Y-9135350D01*
X8732479Y-9160536D01*
X8757090Y-9166656D01*
X8764247Y-9168437D01*
X8768207Y-9169711D01*
X8798625Y-9181831D01*
X8854564Y-9191001D01*
X8856997Y-9191503D01*
X8912005Y-9205184D01*
X8912003Y-9205184D01*
X8916471Y-9205304D01*
X8944737Y-9206070D01*
X8948878Y-9206464D01*
X8957791Y-9207925D01*
X8981183Y-9211760D01*
X9037785Y-9208690D01*
X9040250Y-9208657D01*
X9085580Y-9209885D01*
X9096922Y-9210193D01*
X9096924Y-9210192D01*
X9096932Y-9210193D01*
X9129092Y-9204021D01*
X9133214Y-9203517D01*
X9165907Y-9201745D01*
X9220547Y-9186573D01*
X9222937Y-9186014D01*
X9278613Y-9175331D01*
X9308677Y-9162397D01*
X9312604Y-9161015D01*
X9319823Y-9159010D01*
X9344159Y-9152254D01*
X9394257Y-9125692D01*
X9396467Y-9124633D01*
X9423504Y-9113002D01*
X9447804Y-9107999D01*
X9550372Y-9107999D01*
X9609983Y-9101591D01*
X9744831Y-9051296D01*
X9860046Y-8965046D01*
X9946296Y-8849831D01*
X9996591Y-8714983D01*
X10003000Y-8655373D01*
X10002999Y-8059628D01*
X9996591Y-8000017D01*
X9946296Y-7865169D01*
X9946294Y-7865166D01*
X9890267Y-7790322D01*
X9878000Y-7753467D01*
X9878000Y-6883314D01*
X9878100Y-6880832D01*
X9882701Y-6824333D01*
X9871826Y-6744521D01*
X9871727Y-6743707D01*
X9863013Y-6663585D01*
X9861164Y-6658098D01*
X9858508Y-6646768D01*
X9857727Y-6641032D01*
X9857724Y-6641026D01*
X9857724Y-6641022D01*
X9829941Y-6565399D01*
X9829676Y-6564649D01*
X9803944Y-6488279D01*
X9800961Y-6483321D01*
X9795930Y-6472822D01*
X9794756Y-6469626D01*
X9793932Y-6467384D01*
X9750534Y-6399488D01*
X9750095Y-6398780D01*
X9741475Y-6384455D01*
X9708570Y-6329764D01*
X9704581Y-6325553D01*
X9697418Y-6316389D01*
X9694300Y-6311511D01*
X9637350Y-6254561D01*
X9636769Y-6253964D01*
X9581351Y-6195461D01*
X9581347Y-6195458D01*
X9576556Y-6192209D01*
X9567582Y-6184793D01*
X9454448Y-6071659D01*
X9444999Y-6059478D01*
X9437272Y-6046412D01*
X9430117Y-6034313D01*
X9315687Y-5919883D01*
X9176395Y-5837506D01*
X9134262Y-5825264D01*
X9124102Y-5821305D01*
X9075021Y-5796964D01*
X8895493Y-5752315D01*
X8895495Y-5752315D01*
X8730334Y-5747841D01*
X8687351Y-5728657D01*
X8670500Y-5686364D01*
X8670500Y-4855814D01*
X8670600Y-4853332D01*
X8675201Y-4796833D01*
X8664326Y-4717021D01*
X8664227Y-4716207D01*
X8655513Y-4636085D01*
X8653664Y-4630598D01*
X8651008Y-4619268D01*
X8650227Y-4613532D01*
X8650224Y-4613526D01*
X8650224Y-4613522D01*
X8622441Y-4537899D01*
X8622176Y-4537149D01*
X8596444Y-4460779D01*
X8593461Y-4455821D01*
X8588430Y-4445322D01*
X8586433Y-4439887D01*
X8586432Y-4439885D01*
X8586432Y-4439884D01*
X8549991Y-4382873D01*
X8543036Y-4371992D01*
X8542597Y-4371284D01*
X8501070Y-4302264D01*
X8497083Y-4298055D01*
X8489915Y-4288886D01*
X8486799Y-4284011D01*
X8429868Y-4227080D01*
X8429287Y-4226483D01*
X8373851Y-4167961D01*
X8373846Y-4167957D01*
X8369053Y-4164707D01*
X8360079Y-4157291D01*
X7978512Y-3775724D01*
X7960499Y-3732237D01*
X7960499Y-3550828D01*
X7960499Y-3550827D01*
X7960499Y-3550820D01*
X7957665Y-3514796D01*
X7953848Y-3501659D01*
X7912870Y-3360610D01*
X7912869Y-3360609D01*
X7912869Y-3360607D01*
X7831135Y-3222402D01*
X7717598Y-3108865D01*
X7579393Y-3027131D01*
X7579391Y-3027130D01*
X7579389Y-3027129D01*
X7579390Y-3027129D01*
X7425202Y-2982334D01*
X7389184Y-2979500D01*
X7389181Y-2979500D01*
X7207762Y-2979500D01*
X7164275Y-2961487D01*
X6413100Y-2210312D01*
X5626705Y-1423916D01*
X5625024Y-1422091D01*
X5588336Y-1378899D01*
X5536398Y-1339417D01*
X5524192Y-1330138D01*
X5523588Y-1329666D01*
X5460754Y-1279158D01*
X5460755Y-1279158D01*
X5460752Y-1279156D01*
X5455554Y-1276578D01*
X5445668Y-1270446D01*
X5441065Y-1266947D01*
X5441064Y-1266946D01*
X5441062Y-1266945D01*
X5441059Y-1266943D01*
X5367930Y-1233110D01*
X5367179Y-1232750D01*
X5295025Y-1196965D01*
X5295021Y-1196964D01*
X5289405Y-1195567D01*
X5278427Y-1191701D01*
X5273173Y-1189270D01*
X5273169Y-1189268D01*
X5194484Y-1171948D01*
X5193672Y-1171758D01*
X5180012Y-1168360D01*
X5142159Y-1140383D01*
X5137608Y-1131147D01*
X5083264Y-992680D01*
X5081568Y-988357D01*
X4950386Y-761143D01*
X4786805Y-556019D01*
X4594479Y-377567D01*
X4377704Y-229772D01*
X4141323Y-115937D01*
X3890615Y-38604D01*
X3890612Y-38603D01*
X3788886Y-23270D01*
X3631182Y500D01*
X3368818Y500D01*
X3239101Y-19052D01*
X3109387Y-38603D01*
X2995155Y-73839D01*
X2858677Y-115937D01*
X2858674Y-115938D01*
X2858672Y-115939D01*
X2622292Y-229774D01*
X2418108Y-368985D01*
X2405521Y-377567D01*
X2245210Y-526314D01*
X2213194Y-556020D01*
X2049613Y-761144D01*
X1918431Y-988359D01*
X1918429Y-988362D01*
X1822578Y-1232589D01*
X1764198Y-1488368D01*
X1764197Y-1488370D01*
X1749500Y-1684505D01*
X1749500Y-2315494D01*
X-107777Y-2315494D01*
X-166320Y-2097010D01*
X-166322Y-2097004D01*
X-265845Y-1868894D01*
X-271239Y-1856530D01*
X-356911Y-1720182D01*
X-364796Y-1673777D01*
X-337558Y-1635388D01*
X-291153Y-1627504D01*
X-290595Y-1627633D01*
X-258994Y-1635221D01*
X-258986Y-1635221D01*
X-258985Y-1635222D01*
X-64856Y-1650500D01*
X-64853Y-1650500D01*
X64856Y-1650500D01*
X258985Y-1635222D01*
X258989Y-1635221D01*
X258994Y-1635221D01*
X511610Y-1574573D01*
X751628Y-1475154D01*
X973140Y-1339412D01*
X1170689Y-1170689D01*
X1339412Y-973140D01*
X1475154Y-751628D01*
X1574573Y-511610D01*
X1635221Y-258994D01*
X1637591Y-228881D01*
X1655604Y-5D01*
X1655604Y5D01*
X1635222Y258985D01*
X1635221Y258992D01*
X1625355Y300086D01*
X1574573Y511610D01*
X1557594Y552600D01*
X4395745Y552600D01*
X4405745Y342678D01*
X4405747Y342663D01*
X4455291Y138437D01*
X4455298Y138417D01*
X4542602Y-52750D01*
X4542609Y-52761D01*
X4664507Y-223944D01*
X4664511Y-223948D01*
X4664514Y-223952D01*
X4816622Y-368986D01*
X4993428Y-482613D01*
X5188543Y-560725D01*
X5394915Y-600500D01*
X5394918Y-600500D01*
X5552422Y-600500D01*
X5552425Y-600500D01*
X5709218Y-585528D01*
X5910875Y-526316D01*
X6097682Y-430011D01*
X6262886Y-300092D01*
X6400519Y-141256D01*
X6505604Y40756D01*
X6507528Y46316D01*
X11145740Y46316D01*
X11155755Y-138405D01*
X11155756Y-138411D01*
X11205245Y-316658D01*
X11205246Y-316659D01*
X11265340Y-430008D01*
X11291899Y-480102D01*
X11291903Y-480109D01*
X11411663Y-621100D01*
X11558932Y-733052D01*
X11558935Y-733053D01*
X11558936Y-733054D01*
X11726833Y-810732D01*
X11907503Y-850500D01*
X11907508Y-850500D01*
X12046121Y-850500D01*
X12046122Y-850499D01*
X12183904Y-835515D01*
X12183905Y-835514D01*
X12183910Y-835514D01*
X12359221Y-776444D01*
X12517736Y-681070D01*
X12652041Y-553849D01*
X12755858Y-400730D01*
X12824331Y-228875D01*
X12854260Y-46317D01*
X12849238Y46316D01*
X13145740Y46316D01*
X13155755Y-138405D01*
X13155756Y-138411D01*
X13205245Y-316658D01*
X13205246Y-316659D01*
X13265340Y-430008D01*
X13291899Y-480102D01*
X13291903Y-480109D01*
X13411663Y-621100D01*
X13558932Y-733052D01*
X13558935Y-733053D01*
X13558936Y-733054D01*
X13726833Y-810732D01*
X13907503Y-850500D01*
X13907508Y-850500D01*
X14046121Y-850500D01*
X14046122Y-850499D01*
X14183904Y-835515D01*
X14183905Y-835514D01*
X14183910Y-835514D01*
X14359221Y-776444D01*
X14517736Y-681070D01*
X14652041Y-553849D01*
X14755858Y-400730D01*
X14824331Y-228875D01*
X14854260Y-46317D01*
X14844245Y138407D01*
X14794754Y316659D01*
X14708100Y480104D01*
X14588337Y621100D01*
X14468242Y712394D01*
X14441067Y733052D01*
X14441066Y733052D01*
X14441064Y733054D01*
X14273167Y810732D01*
X14092497Y850500D01*
X13953887Y850500D01*
X13953880Y850500D01*
X13953877Y850499D01*
X13816095Y835515D01*
X13816093Y835514D01*
X13816090Y835514D01*
X13640779Y776444D01*
X13512510Y699268D01*
X13482264Y681070D01*
X13347956Y553846D01*
X13244141Y400728D01*
X13244140Y400726D01*
X13176027Y229774D01*
X13175669Y228875D01*
X13146797Y52761D01*
X13145740Y46316D01*
X12849238Y46316D01*
X12844245Y138407D01*
X12794754Y316659D01*
X12708100Y480104D01*
X12588337Y621100D01*
X12468242Y712394D01*
X12441067Y733052D01*
X12441066Y733052D01*
X12441064Y733054D01*
X12273167Y810732D01*
X12092497Y850500D01*
X11953887Y850500D01*
X11953880Y850500D01*
X11953877Y850499D01*
X11816095Y835515D01*
X11816093Y835514D01*
X11816090Y835514D01*
X11640779Y776444D01*
X11512510Y699268D01*
X11482264Y681070D01*
X11347956Y553846D01*
X11244141Y400728D01*
X11244140Y400726D01*
X11176027Y229774D01*
X11175669Y228875D01*
X11146797Y52761D01*
X11145740Y46316D01*
X6507528Y46316D01*
X6569009Y223952D01*
X6574343Y239363D01*
X6574343Y239364D01*
X6574344Y239367D01*
X6604254Y447398D01*
X6594254Y657330D01*
X6551027Y835514D01*
X6544708Y861562D01*
X6544706Y861567D01*
X6544704Y861576D01*
X6457396Y1052753D01*
X6368077Y1178184D01*
X6335492Y1223944D01*
X6335490Y1223945D01*
X6335486Y1223952D01*
X6183378Y1368986D01*
X6006572Y1482613D01*
X5811457Y1560725D01*
X5605085Y1600500D01*
X5447575Y1600500D01*
X5290782Y1585528D01*
X5089125Y1526316D01*
X4902318Y1430011D01*
X4737114Y1300092D01*
X4737109Y1300086D01*
X4599486Y1141263D01*
X4599479Y1141253D01*
X4548388Y1052761D01*
X4511205Y988357D01*
X4494395Y959242D01*
X4494394Y959238D01*
X4425656Y760636D01*
X4425656Y760635D01*
X4395746Y552602D01*
X4395745Y552600D01*
X1557594Y552600D01*
X1547411Y577182D01*
X1547411Y624250D01*
X1580694Y657534D01*
X1620147Y660120D01*
X1850419Y598419D01*
X1850435Y598416D01*
X2111137Y569042D01*
X2111139Y569042D01*
X2111140Y569042D01*
X2111141Y569042D01*
X2130761Y569776D01*
X2373318Y578852D01*
X2373323Y578853D01*
X2631105Y627628D01*
X2631106Y627628D01*
X2631110Y627629D01*
X2631114Y627630D01*
X2878749Y714281D01*
X3110703Y836872D01*
X3110703Y836873D01*
X3110704Y836874D01*
X3110710Y836877D01*
X3321808Y992673D01*
X3507327Y1178192D01*
X3663123Y1389290D01*
X3663126Y1389296D01*
X3663127Y1389296D01*
X3785718Y1621250D01*
X3835311Y1762980D01*
X3872371Y1868890D01*
X3918011Y2110110D01*
X3934952Y2142163D01*
X4973081Y3180292D01*
X4985261Y3189740D01*
X5017595Y3208863D01*
X5017598Y3208865D01*
X5131133Y3322400D01*
X5131135Y3322402D01*
X5160374Y3371843D01*
X5167527Y3381599D01*
X5184840Y3400897D01*
X5193816Y3416773D01*
X5199418Y3425034D01*
X5210839Y3439242D01*
X5210840Y3439242D01*
X5213190Y3443981D01*
X5241341Y3500743D01*
X5242096Y3502167D01*
X5275888Y3561936D01*
X5281243Y3579379D01*
X5284937Y3588650D01*
X5293036Y3604979D01*
X5309596Y3671566D01*
X5310041Y3673170D01*
X5330186Y3738779D01*
X5330187Y3738782D01*
X5331666Y3756961D01*
X5333278Y3766794D01*
X5337684Y3784505D01*
X5339543Y3853159D01*
X5339628Y3854734D01*
X5345201Y3923167D01*
X5342738Y3941235D01*
X5342198Y3951196D01*
X5342693Y3969432D01*
X5329752Y4036867D01*
X5329497Y4038418D01*
X5320227Y4106468D01*
X5313936Y4123587D01*
X5311267Y4133200D01*
X5307831Y4151113D01*
X5280701Y4214179D01*
X5280101Y4215689D01*
X5272083Y4237513D01*
X5256432Y4280116D01*
X5246606Y4295487D01*
X5241938Y4304290D01*
X5234729Y4321051D01*
X5194670Y4376818D01*
X5193797Y4378105D01*
X5156800Y4435989D01*
X5156795Y4435993D01*
X5155562Y4437529D01*
X5150552Y4444764D01*
X5139064Y4464190D01*
X5130500Y4495495D01*
X5130500Y6446120D01*
X5130499Y6446122D01*
X5115515Y6583904D01*
X5115514Y6583905D01*
X5115514Y6583910D01*
X5056444Y6759221D01*
X4961070Y6917736D01*
X4958925Y6919999D01*
X4950637Y6930987D01*
X4930117Y6965687D01*
X4815687Y7080117D01*
X4676395Y7162494D01*
X4632302Y7175303D01*
X4629548Y7176249D01*
X4508875Y7224331D01*
X4326317Y7254260D01*
X4141593Y7244245D01*
X4000950Y7205196D01*
X3954232Y7210918D01*
X3925242Y7248001D01*
X3923000Y7264454D01*
X3923000Y7553467D01*
X3935267Y7590322D01*
X3991294Y7665166D01*
X3991296Y7665170D01*
X4041589Y7800012D01*
X4041591Y7800017D01*
X4048000Y7859627D01*
X4047999Y8455372D01*
X4041591Y8514983D01*
X3991296Y8649831D01*
X3905046Y8765046D01*
X3789831Y8851296D01*
X3654983Y8901591D01*
X3595373Y8908000D01*
X3498479Y8907999D01*
X3475716Y8912367D01*
X3473231Y8913356D01*
X3473230Y8913358D01*
X3420553Y8934345D01*
X3418302Y8935350D01*
X3367521Y8960536D01*
X3335733Y8968441D01*
X3331809Y8969704D01*
X3301375Y8981831D01*
X3245434Y8991001D01*
X3243006Y8991502D01*
X3187995Y9005184D01*
X3155260Y9006070D01*
X3151119Y9006464D01*
X3118817Y9011760D01*
X3062213Y9008690D01*
X3059748Y9008657D01*
X3013279Y9009916D01*
X3003077Y9010193D01*
X3003074Y9010192D01*
X3003068Y9010193D01*
X2970908Y9004022D01*
X2966782Y9003517D01*
X2934093Y9001745D01*
X2879445Y8986572D01*
X2877067Y8986015D01*
X2821387Y8975331D01*
X2797764Y8965169D01*
X2791315Y8962395D01*
X2787389Y8961013D01*
X2755841Y8952254D01*
X2736071Y8941772D01*
X2705760Y8925703D01*
X2703507Y8924623D01*
X2676497Y8913004D01*
X2652195Y8907999D01*
X2549628Y8907999D01*
X2490017Y8901591D01*
X2490014Y8901590D01*
X2471472Y8894674D01*
X2355169Y8851296D01*
X2239954Y8765046D01*
X2153704Y8649831D01*
X2103409Y8514983D01*
X2103409Y8514981D01*
X2097000Y8455371D01*
X2097000Y7859627D01*
X2103408Y7800018D01*
X2103409Y7800014D01*
X2153703Y7665170D01*
X2153705Y7665166D01*
X2209733Y7590322D01*
X2222000Y7553467D01*
X2222000Y6683314D01*
X2221899Y6680832D01*
X2220218Y6660190D01*
X2217298Y6624334D01*
X2228174Y6544506D01*
X2228275Y6543680D01*
X2236985Y6463593D01*
X2236987Y6463583D01*
X2238835Y6458098D01*
X2241489Y6446775D01*
X2242271Y6441039D01*
X2242272Y6441035D01*
X2270061Y6365388D01*
X2270338Y6364604D01*
X2296054Y6288283D01*
X2296055Y6288281D01*
X2296056Y6288279D01*
X2296058Y6288275D01*
X2299042Y6283316D01*
X2304065Y6272833D01*
X2306065Y6267389D01*
X2306070Y6267379D01*
X2349444Y6199521D01*
X2349883Y6198814D01*
X2391426Y6129769D01*
X2391432Y6129760D01*
X2395420Y6125550D01*
X2402576Y6116396D01*
X2405699Y6111511D01*
X2462665Y6054544D01*
X2463245Y6053948D01*
X2518651Y5995458D01*
X2523448Y5992205D01*
X2532415Y5984794D01*
X2645550Y5871660D01*
X2654998Y5859480D01*
X2669880Y5834315D01*
X2784311Y5719884D01*
X2923605Y5637506D01*
X2923610Y5637504D01*
X2965728Y5625266D01*
X2975891Y5621306D01*
X3024975Y5596964D01*
X3024976Y5596963D01*
X3204507Y5552315D01*
X3204505Y5552315D01*
X3369665Y5547841D01*
X3412648Y5528657D01*
X3429499Y5486364D01*
X3429499Y4145814D01*
X3429398Y4143317D01*
X3424798Y4086834D01*
X3426586Y4073712D01*
X3414607Y4028192D01*
X3409136Y4021925D01*
X3224882Y3837672D01*
X3181395Y3819659D01*
X3137909Y3837671D01*
X3014702Y3960879D01*
X3014701Y3960879D01*
X3014697Y3960884D01*
X2958109Y4009580D01*
X2865620Y4089175D01*
X2643470Y4228760D01*
X2402998Y4333677D01*
X2149573Y4401582D01*
X1888859Y4430958D01*
X1626680Y4421147D01*
X1368890Y4372371D01*
X1265205Y4336090D01*
X1121250Y4285718D01*
X889296Y4163127D01*
X889296Y4163126D01*
X889290Y4163123D01*
X678192Y4007327D01*
X492673Y3821808D01*
X336877Y3610710D01*
X336873Y3610703D01*
X336872Y3610703D01*
X214281Y3378749D01*
X127630Y3131114D01*
X127628Y3131105D01*
X78853Y2873323D01*
X78852Y2873318D01*
X69042Y2611141D01*
X98416Y2350435D01*
X98419Y2350419D01*
X166320Y2097009D01*
X166320Y2097008D01*
X166323Y2097002D01*
X265847Y1868890D01*
X271242Y1856526D01*
X312743Y1790476D01*
X356913Y1720180D01*
X364797Y1673777D01*
X337559Y1635388D01*
X291154Y1627504D01*
X290529Y1627649D01*
X258994Y1635221D01*
X258989Y1635221D01*
X258985Y1635222D01*
X64856Y1650500D01*
X64853Y1650500D01*
X-64853Y1650500D01*
X-64856Y1650500D01*
X-258985Y1635222D01*
X-258989Y1635221D01*
X-258994Y1635221D01*
X-511610Y1574573D01*
X-751628Y1475154D01*
X-973140Y1339412D01*
X-1170689Y1170689D01*
X-1339412Y973140D01*
X-1475154Y751628D01*
X-1574573Y511610D01*
X-1625355Y300086D01*
X-1635221Y258992D01*
X-1635222Y258985D01*
X-1655604Y5D01*
X-1655604Y-5D01*
X-1637591Y-228881D01*
X-1635221Y-258994D01*
X-1574573Y-511610D01*
X-1547411Y-577182D01*
X-1547411Y-624250D01*
X-1580694Y-657534D01*
X-1620147Y-660120D01*
X-1850419Y-598419D01*
X-1850435Y-598416D01*
X-2111137Y-569042D01*
X-2111139Y-569042D01*
X-2111140Y-569042D01*
X-2111141Y-569042D01*
X-2130761Y-569776D01*
X-2373318Y-578852D01*
X-2373323Y-578853D01*
X-2631105Y-627628D01*
X-2631114Y-627630D01*
X-2878749Y-714281D01*
X-3110703Y-836872D01*
X-3110703Y-836873D01*
X-3110704Y-836874D01*
X-3110710Y-836877D01*
X-3321808Y-992673D01*
X-3507327Y-1178192D01*
X-3663123Y-1389290D01*
X-3663126Y-1389296D01*
X-3663127Y-1389296D01*
X-3774751Y-1600499D01*
X-3785718Y-1621250D01*
X-3872371Y-1868890D01*
X-3921147Y-2126680D01*
X-3930958Y-2388859D01*
X-3901582Y-2649573D01*
X-3833677Y-2902998D01*
X-3781219Y-3023232D01*
X-3780339Y-3070293D01*
X-3794101Y-3091312D01*
X-4097556Y-3394767D01*
X-4109737Y-3404215D01*
X-4117592Y-3408860D01*
X-4117598Y-3408865D01*
X-4205552Y-3496819D01*
X-4207378Y-3498501D01*
X-4211096Y-3501659D01*
X-4211102Y-3501665D01*
X-4212067Y-3502935D01*
X-4214808Y-3506075D01*
X-4231135Y-3522402D01*
X-4245191Y-3546169D01*
X-4247170Y-3549112D01*
X-4248468Y-3550820D01*
X-4259844Y-3565784D01*
X-4260326Y-3566402D01*
X-4310842Y-3629246D01*
X-4310842Y-3629247D01*
X-4313416Y-3634437D01*
X-4319553Y-3644331D01*
X-4323054Y-3648936D01*
X-4356888Y-3722068D01*
X-4357234Y-3722791D01*
X-4393036Y-3794979D01*
X-4394430Y-3800587D01*
X-4398300Y-3811577D01*
X-4400732Y-3816833D01*
X-4418058Y-3895552D01*
X-4418240Y-3896325D01*
X-4422681Y-3914183D01*
X-4423127Y-3915790D01*
X-4430187Y-3938782D01*
X-4430455Y-3942079D01*
X-4432070Y-3951934D01*
X-4437684Y-3974505D01*
X-4437840Y-3980302D01*
X-4439255Y-3991847D01*
X-4440500Y-3997503D01*
X-4440500Y-3997507D01*
X-4440500Y-4064184D01*
X-4440600Y-4066667D01*
X-4443766Y-4105547D01*
X-4445201Y-4123164D01*
X-8075533Y-4123164D01*
X-8014905Y-3989687D01*
X-7959903Y-3771412D01*
X-7949500Y-3639220D01*
X-7949500Y-2560780D01*
X-7959903Y-2428587D01*
X-8014905Y-2210312D01*
X-8107993Y-2005373D01*
X-8107994Y-2005371D01*
X-8236177Y-1820350D01*
X-8273662Y-1782865D01*
X-8291674Y-1739377D01*
X-8278439Y-1701263D01*
X-8140443Y-1526517D01*
X-8140440Y-1526513D01*
X-7986892Y-1267273D01*
X-7869263Y-989872D01*
X-7789659Y-699269D01*
X-7789659Y-699268D01*
X-7755787Y-447398D01*
X-6604254Y-447398D01*
X-6594254Y-657330D01*
X-6580437Y-714282D01*
X-6544708Y-861562D01*
X-6544706Y-861567D01*
X-6544704Y-861576D01*
X-6457396Y-1052753D01*
X-6402006Y-1130537D01*
X-6354704Y-1196965D01*
X-6335486Y-1223952D01*
X-6183378Y-1368986D01*
X-6006572Y-1482613D01*
X-5811457Y-1560725D01*
X-5605085Y-1600500D01*
X-5605082Y-1600500D01*
X-5447578Y-1600500D01*
X-5447575Y-1600500D01*
X-5290782Y-1585528D01*
X-5089125Y-1526316D01*
X-4902318Y-1430011D01*
X-4737114Y-1300092D01*
X-4708673Y-1267270D01*
X-4599486Y-1141263D01*
X-4599479Y-1141253D01*
X-4511205Y-988358D01*
X-4494396Y-959244D01*
X-4489670Y-945589D01*
X-4425656Y-760636D01*
X-4425656Y-760635D01*
X-4395745Y-552599D01*
X-4405745Y-342678D01*
X-4405747Y-342663D01*
X-4455291Y-138437D01*
X-4455298Y-138417D01*
X-4542602Y52750D01*
X-4542609Y52761D01*
X-4664507Y223944D01*
X-4664513Y223950D01*
X-4664514Y223952D01*
X-4816622Y368986D01*
X-4993428Y482613D01*
X-5188543Y560725D01*
X-5394915Y600500D01*
X-5552425Y600500D01*
X-5709218Y585528D01*
X-5910875Y526316D01*
X-6097682Y430011D01*
X-6262886Y300092D01*
X-6400519Y141256D01*
X-6505604Y-40756D01*
X-6539401Y-138407D01*
X-6570712Y-228874D01*
X-6574344Y-239367D01*
X-6604254Y-447398D01*
X-7755787Y-447398D01*
X-7749500Y-400652D01*
X-7749499Y325233D01*
X-7764588Y550633D01*
X-7764588Y550634D01*
X-7824604Y845903D01*
X-7824605Y845908D01*
X-7923436Y1130527D01*
X-7923438Y1130531D01*
X-7923440Y1130537D01*
X-8028989Y1339412D01*
X-8059329Y1399454D01*
X-8059335Y1399464D01*
X-8229852Y1647863D01*
X-8229856Y1647869D01*
X-8229859Y1647873D01*
X-8229868Y1647884D01*
X-8431962Y1871327D01*
X-8431963Y1871328D01*
X-8431968Y1871333D01*
X-8662061Y2065865D01*
X-8916030Y2227993D01*
X-8916033Y2227995D01*
X-8916040Y2227998D01*
X-9189335Y2354820D01*
X-9189344Y2354824D01*
X-9298583Y2388709D01*
X-9477121Y2444093D01*
X-9774230Y2494209D01*
X-10075369Y2504277D01*
X-10375162Y2474118D01*
X-10668261Y2404269D01*
X-10949434Y2295977D01*
X-11213665Y2151175D01*
X-11456238Y1972446D01*
X-11672824Y1762980D01*
X-11859558Y1526515D01*
X-12013109Y1267270D01*
X-12130736Y989872D01*
X-12210340Y699271D01*
X-12250500Y400653D01*
X-12250500Y-325244D01*
X-12235412Y-550634D01*
X-12175396Y-845903D01*
X-12076560Y-1130537D01*
X-11940668Y-1399459D01*
X-11770144Y-1647869D01*
X-11770134Y-1647880D01*
X-11770131Y-1647884D01*
X-11635318Y-1796939D01*
X-11619506Y-1841274D01*
X-11639676Y-1883803D01*
X-11684011Y-1899615D01*
X-11685713Y-1899505D01*
X-11685783Y-1899500D01*
X-11685789Y-1899500D01*
X-11685790Y-1899500D01*
X-12714219Y-1899500D01*
X-12846412Y-1909903D01*
X-13064687Y-1964905D01*
X-13269626Y-2057993D01*
X-13269628Y-2057994D01*
X-13454652Y-2186179D01*
X-13613820Y-2345347D01*
X-13729021Y-2511630D01*
X-13742007Y-2530374D01*
X-13835096Y-2735317D01*
X-13890096Y-2953588D01*
X-13900500Y-3085783D01*
X-13900499Y-3914216D01*
X-13890096Y-4046412D01*
X-13835096Y-4264683D01*
X-13742007Y-4469626D01*
X-13742004Y-4469629D01*
X-13741994Y-4469649D01*
X-13741992Y-4469657D01*
X-13740865Y-4472141D01*
X-13741641Y-4472493D01*
X-13736199Y-4516361D01*
X-13740946Y-4527822D01*
X-13740865Y-4527859D01*
X-13741963Y-4530278D01*
X-13741994Y-4530351D01*
X-13742008Y-4530376D01*
X-13809167Y-4678233D01*
X-13835096Y-4735317D01*
X-13890096Y-4953588D01*
X-13900500Y-5085783D01*
X-13900499Y-5914216D01*
X-13890096Y-6046412D01*
X-13835096Y-6264683D01*
X-13742007Y-6469626D01*
X-13613819Y-6654654D01*
X-13454654Y-6813819D01*
X-13269626Y-6942007D01*
X-13261570Y-6945666D01*
X-13229423Y-6980048D01*
X-13225500Y-7001662D01*
X-13225500Y-25608328D01*
X-13243513Y-25651815D01*
X-13425764Y-25834067D01*
X-13433577Y-25840676D01*
X-13440396Y-25845531D01*
X-13440396Y-25845532D01*
X-13440399Y-25845534D01*
X-13490914Y-25898513D01*
X-13505106Y-25913397D01*
X-13505617Y-25913920D01*
X-13533762Y-25942065D01*
X-13541605Y-25951564D01*
X-13543049Y-25953190D01*
X-13548797Y-25959219D01*
X-13588727Y-26001097D01*
X-13598602Y-26016462D01*
X-13609594Y-26033565D01*
X-13611751Y-26036519D01*
X-13636322Y-26066279D01*
X-13668037Y-26124363D01*
X-13669145Y-26126230D01*
X-13704935Y-26181920D01*
X-13715164Y-26207472D01*
X-13719278Y-26217749D01*
X-13720837Y-26221057D01*
X-13739334Y-26254931D01*
X-13739334Y-26254932D01*
X-13759485Y-26317967D01*
X-13760227Y-26320033D01*
X-13784822Y-26381468D01*
X-13790829Y-26412640D01*
X-13792125Y-26419362D01*
X-13793026Y-26422898D01*
X-13804782Y-26459669D01*
X-13812640Y-26525397D01*
X-13812976Y-26527548D01*
X-13825500Y-26592528D01*
X-13825500Y-26592532D01*
X-13825500Y-26631115D01*
X-13825718Y-26634769D01*
X-13830300Y-26673094D01*
X-13825577Y-26739125D01*
X-13825500Y-26741299D01*
X-13825500Y-29801817D01*
X-13843513Y-29845304D01*
X-13847058Y-29848581D01*
X-13849409Y-29850589D01*
X-14015065Y-30044548D01*
X-14015068Y-30044551D01*
X-14107269Y-30195010D01*
X-14148341Y-30262033D01*
X-14245953Y-30497689D01*
X-14245953Y-30497692D01*
X-14245954Y-30497693D01*
X-14305498Y-30745715D01*
X-14305499Y-30745722D01*
X-14325511Y-30999994D01*
X-14325511Y-31000005D01*
X-19000000Y-31000005D01*
X-19000000Y-16569596D01*
X-18404313Y-16569596D01*
X-18373886Y-16846124D01*
X-18303520Y-17115276D01*
X-18194716Y-17371314D01*
X-18049792Y-17608781D01*
X-17871837Y-17822617D01*
X-17664643Y-18008263D01*
X-17432627Y-18161763D01*
X-17180733Y-18279846D01*
X-16914331Y-18359995D01*
X-16639099Y-18400500D01*
X-16639098Y-18400500D01*
X-16430537Y-18400500D01*
X-16222545Y-18385277D01*
X-15951003Y-18324788D01*
X-15691162Y-18225408D01*
X-15691157Y-18225405D01*
X-15691156Y-18225405D01*
X-15577759Y-18161763D01*
X-15448560Y-18089253D01*
X-15228368Y-17919226D01*
X-15035278Y-17718951D01*
X-15035276Y-17718948D01*
X-15035271Y-17718942D01*
X-14873409Y-17492699D01*
X-14873407Y-17492697D01*
X-14746206Y-17245290D01*
X-14746204Y-17245286D01*
X-14746203Y-17245283D01*
X-14701850Y-17115274D01*
X-14656378Y-16981987D01*
X-14605847Y-16708412D01*
X-14595687Y-16430402D01*
X-14626114Y-16153873D01*
X-14626115Y-16153869D01*
X-14696477Y-15884732D01*
X-14696479Y-15884725D01*
X-14805284Y-15628685D01*
X-14950209Y-15391217D01*
X-15128165Y-15177380D01*
X-15260175Y-15059100D01*
X-15335357Y-14991737D01*
X-15335360Y-14991735D01*
X-15567375Y-14838235D01*
X-15819264Y-14720155D01*
X-15819274Y-14720151D01*
X-16085659Y-14640007D01*
X-16085661Y-14640006D01*
X-16257467Y-14614722D01*
X-16360901Y-14599500D01*
X-16569463Y-14599500D01*
X-16777445Y-14614722D01*
X-16777450Y-14614722D01*
X-16777455Y-14614723D01*
X-17048997Y-14675212D01*
X-17308838Y-14774592D01*
X-17308839Y-14774592D01*
X-17308843Y-14774594D01*
X-17494907Y-14879019D01*
X-17551440Y-14910747D01*
X-17771632Y-15080774D01*
X-17964722Y-15281049D01*
X-18126593Y-15507304D01*
X-18253797Y-15754717D01*
X-18298149Y-15884724D01*
X-18343621Y-16018012D01*
X-18358765Y-16100000D01*
X-18394152Y-16291584D01*
X-18404313Y-16569596D01*
X-19000000Y-16569596D01*
X-19000000Y46317D01*
X-14854260Y46317D01*
X-14844245Y-138407D01*
X-14794754Y-316659D01*
X-14708100Y-480104D01*
X-14588337Y-621100D01*
X-14537007Y-660120D01*
X-14465760Y-714281D01*
X-14441064Y-733054D01*
X-14273167Y-810732D01*
X-14092497Y-850500D01*
X-14092492Y-850500D01*
X-13953879Y-850500D01*
X-13953877Y-850499D01*
X-13816095Y-835515D01*
X-13816093Y-835514D01*
X-13816090Y-835514D01*
X-13640779Y-776444D01*
X-13482264Y-681070D01*
X-13347959Y-553849D01*
X-13347958Y-553848D01*
X-13347956Y-553846D01*
X-13244141Y-400728D01*
X-13244140Y-400726D01*
X-13175671Y-228881D01*
X-13175669Y-228874D01*
X-13160842Y-138437D01*
X-13145740Y-46317D01*
X-13155755Y138407D01*
X-13179504Y223944D01*
X-13205245Y316658D01*
X-13205246Y316659D01*
X-13249818Y400730D01*
X-13291900Y480104D01*
X-13291903Y480109D01*
X-13411663Y621100D01*
X-13558932Y733052D01*
X-13558935Y733053D01*
X-13558936Y733054D01*
X-13726833Y810732D01*
X-13907503Y850500D01*
X-14046113Y850500D01*
X-14046120Y850500D01*
X-14046122Y850499D01*
X-14183904Y835515D01*
X-14183905Y835514D01*
X-14183910Y835514D01*
X-14359221Y776444D01*
X-14517736Y681070D01*
X-14652041Y553849D01*
X-14755858Y400730D01*
X-14824331Y228875D01*
X-14854260Y46317D01*
X-19000000Y46317D01*
X-19000000Y8455373D01*
X-9103000Y8455373D01*
X-9102999Y7859628D01*
X-9102999Y7859627D01*
X-9096591Y7800018D01*
X-9096590Y7800014D01*
X-9046296Y7665170D01*
X-9046294Y7665166D01*
X-8990267Y7590322D01*
X-8978000Y7553467D01*
X-8978000Y6683314D01*
X-8978100Y6680832D01*
X-8981746Y6636053D01*
X-8982701Y6624335D01*
X-8971828Y6544534D01*
X-8971727Y6543707D01*
X-8963013Y6463585D01*
X-8961164Y6458098D01*
X-8958508Y6446768D01*
X-8957727Y6441032D01*
X-8957725Y6441027D01*
X-8957724Y6441022D01*
X-8929941Y6365399D01*
X-8929676Y6364649D01*
X-8903944Y6288279D01*
X-8901217Y6283747D01*
X-8900961Y6283321D01*
X-8895930Y6272822D01*
X-8893934Y6267389D01*
X-8893932Y6267385D01*
X-8893932Y6267384D01*
X-8850534Y6199488D01*
X-8850095Y6198780D01*
X-8808570Y6129764D01*
X-8804581Y6125553D01*
X-8797418Y6116389D01*
X-8794300Y6111511D01*
X-8737353Y6054564D01*
X-8736772Y6053967D01*
X-8681352Y5995462D01*
X-8681349Y5995459D01*
X-8681347Y5995457D01*
X-8681344Y5995455D01*
X-8676555Y5992208D01*
X-8667582Y5984793D01*
X-8554449Y5871661D01*
X-8545001Y5859482D01*
X-8530117Y5834313D01*
X-8415687Y5719883D01*
X-8276395Y5637506D01*
X-8234266Y5625265D01*
X-8224106Y5621306D01*
X-8175021Y5596963D01*
X-7995492Y5552315D01*
X-7995494Y5552315D01*
X-7830333Y5547841D01*
X-7787350Y5528657D01*
X-7770499Y5486366D01*
X-7770500Y4897762D01*
X-7770500Y4555813D01*
X-7770602Y4553317D01*
X-7775201Y4496833D01*
X-7764888Y4421146D01*
X-7764328Y4417034D01*
X-7764227Y4416207D01*
X-7755513Y4336085D01*
X-7753664Y4330598D01*
X-7751008Y4319268D01*
X-7750227Y4313532D01*
X-7750225Y4313527D01*
X-7750224Y4313522D01*
X-7722441Y4237899D01*
X-7722176Y4237149D01*
X-7696444Y4160779D01*
X-7693717Y4156247D01*
X-7693461Y4155821D01*
X-7688430Y4145322D01*
X-7686432Y4139885D01*
X-7686432Y4139884D01*
X-7643034Y4071988D01*
X-7642595Y4071280D01*
X-7601070Y4002264D01*
X-7597081Y3998053D01*
X-7589918Y3988889D01*
X-7586800Y3984011D01*
X-7529850Y3927061D01*
X-7529269Y3926464D01*
X-7489104Y3884063D01*
X-7473849Y3867959D01*
X-7473846Y3867957D01*
X-7469056Y3864709D01*
X-7460082Y3857293D01*
X-7378512Y3775722D01*
X-7360499Y3732235D01*
X-7360499Y3350820D01*
X-7357665Y3314796D01*
X-7312869Y3160607D01*
X-7231135Y3022402D01*
X-7117598Y2908865D01*
X-6979393Y2827131D01*
X-6979391Y2827130D01*
X-6979389Y2827129D01*
X-6979390Y2827129D01*
X-6825202Y2782334D01*
X-6789184Y2779500D01*
X-6407763Y2779500D01*
X-6364276Y2761487D01*
X-5263654Y1660865D01*
X-5245813Y1621974D01*
X-5235802Y1488370D01*
X-5177420Y1232584D01*
X-5081568Y988357D01*
X-4950386Y761143D01*
X-4786805Y556019D01*
X-4594479Y377567D01*
X-4377704Y229772D01*
X-4141323Y115937D01*
X-3936511Y52761D01*
X-3890612Y38603D01*
X-3788886Y23270D01*
X-3631182Y-500D01*
X-3368818Y-500D01*
X-3239101Y19052D01*
X-3109387Y38603D01*
X-2995155Y73839D01*
X-2858677Y115937D01*
X-2858674Y115938D01*
X-2858672Y115939D01*
X-2622292Y229774D01*
X-2405521Y377567D01*
X-2245214Y526310D01*
X-2213195Y556019D01*
X-2196319Y577180D01*
X-2049613Y761144D01*
X-1918431Y988359D01*
X-1918429Y988362D01*
X-1822578Y1232589D01*
X-1764198Y1488368D01*
X-1764197Y1488370D01*
X-1749500Y1684505D01*
X-1749500Y2315494D01*
X-1764197Y2511629D01*
X-1764198Y2511631D01*
X-1822578Y2767410D01*
X-1828436Y2782335D01*
X-1864145Y2873323D01*
X-1918429Y3011637D01*
X-1918431Y3011640D01*
X-1918432Y3011643D01*
X-2049614Y3238857D01*
X-2213195Y3443981D01*
X-2405521Y3622433D01*
X-2622296Y3770228D01*
X-2858677Y3884063D01*
X-3109385Y3961396D01*
X-3368818Y4000500D01*
X-3631182Y4000500D01*
X-3890615Y3961396D01*
X-4141323Y3884063D01*
X-4377704Y3770228D01*
X-4594479Y3622433D01*
X-4667847Y3554356D01*
X-4711976Y3537982D01*
X-4753164Y3555952D01*
X-6051487Y4854275D01*
X-6069500Y4897762D01*
X-6069500Y6446122D01*
X-6084484Y6583904D01*
X-6143555Y6759219D01*
X-6143558Y6759224D01*
X-6238929Y6917734D01*
X-6238930Y6917736D01*
X-6241073Y6919998D01*
X-6249362Y6930987D01*
X-6269883Y6965687D01*
X-6384313Y7080117D01*
X-6523605Y7162494D01*
X-6567690Y7175301D01*
X-6570456Y7176251D01*
X-6691125Y7224331D01*
X-6873683Y7254260D01*
X-7058407Y7244245D01*
X-7199049Y7205196D01*
X-7245768Y7210918D01*
X-7274758Y7248001D01*
X-7277000Y7264454D01*
X-7277000Y7553467D01*
X-7264733Y7590322D01*
X-7208705Y7665166D01*
X-7208703Y7665170D01*
X-7158410Y7800012D01*
X-7152000Y7859628D01*
X-7152000Y8455372D01*
X-7158408Y8514981D01*
X-7158409Y8514985D01*
X-7208703Y8649828D01*
X-7208705Y8649833D01*
X-7251501Y8707000D01*
X-7294954Y8765046D01*
X-7410169Y8851296D01*
X-7545017Y8901591D01*
X-7604627Y8908000D01*
X-7701517Y8907999D01*
X-7724280Y8912366D01*
X-7731560Y8915266D01*
X-7779436Y8934341D01*
X-7781696Y8935350D01*
X-7832479Y8960536D01*
X-7857090Y8966656D01*
X-7864247Y8968437D01*
X-7868207Y8969711D01*
X-7898625Y8981831D01*
X-7954564Y8991001D01*
X-7956996Y8991503D01*
X-7960653Y8992412D01*
X-8012005Y9005184D01*
X-8012003Y9005184D01*
X-8016471Y9005304D01*
X-8044737Y9006070D01*
X-8048878Y9006464D01*
X-8062055Y9008624D01*
X-8081183Y9011760D01*
X-8137785Y9008690D01*
X-8140250Y9008657D01*
X-8185580Y9009885D01*
X-8196922Y9010193D01*
X-8196924Y9010192D01*
X-8196932Y9010193D01*
X-8229092Y9004021D01*
X-8233214Y9003517D01*
X-8265907Y9001745D01*
X-8320547Y8986573D01*
X-8322937Y8986014D01*
X-8378613Y8975331D01*
X-8408677Y8962397D01*
X-8412604Y8961015D01*
X-8414336Y8960534D01*
X-8444159Y8952254D01*
X-8494257Y8925692D01*
X-8496467Y8924633D01*
X-8522679Y8913358D01*
X-8523504Y8913003D01*
X-8547804Y8907999D01*
X-8650372Y8907999D01*
X-8709983Y8901591D01*
X-8844831Y8851296D01*
X-8960046Y8765046D01*
X-9046296Y8649831D01*
X-9096591Y8514983D01*
X-9103000Y8455373D01*
X-19000000Y8455373D01*
X-19000000Y16430404D01*
X-18404313Y16430404D01*
X-18373886Y16153876D01*
X-18303520Y15884724D01*
X-18194716Y15628686D01*
X-18049792Y15391219D01*
X-17871837Y15177383D01*
X-17664643Y14991737D01*
X-17542232Y14910751D01*
X-17432624Y14838235D01*
X-17180735Y14720155D01*
X-17180725Y14720151D01*
X-16914340Y14640007D01*
X-16914338Y14640006D01*
X-16914331Y14640005D01*
X-16639099Y14599500D01*
X-16639098Y14599500D01*
X-16430537Y14599500D01*
X-16222554Y14614722D01*
X-16222547Y14614722D01*
X-16222545Y14614723D01*
X-16086773Y14644967D01*
X-15951002Y14675212D01*
X-15691165Y14774591D01*
X-15691156Y14774594D01*
X-15448563Y14910745D01*
X-15448554Y14910751D01*
X-15228367Y15080775D01*
X-15035279Y15281047D01*
X-15035271Y15281057D01*
X-14873409Y15507300D01*
X-14873407Y15507302D01*
X-14746206Y15754709D01*
X-14746201Y15754723D01*
X-14656378Y16018012D01*
X-14605847Y16291587D01*
X-14595687Y16569597D01*
X-14626114Y16846126D01*
X-14626115Y16846130D01*
X-14696477Y17115267D01*
X-14696479Y17115274D01*
X-14805284Y17371314D01*
X-14869683Y17476835D01*
X-14950208Y17608781D01*
X-15128163Y17822617D01*
X-15335357Y18008263D01*
X-15567373Y18161763D01*
X-15819267Y18279846D01*
X-16085659Y18359992D01*
X-16085661Y18359993D01*
X-16085663Y18359993D01*
X-16085669Y18359995D01*
X-16360901Y18400500D01*
X-16569463Y18400500D01*
X-16777455Y18385277D01*
X-17048997Y18324788D01*
X-17308838Y18225408D01*
X-17551440Y18089253D01*
X-17771632Y17919226D01*
X-17964722Y17718951D01*
X-18126593Y17492696D01*
X-18253797Y17245283D01*
X-18343621Y16981986D01*
X-18394152Y16708416D01*
X-18404313Y16430404D01*
X-19000000Y16430404D01*
X-19000000Y22155373D01*
X-9103000Y22155373D01*
X-9102999Y21559628D01*
X-9102999Y21559627D01*
X-9096591Y21500018D01*
X-9096590Y21500014D01*
X-9046296Y21365170D01*
X-9046294Y21365166D01*
X-8990267Y21290322D01*
X-8978000Y21253467D01*
X-8978000Y20383314D01*
X-8978100Y20380832D01*
X-8982701Y20324333D01*
X-8977333Y20284939D01*
X-8971828Y20244534D01*
X-8971727Y20243707D01*
X-8963013Y20163585D01*
X-8961164Y20158098D01*
X-8958508Y20146768D01*
X-8957727Y20141032D01*
X-8957725Y20141027D01*
X-8957724Y20141022D01*
X-8929941Y20065399D01*
X-8929676Y20064649D01*
X-8903944Y19988279D01*
X-8901217Y19983747D01*
X-8900961Y19983321D01*
X-8895930Y19972822D01*
X-8893934Y19967389D01*
X-8893932Y19967385D01*
X-8893932Y19967384D01*
X-8850534Y19899488D01*
X-8850095Y19898780D01*
X-8808570Y19829764D01*
X-8804581Y19825553D01*
X-8797418Y19816389D01*
X-8794300Y19811511D01*
X-8737353Y19754564D01*
X-8736772Y19753967D01*
X-8681352Y19695462D01*
X-8681349Y19695459D01*
X-8681347Y19695457D01*
X-8681344Y19695455D01*
X-8676555Y19692208D01*
X-8667582Y19684793D01*
X-8554449Y19571661D01*
X-8545001Y19559482D01*
X-8530117Y19534313D01*
X-8415687Y19419883D01*
X-8276395Y19337506D01*
X-8234266Y19325265D01*
X-8224106Y19321306D01*
X-8175021Y19296963D01*
X-7995492Y19252315D01*
X-7995494Y19252315D01*
X-7820334Y19247570D01*
X-7777351Y19228386D01*
X-7760500Y19186093D01*
X-7760500Y17535814D01*
X-7760600Y17533332D01*
X-7763909Y17492699D01*
X-7765201Y17476835D01*
X-7754328Y17397031D01*
X-7754226Y17396203D01*
X-7750680Y17363590D01*
X-7750500Y17360264D01*
X-7750500Y16363879D01*
X-7750499Y16363877D01*
X-7735514Y16226090D01*
X-7714327Y16163212D01*
X-7713949Y16162007D01*
X-7672869Y16020607D01*
X-7620056Y15931306D01*
X-7613424Y15884706D01*
X-7620055Y15868696D01*
X-7672869Y15779393D01*
X-7672870Y15779388D01*
X-7672871Y15779386D01*
X-7687739Y15728208D01*
X-7691701Y15718039D01*
X-7713036Y15675021D01*
X-7713036Y15675019D01*
X-7713037Y15675017D01*
X-7714429Y15669419D01*
X-7718301Y15658421D01*
X-7720730Y15653172D01*
X-7720732Y15653167D01*
X-7738074Y15574374D01*
X-7738225Y15573735D01*
X-7757684Y15495495D01*
X-7757841Y15489698D01*
X-7759254Y15478152D01*
X-7760500Y15472497D01*
X-7760500Y15472495D01*
X-7760500Y15472493D01*
X-7760500Y15391931D01*
X-7760509Y15391217D01*
X-7762541Y15316144D01*
X-7762693Y15310570D01*
X-7761602Y15304883D01*
X-7760500Y15293291D01*
X-7760500Y14335814D01*
X-7760600Y14333332D01*
X-7763871Y14293167D01*
X-7765201Y14276835D01*
X-7754328Y14197034D01*
X-7754227Y14196207D01*
X-7745513Y14116085D01*
X-7743664Y14110598D01*
X-7741008Y14099268D01*
X-7740227Y14093532D01*
X-7740225Y14093527D01*
X-7734272Y14077321D01*
X-7730500Y14056114D01*
X-7730500Y11653879D01*
X-7730499Y11653877D01*
X-7715514Y11516090D01*
X-7656444Y11340779D01*
X-7561070Y11182264D01*
X-7561066Y11182260D01*
X-7558923Y11179998D01*
X-7550637Y11169012D01*
X-7530117Y11134313D01*
X-7415687Y11019883D01*
X-7276395Y10937506D01*
X-7276393Y10937505D01*
X-7276391Y10937504D01*
X-7250320Y10929930D01*
X-7232314Y10924699D01*
X-7229531Y10923743D01*
X-7108875Y10875669D01*
X-6926317Y10845740D01*
X-6926316Y10845740D01*
X-6835328Y10850672D01*
X-6790930Y10835039D01*
X-6770590Y10792590D01*
X-6770500Y10789262D01*
X-6770500Y10499362D01*
X-6772318Y10484519D01*
X-6775184Y10472995D01*
X-6775341Y10467198D01*
X-6776754Y10455652D01*
X-6778000Y10449997D01*
X-6778000Y10449995D01*
X-6778000Y10449993D01*
X-6778000Y10369431D01*
X-6778010Y10368650D01*
X-6779445Y10315686D01*
X-6780193Y10288068D01*
X-6779103Y10282389D01*
X-6777999Y10270801D01*
X-6777999Y10125510D01*
X-6777999Y10061531D01*
X-6790267Y10024675D01*
X-6846296Y9949831D01*
X-6896591Y9814983D01*
X-6903000Y9755373D01*
X-6902999Y9159628D01*
X-6896591Y9100017D01*
X-6846296Y8965169D01*
X-6846294Y8965166D01*
X-6843184Y8961012D01*
X-6760046Y8849954D01*
X-6742056Y8836487D01*
X-6644833Y8763705D01*
X-6644831Y8763704D01*
X-6644828Y8763703D01*
X-6509987Y8713410D01*
X-6509985Y8713409D01*
X-6509983Y8713409D01*
X-6450373Y8707000D01*
X-6353479Y8707000D01*
X-6330716Y8702632D01*
X-6156381Y8633171D01*
X-6156377Y8633170D01*
X-6156375Y8633169D01*
X-5973817Y8603240D01*
X-5973816Y8603240D01*
X-5881455Y8608247D01*
X-5789093Y8613255D01*
X-5789091Y8613255D01*
X-5789088Y8613256D01*
X-5610841Y8662745D01*
X-5610839Y8662746D01*
X-5540880Y8699836D01*
X-5512074Y8707000D01*
X-5404627Y8707000D01*
X-5345018Y8713408D01*
X-5345014Y8713409D01*
X-5210171Y8763703D01*
X-5210166Y8763705D01*
X-5094954Y8849954D01*
X-5008705Y8965166D01*
X-5008703Y8965171D01*
X-4958410Y9100012D01*
X-4952000Y9159628D01*
X-4952000Y9755372D01*
X-4958027Y9811427D01*
X-4944765Y9856590D01*
X-4903452Y9879148D01*
X-4896879Y9879500D01*
X-4734478Y9879500D01*
X-4734472Y9879500D01*
X-4683740Y9886891D01*
X-4666828Y9889355D01*
X-4562487Y9940364D01*
X-4480363Y10022489D01*
X-4471798Y10040011D01*
X-4436516Y10071168D01*
X-4416547Y10074500D01*
X-4383453Y10074500D01*
X-4339966Y10056487D01*
X-4328202Y10040011D01*
X-4319636Y10022489D01*
X-4237512Y9940364D01*
X-4133171Y9889355D01*
X-4123506Y9887947D01*
X-4065528Y9879500D01*
X-4065522Y9879500D01*
X-3704478Y9879500D01*
X-3704472Y9879500D01*
X-3653740Y9886891D01*
X-3636828Y9889355D01*
X-3532487Y9940364D01*
X-3450364Y10022488D01*
X-3450050Y10022929D01*
X-3449714Y10023138D01*
X-3446761Y10026092D01*
X-3446077Y10025408D01*
X-3410119Y10047852D01*
X-3364261Y10037240D01*
X-3349950Y10022929D01*
X-3349635Y10022488D01*
X-3267509Y9940362D01*
X-3266257Y9939468D01*
X-3265662Y9938515D01*
X-3263908Y9936761D01*
X-3264314Y9936354D01*
X-3241337Y9899536D01*
X-3240500Y9889421D01*
X-3240500Y9654716D01*
X-3258513Y9611229D01*
X-3266724Y9604339D01*
X-3268313Y9603225D01*
X-3268316Y9603224D01*
X-3348026Y9523513D01*
X-3348027Y9523513D01*
X-3391514Y9505500D01*
X-3508486Y9505500D01*
X-3551973Y9523513D01*
X-3631684Y9603224D01*
X-3674499Y9623189D01*
X-3740513Y9653972D01*
X-3790099Y9660500D01*
X-4209900Y9660499D01*
X-4259487Y9653972D01*
X-4368316Y9603224D01*
X-4453224Y9518316D01*
X-4503972Y9409487D01*
X-4510500Y9359901D01*
X-4510499Y9159628D01*
X-4510499Y9000104D01*
X-4510498Y9000091D01*
X-4506331Y8968437D01*
X-4503972Y8950513D01*
X-4492403Y8925703D01*
X-4453224Y8841684D01*
X-4368315Y8756775D01*
X-4259485Y8706027D01*
X-4209902Y8699500D01*
X-4209901Y8699500D01*
X-3790104Y8699500D01*
X-3790091Y8699501D01*
X-3740513Y8706027D01*
X-3740511Y8706028D01*
X-3631684Y8756775D01*
X-3551973Y8836487D01*
X-3508486Y8854500D01*
X-3391514Y8854500D01*
X-3348027Y8836487D01*
X-3268315Y8756775D01*
X-3159485Y8706027D01*
X-3109902Y8699500D01*
X-3109901Y8699500D01*
X-2690104Y8699500D01*
X-2690091Y8699501D01*
X-2640513Y8706027D01*
X-2640511Y8706028D01*
X-2531684Y8756775D01*
X-2451973Y8836487D01*
X-2408486Y8854500D01*
X-2291514Y8854500D01*
X-2248027Y8836487D01*
X-2168315Y8756775D01*
X-2059485Y8706027D01*
X-2009902Y8699500D01*
X-2009901Y8699500D01*
X-1590104Y8699500D01*
X-1590091Y8699501D01*
X-1540513Y8706027D01*
X-1540511Y8706028D01*
X-1431684Y8756775D01*
X-1346775Y8841684D01*
X-1296027Y8950514D01*
X-1289500Y9000093D01*
X-1289500Y9359895D01*
X-1289501Y9359908D01*
X-1296027Y9409486D01*
X-1296028Y9409488D01*
X-1346775Y9518315D01*
X-1431681Y9603221D01*
X-1431684Y9603224D01*
X-1438989Y9606630D01*
X-1470790Y9641330D01*
X-1474500Y9662368D01*
X-1474500Y10011152D01*
X-1456487Y10054639D01*
X-1438992Y10066889D01*
X-1419599Y10075932D01*
X-1419592Y10075937D01*
X-1335934Y10159596D01*
X-1285931Y10266828D01*
X-1279500Y10315677D01*
X-1279500Y10664322D01*
X-1285931Y10713171D01*
X-1335934Y10820403D01*
X-1419596Y10904065D01*
X-1505798Y10944262D01*
X-1537598Y10978966D01*
X-1535545Y11025991D01*
X-1505798Y11055738D01*
X-1419596Y11095934D01*
X-1335934Y11179596D01*
X-1285931Y11286828D01*
X-1279500Y11335677D01*
X-1279500Y11684322D01*
X-1285931Y11733171D01*
X-1335934Y11840403D01*
X-1419596Y11924065D01*
X-1526827Y11974068D01*
X-1575684Y11980500D01*
X-1575687Y11980500D01*
X-1607863Y11980500D01*
X-1651350Y11998513D01*
X-1655945Y12003655D01*
X-1680116Y12033964D01*
X-1680117Y12033965D01*
X-1680121Y12033970D01*
X-1728821Y12067173D01*
X-1729731Y12067820D01*
X-1745560Y12079502D01*
X-1777118Y12102793D01*
X-1777580Y12102954D01*
X-1791918Y12110193D01*
X-1792325Y12110471D01*
X-1792327Y12110472D01*
X-1848628Y12127837D01*
X-1849673Y12128180D01*
X-1905301Y12147646D01*
X-1905788Y12147664D01*
X-1921620Y12150352D01*
X-1922098Y12150500D01*
X-1922101Y12150500D01*
X-1980998Y12150500D01*
X-1982123Y12150520D01*
X-2041010Y12152724D01*
X-2041284Y12152650D01*
X-2041489Y12152596D01*
X-2057406Y12150500D01*
X-2562208Y12150500D01*
X-2588199Y12156262D01*
X-2690513Y12203972D01*
X-2740099Y12210500D01*
X-3099900Y12210499D01*
X-3149487Y12203972D01*
X-3258316Y12153224D01*
X-3343224Y12068316D01*
X-3393972Y11959487D01*
X-3400500Y11909901D01*
X-3400499Y11684322D01*
X-3400499Y11490104D01*
X-3400498Y11490091D01*
X-3393972Y11440513D01*
X-3393971Y11440511D01*
X-3345598Y11336775D01*
X-3340462Y11302033D01*
X-3355133Y11200000D01*
X-3336697Y11071774D01*
X-3282882Y10953937D01*
X-3274499Y10944262D01*
X-3269464Y10938452D01*
X-3254600Y10893790D01*
X-3272456Y10854691D01*
X-3349636Y10777511D01*
X-3349636Y10777510D01*
X-3349945Y10777078D01*
X-3350277Y10776870D01*
X-3353240Y10773908D01*
X-3353925Y10774593D01*
X-3389872Y10752150D01*
X-3435732Y10762755D01*
X-3450055Y10777078D01*
X-3450366Y10777514D01*
X-3532487Y10859635D01*
X-3579088Y10882417D01*
X-3636830Y10910645D01*
X-3704472Y10920500D01*
X-4065528Y10920500D01*
X-4133170Y10910645D01*
X-4237511Y10859636D01*
X-4319636Y10777511D01*
X-4321397Y10773908D01*
X-4328202Y10759989D01*
X-4363484Y10728832D01*
X-4383453Y10725500D01*
X-4416547Y10725500D01*
X-4460034Y10743513D01*
X-4471798Y10759989D01*
X-4480363Y10777510D01*
X-4562487Y10859635D01*
X-4609088Y10882417D01*
X-4666830Y10910645D01*
X-4734472Y10920500D01*
X-4734478Y10920500D01*
X-5008000Y10920500D01*
X-5051487Y10938513D01*
X-5069500Y10982000D01*
X-5069500Y11746122D01*
X-5084484Y11883904D01*
X-5143555Y12059219D01*
X-5143558Y12059224D01*
X-5148329Y12067154D01*
X-5238930Y12217736D01*
X-5241073Y12219998D01*
X-5249362Y12230987D01*
X-5269883Y12265687D01*
X-5384313Y12380117D01*
X-5523605Y12462494D01*
X-5567690Y12475301D01*
X-5570456Y12476251D01*
X-5691125Y12524331D01*
X-5873683Y12554260D01*
X-5964672Y12549326D01*
X-6009069Y12564958D01*
X-6029410Y12607406D01*
X-6029500Y12610736D01*
X-6029500Y14234184D01*
X-6029399Y14236667D01*
X-6027941Y14254568D01*
X-6024798Y14293165D01*
X-6035674Y14372996D01*
X-6035775Y14373822D01*
X-6044485Y14453905D01*
X-6044485Y14453907D01*
X-6044486Y14453910D01*
X-6046336Y14459402D01*
X-6048991Y14470730D01*
X-6049772Y14476465D01*
X-6049773Y14476468D01*
X-6055727Y14492676D01*
X-6059500Y14513882D01*
X-6059500Y15238085D01*
X-6057682Y15252928D01*
X-6052315Y15274505D01*
X-6047306Y15459420D01*
X-6047307Y15459434D01*
X-6082167Y15641106D01*
X-6082169Y15641114D01*
X-6091900Y15663734D01*
X-6096169Y15673659D01*
X-6097449Y15677228D01*
X-6127128Y15779387D01*
X-6127131Y15779392D01*
X-6127131Y15779393D01*
X-6156355Y15828809D01*
X-6179943Y15868695D01*
X-6186575Y15915295D01*
X-6179943Y15931305D01*
X-6127131Y16020607D01*
X-6127128Y16020613D01*
X-6101571Y16108581D01*
X-6098330Y16117243D01*
X-6089269Y16136829D01*
X-6089268Y16136833D01*
X-6049501Y16317497D01*
X-6049500Y16317507D01*
X-6049500Y17454184D01*
X-6049399Y17456667D01*
X-6047941Y17474568D01*
X-6044798Y17513165D01*
X-6055674Y17592991D01*
X-6055775Y17593817D01*
X-6057403Y17608782D01*
X-6059320Y17626417D01*
X-6059500Y17629727D01*
X-6059500Y20054184D01*
X-6059399Y20056667D01*
X-6057941Y20074568D01*
X-6054798Y20113165D01*
X-6065674Y20192996D01*
X-6065775Y20193822D01*
X-6074485Y20273905D01*
X-6074485Y20273907D01*
X-6074486Y20273910D01*
X-6076336Y20279402D01*
X-6078991Y20290730D01*
X-6079772Y20296461D01*
X-6079773Y20296469D01*
X-6107565Y20372122D01*
X-6107842Y20372906D01*
X-6133554Y20449218D01*
X-6133555Y20449221D01*
X-6136540Y20454181D01*
X-6141568Y20464675D01*
X-6143564Y20470108D01*
X-6143567Y20470114D01*
X-6186957Y20537998D01*
X-6187396Y20538706D01*
X-6228929Y20607735D01*
X-6232916Y20611944D01*
X-6240082Y20621110D01*
X-6243201Y20625989D01*
X-6245545Y20628333D01*
X-6254998Y20640518D01*
X-6269882Y20665686D01*
X-6384311Y20780115D01*
X-6384313Y20780117D01*
X-6523605Y20862494D01*
X-6523608Y20862495D01*
X-6565731Y20874733D01*
X-6575899Y20878695D01*
X-6624975Y20903034D01*
X-6624979Y20903036D01*
X-6804505Y20947684D01*
X-6804504Y20947684D01*
X-6989420Y20952693D01*
X-6989423Y20952692D01*
X-6989432Y20952693D01*
X-7171113Y20917831D01*
X-7191197Y20909190D01*
X-7238262Y20908552D01*
X-7271994Y20941381D01*
X-7277000Y20965685D01*
X-7277000Y21253467D01*
X-7264733Y21290322D01*
X-7208705Y21365166D01*
X-7208703Y21365170D01*
X-7158410Y21500012D01*
X-7152000Y21559627D01*
X2097000Y21559627D01*
X2103408Y21500018D01*
X2103409Y21500014D01*
X2153703Y21365170D01*
X2153705Y21365166D01*
X2209733Y21290322D01*
X2222000Y21253467D01*
X2222000Y20383314D01*
X2221899Y20380832D01*
X2221186Y20372066D01*
X2217298Y20324334D01*
X2228174Y20244506D01*
X2228275Y20243680D01*
X2236985Y20163593D01*
X2236987Y20163583D01*
X2238835Y20158098D01*
X2241489Y20146775D01*
X2242271Y20141039D01*
X2242272Y20141035D01*
X2270061Y20065388D01*
X2270338Y20064604D01*
X2296054Y19988283D01*
X2296055Y19988281D01*
X2296056Y19988279D01*
X2296058Y19988275D01*
X2299042Y19983316D01*
X2304065Y19972833D01*
X2306065Y19967389D01*
X2306070Y19967379D01*
X2349444Y19899521D01*
X2349883Y19898814D01*
X2391426Y19829769D01*
X2391432Y19829760D01*
X2395420Y19825550D01*
X2402576Y19816396D01*
X2405699Y19811511D01*
X2462665Y19754544D01*
X2463245Y19753948D01*
X2518651Y19695458D01*
X2523448Y19692205D01*
X2532415Y19684794D01*
X2645550Y19571660D01*
X2654998Y19559480D01*
X2669880Y19534315D01*
X2784311Y19419884D01*
X2923605Y19337506D01*
X2923610Y19337504D01*
X2965728Y19325266D01*
X2975891Y19321306D01*
X3024975Y19296964D01*
X3024976Y19296963D01*
X3204507Y19252315D01*
X3204505Y19252315D01*
X3379666Y19247570D01*
X3422649Y19228386D01*
X3439500Y19186093D01*
X3439500Y17535814D01*
X3439399Y17533332D01*
X3437758Y17513167D01*
X3434798Y17476834D01*
X3445674Y17397007D01*
X3445775Y17396181D01*
X3449320Y17363590D01*
X3449500Y17360271D01*
X3449500Y16363877D01*
X3464485Y16226093D01*
X3485670Y16163212D01*
X3486059Y16161974D01*
X3527128Y16020613D01*
X3527131Y16020607D01*
X3579943Y15931305D01*
X3586575Y15884705D01*
X3579943Y15868695D01*
X3556355Y15828809D01*
X3527131Y15779393D01*
X3527131Y15779392D01*
X3527128Y15779387D01*
X3512258Y15728202D01*
X3508296Y15718035D01*
X3486965Y15675025D01*
X3485569Y15669410D01*
X3481701Y15658427D01*
X3479270Y15653173D01*
X3479268Y15653169D01*
X3476614Y15641112D01*
X3461940Y15574449D01*
X3461758Y15573673D01*
X3442315Y15495495D01*
X3442315Y15495494D01*
X3442158Y15489698D01*
X3440745Y15478155D01*
X3439500Y15472495D01*
X3439500Y15391931D01*
X3439491Y15391217D01*
X3438610Y15358684D01*
X3437306Y15310571D01*
X3437306Y15310570D01*
X3438398Y15304880D01*
X3439499Y15293295D01*
X3439499Y14335814D01*
X3439398Y14333317D01*
X3434798Y14276835D01*
X3445674Y14197006D01*
X3445775Y14196180D01*
X3454485Y14116093D01*
X3454487Y14116083D01*
X3456335Y14110598D01*
X3458989Y14099275D01*
X3459771Y14093539D01*
X3459772Y14093532D01*
X3465728Y14077321D01*
X3469500Y14056115D01*
X3469500Y11653877D01*
X3484484Y11516095D01*
X3543555Y11340780D01*
X3543558Y11340775D01*
X3638930Y11182262D01*
X3638932Y11182259D01*
X3641079Y11179994D01*
X3649362Y11169010D01*
X3669878Y11134318D01*
X3669883Y11134312D01*
X3784311Y11019884D01*
X3923603Y10937507D01*
X3923605Y10937506D01*
X3967674Y10924702D01*
X3970477Y10923739D01*
X4091118Y10875671D01*
X4091125Y10875669D01*
X4273683Y10845740D01*
X4364672Y10850672D01*
X4409070Y10835039D01*
X4429410Y10792590D01*
X4429500Y10789262D01*
X4429500Y10499361D01*
X4427682Y10484519D01*
X4424816Y10472995D01*
X4424815Y10472987D01*
X4424658Y10467198D01*
X4423245Y10455655D01*
X4422000Y10449995D01*
X4422000Y10369431D01*
X4421989Y10368650D01*
X4421096Y10335691D01*
X4419806Y10288070D01*
X4420898Y10282383D01*
X4422000Y10270791D01*
X4422000Y10061531D01*
X4409733Y10024675D01*
X4399609Y10011152D01*
X4353705Y9949833D01*
X4353703Y9949828D01*
X4331173Y9889421D01*
X4303409Y9814983D01*
X4303027Y9811427D01*
X4297000Y9755371D01*
X4297000Y9159627D01*
X4303408Y9100018D01*
X4303409Y9100014D01*
X4353703Y8965171D01*
X4353705Y8965166D01*
X4439954Y8849954D01*
X4555166Y8763705D01*
X4555171Y8763703D01*
X4690012Y8713410D01*
X4690015Y8713409D01*
X4690017Y8713409D01*
X4749627Y8707000D01*
X4846521Y8707000D01*
X4869284Y8702632D01*
X5043618Y8633171D01*
X5043625Y8633169D01*
X5226182Y8603240D01*
X5226183Y8603240D01*
X5410907Y8613255D01*
X5410911Y8613256D01*
X5589158Y8662745D01*
X5589159Y8662746D01*
X5659118Y8699836D01*
X5687924Y8707000D01*
X5795372Y8707000D01*
X5854981Y8713408D01*
X5854985Y8713409D01*
X5989828Y8763703D01*
X5989831Y8763704D01*
X5989833Y8763705D01*
X6087056Y8836487D01*
X6105046Y8849954D01*
X6188184Y8961012D01*
X6191294Y8965166D01*
X6191296Y8965169D01*
X6241591Y9100017D01*
X6248000Y9159627D01*
X6247999Y9755372D01*
X6241973Y9811427D01*
X6255235Y9856590D01*
X6296548Y9879148D01*
X6303121Y9879500D01*
X6465522Y9879500D01*
X6465528Y9879500D01*
X6523506Y9887947D01*
X6533171Y9889355D01*
X6637512Y9940364D01*
X6719636Y10022489D01*
X6728202Y10040011D01*
X6763484Y10071168D01*
X6783453Y10074500D01*
X6816547Y10074500D01*
X6860034Y10056487D01*
X6871798Y10040011D01*
X6880363Y10022489D01*
X6962487Y9940364D01*
X7066828Y9889355D01*
X7083740Y9886891D01*
X7134472Y9879500D01*
X7134478Y9879500D01*
X7495522Y9879500D01*
X7495528Y9879500D01*
X7553506Y9887947D01*
X7563171Y9889355D01*
X7667512Y9940364D01*
X7749635Y10022488D01*
X7749950Y10022929D01*
X7750285Y10023138D01*
X7753239Y10026092D01*
X7753922Y10025408D01*
X7789881Y10047852D01*
X7835739Y10037240D01*
X7850050Y10022929D01*
X7850364Y10022488D01*
X7932490Y9940362D01*
X7933743Y9939468D01*
X7934337Y9938515D01*
X7936092Y9936761D01*
X7935685Y9936354D01*
X7958663Y9899536D01*
X7959500Y9889421D01*
X7959500Y9654716D01*
X7941487Y9611229D01*
X7933276Y9604339D01*
X7931684Y9603224D01*
X7851973Y9523513D01*
X7808486Y9505500D01*
X7691514Y9505500D01*
X7648027Y9523513D01*
X7648026Y9523513D01*
X7568316Y9603224D01*
X7459487Y9653972D01*
X7409901Y9660500D01*
X6990100Y9660499D01*
X6990094Y9660498D01*
X6990091Y9660498D01*
X6940513Y9653972D01*
X6940511Y9653971D01*
X6831684Y9603224D01*
X6746775Y9518315D01*
X6696027Y9409485D01*
X6689500Y9359906D01*
X6689500Y9000104D01*
X6689501Y9000091D01*
X6696027Y8950513D01*
X6696028Y8950511D01*
X6746775Y8841684D01*
X6831684Y8756775D01*
X6940514Y8706027D01*
X6990097Y8699500D01*
X6990099Y8699500D01*
X7409895Y8699500D01*
X7409908Y8699501D01*
X7459486Y8706027D01*
X7459488Y8706028D01*
X7568315Y8756775D01*
X7648027Y8836487D01*
X7691514Y8854500D01*
X7808486Y8854500D01*
X7851973Y8836487D01*
X7931684Y8756775D01*
X8040514Y8706027D01*
X8090097Y8699500D01*
X8090099Y8699500D01*
X8509895Y8699500D01*
X8509908Y8699501D01*
X8559486Y8706027D01*
X8559488Y8706028D01*
X8668315Y8756775D01*
X8748027Y8836487D01*
X8791514Y8854500D01*
X8908486Y8854500D01*
X8951973Y8836487D01*
X9031684Y8756775D01*
X9140514Y8706027D01*
X9190097Y8699500D01*
X9190099Y8699500D01*
X9609895Y8699500D01*
X9609908Y8699501D01*
X9659486Y8706027D01*
X9659488Y8706028D01*
X9768315Y8756775D01*
X9853224Y8841684D01*
X9881158Y8901589D01*
X9903972Y8950513D01*
X9910500Y9000099D01*
X9910499Y9359900D01*
X9903972Y9409487D01*
X9853224Y9518316D01*
X9768316Y9603224D01*
X9761010Y9606630D01*
X9729210Y9641330D01*
X9725500Y9662368D01*
X9725500Y10011152D01*
X9743513Y10054639D01*
X9761008Y10066889D01*
X9780400Y10075932D01*
X9780407Y10075937D01*
X9864065Y10159596D01*
X9914068Y10266828D01*
X9920499Y10315677D01*
X9920500Y10315686D01*
X9920500Y10664313D01*
X9920499Y10664322D01*
X9914068Y10713171D01*
X9914068Y10713173D01*
X9864065Y10820404D01*
X9780404Y10904065D01*
X9694200Y10944262D01*
X9662401Y10978966D01*
X9664454Y11025991D01*
X9694200Y11055737D01*
X9731718Y11073232D01*
X9780403Y11095934D01*
X9864065Y11179596D01*
X9914068Y11286828D01*
X9916070Y11302031D01*
X9920500Y11335684D01*
X9920500Y11684316D01*
X9914068Y11733173D01*
X9864065Y11840404D01*
X9780404Y11924065D01*
X9673173Y11974068D01*
X9624316Y11980500D01*
X9624313Y11980500D01*
X9592136Y11980500D01*
X9548649Y11998513D01*
X9544052Y12003657D01*
X9519879Y12033970D01*
X9482842Y12059221D01*
X9471192Y12067163D01*
X9470267Y12067820D01*
X9422882Y12102793D01*
X9422426Y12102952D01*
X9408077Y12110196D01*
X9407673Y12110472D01*
X9351303Y12127858D01*
X9350346Y12128173D01*
X9294699Y12147646D01*
X9294211Y12147664D01*
X9278366Y12150356D01*
X9277902Y12150500D01*
X9219002Y12150500D01*
X9217876Y12150520D01*
X9158990Y12152724D01*
X9158815Y12152677D01*
X9158511Y12152596D01*
X9142594Y12150500D01*
X8637792Y12150500D01*
X8611801Y12156262D01*
X8509487Y12203972D01*
X8459901Y12210500D01*
X8100100Y12210499D01*
X8100094Y12210498D01*
X8100091Y12210498D01*
X8050513Y12203972D01*
X8050511Y12203971D01*
X7941684Y12153224D01*
X7856775Y12068315D01*
X7806027Y11959485D01*
X7799500Y11909906D01*
X7799500Y11490104D01*
X7799501Y11490091D01*
X7806027Y11440513D01*
X7806028Y11440511D01*
X7854401Y11336776D01*
X7859537Y11302033D01*
X7844867Y11200000D01*
X7844867Y11199999D01*
X7863303Y11071773D01*
X7863304Y11071769D01*
X7917116Y10953939D01*
X7917118Y10953936D01*
X7930537Y10938449D01*
X7945399Y10893787D01*
X7927543Y10854691D01*
X7850366Y10777514D01*
X7850055Y10777078D01*
X7849722Y10776870D01*
X7846760Y10773908D01*
X7846074Y10774593D01*
X7810128Y10752150D01*
X7764268Y10762755D01*
X7749945Y10777078D01*
X7749636Y10777510D01*
X7749636Y10777511D01*
X7667511Y10859636D01*
X7563170Y10910645D01*
X7495528Y10920500D01*
X7134472Y10920500D01*
X7066830Y10910645D01*
X7009089Y10882417D01*
X6962487Y10859635D01*
X6880363Y10777510D01*
X6871798Y10759989D01*
X6836516Y10728832D01*
X6816547Y10725500D01*
X6783453Y10725500D01*
X6739966Y10743513D01*
X6728202Y10759989D01*
X6721397Y10773908D01*
X6719636Y10777511D01*
X6637511Y10859636D01*
X6533170Y10910645D01*
X6465528Y10920500D01*
X6465522Y10920500D01*
X6192000Y10920500D01*
X6148513Y10938513D01*
X6130500Y10982000D01*
X6130500Y11746120D01*
X6130499Y11746122D01*
X6115515Y11883904D01*
X6115514Y11883905D01*
X6115514Y11883910D01*
X6056444Y12059221D01*
X5961070Y12217736D01*
X5958925Y12219999D01*
X5950637Y12230987D01*
X5930117Y12265687D01*
X5815687Y12380117D01*
X5676395Y12462494D01*
X5632302Y12475303D01*
X5629548Y12476249D01*
X5508875Y12524331D01*
X5326317Y12554260D01*
X5235327Y12549326D01*
X5190931Y12564958D01*
X5170590Y12607406D01*
X5170500Y12610736D01*
X5170500Y14234184D01*
X5170600Y14236667D01*
X5175201Y14293167D01*
X5164324Y14372996D01*
X5164231Y14373749D01*
X5155514Y14453910D01*
X5153664Y14459400D01*
X5151008Y14470733D01*
X5150997Y14470809D01*
X5150227Y14476468D01*
X5144271Y14492677D01*
X5140500Y14513882D01*
X5140500Y15238085D01*
X5142318Y15252928D01*
X5147684Y15274505D01*
X5152693Y15459420D01*
X5152692Y15459423D01*
X5152693Y15459432D01*
X5117831Y15641113D01*
X5103824Y15673671D01*
X5102554Y15677213D01*
X5072871Y15779387D01*
X5072870Y15779390D01*
X5072869Y15779392D01*
X5072869Y15779393D01*
X5020056Y15868695D01*
X5013424Y15915294D01*
X5020056Y15931306D01*
X5071335Y16018014D01*
X5072869Y16020607D01*
X5098426Y16108577D01*
X5101668Y16117242D01*
X5110730Y16136829D01*
X5110731Y16136830D01*
X5110732Y16136833D01*
X5150500Y16317503D01*
X5150500Y16430404D01*
X14595687Y16430404D01*
X14626114Y16153873D01*
X14626115Y16153869D01*
X14696477Y15884732D01*
X14696479Y15884725D01*
X14805284Y15628685D01*
X14950209Y15391217D01*
X15128165Y15177380D01*
X15235984Y15080775D01*
X15335357Y14991737D01*
X15335359Y14991735D01*
X15335360Y14991735D01*
X15567375Y14838235D01*
X15819264Y14720155D01*
X15819274Y14720151D01*
X16085659Y14640007D01*
X16085661Y14640006D01*
X16236075Y14617870D01*
X16360901Y14599500D01*
X16360902Y14599500D01*
X16569463Y14599500D01*
X16777445Y14614722D01*
X16777450Y14614722D01*
X16777455Y14614723D01*
X17048997Y14675212D01*
X17308838Y14774592D01*
X17308839Y14774592D01*
X17308843Y14774594D01*
X17551436Y14910745D01*
X17551440Y14910747D01*
X17771632Y15080774D01*
X17964722Y15281049D01*
X17973481Y15293291D01*
X18118144Y15495495D01*
X18126593Y15507304D01*
X18189000Y15628686D01*
X18253793Y15754709D01*
X18253797Y15754717D01*
X18314040Y15931305D01*
X18343621Y16018012D01*
X18370214Y16161988D01*
X18394152Y16291584D01*
X18404313Y16569596D01*
X18373886Y16846124D01*
X18303520Y17115276D01*
X18194716Y17371314D01*
X18049792Y17608781D01*
X17871837Y17822617D01*
X17664643Y18008263D01*
X17432627Y18161763D01*
X17180733Y18279846D01*
X16914331Y18359995D01*
X16639099Y18400500D01*
X16430537Y18400500D01*
X16222545Y18385277D01*
X15951003Y18324788D01*
X15691162Y18225408D01*
X15691157Y18225405D01*
X15691156Y18225405D01*
X15606363Y18177816D01*
X15448560Y18089253D01*
X15228368Y17919226D01*
X15135227Y17822619D01*
X15035279Y17718952D01*
X15035271Y17718942D01*
X14873409Y17492699D01*
X14873407Y17492697D01*
X14746206Y17245290D01*
X14746201Y17245276D01*
X14656378Y16981987D01*
X14605847Y16708412D01*
X14595687Y16430404D01*
X5150500Y16430404D01*
X5150500Y17454184D01*
X5150600Y17456667D01*
X5155201Y17513167D01*
X5144325Y17592991D01*
X5144226Y17593795D01*
X5142596Y17608782D01*
X5140680Y17626408D01*
X5140500Y17629734D01*
X5140500Y20054184D01*
X5140600Y20056667D01*
X5145201Y20113167D01*
X5134324Y20192996D01*
X5134231Y20193749D01*
X5125514Y20273910D01*
X5123664Y20279400D01*
X5121008Y20290733D01*
X5120989Y20290865D01*
X5120227Y20296468D01*
X5092421Y20372153D01*
X5092190Y20372808D01*
X5066444Y20449221D01*
X5063460Y20454178D01*
X5058432Y20464670D01*
X5056432Y20470116D01*
X5013007Y20538050D01*
X5012608Y20538696D01*
X5012602Y20538706D01*
X4971070Y20607736D01*
X4967077Y20611950D01*
X4959914Y20621114D01*
X4956799Y20625989D01*
X4954450Y20628337D01*
X4944998Y20640523D01*
X4930119Y20665683D01*
X4930118Y20665685D01*
X4930117Y20665687D01*
X4815687Y20780117D01*
X4676395Y20862494D01*
X4654477Y20868861D01*
X4634268Y20874733D01*
X4624104Y20878692D01*
X4575021Y20903036D01*
X4395495Y20947684D01*
X4210579Y20952693D01*
X4210575Y20952692D01*
X4210568Y20952693D01*
X4028887Y20917831D01*
X4008801Y20909190D01*
X3961737Y20908553D01*
X3928006Y20941382D01*
X3923000Y20965685D01*
X3923000Y21253467D01*
X3935267Y21290322D01*
X3991294Y21365166D01*
X3991296Y21365170D01*
X4041589Y21500012D01*
X4041591Y21500017D01*
X4048000Y21559627D01*
X4047999Y22155372D01*
X4041591Y22214983D01*
X3991296Y22349831D01*
X3905046Y22465046D01*
X3789831Y22551296D01*
X3654983Y22601591D01*
X3595373Y22608000D01*
X3498479Y22607999D01*
X3475716Y22612367D01*
X3473231Y22613356D01*
X3473230Y22613358D01*
X3420553Y22634345D01*
X3418302Y22635350D01*
X3367521Y22660536D01*
X3335733Y22668441D01*
X3331809Y22669704D01*
X3301375Y22681831D01*
X3245434Y22691001D01*
X3243006Y22691502D01*
X3187995Y22705184D01*
X3155260Y22706070D01*
X3151119Y22706464D01*
X3118817Y22711760D01*
X3062213Y22708690D01*
X3059748Y22708657D01*
X3013279Y22709916D01*
X3003077Y22710193D01*
X3003074Y22710192D01*
X3003068Y22710193D01*
X2970908Y22704022D01*
X2966782Y22703517D01*
X2934093Y22701745D01*
X2879445Y22686572D01*
X2877067Y22686015D01*
X2821387Y22675331D01*
X2797764Y22665169D01*
X2791315Y22662395D01*
X2787389Y22661013D01*
X2755841Y22652254D01*
X2736071Y22641772D01*
X2705760Y22625703D01*
X2703507Y22624623D01*
X2676497Y22613004D01*
X2652195Y22607999D01*
X2549628Y22607999D01*
X2490017Y22601591D01*
X2490014Y22601590D01*
X2471472Y22594674D01*
X2355169Y22551296D01*
X2239954Y22465046D01*
X2153704Y22349831D01*
X2103409Y22214983D01*
X2103409Y22214981D01*
X2097000Y22155371D01*
X2097000Y21559627D01*
X-7152000Y21559627D01*
X-7152000Y21559628D01*
X-7152000Y22155372D01*
X-7158408Y22214981D01*
X-7158409Y22214985D01*
X-7208703Y22349828D01*
X-7208705Y22349833D01*
X-7251501Y22407000D01*
X-7294954Y22465046D01*
X-7410169Y22551296D01*
X-7545017Y22601591D01*
X-7604627Y22608000D01*
X-7701517Y22607999D01*
X-7724280Y22612366D01*
X-7731560Y22615266D01*
X-7779436Y22634341D01*
X-7781696Y22635350D01*
X-7832479Y22660536D01*
X-7857090Y22666656D01*
X-7864247Y22668437D01*
X-7868207Y22669711D01*
X-7898625Y22681831D01*
X-7954564Y22691001D01*
X-7956996Y22691503D01*
X-7960653Y22692412D01*
X-8012005Y22705184D01*
X-8012003Y22705184D01*
X-8016471Y22705304D01*
X-8044737Y22706070D01*
X-8048878Y22706464D01*
X-8062055Y22708624D01*
X-8081183Y22711760D01*
X-8137785Y22708690D01*
X-8140250Y22708657D01*
X-8185580Y22709885D01*
X-8196922Y22710193D01*
X-8196924Y22710192D01*
X-8196932Y22710193D01*
X-8229092Y22704021D01*
X-8233214Y22703517D01*
X-8265907Y22701745D01*
X-8320547Y22686573D01*
X-8322937Y22686014D01*
X-8378613Y22675331D01*
X-8408677Y22662397D01*
X-8412604Y22661015D01*
X-8414336Y22660534D01*
X-8444159Y22652254D01*
X-8494257Y22625692D01*
X-8496467Y22624633D01*
X-8522679Y22613358D01*
X-8523504Y22613003D01*
X-8547804Y22607999D01*
X-8650372Y22607999D01*
X-8709983Y22601591D01*
X-8844831Y22551296D01*
X-8960046Y22465046D01*
X-9046296Y22349831D01*
X-9096591Y22214983D01*
X-9103000Y22155373D01*
X-19000000Y22155373D01*
X-19000000Y31000000D01*
X-8025300Y31000000D01*
X-8006140Y30793227D01*
X-7953527Y30608312D01*
X-7949310Y30593493D01*
X-7949310Y30593491D01*
X-7887517Y30469398D01*
X-7856749Y30407606D01*
X-7856745Y30407601D01*
X-7742922Y30256872D01*
X-7730500Y30219810D01*
X-7730500Y25353879D01*
X-7730499Y25353877D01*
X-7715514Y25216090D01*
X-7656444Y25040779D01*
X-7561070Y24882264D01*
X-7561066Y24882260D01*
X-7558923Y24879998D01*
X-7550637Y24869012D01*
X-7530117Y24834313D01*
X-7415687Y24719883D01*
X-7276395Y24637506D01*
X-7276393Y24637505D01*
X-7276391Y24637504D01*
X-7250320Y24629930D01*
X-7232314Y24624699D01*
X-7229531Y24623743D01*
X-7108875Y24575669D01*
X-6926317Y24545740D01*
X-6926316Y24545740D01*
X-6835328Y24550672D01*
X-6790930Y24535039D01*
X-6770590Y24492590D01*
X-6770500Y24489262D01*
X-6770500Y24199362D01*
X-6772318Y24184519D01*
X-6775184Y24172995D01*
X-6775341Y24167198D01*
X-6776754Y24155652D01*
X-6778000Y24149997D01*
X-6778000Y24149995D01*
X-6778000Y24149993D01*
X-6778000Y24069431D01*
X-6778010Y24068650D01*
X-6779445Y24015686D01*
X-6780193Y23988068D01*
X-6779103Y23982389D01*
X-6777999Y23970801D01*
X-6777999Y23825510D01*
X-6777999Y23761531D01*
X-6790267Y23724675D01*
X-6846296Y23649831D01*
X-6896591Y23514983D01*
X-6903000Y23455373D01*
X-6902999Y22859628D01*
X-6896591Y22800017D01*
X-6846296Y22665169D01*
X-6846294Y22665166D01*
X-6843184Y22661012D01*
X-6760046Y22549954D01*
X-6742056Y22536487D01*
X-6644833Y22463705D01*
X-6644831Y22463704D01*
X-6644828Y22463703D01*
X-6509987Y22413410D01*
X-6509985Y22413409D01*
X-6509983Y22413409D01*
X-6450373Y22407000D01*
X-6353479Y22407000D01*
X-6330716Y22402632D01*
X-6156381Y22333171D01*
X-6156377Y22333170D01*
X-6156375Y22333169D01*
X-5973817Y22303240D01*
X-5973816Y22303240D01*
X-5881455Y22308247D01*
X-5789093Y22313255D01*
X-5789091Y22313255D01*
X-5789088Y22313256D01*
X-5610841Y22362745D01*
X-5610839Y22362746D01*
X-5540880Y22399836D01*
X-5512074Y22407000D01*
X-5404627Y22407000D01*
X-5345018Y22413408D01*
X-5345014Y22413409D01*
X-5210171Y22463703D01*
X-5210166Y22463705D01*
X-5094954Y22549954D01*
X-5008705Y22665166D01*
X-5008703Y22665171D01*
X-4958410Y22800012D01*
X-4952000Y22859628D01*
X-4952000Y23455372D01*
X-4958027Y23511427D01*
X-4944765Y23556590D01*
X-4903452Y23579148D01*
X-4896879Y23579500D01*
X-4734478Y23579500D01*
X-4734472Y23579500D01*
X-4683740Y23586891D01*
X-4666828Y23589355D01*
X-4562487Y23640364D01*
X-4480363Y23722489D01*
X-4471798Y23740011D01*
X-4436516Y23771168D01*
X-4416547Y23774500D01*
X-4383453Y23774500D01*
X-4339966Y23756487D01*
X-4328202Y23740011D01*
X-4319636Y23722489D01*
X-4237512Y23640364D01*
X-4133171Y23589355D01*
X-4123506Y23587947D01*
X-4065528Y23579500D01*
X-4065522Y23579500D01*
X-3704478Y23579500D01*
X-3704472Y23579500D01*
X-3653740Y23586891D01*
X-3636828Y23589355D01*
X-3532487Y23640364D01*
X-3450361Y23722491D01*
X-3450046Y23722933D01*
X-3449710Y23723142D01*
X-3446761Y23726092D01*
X-3446078Y23725409D01*
X-3410113Y23747852D01*
X-3364256Y23737235D01*
X-3349949Y23722926D01*
X-3349637Y23722489D01*
X-3267509Y23640362D01*
X-3266257Y23639468D01*
X-3265662Y23638515D01*
X-3263908Y23636761D01*
X-3264314Y23636354D01*
X-3241337Y23599536D01*
X-3240500Y23589421D01*
X-3240500Y23354716D01*
X-3258513Y23311229D01*
X-3266724Y23304339D01*
X-3268313Y23303225D01*
X-3268316Y23303224D01*
X-3348026Y23223513D01*
X-3348027Y23223513D01*
X-3391514Y23205500D01*
X-3508486Y23205500D01*
X-3551973Y23223513D01*
X-3631684Y23303224D01*
X-3674499Y23323189D01*
X-3740513Y23353972D01*
X-3790099Y23360500D01*
X-4209900Y23360499D01*
X-4259487Y23353972D01*
X-4368316Y23303224D01*
X-4453224Y23218316D01*
X-4503972Y23109487D01*
X-4510500Y23059901D01*
X-4510499Y22859628D01*
X-4510499Y22700104D01*
X-4510498Y22700091D01*
X-4506331Y22668437D01*
X-4503972Y22650513D01*
X-4492403Y22625703D01*
X-4453224Y22541684D01*
X-4368315Y22456775D01*
X-4259485Y22406027D01*
X-4209902Y22399500D01*
X-4209901Y22399500D01*
X-3790104Y22399500D01*
X-3790091Y22399501D01*
X-3740513Y22406027D01*
X-3740511Y22406028D01*
X-3631684Y22456775D01*
X-3551973Y22536487D01*
X-3508486Y22554500D01*
X-3391514Y22554500D01*
X-3348027Y22536487D01*
X-3268315Y22456775D01*
X-3159485Y22406027D01*
X-3109902Y22399500D01*
X-3109901Y22399500D01*
X-2690104Y22399500D01*
X-2690091Y22399501D01*
X-2640513Y22406027D01*
X-2640511Y22406028D01*
X-2531684Y22456775D01*
X-2451973Y22536487D01*
X-2408486Y22554500D01*
X-2291514Y22554500D01*
X-2248027Y22536487D01*
X-2168315Y22456775D01*
X-2059485Y22406027D01*
X-2009902Y22399500D01*
X-2009901Y22399500D01*
X-1590104Y22399500D01*
X-1590091Y22399501D01*
X-1540513Y22406027D01*
X-1540511Y22406028D01*
X-1431684Y22456775D01*
X-1346775Y22541684D01*
X-1296027Y22650514D01*
X-1289500Y22700093D01*
X-1289500Y23059895D01*
X-1289501Y23059908D01*
X-1296027Y23109486D01*
X-1296028Y23109488D01*
X-1346775Y23218315D01*
X-1431681Y23303221D01*
X-1431684Y23303224D01*
X-1438989Y23306630D01*
X-1470790Y23341330D01*
X-1474500Y23362368D01*
X-1474500Y23711152D01*
X-1456487Y23754639D01*
X-1438992Y23766889D01*
X-1419599Y23775932D01*
X-1419592Y23775937D01*
X-1335934Y23859596D01*
X-1285931Y23966828D01*
X-1279500Y24015677D01*
X-1279500Y24364322D01*
X-1285931Y24413171D01*
X-1335934Y24520403D01*
X-1419596Y24604065D01*
X-1505798Y24644262D01*
X-1537598Y24678966D01*
X-1535545Y24725991D01*
X-1505798Y24755738D01*
X-1419596Y24795934D01*
X-1335934Y24879596D01*
X-1285931Y24986828D01*
X-1279500Y25035677D01*
X-1279500Y25384322D01*
X-1285931Y25433171D01*
X-1335934Y25540403D01*
X-1419596Y25624065D01*
X-1526827Y25674068D01*
X-1575684Y25680500D01*
X-1575687Y25680500D01*
X-1607863Y25680500D01*
X-1651350Y25698513D01*
X-1655945Y25703655D01*
X-1680116Y25733964D01*
X-1680117Y25733965D01*
X-1680121Y25733970D01*
X-1728821Y25767173D01*
X-1729731Y25767820D01*
X-1745560Y25779502D01*
X-1777118Y25802793D01*
X-1777580Y25802954D01*
X-1791918Y25810193D01*
X-1792325Y25810471D01*
X-1792327Y25810472D01*
X-1848628Y25827837D01*
X-1849673Y25828180D01*
X-1905301Y25847646D01*
X-1905788Y25847664D01*
X-1921620Y25850352D01*
X-1922098Y25850500D01*
X-1922101Y25850500D01*
X-1980998Y25850500D01*
X-1982123Y25850520D01*
X-2041010Y25852724D01*
X-2041284Y25852650D01*
X-2041489Y25852596D01*
X-2057406Y25850500D01*
X-2562208Y25850500D01*
X-2588199Y25856262D01*
X-2690513Y25903972D01*
X-2740099Y25910500D01*
X-3099900Y25910499D01*
X-3149487Y25903972D01*
X-3258316Y25853224D01*
X-3343224Y25768316D01*
X-3393972Y25659487D01*
X-3400500Y25609901D01*
X-3400499Y25384322D01*
X-3400499Y25190104D01*
X-3400498Y25190091D01*
X-3393972Y25140513D01*
X-3393971Y25140511D01*
X-3345598Y25036775D01*
X-3340462Y25002033D01*
X-3355133Y24900000D01*
X-3336697Y24771774D01*
X-3282882Y24653937D01*
X-3274499Y24644262D01*
X-3269464Y24638452D01*
X-3254600Y24593790D01*
X-3272456Y24554691D01*
X-3349636Y24477511D01*
X-3349636Y24477510D01*
X-3349945Y24477078D01*
X-3350277Y24476870D01*
X-3353240Y24473908D01*
X-3353925Y24474593D01*
X-3389872Y24452150D01*
X-3435732Y24462755D01*
X-3450055Y24477078D01*
X-3450366Y24477514D01*
X-3532487Y24559635D01*
X-3579088Y24582417D01*
X-3636830Y24610645D01*
X-3704472Y24620500D01*
X-4065528Y24620500D01*
X-4133170Y24610645D01*
X-4237511Y24559636D01*
X-4319636Y24477511D01*
X-4321397Y24473908D01*
X-4328202Y24459989D01*
X-4363484Y24428832D01*
X-4383453Y24425500D01*
X-4416547Y24425500D01*
X-4460034Y24443513D01*
X-4471798Y24459989D01*
X-4480363Y24477510D01*
X-4562487Y24559635D01*
X-4609088Y24582417D01*
X-4666830Y24610645D01*
X-4734472Y24620500D01*
X-4734478Y24620500D01*
X-5008000Y24620500D01*
X-5051487Y24638513D01*
X-5069500Y24682000D01*
X-5069500Y25446122D01*
X-5084484Y25583904D01*
X-5143555Y25759219D01*
X-5143558Y25759224D01*
X-5148329Y25767154D01*
X-5238930Y25917736D01*
X-5241073Y25919998D01*
X-5249362Y25930987D01*
X-5269883Y25965687D01*
X-5384313Y26080117D01*
X-5523605Y26162494D01*
X-5567690Y26175301D01*
X-5570456Y26176251D01*
X-5691125Y26224331D01*
X-5873683Y26254260D01*
X-5964672Y26249326D01*
X-6009069Y26264958D01*
X-6029410Y26307406D01*
X-6029500Y26310736D01*
X-6029500Y27250570D01*
X3467306Y27250570D01*
X3468398Y27244883D01*
X3469500Y27233291D01*
X3469500Y25353877D01*
X3484484Y25216095D01*
X3543555Y25040780D01*
X3543558Y25040775D01*
X3638930Y24882262D01*
X3638932Y24882259D01*
X3641079Y24879994D01*
X3649362Y24869010D01*
X3669878Y24834318D01*
X3669883Y24834312D01*
X3784311Y24719884D01*
X3923603Y24637507D01*
X3923605Y24637506D01*
X3967674Y24624702D01*
X3970477Y24623739D01*
X4091118Y24575671D01*
X4091125Y24575669D01*
X4273683Y24545740D01*
X4364672Y24550672D01*
X4409070Y24535039D01*
X4429410Y24492590D01*
X4429500Y24489262D01*
X4429500Y24199361D01*
X4427682Y24184519D01*
X4424816Y24172995D01*
X4424815Y24172987D01*
X4424658Y24167198D01*
X4423245Y24155655D01*
X4422000Y24149995D01*
X4422000Y24069431D01*
X4421989Y24068650D01*
X4421096Y24035691D01*
X4419806Y23988070D01*
X4420898Y23982383D01*
X4422000Y23970791D01*
X4422000Y23761531D01*
X4409733Y23724675D01*
X4399609Y23711152D01*
X4353705Y23649833D01*
X4353703Y23649828D01*
X4331173Y23589421D01*
X4303409Y23514983D01*
X4303027Y23511427D01*
X4297000Y23455371D01*
X4297000Y22859627D01*
X4303408Y22800018D01*
X4303409Y22800014D01*
X4353703Y22665171D01*
X4353705Y22665166D01*
X4439954Y22549954D01*
X4555166Y22463705D01*
X4555171Y22463703D01*
X4690012Y22413410D01*
X4690015Y22413409D01*
X4690017Y22413409D01*
X4749627Y22407000D01*
X4846521Y22407000D01*
X4869284Y22402632D01*
X5043618Y22333171D01*
X5043625Y22333169D01*
X5226182Y22303240D01*
X5226183Y22303240D01*
X5410907Y22313255D01*
X5410911Y22313256D01*
X5589158Y22362745D01*
X5589159Y22362746D01*
X5659118Y22399836D01*
X5687924Y22407000D01*
X5795372Y22407000D01*
X5854981Y22413408D01*
X5854985Y22413409D01*
X5989828Y22463703D01*
X5989831Y22463704D01*
X5989833Y22463705D01*
X6087056Y22536487D01*
X6105046Y22549954D01*
X6188184Y22661012D01*
X6191294Y22665166D01*
X6191296Y22665169D01*
X6241591Y22800017D01*
X6248000Y22859627D01*
X6247999Y23455372D01*
X6241973Y23511427D01*
X6255235Y23556590D01*
X6296548Y23579148D01*
X6303121Y23579500D01*
X6465522Y23579500D01*
X6465528Y23579500D01*
X6523506Y23587947D01*
X6533171Y23589355D01*
X6637512Y23640364D01*
X6719636Y23722489D01*
X6728202Y23740011D01*
X6763484Y23771168D01*
X6783453Y23774500D01*
X6816547Y23774500D01*
X6860034Y23756487D01*
X6871798Y23740011D01*
X6880363Y23722489D01*
X6962487Y23640364D01*
X7066828Y23589355D01*
X7083740Y23586891D01*
X7134472Y23579500D01*
X7134478Y23579500D01*
X7495522Y23579500D01*
X7495528Y23579500D01*
X7553506Y23587947D01*
X7563171Y23589355D01*
X7667512Y23640364D01*
X7749635Y23722488D01*
X7749950Y23722929D01*
X7750285Y23723138D01*
X7753239Y23726092D01*
X7753922Y23725408D01*
X7789881Y23747852D01*
X7835739Y23737240D01*
X7850050Y23722929D01*
X7850364Y23722488D01*
X7932490Y23640362D01*
X7933743Y23639468D01*
X7934337Y23638515D01*
X7936092Y23636761D01*
X7935685Y23636354D01*
X7958663Y23599536D01*
X7959500Y23589421D01*
X7959500Y23354716D01*
X7941487Y23311229D01*
X7933276Y23304339D01*
X7931684Y23303224D01*
X7851973Y23223513D01*
X7808486Y23205500D01*
X7691514Y23205500D01*
X7648027Y23223513D01*
X7648026Y23223513D01*
X7568316Y23303224D01*
X7459487Y23353972D01*
X7409901Y23360500D01*
X6990100Y23360499D01*
X6990094Y23360498D01*
X6990091Y23360498D01*
X6940513Y23353972D01*
X6940511Y23353971D01*
X6831684Y23303224D01*
X6746775Y23218315D01*
X6696027Y23109485D01*
X6689500Y23059906D01*
X6689500Y22700104D01*
X6689501Y22700091D01*
X6696027Y22650513D01*
X6696028Y22650511D01*
X6746775Y22541684D01*
X6831684Y22456775D01*
X6940514Y22406027D01*
X6990097Y22399500D01*
X6990099Y22399500D01*
X7409895Y22399500D01*
X7409908Y22399501D01*
X7459486Y22406027D01*
X7459488Y22406028D01*
X7568315Y22456775D01*
X7648027Y22536487D01*
X7691514Y22554500D01*
X7808486Y22554500D01*
X7851973Y22536487D01*
X7931684Y22456775D01*
X8040514Y22406027D01*
X8090097Y22399500D01*
X8090099Y22399500D01*
X8509895Y22399500D01*
X8509908Y22399501D01*
X8559486Y22406027D01*
X8559488Y22406028D01*
X8668315Y22456775D01*
X8748027Y22536487D01*
X8791514Y22554500D01*
X8908486Y22554500D01*
X8951973Y22536487D01*
X9031684Y22456775D01*
X9140514Y22406027D01*
X9190097Y22399500D01*
X9190099Y22399500D01*
X9609895Y22399500D01*
X9609908Y22399501D01*
X9659486Y22406027D01*
X9659488Y22406028D01*
X9768315Y22456775D01*
X9853224Y22541684D01*
X9881158Y22601589D01*
X9903972Y22650513D01*
X9910500Y22700099D01*
X9910499Y23059900D01*
X9903972Y23109487D01*
X9853224Y23218316D01*
X9768316Y23303224D01*
X9761010Y23306630D01*
X9729210Y23341330D01*
X9725500Y23362368D01*
X9725500Y23711152D01*
X9743513Y23754639D01*
X9761008Y23766889D01*
X9780400Y23775932D01*
X9780407Y23775937D01*
X9864065Y23859596D01*
X9914068Y23966828D01*
X9920499Y24015677D01*
X9920500Y24015686D01*
X9920500Y24364313D01*
X9920499Y24364322D01*
X9914068Y24413171D01*
X9914068Y24413173D01*
X9864065Y24520404D01*
X9780404Y24604065D01*
X9694200Y24644262D01*
X9662401Y24678966D01*
X9664454Y24725991D01*
X9694200Y24755737D01*
X9731718Y24773232D01*
X9780403Y24795934D01*
X9864065Y24879596D01*
X9914068Y24986828D01*
X9916070Y25002031D01*
X9920500Y25035684D01*
X9920500Y25384316D01*
X9914068Y25433173D01*
X9864065Y25540404D01*
X9780404Y25624065D01*
X9673173Y25674068D01*
X9624316Y25680500D01*
X9624313Y25680500D01*
X9592136Y25680500D01*
X9548649Y25698513D01*
X9544052Y25703657D01*
X9519879Y25733970D01*
X9482842Y25759221D01*
X9471192Y25767163D01*
X9470267Y25767820D01*
X9422882Y25802793D01*
X9422426Y25802952D01*
X9408077Y25810196D01*
X9407673Y25810472D01*
X9351303Y25827858D01*
X9350346Y25828173D01*
X9294699Y25847646D01*
X9294211Y25847664D01*
X9278366Y25850356D01*
X9277902Y25850500D01*
X9219002Y25850500D01*
X9217876Y25850520D01*
X9158990Y25852724D01*
X9158815Y25852677D01*
X9158511Y25852596D01*
X9142594Y25850500D01*
X8637792Y25850500D01*
X8611801Y25856262D01*
X8509487Y25903972D01*
X8459901Y25910500D01*
X8100100Y25910499D01*
X8100094Y25910498D01*
X8100091Y25910498D01*
X8050513Y25903972D01*
X8050511Y25903971D01*
X7941684Y25853224D01*
X7856775Y25768315D01*
X7806027Y25659485D01*
X7799500Y25609906D01*
X7799500Y25190104D01*
X7799501Y25190091D01*
X7806027Y25140513D01*
X7806028Y25140511D01*
X7854401Y25036776D01*
X7859537Y25002033D01*
X7844867Y24900000D01*
X7844867Y24899999D01*
X7863303Y24771773D01*
X7863304Y24771769D01*
X7917116Y24653939D01*
X7917118Y24653936D01*
X7930537Y24638449D01*
X7945399Y24593787D01*
X7927543Y24554691D01*
X7850366Y24477514D01*
X7850055Y24477078D01*
X7849722Y24476870D01*
X7846760Y24473908D01*
X7846074Y24474593D01*
X7810128Y24452150D01*
X7764268Y24462755D01*
X7749945Y24477078D01*
X7749636Y24477510D01*
X7749636Y24477511D01*
X7667511Y24559636D01*
X7563170Y24610645D01*
X7495528Y24620500D01*
X7134472Y24620500D01*
X7066830Y24610645D01*
X7009089Y24582417D01*
X6962487Y24559635D01*
X6880363Y24477510D01*
X6871798Y24459989D01*
X6836516Y24428832D01*
X6816547Y24425500D01*
X6783453Y24425500D01*
X6739966Y24443513D01*
X6728202Y24459989D01*
X6721397Y24473908D01*
X6719636Y24477511D01*
X6637511Y24559636D01*
X6533170Y24610645D01*
X6465528Y24620500D01*
X6465522Y24620500D01*
X6192000Y24620500D01*
X6148513Y24638513D01*
X6130500Y24682000D01*
X6130500Y25446120D01*
X6130499Y25446122D01*
X6115515Y25583904D01*
X6115514Y25583905D01*
X6115514Y25583910D01*
X6056444Y25759221D01*
X5961070Y25917736D01*
X5958925Y25919999D01*
X5950637Y25930987D01*
X5930117Y25965687D01*
X5815687Y26080117D01*
X5676395Y26162494D01*
X5632302Y26175303D01*
X5629548Y26176249D01*
X5508875Y26224331D01*
X5326317Y26254260D01*
X5235327Y26249326D01*
X5190931Y26264958D01*
X5170590Y26307406D01*
X5170500Y26310736D01*
X5170500Y26942237D01*
X5188513Y26985724D01*
X5453359Y27250570D01*
X6276075Y28073287D01*
X6277901Y28074969D01*
X6321100Y28111663D01*
X6369843Y28175784D01*
X6370356Y28176441D01*
X6420844Y28239250D01*
X6423415Y28244435D01*
X6429553Y28254331D01*
X6433054Y28258936D01*
X6466883Y28332058D01*
X6467243Y28332809D01*
X6503037Y28404979D01*
X6504433Y28410593D01*
X6508299Y28421573D01*
X6510730Y28426828D01*
X6510730Y28426829D01*
X6510732Y28426833D01*
X6528055Y28505535D01*
X6528236Y28506307D01*
X6547684Y28584506D01*
X6547840Y28590302D01*
X6549255Y28601847D01*
X6550500Y28607503D01*
X6550499Y28688067D01*
X6550509Y28688850D01*
X6552693Y28769432D01*
X6551601Y28775117D01*
X6550500Y28786706D01*
X6550500Y30246295D01*
X6562922Y30283357D01*
X6656745Y30407601D01*
X6656749Y30407606D01*
X6687517Y30469398D01*
X6749310Y30593491D01*
X6749310Y30593493D01*
X6753527Y30608312D01*
X6806140Y30793227D01*
X6825300Y31000000D01*
X6806140Y31206773D01*
X6749311Y31406505D01*
X6745171Y31414819D01*
X6714495Y31476425D01*
X6656749Y31592394D01*
X6531607Y31758110D01*
X6378145Y31898009D01*
X6201589Y32007327D01*
X6007953Y32082342D01*
X5803830Y32120500D01*
X5596170Y32120500D01*
X5392047Y32082342D01*
X5198411Y32007327D01*
X5060253Y31921784D01*
X5021853Y31898008D01*
X4868392Y31758109D01*
X4743253Y31592398D01*
X4743249Y31592390D01*
X4650689Y31406508D01*
X4650689Y31406506D01*
X4593861Y31206779D01*
X4593860Y31206773D01*
X4574700Y31000000D01*
X4593860Y30793226D01*
X4593861Y30793220D01*
X4650689Y30593493D01*
X4650689Y30593491D01*
X4743249Y30407609D01*
X4743254Y30407601D01*
X4837078Y30283357D01*
X4849500Y30246295D01*
X4849500Y29077763D01*
X4831487Y29034276D01*
X3743916Y27946705D01*
X3742091Y27945024D01*
X3698899Y27908336D01*
X3650155Y27844214D01*
X3649666Y27843588D01*
X3617745Y27803878D01*
X3599156Y27780752D01*
X3596578Y27775554D01*
X3590446Y27765668D01*
X3586947Y27761065D01*
X3586943Y27761059D01*
X3553110Y27687930D01*
X3552750Y27687179D01*
X3516965Y27615025D01*
X3515569Y27609410D01*
X3511701Y27598427D01*
X3509270Y27593173D01*
X3509268Y27593169D01*
X3509268Y27593167D01*
X3491940Y27514449D01*
X3491758Y27513673D01*
X3472315Y27435495D01*
X3472315Y27435494D01*
X3472158Y27429698D01*
X3470745Y27418155D01*
X3469500Y27412495D01*
X3469500Y27331931D01*
X3469489Y27331150D01*
X3468596Y27298191D01*
X3467306Y27250570D01*
X-6029500Y27250570D01*
X-6029500Y30272780D01*
X-6017078Y30309842D01*
X-5943253Y30407601D01*
X-5943249Y30407609D01*
X-5850689Y30593491D01*
X-5850689Y30593493D01*
X-5793861Y30793220D01*
X-5793860Y30793226D01*
X-5774700Y31000000D01*
X-5783966Y31100000D01*
X-4355133Y31100000D01*
X-4348239Y31052054D01*
X-4348018Y31050030D01*
X-4345501Y31016435D01*
X-4344166Y30998622D01*
X-4341080Y30990759D01*
X-4337453Y30977035D01*
X-4336697Y30971773D01*
X-4315231Y30924771D01*
X-4314578Y30923231D01*
X-4302320Y30891999D01*
X-4294552Y30872206D01*
X-4291479Y30868353D01*
X-4283624Y30855563D01*
X-4282882Y30853937D01*
X-4282880Y30853935D01*
X-4246886Y30812395D01*
X-4246108Y30811460D01*
X-4215672Y30773294D01*
X-4209880Y30766031D01*
X-4209874Y30766026D01*
X-4208736Y30765250D01*
X-4201478Y30758787D01*
X-4201371Y30758912D01*
X-4198051Y30756035D01*
X-4198049Y30756033D01*
X-4149032Y30724532D01*
X-4148388Y30724106D01*
X-4147609Y30723575D01*
X-4097672Y30689527D01*
X-4096892Y30689287D01*
X-4093186Y30687875D01*
X-4089072Y30685997D01*
X-4089069Y30685996D01*
X-4077228Y30682519D01*
X-4029853Y30668608D01*
X-3967903Y30649500D01*
X-3967902Y30649500D01*
X-3964772Y30649500D01*
X-3835228Y30649500D01*
X-3743258Y30649500D01*
X-3699771Y30631487D01*
X-3685209Y30608312D01*
X-3677793Y30587118D01*
X-3597150Y30477850D01*
X-3501976Y30407609D01*
X-3487882Y30397207D01*
X-3359701Y30352354D01*
X-3359693Y30352353D01*
X-3329273Y30349500D01*
X-3329266Y30349500D01*
X-2270727Y30349500D01*
X-2240306Y30352353D01*
X-2240298Y30352354D01*
X-2112117Y30397207D01*
X-2002850Y30477850D01*
X-1922207Y30587117D01*
X-1914791Y30608312D01*
X-1883426Y30643409D01*
X-1856742Y30649500D01*
X-1764772Y30649500D01*
X-1635228Y30649500D01*
X-1543258Y30649500D01*
X-1499771Y30631487D01*
X-1485209Y30608312D01*
X-1477793Y30587118D01*
X-1397150Y30477850D01*
X-1301976Y30407609D01*
X-1287882Y30397207D01*
X-1159701Y30352354D01*
X-1159693Y30352353D01*
X-1129273Y30349500D01*
X-1129266Y30349500D01*
X-70727Y30349500D01*
X-40306Y30352353D01*
X-40298Y30352354D01*
X87882Y30397207D01*
X101976Y30407609D01*
X197150Y30477850D01*
X277793Y30587118D01*
X285209Y30608312D01*
X316574Y30643409D01*
X343258Y30649500D01*
X435228Y30649500D01*
X564772Y30649500D01*
X656742Y30649500D01*
X700229Y30631487D01*
X714791Y30608312D01*
X722207Y30587117D01*
X802850Y30477850D01*
X912117Y30397207D01*
X1040298Y30352354D01*
X1040306Y30352353D01*
X1070727Y30349500D01*
X1070734Y30349500D01*
X2129273Y30349500D01*
X2159693Y30352353D01*
X2159701Y30352354D01*
X2287882Y30397207D01*
X2301976Y30407609D01*
X2397150Y30477850D01*
X2477793Y30587118D01*
X2485209Y30608312D01*
X2516574Y30643409D01*
X2543258Y30649500D01*
X2764770Y30649500D01*
X2764772Y30649500D01*
X2776272Y30652876D01*
X2795470Y30658512D01*
X2799552Y30659415D01*
X2834285Y30664651D01*
X2834293Y30664654D01*
X2857738Y30675944D01*
X2867093Y30679543D01*
X2889066Y30685995D01*
X2889068Y30685995D01*
X2897585Y30691469D01*
X2918764Y30705079D01*
X2922029Y30706906D01*
X2956642Y30723575D01*
X2973150Y30738891D01*
X2981727Y30745543D01*
X2998049Y30756033D01*
X3023305Y30785182D01*
X3025623Y30787580D01*
X3056194Y30815945D01*
X3065703Y30832415D01*
X3072484Y30841937D01*
X3082881Y30853936D01*
X3082882Y30853937D01*
X3100266Y30892003D01*
X3101599Y30894589D01*
X3124096Y30933555D01*
X3127544Y30948666D01*
X3131562Y30960532D01*
X3136697Y30971773D01*
X3139426Y30990759D01*
X3143122Y31016469D01*
X3143571Y31018888D01*
X3154315Y31065954D01*
X3153419Y31077903D01*
X3153872Y31091233D01*
X3155133Y31100000D01*
X3148239Y31147944D01*
X3148018Y31149968D01*
X3144166Y31201378D01*
X3141081Y31209236D01*
X3137453Y31222964D01*
X3136697Y31228224D01*
X3136696Y31228228D01*
X3115215Y31275263D01*
X3114575Y31276774D01*
X3102320Y31308000D01*
X3094552Y31327794D01*
X3091486Y31331638D01*
X3083624Y31344435D01*
X3082882Y31346063D01*
X3046835Y31387661D01*
X3046125Y31388517D01*
X3009879Y31433970D01*
X3008742Y31434744D01*
X3001486Y31441209D01*
X3001377Y31441083D01*
X2998052Y31443963D01*
X2998049Y31443967D01*
X2949013Y31475478D01*
X2948391Y31475890D01*
X2897673Y31510472D01*
X2896891Y31510712D01*
X2893170Y31512129D01*
X2889078Y31513997D01*
X2889069Y31514004D01*
X2829865Y31531387D01*
X2767902Y31550500D01*
X2767900Y31550500D01*
X2481077Y31550500D01*
X2437590Y31568513D01*
X2431594Y31575480D01*
X2430783Y31576577D01*
X2397150Y31622150D01*
X2287882Y31702793D01*
X2159699Y31747646D01*
X2145653Y31748963D01*
X2129273Y31750500D01*
X2129266Y31750500D01*
X1070734Y31750500D01*
X1070727Y31750500D01*
X1052981Y31748835D01*
X1040301Y31747646D01*
X912118Y31702793D01*
X802850Y31622150D01*
X780892Y31592398D01*
X768406Y31575480D01*
X728089Y31551187D01*
X718923Y31550500D01*
X281077Y31550500D01*
X237590Y31568513D01*
X231594Y31575480D01*
X230783Y31576577D01*
X197150Y31622150D01*
X87882Y31702793D01*
X-40301Y31747646D01*
X-52981Y31748835D01*
X-70727Y31750500D01*
X-70734Y31750500D01*
X-1129266Y31750500D01*
X-1129273Y31750500D01*
X-1145653Y31748963D01*
X-1159699Y31747646D01*
X-1287882Y31702793D01*
X-1397150Y31622150D01*
X-1430783Y31576577D01*
X-1431594Y31575480D01*
X-1471911Y31551187D01*
X-1481077Y31550500D01*
X-1918923Y31550500D01*
X-1962410Y31568513D01*
X-1968406Y31575480D01*
X-1980892Y31592398D01*
X-2002850Y31622150D01*
X-2112118Y31702793D01*
X-2240301Y31747646D01*
X-2252981Y31748835D01*
X-2270727Y31750500D01*
X-2270734Y31750500D01*
X-3329266Y31750500D01*
X-3329273Y31750500D01*
X-3345653Y31748963D01*
X-3359699Y31747646D01*
X-3487882Y31702793D01*
X-3597150Y31622150D01*
X-3630783Y31576577D01*
X-3631594Y31575480D01*
X-3671911Y31551187D01*
X-3681077Y31550500D01*
X-3835228Y31550500D01*
X-3964772Y31550500D01*
X-3995475Y31541484D01*
X-3999557Y31540582D01*
X-4034287Y31535348D01*
X-4057748Y31524048D01*
X-4067086Y31520457D01*
X-4089069Y31514004D01*
X-4118765Y31494918D01*
X-4122030Y31493092D01*
X-4156642Y31476425D01*
X-4171699Y31462453D01*
X-4173151Y31461107D01*
X-4181733Y31454452D01*
X-4198049Y31443967D01*
X-4223314Y31414806D01*
X-4225631Y31412412D01*
X-4256194Y31384055D01*
X-4265701Y31367586D01*
X-4272478Y31358069D01*
X-4282882Y31346063D01*
X-4300264Y31308000D01*
X-4301599Y31305409D01*
X-4324096Y31266445D01*
X-4327544Y31251335D01*
X-4331557Y31239477D01*
X-4336697Y31228226D01*
X-4343123Y31183525D01*
X-4343570Y31181115D01*
X-4354315Y31134046D01*
X-4353419Y31122095D01*
X-4353873Y31108757D01*
X-4355133Y31100000D01*
X-5783966Y31100000D01*
X-5793860Y31206773D01*
X-5793861Y31206779D01*
X-5850689Y31406506D01*
X-5850689Y31406508D01*
X-5943249Y31592390D01*
X-5943253Y31592398D01*
X-6068392Y31758109D01*
X-6221853Y31898008D01*
X-6260253Y31921784D01*
X-6398411Y32007327D01*
X-6592047Y32082342D01*
X-6796170Y32120500D01*
X-7003830Y32120500D01*
X-7207953Y32082342D01*
X-7401589Y32007327D01*
X-7578145Y31898009D01*
X-7731607Y31758110D01*
X-7856749Y31592394D01*
X-7914495Y31476425D01*
X-7945171Y31414819D01*
X-7949311Y31406505D01*
X-8006140Y31206773D01*
X-8025300Y31000000D01*
X-19000000Y31000000D01*
X-19000000Y32838500D01*
X-18981987Y32881987D01*
X-18938500Y32900000D01*
X18938500Y32900000D01*
X18981987Y32881987D01*
G37*
%TD.AperFunction*%
%TD*%
M02*
